<?xml version="1.0" encoding="utf-8" standalone="no"?>
<!DOCTYPE svg PUBLIC "-//W3C//DTD SVG 1.1//EN"
  "http://www.w3.org/Graphics/SVG/1.1/DTD/svg11.dtd">
<!-- Created with matplotlib (https://matplotlib.org/) -->
<svg height="345.6pt" version="1.1" viewBox="0 0 460.8 345.6" width="460.8pt" xmlns="http://www.w3.org/2000/svg" xmlns:xlink="http://www.w3.org/1999/xlink">
 <metadata>
  <rdf:RDF xmlns:cc="http://creativecommons.org/ns#" xmlns:dc="http://purl.org/dc/elements/1.1/" xmlns:rdf="http://www.w3.org/1999/02/22-rdf-syntax-ns#">
   <cc:Work>
    <dc:type rdf:resource="http://purl.org/dc/dcmitype/StillImage"/>
    <dc:date>2020-11-12T22:22:14.600199</dc:date>
    <dc:format>image/svg+xml</dc:format>
    <dc:creator>
     <cc:Agent>
      <dc:title>Matplotlib v3.3.3, https://matplotlib.org/</dc:title>
     </cc:Agent>
    </dc:creator>
   </cc:Work>
  </rdf:RDF>
 </metadata>
 <defs>
  <style type="text/css">*{stroke-linecap:butt;stroke-linejoin:round;}</style>
 </defs>
 <g id="figure_1">
  <g id="patch_1">
   <path d="M 0 345.6 
L 460.8 345.6 
L 460.8 0 
L 0 0 
z
" style="fill:#ffffff;"/>
  </g>
  <g id="axes_1">
   <g id="patch_2">
    <path d="M 57.6 307.584 
L 414.72 307.584 
L 414.72 41.472 
L 57.6 41.472 
z
" style="fill:#ffffff;"/>
   </g>
   <g id="matplotlib.axis_1">
    <g id="xtick_1">
     <g id="line2d_1">
      <path clip-path="url(#p2eee34e2f2)" d="M 137.283127 307.584 
L 137.283127 41.472 
" style="fill:none;stroke:#b0b0b0;stroke-dasharray:1.85,0.8;stroke-dashoffset:0;stroke-width:0.5;"/>
     </g>
     <g id="line2d_2">
      <defs>
       <path d="M 0 0 
L 0 3.5 
" id="m16b79aad7a" style="stroke:#000000;stroke-width:0.8;"/>
      </defs>
      <g>
       <use style="stroke:#000000;stroke-width:0.8;" x="137.283127" xlink:href="#m16b79aad7a" y="307.584"/>
      </g>
     </g>
     <g id="text_1">
      <!-- 2020-03-01 -->
      <g transform="translate(126.125645 342.464116)rotate(-45)scale(0.06 -0.06)">
       <defs>
        <path d="M 19.1875 8.296875 
L 53.609375 8.296875 
L 53.609375 0 
L 7.328125 0 
L 7.328125 8.296875 
Q 12.9375 14.109375 22.625 23.890625 
Q 32.328125 33.6875 34.8125 36.53125 
Q 39.546875 41.84375 41.421875 45.53125 
Q 43.3125 49.21875 43.3125 52.78125 
Q 43.3125 58.59375 39.234375 62.25 
Q 35.15625 65.921875 28.609375 65.921875 
Q 23.96875 65.921875 18.8125 64.3125 
Q 13.671875 62.703125 7.8125 59.421875 
L 7.8125 69.390625 
Q 13.765625 71.78125 18.9375 73 
Q 24.125 74.21875 28.421875 74.21875 
Q 39.75 74.21875 46.484375 68.546875 
Q 53.21875 62.890625 53.21875 53.421875 
Q 53.21875 48.921875 51.53125 44.890625 
Q 49.859375 40.875 45.40625 35.40625 
Q 44.1875 33.984375 37.640625 27.21875 
Q 31.109375 20.453125 19.1875 8.296875 
z
" id="DejaVuSans-50"/>
        <path d="M 31.78125 66.40625 
Q 24.171875 66.40625 20.328125 58.90625 
Q 16.5 51.421875 16.5 36.375 
Q 16.5 21.390625 20.328125 13.890625 
Q 24.171875 6.390625 31.78125 6.390625 
Q 39.453125 6.390625 43.28125 13.890625 
Q 47.125 21.390625 47.125 36.375 
Q 47.125 51.421875 43.28125 58.90625 
Q 39.453125 66.40625 31.78125 66.40625 
z
M 31.78125 74.21875 
Q 44.046875 74.21875 50.515625 64.515625 
Q 56.984375 54.828125 56.984375 36.375 
Q 56.984375 17.96875 50.515625 8.265625 
Q 44.046875 -1.421875 31.78125 -1.421875 
Q 19.53125 -1.421875 13.0625 8.265625 
Q 6.59375 17.96875 6.59375 36.375 
Q 6.59375 54.828125 13.0625 64.515625 
Q 19.53125 74.21875 31.78125 74.21875 
z
" id="DejaVuSans-48"/>
        <path d="M 4.890625 31.390625 
L 31.203125 31.390625 
L 31.203125 23.390625 
L 4.890625 23.390625 
z
" id="DejaVuSans-45"/>
        <path d="M 40.578125 39.3125 
Q 47.65625 37.796875 51.625 33 
Q 55.609375 28.21875 55.609375 21.1875 
Q 55.609375 10.40625 48.1875 4.484375 
Q 40.765625 -1.421875 27.09375 -1.421875 
Q 22.515625 -1.421875 17.65625 -0.515625 
Q 12.796875 0.390625 7.625 2.203125 
L 7.625 11.71875 
Q 11.71875 9.328125 16.59375 8.109375 
Q 21.484375 6.890625 26.8125 6.890625 
Q 36.078125 6.890625 40.9375 10.546875 
Q 45.796875 14.203125 45.796875 21.1875 
Q 45.796875 27.640625 41.28125 31.265625 
Q 36.765625 34.90625 28.71875 34.90625 
L 20.21875 34.90625 
L 20.21875 43.015625 
L 29.109375 43.015625 
Q 36.375 43.015625 40.234375 45.921875 
Q 44.09375 48.828125 44.09375 54.296875 
Q 44.09375 59.90625 40.109375 62.90625 
Q 36.140625 65.921875 28.71875 65.921875 
Q 24.65625 65.921875 20.015625 65.03125 
Q 15.375 64.15625 9.8125 62.3125 
L 9.8125 71.09375 
Q 15.4375 72.65625 20.34375 73.4375 
Q 25.25 74.21875 29.59375 74.21875 
Q 40.828125 74.21875 47.359375 69.109375 
Q 53.90625 64.015625 53.90625 55.328125 
Q 53.90625 49.265625 50.4375 45.09375 
Q 46.96875 40.921875 40.578125 39.3125 
z
" id="DejaVuSans-51"/>
        <path d="M 12.40625 8.296875 
L 28.515625 8.296875 
L 28.515625 63.921875 
L 10.984375 60.40625 
L 10.984375 69.390625 
L 28.421875 72.90625 
L 38.28125 72.90625 
L 38.28125 8.296875 
L 54.390625 8.296875 
L 54.390625 0 
L 12.40625 0 
z
" id="DejaVuSans-49"/>
       </defs>
       <use xlink:href="#DejaVuSans-50"/>
       <use x="63.623047" xlink:href="#DejaVuSans-48"/>
       <use x="127.246094" xlink:href="#DejaVuSans-50"/>
       <use x="190.869141" xlink:href="#DejaVuSans-48"/>
       <use x="254.492188" xlink:href="#DejaVuSans-45"/>
       <use x="290.576172" xlink:href="#DejaVuSans-48"/>
       <use x="354.199219" xlink:href="#DejaVuSans-51"/>
       <use x="417.822266" xlink:href="#DejaVuSans-45"/>
       <use x="453.90625" xlink:href="#DejaVuSans-48"/>
       <use x="517.529297" xlink:href="#DejaVuSans-49"/>
      </g>
     </g>
    </g>
    <g id="xtick_2">
     <g id="line2d_3">
      <path clip-path="url(#p2eee34e2f2)" d="M 234.57374 307.584 
L 234.57374 41.472 
" style="fill:none;stroke:#b0b0b0;stroke-dasharray:1.85,0.8;stroke-dashoffset:0;stroke-width:0.5;"/>
     </g>
     <g id="line2d_4">
      <g>
       <use style="stroke:#000000;stroke-width:0.8;" x="234.57374" xlink:href="#m16b79aad7a" y="307.584"/>
      </g>
     </g>
     <g id="text_2">
      <!-- 2020-06-01 -->
      <g transform="translate(223.416258 342.464116)rotate(-45)scale(0.06 -0.06)">
       <defs>
        <path d="M 33.015625 40.375 
Q 26.375 40.375 22.484375 35.828125 
Q 18.609375 31.296875 18.609375 23.390625 
Q 18.609375 15.53125 22.484375 10.953125 
Q 26.375 6.390625 33.015625 6.390625 
Q 39.65625 6.390625 43.53125 10.953125 
Q 47.40625 15.53125 47.40625 23.390625 
Q 47.40625 31.296875 43.53125 35.828125 
Q 39.65625 40.375 33.015625 40.375 
z
M 52.59375 71.296875 
L 52.59375 62.3125 
Q 48.875 64.0625 45.09375 64.984375 
Q 41.3125 65.921875 37.59375 65.921875 
Q 27.828125 65.921875 22.671875 59.328125 
Q 17.53125 52.734375 16.796875 39.40625 
Q 19.671875 43.65625 24.015625 45.921875 
Q 28.375 48.1875 33.59375 48.1875 
Q 44.578125 48.1875 50.953125 41.515625 
Q 57.328125 34.859375 57.328125 23.390625 
Q 57.328125 12.15625 50.6875 5.359375 
Q 44.046875 -1.421875 33.015625 -1.421875 
Q 20.359375 -1.421875 13.671875 8.265625 
Q 6.984375 17.96875 6.984375 36.375 
Q 6.984375 53.65625 15.1875 63.9375 
Q 23.390625 74.21875 37.203125 74.21875 
Q 40.921875 74.21875 44.703125 73.484375 
Q 48.484375 72.75 52.59375 71.296875 
z
" id="DejaVuSans-54"/>
       </defs>
       <use xlink:href="#DejaVuSans-50"/>
       <use x="63.623047" xlink:href="#DejaVuSans-48"/>
       <use x="127.246094" xlink:href="#DejaVuSans-50"/>
       <use x="190.869141" xlink:href="#DejaVuSans-48"/>
       <use x="254.492188" xlink:href="#DejaVuSans-45"/>
       <use x="290.576172" xlink:href="#DejaVuSans-48"/>
       <use x="354.199219" xlink:href="#DejaVuSans-54"/>
       <use x="417.822266" xlink:href="#DejaVuSans-45"/>
       <use x="453.90625" xlink:href="#DejaVuSans-48"/>
       <use x="517.529297" xlink:href="#DejaVuSans-49"/>
      </g>
     </g>
    </g>
    <g id="xtick_3">
     <g id="line2d_5">
      <path clip-path="url(#p2eee34e2f2)" d="M 331.864353 307.584 
L 331.864353 41.472 
" style="fill:none;stroke:#b0b0b0;stroke-dasharray:1.85,0.8;stroke-dashoffset:0;stroke-width:0.5;"/>
     </g>
     <g id="line2d_6">
      <g>
       <use style="stroke:#000000;stroke-width:0.8;" x="331.864353" xlink:href="#m16b79aad7a" y="307.584"/>
      </g>
     </g>
     <g id="text_3">
      <!-- 2020-09-01 -->
      <g transform="translate(320.706871 342.464116)rotate(-45)scale(0.06 -0.06)">
       <defs>
        <path d="M 10.984375 1.515625 
L 10.984375 10.5 
Q 14.703125 8.734375 18.5 7.8125 
Q 22.3125 6.890625 25.984375 6.890625 
Q 35.75 6.890625 40.890625 13.453125 
Q 46.046875 20.015625 46.78125 33.40625 
Q 43.953125 29.203125 39.59375 26.953125 
Q 35.25 24.703125 29.984375 24.703125 
Q 19.046875 24.703125 12.671875 31.3125 
Q 6.296875 37.9375 6.296875 49.421875 
Q 6.296875 60.640625 12.9375 67.421875 
Q 19.578125 74.21875 30.609375 74.21875 
Q 43.265625 74.21875 49.921875 64.515625 
Q 56.59375 54.828125 56.59375 36.375 
Q 56.59375 19.140625 48.40625 8.859375 
Q 40.234375 -1.421875 26.421875 -1.421875 
Q 22.703125 -1.421875 18.890625 -0.6875 
Q 15.09375 0.046875 10.984375 1.515625 
z
M 30.609375 32.421875 
Q 37.25 32.421875 41.125 36.953125 
Q 45.015625 41.5 45.015625 49.421875 
Q 45.015625 57.28125 41.125 61.84375 
Q 37.25 66.40625 30.609375 66.40625 
Q 23.96875 66.40625 20.09375 61.84375 
Q 16.21875 57.28125 16.21875 49.421875 
Q 16.21875 41.5 20.09375 36.953125 
Q 23.96875 32.421875 30.609375 32.421875 
z
" id="DejaVuSans-57"/>
       </defs>
       <use xlink:href="#DejaVuSans-50"/>
       <use x="63.623047" xlink:href="#DejaVuSans-48"/>
       <use x="127.246094" xlink:href="#DejaVuSans-50"/>
       <use x="190.869141" xlink:href="#DejaVuSans-48"/>
       <use x="254.492188" xlink:href="#DejaVuSans-45"/>
       <use x="290.576172" xlink:href="#DejaVuSans-48"/>
       <use x="354.199219" xlink:href="#DejaVuSans-57"/>
       <use x="417.822266" xlink:href="#DejaVuSans-45"/>
       <use x="453.90625" xlink:href="#DejaVuSans-48"/>
       <use x="517.529297" xlink:href="#DejaVuSans-49"/>
      </g>
     </g>
    </g>
    <g id="text_4">
     <!-- Date -->
     <g transform="translate(224.209219 354.94489)scale(0.1 -0.1)">
      <defs>
       <path d="M 19.671875 64.796875 
L 19.671875 8.109375 
L 31.59375 8.109375 
Q 46.6875 8.109375 53.6875 14.9375 
Q 60.6875 21.78125 60.6875 36.53125 
Q 60.6875 51.171875 53.6875 57.984375 
Q 46.6875 64.796875 31.59375 64.796875 
z
M 9.8125 72.90625 
L 30.078125 72.90625 
Q 51.265625 72.90625 61.171875 64.09375 
Q 71.09375 55.28125 71.09375 36.53125 
Q 71.09375 17.671875 61.125 8.828125 
Q 51.171875 0 30.078125 0 
L 9.8125 0 
z
" id="DejaVuSans-68"/>
       <path d="M 34.28125 27.484375 
Q 23.390625 27.484375 19.1875 25 
Q 14.984375 22.515625 14.984375 16.5 
Q 14.984375 11.71875 18.140625 8.90625 
Q 21.296875 6.109375 26.703125 6.109375 
Q 34.1875 6.109375 38.703125 11.40625 
Q 43.21875 16.703125 43.21875 25.484375 
L 43.21875 27.484375 
z
M 52.203125 31.203125 
L 52.203125 0 
L 43.21875 0 
L 43.21875 8.296875 
Q 40.140625 3.328125 35.546875 0.953125 
Q 30.953125 -1.421875 24.3125 -1.421875 
Q 15.921875 -1.421875 10.953125 3.296875 
Q 6 8.015625 6 15.921875 
Q 6 25.140625 12.171875 29.828125 
Q 18.359375 34.515625 30.609375 34.515625 
L 43.21875 34.515625 
L 43.21875 35.40625 
Q 43.21875 41.609375 39.140625 45 
Q 35.0625 48.390625 27.6875 48.390625 
Q 23 48.390625 18.546875 47.265625 
Q 14.109375 46.140625 10.015625 43.890625 
L 10.015625 52.203125 
Q 14.9375 54.109375 19.578125 55.046875 
Q 24.21875 56 28.609375 56 
Q 40.484375 56 46.34375 49.84375 
Q 52.203125 43.703125 52.203125 31.203125 
z
" id="DejaVuSans-97"/>
       <path d="M 18.3125 70.21875 
L 18.3125 54.6875 
L 36.8125 54.6875 
L 36.8125 47.703125 
L 18.3125 47.703125 
L 18.3125 18.015625 
Q 18.3125 11.328125 20.140625 9.421875 
Q 21.96875 7.515625 27.59375 7.515625 
L 36.8125 7.515625 
L 36.8125 0 
L 27.59375 0 
Q 17.1875 0 13.234375 3.875 
Q 9.28125 7.765625 9.28125 18.015625 
L 9.28125 47.703125 
L 2.6875 47.703125 
L 2.6875 54.6875 
L 9.28125 54.6875 
L 9.28125 70.21875 
z
" id="DejaVuSans-116"/>
       <path d="M 56.203125 29.59375 
L 56.203125 25.203125 
L 14.890625 25.203125 
Q 15.484375 15.921875 20.484375 11.0625 
Q 25.484375 6.203125 34.421875 6.203125 
Q 39.59375 6.203125 44.453125 7.46875 
Q 49.3125 8.734375 54.109375 11.28125 
L 54.109375 2.78125 
Q 49.265625 0.734375 44.1875 -0.34375 
Q 39.109375 -1.421875 33.890625 -1.421875 
Q 20.796875 -1.421875 13.15625 6.1875 
Q 5.515625 13.8125 5.515625 26.8125 
Q 5.515625 40.234375 12.765625 48.109375 
Q 20.015625 56 32.328125 56 
Q 43.359375 56 49.78125 48.890625 
Q 56.203125 41.796875 56.203125 29.59375 
z
M 47.21875 32.234375 
Q 47.125 39.59375 43.09375 43.984375 
Q 39.0625 48.390625 32.421875 48.390625 
Q 24.90625 48.390625 20.390625 44.140625 
Q 15.875 39.890625 15.1875 32.171875 
z
" id="DejaVuSans-101"/>
      </defs>
      <use xlink:href="#DejaVuSans-68"/>
      <use x="77.001953" xlink:href="#DejaVuSans-97"/>
      <use x="138.28125" xlink:href="#DejaVuSans-116"/>
      <use x="177.490234" xlink:href="#DejaVuSans-101"/>
     </g>
    </g>
   </g>
   <g id="matplotlib.axis_2">
    <g id="ytick_1">
     <g id="line2d_7">
      <path clip-path="url(#p2eee34e2f2)" d="M 57.6 289.361589 
L 414.72 289.361589 
" style="fill:none;stroke:#b0b0b0;stroke-dasharray:1.85,0.8;stroke-dashoffset:0;stroke-width:0.5;"/>
     </g>
     <g id="line2d_8">
      <defs>
       <path d="M 0 0 
L -3.5 0 
" id="m5d91cc904f" style="stroke:#000000;stroke-width:0.8;"/>
      </defs>
      <g>
       <use style="stroke:#000000;stroke-width:0.8;" x="57.6" xlink:href="#m5d91cc904f" y="289.361589"/>
      </g>
     </g>
     <g id="text_5">
      <!-- 800 -->
      <g transform="translate(31.5125 293.160808)scale(0.1 -0.1)">
       <defs>
        <path d="M 31.78125 34.625 
Q 24.75 34.625 20.71875 30.859375 
Q 16.703125 27.09375 16.703125 20.515625 
Q 16.703125 13.921875 20.71875 10.15625 
Q 24.75 6.390625 31.78125 6.390625 
Q 38.8125 6.390625 42.859375 10.171875 
Q 46.921875 13.96875 46.921875 20.515625 
Q 46.921875 27.09375 42.890625 30.859375 
Q 38.875 34.625 31.78125 34.625 
z
M 21.921875 38.8125 
Q 15.578125 40.375 12.03125 44.71875 
Q 8.5 49.078125 8.5 55.328125 
Q 8.5 64.0625 14.71875 69.140625 
Q 20.953125 74.21875 31.78125 74.21875 
Q 42.671875 74.21875 48.875 69.140625 
Q 55.078125 64.0625 55.078125 55.328125 
Q 55.078125 49.078125 51.53125 44.71875 
Q 48 40.375 41.703125 38.8125 
Q 48.828125 37.15625 52.796875 32.3125 
Q 56.78125 27.484375 56.78125 20.515625 
Q 56.78125 9.90625 50.3125 4.234375 
Q 43.84375 -1.421875 31.78125 -1.421875 
Q 19.734375 -1.421875 13.25 4.234375 
Q 6.78125 9.90625 6.78125 20.515625 
Q 6.78125 27.484375 10.78125 32.3125 
Q 14.796875 37.15625 21.921875 38.8125 
z
M 18.3125 54.390625 
Q 18.3125 48.734375 21.84375 45.5625 
Q 25.390625 42.390625 31.78125 42.390625 
Q 38.140625 42.390625 41.71875 45.5625 
Q 45.3125 48.734375 45.3125 54.390625 
Q 45.3125 60.0625 41.71875 63.234375 
Q 38.140625 66.40625 31.78125 66.40625 
Q 25.390625 66.40625 21.84375 63.234375 
Q 18.3125 60.0625 18.3125 54.390625 
z
" id="DejaVuSans-56"/>
       </defs>
       <use xlink:href="#DejaVuSans-56"/>
       <use x="63.623047" xlink:href="#DejaVuSans-48"/>
       <use x="127.246094" xlink:href="#DejaVuSans-48"/>
      </g>
     </g>
    </g>
    <g id="ytick_2">
     <g id="line2d_9">
      <path clip-path="url(#p2eee34e2f2)" d="M 57.6 256.855805 
L 414.72 256.855805 
" style="fill:none;stroke:#b0b0b0;stroke-dasharray:1.85,0.8;stroke-dashoffset:0;stroke-width:0.5;"/>
     </g>
     <g id="line2d_10">
      <g>
       <use style="stroke:#000000;stroke-width:0.8;" x="57.6" xlink:href="#m5d91cc904f" y="256.855805"/>
      </g>
     </g>
     <g id="text_6">
      <!-- 1000 -->
      <g transform="translate(25.15 260.655024)scale(0.1 -0.1)">
       <use xlink:href="#DejaVuSans-49"/>
       <use x="63.623047" xlink:href="#DejaVuSans-48"/>
       <use x="127.246094" xlink:href="#DejaVuSans-48"/>
       <use x="190.869141" xlink:href="#DejaVuSans-48"/>
      </g>
     </g>
    </g>
    <g id="ytick_3">
     <g id="line2d_11">
      <path clip-path="url(#p2eee34e2f2)" d="M 57.6 224.35002 
L 414.72 224.35002 
" style="fill:none;stroke:#b0b0b0;stroke-dasharray:1.85,0.8;stroke-dashoffset:0;stroke-width:0.5;"/>
     </g>
     <g id="line2d_12">
      <g>
       <use style="stroke:#000000;stroke-width:0.8;" x="57.6" xlink:href="#m5d91cc904f" y="224.35002"/>
      </g>
     </g>
     <g id="text_7">
      <!-- 1200 -->
      <g transform="translate(25.15 228.149239)scale(0.1 -0.1)">
       <use xlink:href="#DejaVuSans-49"/>
       <use x="63.623047" xlink:href="#DejaVuSans-50"/>
       <use x="127.246094" xlink:href="#DejaVuSans-48"/>
       <use x="190.869141" xlink:href="#DejaVuSans-48"/>
      </g>
     </g>
    </g>
    <g id="ytick_4">
     <g id="line2d_13">
      <path clip-path="url(#p2eee34e2f2)" d="M 57.6 191.844236 
L 414.72 191.844236 
" style="fill:none;stroke:#b0b0b0;stroke-dasharray:1.85,0.8;stroke-dashoffset:0;stroke-width:0.5;"/>
     </g>
     <g id="line2d_14">
      <g>
       <use style="stroke:#000000;stroke-width:0.8;" x="57.6" xlink:href="#m5d91cc904f" y="191.844236"/>
      </g>
     </g>
     <g id="text_8">
      <!-- 1400 -->
      <g transform="translate(25.15 195.643455)scale(0.1 -0.1)">
       <defs>
        <path d="M 37.796875 64.3125 
L 12.890625 25.390625 
L 37.796875 25.390625 
z
M 35.203125 72.90625 
L 47.609375 72.90625 
L 47.609375 25.390625 
L 58.015625 25.390625 
L 58.015625 17.1875 
L 47.609375 17.1875 
L 47.609375 0 
L 37.796875 0 
L 37.796875 17.1875 
L 4.890625 17.1875 
L 4.890625 26.703125 
z
" id="DejaVuSans-52"/>
       </defs>
       <use xlink:href="#DejaVuSans-49"/>
       <use x="63.623047" xlink:href="#DejaVuSans-52"/>
       <use x="127.246094" xlink:href="#DejaVuSans-48"/>
       <use x="190.869141" xlink:href="#DejaVuSans-48"/>
      </g>
     </g>
    </g>
    <g id="ytick_5">
     <g id="line2d_15">
      <path clip-path="url(#p2eee34e2f2)" d="M 57.6 159.338451 
L 414.72 159.338451 
" style="fill:none;stroke:#b0b0b0;stroke-dasharray:1.85,0.8;stroke-dashoffset:0;stroke-width:0.5;"/>
     </g>
     <g id="line2d_16">
      <g>
       <use style="stroke:#000000;stroke-width:0.8;" x="57.6" xlink:href="#m5d91cc904f" y="159.338451"/>
      </g>
     </g>
     <g id="text_9">
      <!-- 1600 -->
      <g transform="translate(25.15 163.13767)scale(0.1 -0.1)">
       <use xlink:href="#DejaVuSans-49"/>
       <use x="63.623047" xlink:href="#DejaVuSans-54"/>
       <use x="127.246094" xlink:href="#DejaVuSans-48"/>
       <use x="190.869141" xlink:href="#DejaVuSans-48"/>
      </g>
     </g>
    </g>
    <g id="ytick_6">
     <g id="line2d_17">
      <path clip-path="url(#p2eee34e2f2)" d="M 57.6 126.832667 
L 414.72 126.832667 
" style="fill:none;stroke:#b0b0b0;stroke-dasharray:1.85,0.8;stroke-dashoffset:0;stroke-width:0.5;"/>
     </g>
     <g id="line2d_18">
      <g>
       <use style="stroke:#000000;stroke-width:0.8;" x="57.6" xlink:href="#m5d91cc904f" y="126.832667"/>
      </g>
     </g>
     <g id="text_10">
      <!-- 1800 -->
      <g transform="translate(25.15 130.631885)scale(0.1 -0.1)">
       <use xlink:href="#DejaVuSans-49"/>
       <use x="63.623047" xlink:href="#DejaVuSans-56"/>
       <use x="127.246094" xlink:href="#DejaVuSans-48"/>
       <use x="190.869141" xlink:href="#DejaVuSans-48"/>
      </g>
     </g>
    </g>
    <g id="ytick_7">
     <g id="line2d_19">
      <path clip-path="url(#p2eee34e2f2)" d="M 57.6 94.326882 
L 414.72 94.326882 
" style="fill:none;stroke:#b0b0b0;stroke-dasharray:1.85,0.8;stroke-dashoffset:0;stroke-width:0.5;"/>
     </g>
     <g id="line2d_20">
      <g>
       <use style="stroke:#000000;stroke-width:0.8;" x="57.6" xlink:href="#m5d91cc904f" y="94.326882"/>
      </g>
     </g>
     <g id="text_11">
      <!-- 2000 -->
      <g transform="translate(25.15 98.126101)scale(0.1 -0.1)">
       <use xlink:href="#DejaVuSans-50"/>
       <use x="63.623047" xlink:href="#DejaVuSans-48"/>
       <use x="127.246094" xlink:href="#DejaVuSans-48"/>
       <use x="190.869141" xlink:href="#DejaVuSans-48"/>
      </g>
     </g>
    </g>
    <g id="ytick_8">
     <g id="line2d_21">
      <path clip-path="url(#p2eee34e2f2)" d="M 57.6 61.821098 
L 414.72 61.821098 
" style="fill:none;stroke:#b0b0b0;stroke-dasharray:1.85,0.8;stroke-dashoffset:0;stroke-width:0.5;"/>
     </g>
     <g id="line2d_22">
      <g>
       <use style="stroke:#000000;stroke-width:0.8;" x="57.6" xlink:href="#m5d91cc904f" y="61.821098"/>
      </g>
     </g>
     <g id="text_12">
      <!-- 2200 -->
      <g transform="translate(25.15 65.620316)scale(0.1 -0.1)">
       <use xlink:href="#DejaVuSans-50"/>
       <use x="63.623047" xlink:href="#DejaVuSans-50"/>
       <use x="127.246094" xlink:href="#DejaVuSans-48"/>
       <use x="190.869141" xlink:href="#DejaVuSans-48"/>
      </g>
     </g>
    </g>
    <g id="text_13">
     <!-- Value (USD) -->
     <g transform="translate(19.070312 204.433469)rotate(-90)scale(0.1 -0.1)">
      <defs>
       <path d="M 28.609375 0 
L 0.78125 72.90625 
L 11.078125 72.90625 
L 34.1875 11.53125 
L 57.328125 72.90625 
L 67.578125 72.90625 
L 39.796875 0 
z
" id="DejaVuSans-86"/>
       <path d="M 9.421875 75.984375 
L 18.40625 75.984375 
L 18.40625 0 
L 9.421875 0 
z
" id="DejaVuSans-108"/>
       <path d="M 8.5 21.578125 
L 8.5 54.6875 
L 17.484375 54.6875 
L 17.484375 21.921875 
Q 17.484375 14.15625 20.5 10.265625 
Q 23.53125 6.390625 29.59375 6.390625 
Q 36.859375 6.390625 41.078125 11.03125 
Q 45.3125 15.671875 45.3125 23.6875 
L 45.3125 54.6875 
L 54.296875 54.6875 
L 54.296875 0 
L 45.3125 0 
L 45.3125 8.40625 
Q 42.046875 3.421875 37.71875 1 
Q 33.40625 -1.421875 27.6875 -1.421875 
Q 18.265625 -1.421875 13.375 4.4375 
Q 8.5 10.296875 8.5 21.578125 
z
M 31.109375 56 
z
" id="DejaVuSans-117"/>
       <path id="DejaVuSans-32"/>
       <path d="M 31 75.875 
Q 24.46875 64.65625 21.28125 53.65625 
Q 18.109375 42.671875 18.109375 31.390625 
Q 18.109375 20.125 21.3125 9.0625 
Q 24.515625 -2 31 -13.1875 
L 23.1875 -13.1875 
Q 15.875 -1.703125 12.234375 9.375 
Q 8.59375 20.453125 8.59375 31.390625 
Q 8.59375 42.28125 12.203125 53.3125 
Q 15.828125 64.359375 23.1875 75.875 
z
" id="DejaVuSans-40"/>
       <path d="M 8.6875 72.90625 
L 18.609375 72.90625 
L 18.609375 28.609375 
Q 18.609375 16.890625 22.84375 11.734375 
Q 27.09375 6.59375 36.625 6.59375 
Q 46.09375 6.59375 50.34375 11.734375 
Q 54.59375 16.890625 54.59375 28.609375 
L 54.59375 72.90625 
L 64.5 72.90625 
L 64.5 27.390625 
Q 64.5 13.140625 57.4375 5.859375 
Q 50.390625 -1.421875 36.625 -1.421875 
Q 22.796875 -1.421875 15.734375 5.859375 
Q 8.6875 13.140625 8.6875 27.390625 
z
" id="DejaVuSans-85"/>
       <path d="M 53.515625 70.515625 
L 53.515625 60.890625 
Q 47.90625 63.578125 42.921875 64.890625 
Q 37.9375 66.21875 33.296875 66.21875 
Q 25.25 66.21875 20.875 63.09375 
Q 16.5 59.96875 16.5 54.203125 
Q 16.5 49.359375 19.40625 46.890625 
Q 22.3125 44.4375 30.421875 42.921875 
L 36.375 41.703125 
Q 47.40625 39.59375 52.65625 34.296875 
Q 57.90625 29 57.90625 20.125 
Q 57.90625 9.515625 50.796875 4.046875 
Q 43.703125 -1.421875 29.984375 -1.421875 
Q 24.8125 -1.421875 18.96875 -0.25 
Q 13.140625 0.921875 6.890625 3.21875 
L 6.890625 13.375 
Q 12.890625 10.015625 18.65625 8.296875 
Q 24.421875 6.59375 29.984375 6.59375 
Q 38.421875 6.59375 43.015625 9.90625 
Q 47.609375 13.234375 47.609375 19.390625 
Q 47.609375 24.75 44.3125 27.78125 
Q 41.015625 30.8125 33.5 32.328125 
L 27.484375 33.5 
Q 16.453125 35.6875 11.515625 40.375 
Q 6.59375 45.0625 6.59375 53.421875 
Q 6.59375 63.09375 13.40625 68.65625 
Q 20.21875 74.21875 32.171875 74.21875 
Q 37.3125 74.21875 42.625 73.28125 
Q 47.953125 72.359375 53.515625 70.515625 
z
" id="DejaVuSans-83"/>
       <path d="M 8.015625 75.875 
L 15.828125 75.875 
Q 23.140625 64.359375 26.78125 53.3125 
Q 30.421875 42.28125 30.421875 31.390625 
Q 30.421875 20.453125 26.78125 9.375 
Q 23.140625 -1.703125 15.828125 -13.1875 
L 8.015625 -13.1875 
Q 14.5 -2 17.703125 9.0625 
Q 20.90625 20.125 20.90625 31.390625 
Q 20.90625 42.671875 17.703125 53.65625 
Q 14.5 64.65625 8.015625 75.875 
z
" id="DejaVuSans-41"/>
      </defs>
      <use xlink:href="#DejaVuSans-86"/>
      <use x="60.658203" xlink:href="#DejaVuSans-97"/>
      <use x="121.9375" xlink:href="#DejaVuSans-108"/>
      <use x="149.720703" xlink:href="#DejaVuSans-117"/>
      <use x="213.099609" xlink:href="#DejaVuSans-101"/>
      <use x="274.623047" xlink:href="#DejaVuSans-32"/>
      <use x="306.410156" xlink:href="#DejaVuSans-40"/>
      <use x="345.423828" xlink:href="#DejaVuSans-85"/>
      <use x="418.617188" xlink:href="#DejaVuSans-83"/>
      <use x="482.09375" xlink:href="#DejaVuSans-68"/>
      <use x="559.095703" xlink:href="#DejaVuSans-41"/>
     </g>
    </g>
   </g>
   <g id="line2d_23">
    <path clip-path="url(#p2eee34e2f2)" d="M 73.832727 256.855805 
L 74.890234 256.363971 
L 75.947741 261.461334 
L 77.005247 253.032453 
L 78.062754 251.998477 
L 79.120261 251.518525 
L 80.177767 239.003761 
L 81.235274 236.728675 
L 83.350287 243.595972 
L 84.407794 233.476962 
L 85.465301 236.798169 
L 86.522807 232.721123 
L 87.580314 234.87069 
L 88.637821 209.21268 
L 89.695327 209.847606 
L 90.752834 213.388642 
L 91.810341 203.730415 
L 92.867847 204.257027 
L 93.925354 210.586044 
L 94.982861 211.13195 
L 96.040367 208.676344 
L 97.097874 209.675484 
L 98.155381 217.497582 
L 99.212887 218.407587 
L 100.270394 220.716982 
L 101.327901 211.720381 
L 102.385407 206.878659 
L 103.442914 198.55602 
L 104.50042 199.789351 
L 105.557927 189.575084 
L 106.615434 195.49609 
L 107.67294 191.924033 
L 108.730447 188.844815 
L 109.787954 187.555647 
L 110.84546 187.766289 
L 111.902967 171.650469 
L 112.960474 165.696613 
L 114.01798 161.402749 
L 115.075487 160.218227 
L 116.132994 154.962374 
L 117.1905 160.277455 
L 118.248007 150.421949 
L 119.305514 133.74632 
L 120.36302 129.689425 
L 121.420527 118.872383 
L 122.478034 140.030036 
L 123.53554 143.292998 
L 124.593047 144.660088 
L 125.650554 133.293402 
L 126.70806 153.280226 
L 127.765567 155.808598 
L 128.823074 150.841662 
L 129.88058 152.47524 
L 130.938087 140.414412 
L 131.995594 150.634481 
L 133.0531 165.275859 
L 134.110607 187.358059 
L 135.168114 186.26715 
L 136.22562 186.49825 
L 137.283127 193.703432 
L 138.340634 193.071449 
L 139.39814 181.319579 
L 140.455647 186.942275 
L 141.513154 187.733189 
L 142.57066 182.138989 
L 143.628167 172.494035 
L 144.685674 180.085626 
L 145.74318 213.647179 
L 146.800687 213.28059 
L 147.858194 213.051851 
L 148.9157 216.356888 
L 149.973207 295.488 
L 151.030714 276.779614 
L 152.08822 286.299076 
L 153.145727 281.940149 
L 154.203234 293.463022 
L 155.26074 285.839816 
L 156.318247 286.128622 
L 157.375754 266.033342 
L 158.43326 269.38559 
L 159.490767 269.439532 
L 160.548274 278.223301 
L 161.60578 265.08554 
L 162.663287 260.187233 
L 163.720794 262.314006 
L 164.7783 258.018125 
L 165.835807 265.775542 
L 166.893314 265.844328 
L 167.95082 273.81972 
L 169.008327 264.815389 
L 170.065834 263.907198 
L 171.12334 260.39657 
L 172.180847 255.795256 
L 173.238354 256.014458 
L 174.29586 253.443048 
L 175.353367 255.417595 
L 176.410874 235.230868 
L 177.46838 238.768592 
L 178.525887 231.703159 
L 179.583394 234.171466 
L 180.6409 246.651614 
L 182.755914 245.866716 
L 183.81342 247.94968 
L 184.870927 247.734628 
L 185.928434 253.231515 
L 186.98594 239.29742 
L 188.043447 240.178519 
L 189.100954 229.826941 
L 190.15846 235.420612 
L 191.215967 243.609264 
L 192.273473 243.822596 
L 193.33098 235.065976 
L 194.388487 231.245017 
L 195.445993 228.277505 
L 197.561007 221.539453 
L 198.618513 221.192497 
L 199.67602 218.365422 
L 200.733527 199.428866 
L 201.791033 207.716089 
L 202.84854 202.187692 
L 203.906047 198.487111 
L 204.963553 202.103784 
L 206.02106 204.209085 
L 207.078567 204.246666 
L 208.136073 206.233984 
L 209.19358 192.793845 
L 210.251087 193.74402 
L 211.308593 196.430036 
L 212.3661 217.508791 
L 213.423607 220.852114 
L 214.481113 217.400715 
L 215.53862 208.008663 
L 216.596127 201.77842 
L 217.653633 210.785417 
L 218.71114 207.173044 
L 220.826153 197.147942 
L 221.88366 197.000461 
L 222.941167 201.606479 
L 223.998673 211.910454 
L 225.05618 207.006895 
L 226.113687 206.95542 
L 227.171193 214.361256 
L 228.2287 210.841033 
L 229.286207 213.060146 
L 230.343713 206.518924 
L 231.40122 197.624922 
L 232.458727 198.809959 
L 233.516233 185.123918 
L 234.57374 192.481575 
L 235.631247 177.87734 
L 236.688753 189.283789 
L 237.74626 185.098428 
L 238.803767 183.466985 
L 239.861273 186.576777 
L 240.91878 185.942772 
L 243.033793 183.180722 
L 244.0913 184.758554 
L 245.148807 181.827272 
L 246.206313 196.607233 
L 247.26382 192.059746 
L 248.321327 191.767691 
L 249.378833 196.069079 
L 250.43634 195.740799 
L 251.493847 193.342719 
L 252.551353 193.824933 
L 253.60886 196.036582 
L 254.666367 198.687572 
L 255.723873 197.976205 
L 256.78138 199.738921 
L 257.838887 188.657762 
L 258.896393 189.595508 
L 259.9539 197.23604 
L 261.011407 198.367769 
L 262.068913 200.369021 
L 263.12642 207.538426 
L 264.183927 204.238519 
L 265.241433 202.27407 
L 266.29894 204.247262 
L 267.356447 201.187607 
L 268.413953 204.584074 
L 269.47146 205.088415 
L 270.528967 202.254296 
L 271.586473 203.446554 
L 272.64398 192.314607 
L 273.701487 195.10584 
L 274.758993 186.614756 
L 275.8165 190.981239 
L 277.931513 192.346272 
L 278.98902 190.793992 
L 280.046527 192.988717 
L 281.104033 192.784753 
L 282.16154 194.34411 
L 283.219046 197.813973 
L 284.276553 198.182558 
L 285.33406 195.863424 
L 286.391566 193.997889 
L 287.449073 196.723939 
L 288.50658 189.717612 
L 289.564086 179.673972 
L 290.621593 174.000872 
L 291.6791 173.507434 
L 292.736606 158.308908 
L 293.794113 154.463997 
L 294.85162 138.374525 
L 295.909126 137.49444 
L 296.966633 133.744842 
L 298.02414 125.626174 
L 299.081646 116.293287 
L 300.139153 88.454755 
L 301.19666 105.580124 
L 302.254166 93.012895 
L 303.311673 94.43001 
L 304.36918 84.909943 
L 305.426686 85.551952 
L 306.484193 95.768349 
L 307.5417 89.130723 
L 308.599206 91.822122 
L 309.656713 86.648413 
L 310.71422 100.601327 
L 311.771726 95.81815 
L 312.829233 74.720047 
L 313.88674 69.905638 
L 314.944246 70.34859 
L 316.001753 67.863363 
L 317.05926 63.059107 
L 318.116766 71.966708 
L 319.174273 83.522103 
L 320.23178 77.848618 
L 321.289286 96.214438 
L 322.346793 89.724719 
L 323.4043 92.179945 
L 324.461806 82.827551 
L 325.519313 99.586745 
L 326.57682 98.208009 
L 327.634326 104.248681 
L 328.691833 95.484943 
L 329.74934 93.653583 
L 330.806846 77.023601 
L 331.864353 74.935976 
L 332.92186 53.568 
L 333.979366 77.964984 
L 335.036873 120.547716 
L 336.09438 113.092998 
L 337.151886 140.950657 
L 338.209393 132.266739 
L 339.2669 131.327208 
L 340.324406 140.343764 
L 341.381913 133.530944 
L 342.43942 125.027689 
L 343.496926 122.374619 
L 344.554433 115.011715 
L 345.61194 126.538622 
L 346.669446 118.53102 
L 347.726953 122.252636 
L 348.78446 120.462553 
L 349.841966 109.983729 
L 350.899473 112.707465 
L 351.95698 110.219355 
L 353.014486 119.026832 
L 354.071993 138.887365 
L 355.1295 136.119167 
L 356.187006 150.886596 
L 357.244513 132.793528 
L 359.359526 128.464661 
L 360.417033 126.631291 
L 361.47454 128.909749 
L 362.532046 125.048254 
L 363.589553 125.697446 
L 364.64706 129.839087 
L 365.704566 134.73963 
L 366.762073 135.043778 
L 367.81958 128.636756 
L 368.877086 126.958393 
L 369.934593 134.582585 
L 370.992099 132.941155 
L 372.049606 126.503032 
L 373.107113 118.199549 
L 374.164619 113.973975 
L 375.222126 110.912267 
L 376.279633 104.307839 
L 377.337139 106.966544 
L 378.394646 108.323829 
L 379.452153 109.237257 
L 380.509659 117.189542 
L 381.567166 116.102432 
L 382.624673 110.661762 
L 383.682179 107.249826 
L 384.739686 111.859574 
L 385.797193 91.802271 
L 386.854699 79.963536 
L 387.912206 81.790484 
L 388.969713 77.707862 
L 390.027219 81.545931 
L 391.084726 88.279479 
L 392.142233 78.249203 
L 393.199739 88.325325 
L 394.257246 89.018124 
L 395.314753 90.83535 
L 397.429766 83.656606 
L 398.487273 91.110664 
L 398.487273 91.110664 
" style="fill:none;stroke:#1f77b4;stroke-linecap:square;stroke-width:0.7;"/>
   </g>
   <g id="line2d_24">
    <path clip-path="url(#p2eee34e2f2)" d="M 73.832727 256.855805 
L 74.890234 256.363971 
L 75.947741 261.461334 
L 77.005247 253.032453 
L 78.062754 251.998477 
L 79.120261 251.518525 
L 80.177767 239.003761 
L 81.235274 236.728675 
L 83.350287 243.595972 
L 84.407794 233.476962 
L 85.465301 236.798169 
L 86.522807 232.721123 
L 87.580314 234.87069 
L 88.637821 209.21268 
L 89.695327 209.847606 
L 90.752834 213.388642 
L 91.810341 203.730415 
L 92.867847 204.257027 
L 93.925354 210.586044 
L 94.982861 211.13195 
L 96.040367 208.676344 
L 97.097874 209.675484 
L 98.155381 217.497582 
L 99.212887 218.407587 
L 100.270394 220.716982 
L 101.327901 211.720381 
L 102.385407 206.878659 
L 103.442914 198.55602 
L 104.50042 199.789351 
L 105.557927 189.575084 
L 106.615434 195.49609 
L 107.67294 191.98099 
L 108.730447 189.032981 
L 109.787954 187.817721 
L 110.84546 188.144754 
L 111.902967 172.227266 
L 112.960474 166.349265 
L 114.01798 162.140589 
L 115.075487 160.908483 
L 116.132994 155.628208 
L 117.1905 160.97795 
L 118.248007 151.174802 
L 119.305514 134.95613 
L 120.36302 131.142776 
L 121.420527 120.596068 
L 122.478034 141.397853 
L 123.53554 144.508814 
L 124.593047 146.001045 
L 125.650554 134.672778 
L 126.70806 154.42339 
L 127.765567 156.876122 
L 128.823074 151.999066 
L 129.88058 153.581626 
L 130.938087 141.672777 
L 131.995594 151.783315 
L 133.0531 166.205682 
L 134.110607 188.02619 
L 135.168114 186.988684 
L 136.22562 187.267884 
L 137.283127 194.370549 
L 138.340634 193.753419 
L 139.39814 182.244176 
L 140.455647 187.692195 
L 141.513154 188.452547 
L 142.57066 182.727131 
L 143.628167 173.714435 
L 144.685674 181.208101 
L 145.74318 213.853425 
L 147.858194 213.54404 
L 148.9157 216.504214 
L 149.973207 294.894706 
L 151.030714 276.843869 
L 152.08822 286.272859 
L 153.145727 281.831167 
L 154.203234 293.139672 
L 155.26074 285.399462 
L 156.318247 285.711022 
L 157.375754 265.611949 
L 158.43326 268.668324 
L 159.490767 268.799357 
L 160.548274 277.457862 
L 161.60578 264.209985 
L 162.663287 259.145549 
L 163.720794 261.177345 
L 164.7783 257.001834 
L 165.835807 264.829079 
L 166.893314 265.155803 
L 167.95082 273.210142 
L 169.008327 263.95253 
L 170.065834 263.07224 
L 171.12334 259.479906 
L 172.180847 254.87318 
L 173.238354 255.150094 
L 174.29586 252.547199 
L 175.353367 254.522985 
L 176.410874 234.499415 
L 177.46838 238.018662 
L 178.525887 231.039482 
L 179.583394 233.474406 
L 180.6409 245.948187 
L 182.755914 245.145233 
L 183.81342 247.212632 
L 184.870927 247.001121 
L 185.928434 252.530679 
L 186.98594 238.642806 
L 188.043447 239.518652 
L 189.100954 229.295557 
L 190.15846 234.820928 
L 191.215967 242.997164 
L 192.273473 243.21648 
L 193.33098 234.491084 
L 194.388487 230.551935 
L 195.445993 227.576879 
L 197.561007 220.877169 
L 198.618513 220.463621 
L 199.67602 217.733676 
L 200.733527 198.519951 
L 201.791033 206.67616 
L 202.84854 201.185506 
L 203.906047 197.375311 
L 204.963553 200.958434 
L 206.02106 202.975716 
L 207.078567 202.878027 
L 208.136073 204.61476 
L 209.19358 190.950082 
L 210.251087 191.963656 
L 211.308593 194.798782 
L 212.3661 215.854542 
L 213.423607 219.267143 
L 214.481113 215.796923 
L 215.53862 206.371744 
L 216.596127 199.885099 
L 217.653633 208.970067 
L 218.71114 205.532989 
L 220.826153 195.723043 
L 221.88366 195.50976 
L 222.941167 200.195776 
L 223.998673 210.508892 
L 225.05618 205.777271 
L 226.113687 205.720511 
L 227.171193 213.297892 
L 228.2287 209.741142 
L 229.286207 211.914164 
L 230.343713 205.345529 
L 231.40122 196.585781 
L 232.458727 197.922806 
L 233.516233 184.809974 
L 234.57374 191.974382 
L 235.631247 177.499158 
L 236.688753 188.920248 
L 237.74626 185.000848 
L 238.803767 183.161158 
L 239.861273 186.237055 
L 240.91878 185.737669 
L 243.033793 183.143879 
L 244.0913 184.681191 
L 245.148807 181.813739 
L 246.206313 196.624315 
L 247.26382 192.142386 
L 248.321327 191.884086 
L 249.378833 196.023815 
L 250.43634 195.576685 
L 251.493847 193.393371 
L 252.551353 193.732968 
L 253.60886 195.980511 
L 254.666367 198.655032 
L 255.723873 197.845187 
L 256.78138 199.711567 
L 257.838887 189.070258 
L 258.896393 190.081819 
L 259.9539 197.643757 
L 261.011407 198.699438 
L 262.068913 200.56523 
L 263.12642 207.705416 
L 264.183927 204.484347 
L 265.241433 202.617694 
L 266.29894 204.560766 
L 267.356447 201.732833 
L 268.413953 205.049696 
L 269.47146 205.409183 
L 270.528967 202.643426 
L 271.586473 203.849763 
L 272.64398 192.71864 
L 273.701487 195.61145 
L 274.758993 186.671431 
L 275.8165 190.963399 
L 276.874007 191.653829 
L 277.931513 192.178381 
L 278.98902 190.794987 
L 280.046527 193.069082 
L 281.104033 192.925279 
L 282.16154 194.524688 
L 283.219046 197.921904 
L 284.276553 198.234513 
L 285.33406 195.857501 
L 286.391566 194.132596 
L 287.449073 196.977639 
L 288.50658 190.161211 
L 289.564086 180.978765 
L 290.621593 175.870124 
L 291.6791 175.946081 
L 292.736606 161.587288 
L 293.794113 158.091383 
L 294.85162 141.449827 
L 295.909126 139.618019 
L 296.966633 135.451122 
L 298.02414 128.263187 
L 299.081646 118.886852 
L 300.139153 92.991903 
L 301.19666 110.359404 
L 302.254166 98.041744 
L 303.311673 100.304459 
L 304.36918 90.899492 
L 305.426686 90.685499 
L 306.484193 100.190476 
L 307.5417 94.44948 
L 308.599206 97.351664 
L 309.656713 92.154442 
L 310.71422 105.989299 
L 311.771726 101.770726 
L 312.829233 83.591197 
L 313.88674 79.809831 
L 314.944246 79.239479 
L 316.001753 76.353538 
L 317.05926 70.010437 
L 318.116766 79.241928 
L 319.174273 90.344227 
L 320.23178 85.313193 
L 321.289286 102.05124 
L 322.346793 95.892938 
L 323.4043 97.919756 
L 324.461806 89.814289 
L 325.519313 105.504151 
L 326.57682 104.248583 
L 327.634326 110.797856 
L 328.691833 102.676377 
L 329.74934 101.224452 
L 330.806846 86.392865 
L 331.864353 85.219863 
L 332.92186 67.668169 
L 333.979366 90.023165 
L 335.036873 130.924463 
L 336.09438 122.382375 
L 337.151886 144.96394 
L 338.209393 138.402961 
L 339.2669 136.91883 
L 340.324406 145.01718 
L 341.381913 139.586492 
L 342.43942 132.726098 
L 343.496926 130.873918 
L 344.554433 124.820034 
L 345.61194 134.18717 
L 346.669446 126.578708 
L 347.726953 128.498805 
L 348.78446 126.320576 
L 349.841966 118.699281 
L 350.899473 120.812836 
L 351.95698 118.200647 
L 353.014486 125.924742 
L 354.071993 144.085875 
L 355.1295 141.184632 
L 356.187006 154.49782 
L 357.244513 138.14951 
L 358.30202 135.865161 
L 359.359526 133.905662 
L 360.417033 132.251238 
L 361.47454 134.519082 
L 362.532046 130.813859 
L 363.589553 131.679534 
L 364.64706 135.412323 
L 365.704566 140.425636 
L 366.762073 141.243571 
L 367.81958 134.518232 
L 368.877086 132.681395 
L 369.934593 140.862375 
L 370.992099 138.743063 
L 373.107113 124.478202 
L 374.164619 120.766469 
L 375.222126 118.42645 
L 376.279633 112.810141 
L 377.337139 114.76346 
L 378.394646 116.282593 
L 379.452153 117.332346 
L 380.509659 124.989901 
L 381.567166 123.8043 
L 382.624673 118.734381 
L 383.682179 115.551779 
L 384.739686 118.900379 
L 385.797193 100.191082 
L 386.854699 90.161029 
L 387.912206 91.820469 
L 388.969713 88.184785 
L 391.084726 95.256247 
L 392.142233 85.596507 
L 393.199739 95.519689 
L 394.257246 96.908509 
L 395.314753 98.044095 
L 396.372259 94.400574 
L 397.429766 91.563002 
L 398.487273 98.887141 
L 398.487273 98.887141 
" style="fill:none;stroke:#ff7f0e;stroke-linecap:square;stroke-width:0.7;"/>
   </g>
   <g id="patch_3">
    <path d="M 57.6 307.584 
L 57.6 41.472 
" style="fill:none;stroke:#000000;stroke-linecap:square;stroke-linejoin:miter;stroke-width:0.8;"/>
   </g>
   <g id="patch_4">
    <path d="M 414.72 307.584 
L 414.72 41.472 
" style="fill:none;stroke:#000000;stroke-linecap:square;stroke-linejoin:miter;stroke-width:0.8;"/>
   </g>
   <g id="patch_5">
    <path d="M 57.6 307.584 
L 414.72 307.584 
" style="fill:none;stroke:#000000;stroke-linecap:square;stroke-linejoin:miter;stroke-width:0.8;"/>
   </g>
   <g id="patch_6">
    <path d="M 57.6 41.472 
L 414.72 41.472 
" style="fill:none;stroke:#000000;stroke-linecap:square;stroke-linejoin:miter;stroke-width:0.8;"/>
   </g>
   <g id="text_14">
    <!-- BCI5 2020-01-01 - 2020-11-03 -->
    <g transform="translate(144.747187 35.472)scale(0.12 -0.12)">
     <defs>
      <path d="M 19.671875 34.8125 
L 19.671875 8.109375 
L 35.5 8.109375 
Q 43.453125 8.109375 47.28125 11.40625 
Q 51.125 14.703125 51.125 21.484375 
Q 51.125 28.328125 47.28125 31.5625 
Q 43.453125 34.8125 35.5 34.8125 
z
M 19.671875 64.796875 
L 19.671875 42.828125 
L 34.28125 42.828125 
Q 41.5 42.828125 45.03125 45.53125 
Q 48.578125 48.25 48.578125 53.8125 
Q 48.578125 59.328125 45.03125 62.0625 
Q 41.5 64.796875 34.28125 64.796875 
z
M 9.8125 72.90625 
L 35.015625 72.90625 
Q 46.296875 72.90625 52.390625 68.21875 
Q 58.5 63.53125 58.5 54.890625 
Q 58.5 48.1875 55.375 44.234375 
Q 52.25 40.28125 46.1875 39.3125 
Q 53.46875 37.75 57.5 32.78125 
Q 61.53125 27.828125 61.53125 20.40625 
Q 61.53125 10.640625 54.890625 5.3125 
Q 48.25 0 35.984375 0 
L 9.8125 0 
z
" id="DejaVuSans-66"/>
      <path d="M 64.40625 67.28125 
L 64.40625 56.890625 
Q 59.421875 61.53125 53.78125 63.8125 
Q 48.140625 66.109375 41.796875 66.109375 
Q 29.296875 66.109375 22.65625 58.46875 
Q 16.015625 50.828125 16.015625 36.375 
Q 16.015625 21.96875 22.65625 14.328125 
Q 29.296875 6.6875 41.796875 6.6875 
Q 48.140625 6.6875 53.78125 8.984375 
Q 59.421875 11.28125 64.40625 15.921875 
L 64.40625 5.609375 
Q 59.234375 2.09375 53.4375 0.328125 
Q 47.65625 -1.421875 41.21875 -1.421875 
Q 24.65625 -1.421875 15.125 8.703125 
Q 5.609375 18.84375 5.609375 36.375 
Q 5.609375 53.953125 15.125 64.078125 
Q 24.65625 74.21875 41.21875 74.21875 
Q 47.75 74.21875 53.53125 72.484375 
Q 59.328125 70.75 64.40625 67.28125 
z
" id="DejaVuSans-67"/>
      <path d="M 9.8125 72.90625 
L 19.671875 72.90625 
L 19.671875 0 
L 9.8125 0 
z
" id="DejaVuSans-73"/>
      <path d="M 10.796875 72.90625 
L 49.515625 72.90625 
L 49.515625 64.59375 
L 19.828125 64.59375 
L 19.828125 46.734375 
Q 21.96875 47.46875 24.109375 47.828125 
Q 26.265625 48.1875 28.421875 48.1875 
Q 40.625 48.1875 47.75 41.5 
Q 54.890625 34.8125 54.890625 23.390625 
Q 54.890625 11.625 47.5625 5.09375 
Q 40.234375 -1.421875 26.90625 -1.421875 
Q 22.3125 -1.421875 17.546875 -0.640625 
Q 12.796875 0.140625 7.71875 1.703125 
L 7.71875 11.625 
Q 12.109375 9.234375 16.796875 8.0625 
Q 21.484375 6.890625 26.703125 6.890625 
Q 35.15625 6.890625 40.078125 11.328125 
Q 45.015625 15.765625 45.015625 23.390625 
Q 45.015625 31 40.078125 35.4375 
Q 35.15625 39.890625 26.703125 39.890625 
Q 22.75 39.890625 18.8125 39.015625 
Q 14.890625 38.140625 10.796875 36.28125 
z
" id="DejaVuSans-53"/>
     </defs>
     <use xlink:href="#DejaVuSans-66"/>
     <use x="66.853516" xlink:href="#DejaVuSans-67"/>
     <use x="136.677734" xlink:href="#DejaVuSans-73"/>
     <use x="166.169922" xlink:href="#DejaVuSans-53"/>
     <use x="229.792969" xlink:href="#DejaVuSans-32"/>
     <use x="261.580078" xlink:href="#DejaVuSans-50"/>
     <use x="325.203125" xlink:href="#DejaVuSans-48"/>
     <use x="388.826172" xlink:href="#DejaVuSans-50"/>
     <use x="452.449219" xlink:href="#DejaVuSans-48"/>
     <use x="516.072266" xlink:href="#DejaVuSans-45"/>
     <use x="552.15625" xlink:href="#DejaVuSans-48"/>
     <use x="615.779297" xlink:href="#DejaVuSans-49"/>
     <use x="679.402344" xlink:href="#DejaVuSans-45"/>
     <use x="715.486328" xlink:href="#DejaVuSans-48"/>
     <use x="779.109375" xlink:href="#DejaVuSans-49"/>
     <use x="842.732422" xlink:href="#DejaVuSans-32"/>
     <use x="874.519531" xlink:href="#DejaVuSans-45"/>
     <use x="910.603516" xlink:href="#DejaVuSans-32"/>
     <use x="942.390625" xlink:href="#DejaVuSans-50"/>
     <use x="1006.013672" xlink:href="#DejaVuSans-48"/>
     <use x="1069.636719" xlink:href="#DejaVuSans-50"/>
     <use x="1133.259766" xlink:href="#DejaVuSans-48"/>
     <use x="1196.882812" xlink:href="#DejaVuSans-45"/>
     <use x="1232.966797" xlink:href="#DejaVuSans-49"/>
     <use x="1296.589844" xlink:href="#DejaVuSans-49"/>
     <use x="1360.212891" xlink:href="#DejaVuSans-45"/>
     <use x="1396.296875" xlink:href="#DejaVuSans-48"/>
     <use x="1459.919922" xlink:href="#DejaVuSans-51"/>
    </g>
   </g>
   <g id="legend_1">
    <g id="patch_7">
     <path d="M 64.6 78.82825 
L 138.485938 78.82825 
Q 140.485938 78.82825 140.485938 76.82825 
L 140.485938 48.472 
Q 140.485938 46.472 138.485938 46.472 
L 64.6 46.472 
Q 62.6 46.472 62.6 48.472 
L 62.6 76.82825 
Q 62.6 78.82825 64.6 78.82825 
z
" style="fill:#ffffff;opacity:0.8;stroke:#cccccc;stroke-linejoin:miter;"/>
    </g>
    <g id="line2d_25">
     <path d="M 66.6 54.570437 
L 86.6 54.570437 
" style="fill:none;stroke:#1f77b4;stroke-linecap:square;stroke-width:0.7;"/>
    </g>
    <g id="line2d_26"/>
    <g id="text_15">
     <!-- baseline -->
     <g transform="translate(94.6 58.070437)scale(0.1 -0.1)">
      <defs>
       <path d="M 48.6875 27.296875 
Q 48.6875 37.203125 44.609375 42.84375 
Q 40.53125 48.484375 33.40625 48.484375 
Q 26.265625 48.484375 22.1875 42.84375 
Q 18.109375 37.203125 18.109375 27.296875 
Q 18.109375 17.390625 22.1875 11.75 
Q 26.265625 6.109375 33.40625 6.109375 
Q 40.53125 6.109375 44.609375 11.75 
Q 48.6875 17.390625 48.6875 27.296875 
z
M 18.109375 46.390625 
Q 20.953125 51.265625 25.265625 53.625 
Q 29.59375 56 35.59375 56 
Q 45.5625 56 51.78125 48.09375 
Q 58.015625 40.1875 58.015625 27.296875 
Q 58.015625 14.40625 51.78125 6.484375 
Q 45.5625 -1.421875 35.59375 -1.421875 
Q 29.59375 -1.421875 25.265625 0.953125 
Q 20.953125 3.328125 18.109375 8.203125 
L 18.109375 0 
L 9.078125 0 
L 9.078125 75.984375 
L 18.109375 75.984375 
z
" id="DejaVuSans-98"/>
       <path d="M 44.28125 53.078125 
L 44.28125 44.578125 
Q 40.484375 46.53125 36.375 47.5 
Q 32.28125 48.484375 27.875 48.484375 
Q 21.1875 48.484375 17.84375 46.4375 
Q 14.5 44.390625 14.5 40.28125 
Q 14.5 37.15625 16.890625 35.375 
Q 19.28125 33.59375 26.515625 31.984375 
L 29.59375 31.296875 
Q 39.15625 29.25 43.1875 25.515625 
Q 47.21875 21.78125 47.21875 15.09375 
Q 47.21875 7.46875 41.1875 3.015625 
Q 35.15625 -1.421875 24.609375 -1.421875 
Q 20.21875 -1.421875 15.453125 -0.5625 
Q 10.6875 0.296875 5.421875 2 
L 5.421875 11.28125 
Q 10.40625 8.6875 15.234375 7.390625 
Q 20.0625 6.109375 24.8125 6.109375 
Q 31.15625 6.109375 34.5625 8.28125 
Q 37.984375 10.453125 37.984375 14.40625 
Q 37.984375 18.0625 35.515625 20.015625 
Q 33.0625 21.96875 24.703125 23.78125 
L 21.578125 24.515625 
Q 13.234375 26.265625 9.515625 29.90625 
Q 5.8125 33.546875 5.8125 39.890625 
Q 5.8125 47.609375 11.28125 51.796875 
Q 16.75 56 26.8125 56 
Q 31.78125 56 36.171875 55.265625 
Q 40.578125 54.546875 44.28125 53.078125 
z
" id="DejaVuSans-115"/>
       <path d="M 9.421875 54.6875 
L 18.40625 54.6875 
L 18.40625 0 
L 9.421875 0 
z
M 9.421875 75.984375 
L 18.40625 75.984375 
L 18.40625 64.59375 
L 9.421875 64.59375 
z
" id="DejaVuSans-105"/>
       <path d="M 54.890625 33.015625 
L 54.890625 0 
L 45.90625 0 
L 45.90625 32.71875 
Q 45.90625 40.484375 42.875 44.328125 
Q 39.84375 48.1875 33.796875 48.1875 
Q 26.515625 48.1875 22.3125 43.546875 
Q 18.109375 38.921875 18.109375 30.90625 
L 18.109375 0 
L 9.078125 0 
L 9.078125 54.6875 
L 18.109375 54.6875 
L 18.109375 46.1875 
Q 21.34375 51.125 25.703125 53.5625 
Q 30.078125 56 35.796875 56 
Q 45.21875 56 50.046875 50.171875 
Q 54.890625 44.34375 54.890625 33.015625 
z
" id="DejaVuSans-110"/>
      </defs>
      <use xlink:href="#DejaVuSans-98"/>
      <use x="63.476562" xlink:href="#DejaVuSans-97"/>
      <use x="124.755859" xlink:href="#DejaVuSans-115"/>
      <use x="176.855469" xlink:href="#DejaVuSans-101"/>
      <use x="238.378906" xlink:href="#DejaVuSans-108"/>
      <use x="266.162109" xlink:href="#DejaVuSans-105"/>
      <use x="293.945312" xlink:href="#DejaVuSans-110"/>
      <use x="357.324219" xlink:href="#DejaVuSans-101"/>
     </g>
    </g>
    <g id="line2d_27">
     <path d="M 66.6 69.248562 
L 86.6 69.248562 
" style="fill:none;stroke:#ff7f0e;stroke-linecap:square;stroke-width:0.7;"/>
    </g>
    <g id="line2d_28"/>
    <g id="text_16">
     <!-- BCI5 -->
     <g transform="translate(94.6 72.748562)scale(0.1 -0.1)">
      <use xlink:href="#DejaVuSans-66"/>
      <use x="66.853516" xlink:href="#DejaVuSans-67"/>
      <use x="136.677734" xlink:href="#DejaVuSans-73"/>
      <use x="166.169922" xlink:href="#DejaVuSans-53"/>
     </g>
    </g>
   </g>
  </g>
 </g>
 <defs>
  <clipPath id="p2eee34e2f2">
   <rect height="266.112" width="357.12" x="57.6" y="41.472"/>
  </clipPath>
 </defs>
</svg>
