<?xml version="1.0" encoding="utf-8" standalone="no"?>
<!DOCTYPE svg PUBLIC "-//W3C//DTD SVG 1.1//EN"
  "http://www.w3.org/Graphics/SVG/1.1/DTD/svg11.dtd">
<!-- Created with matplotlib (https://matplotlib.org/) -->
<svg height="345.6pt" version="1.1" viewBox="0 0 460.8 345.6" width="460.8pt" xmlns="http://www.w3.org/2000/svg" xmlns:xlink="http://www.w3.org/1999/xlink">
 <metadata>
  <rdf:RDF xmlns:cc="http://creativecommons.org/ns#" xmlns:dc="http://purl.org/dc/elements/1.1/" xmlns:rdf="http://www.w3.org/1999/02/22-rdf-syntax-ns#">
   <cc:Work>
    <dc:type rdf:resource="http://purl.org/dc/dcmitype/StillImage"/>
    <dc:date>2020-11-12T22:33:35.273297</dc:date>
    <dc:format>image/svg+xml</dc:format>
    <dc:creator>
     <cc:Agent>
      <dc:title>Matplotlib v3.3.3, https://matplotlib.org/</dc:title>
     </cc:Agent>
    </dc:creator>
   </cc:Work>
  </rdf:RDF>
 </metadata>
 <defs>
  <style type="text/css">*{stroke-linecap:butt;stroke-linejoin:round;}</style>
 </defs>
 <g id="figure_1">
  <g id="patch_1">
   <path d="M 0 345.6 
L 460.8 345.6 
L 460.8 0 
L 0 0 
z
" style="fill:#ffffff;"/>
  </g>
  <g id="axes_1">
   <g id="patch_2">
    <path d="M 57.6 307.584 
L 414.72 307.584 
L 414.72 41.472 
L 57.6 41.472 
z
" style="fill:#ffffff;"/>
   </g>
   <g id="matplotlib.axis_1">
    <g id="xtick_1">
     <g id="line2d_1">
      <path clip-path="url(#pc1472ea9ae)" d="M 92.303912 307.584 
L 92.303912 41.472 
" style="fill:none;stroke:#b0b0b0;stroke-dasharray:1.85,0.8;stroke-dashoffset:0;stroke-width:0.5;"/>
     </g>
     <g id="line2d_2">
      <defs>
       <path d="M 0 0 
L 0 3.5 
" id="m46ad355d9d" style="stroke:#000000;stroke-width:0.8;"/>
      </defs>
      <g>
       <use style="stroke:#000000;stroke-width:0.8;" x="92.303912" xlink:href="#m46ad355d9d" y="307.584"/>
      </g>
     </g>
     <g id="text_1">
      <!-- 2018-03-01 -->
      <g transform="translate(81.14643 342.464116)rotate(-45)scale(0.06 -0.06)">
       <defs>
        <path d="M 19.1875 8.296875 
L 53.609375 8.296875 
L 53.609375 0 
L 7.328125 0 
L 7.328125 8.296875 
Q 12.9375 14.109375 22.625 23.890625 
Q 32.328125 33.6875 34.8125 36.53125 
Q 39.546875 41.84375 41.421875 45.53125 
Q 43.3125 49.21875 43.3125 52.78125 
Q 43.3125 58.59375 39.234375 62.25 
Q 35.15625 65.921875 28.609375 65.921875 
Q 23.96875 65.921875 18.8125 64.3125 
Q 13.671875 62.703125 7.8125 59.421875 
L 7.8125 69.390625 
Q 13.765625 71.78125 18.9375 73 
Q 24.125 74.21875 28.421875 74.21875 
Q 39.75 74.21875 46.484375 68.546875 
Q 53.21875 62.890625 53.21875 53.421875 
Q 53.21875 48.921875 51.53125 44.890625 
Q 49.859375 40.875 45.40625 35.40625 
Q 44.1875 33.984375 37.640625 27.21875 
Q 31.109375 20.453125 19.1875 8.296875 
z
" id="DejaVuSans-50"/>
        <path d="M 31.78125 66.40625 
Q 24.171875 66.40625 20.328125 58.90625 
Q 16.5 51.421875 16.5 36.375 
Q 16.5 21.390625 20.328125 13.890625 
Q 24.171875 6.390625 31.78125 6.390625 
Q 39.453125 6.390625 43.28125 13.890625 
Q 47.125 21.390625 47.125 36.375 
Q 47.125 51.421875 43.28125 58.90625 
Q 39.453125 66.40625 31.78125 66.40625 
z
M 31.78125 74.21875 
Q 44.046875 74.21875 50.515625 64.515625 
Q 56.984375 54.828125 56.984375 36.375 
Q 56.984375 17.96875 50.515625 8.265625 
Q 44.046875 -1.421875 31.78125 -1.421875 
Q 19.53125 -1.421875 13.0625 8.265625 
Q 6.59375 17.96875 6.59375 36.375 
Q 6.59375 54.828125 13.0625 64.515625 
Q 19.53125 74.21875 31.78125 74.21875 
z
" id="DejaVuSans-48"/>
        <path d="M 12.40625 8.296875 
L 28.515625 8.296875 
L 28.515625 63.921875 
L 10.984375 60.40625 
L 10.984375 69.390625 
L 28.421875 72.90625 
L 38.28125 72.90625 
L 38.28125 8.296875 
L 54.390625 8.296875 
L 54.390625 0 
L 12.40625 0 
z
" id="DejaVuSans-49"/>
        <path d="M 31.78125 34.625 
Q 24.75 34.625 20.71875 30.859375 
Q 16.703125 27.09375 16.703125 20.515625 
Q 16.703125 13.921875 20.71875 10.15625 
Q 24.75 6.390625 31.78125 6.390625 
Q 38.8125 6.390625 42.859375 10.171875 
Q 46.921875 13.96875 46.921875 20.515625 
Q 46.921875 27.09375 42.890625 30.859375 
Q 38.875 34.625 31.78125 34.625 
z
M 21.921875 38.8125 
Q 15.578125 40.375 12.03125 44.71875 
Q 8.5 49.078125 8.5 55.328125 
Q 8.5 64.0625 14.71875 69.140625 
Q 20.953125 74.21875 31.78125 74.21875 
Q 42.671875 74.21875 48.875 69.140625 
Q 55.078125 64.0625 55.078125 55.328125 
Q 55.078125 49.078125 51.53125 44.71875 
Q 48 40.375 41.703125 38.8125 
Q 48.828125 37.15625 52.796875 32.3125 
Q 56.78125 27.484375 56.78125 20.515625 
Q 56.78125 9.90625 50.3125 4.234375 
Q 43.84375 -1.421875 31.78125 -1.421875 
Q 19.734375 -1.421875 13.25 4.234375 
Q 6.78125 9.90625 6.78125 20.515625 
Q 6.78125 27.484375 10.78125 32.3125 
Q 14.796875 37.15625 21.921875 38.8125 
z
M 18.3125 54.390625 
Q 18.3125 48.734375 21.84375 45.5625 
Q 25.390625 42.390625 31.78125 42.390625 
Q 38.140625 42.390625 41.71875 45.5625 
Q 45.3125 48.734375 45.3125 54.390625 
Q 45.3125 60.0625 41.71875 63.234375 
Q 38.140625 66.40625 31.78125 66.40625 
Q 25.390625 66.40625 21.84375 63.234375 
Q 18.3125 60.0625 18.3125 54.390625 
z
" id="DejaVuSans-56"/>
        <path d="M 4.890625 31.390625 
L 31.203125 31.390625 
L 31.203125 23.390625 
L 4.890625 23.390625 
z
" id="DejaVuSans-45"/>
        <path d="M 40.578125 39.3125 
Q 47.65625 37.796875 51.625 33 
Q 55.609375 28.21875 55.609375 21.1875 
Q 55.609375 10.40625 48.1875 4.484375 
Q 40.765625 -1.421875 27.09375 -1.421875 
Q 22.515625 -1.421875 17.65625 -0.515625 
Q 12.796875 0.390625 7.625 2.203125 
L 7.625 11.71875 
Q 11.71875 9.328125 16.59375 8.109375 
Q 21.484375 6.890625 26.8125 6.890625 
Q 36.078125 6.890625 40.9375 10.546875 
Q 45.796875 14.203125 45.796875 21.1875 
Q 45.796875 27.640625 41.28125 31.265625 
Q 36.765625 34.90625 28.71875 34.90625 
L 20.21875 34.90625 
L 20.21875 43.015625 
L 29.109375 43.015625 
Q 36.375 43.015625 40.234375 45.921875 
Q 44.09375 48.828125 44.09375 54.296875 
Q 44.09375 59.90625 40.109375 62.90625 
Q 36.140625 65.921875 28.71875 65.921875 
Q 24.65625 65.921875 20.015625 65.03125 
Q 15.375 64.15625 9.8125 62.3125 
L 9.8125 71.09375 
Q 15.4375 72.65625 20.34375 73.4375 
Q 25.25 74.21875 29.59375 74.21875 
Q 40.828125 74.21875 47.359375 69.109375 
Q 53.90625 64.015625 53.90625 55.328125 
Q 53.90625 49.265625 50.4375 45.09375 
Q 46.96875 40.921875 40.578125 39.3125 
z
" id="DejaVuSans-51"/>
       </defs>
       <use xlink:href="#DejaVuSans-50"/>
       <use x="63.623047" xlink:href="#DejaVuSans-48"/>
       <use x="127.246094" xlink:href="#DejaVuSans-49"/>
       <use x="190.869141" xlink:href="#DejaVuSans-56"/>
       <use x="254.492188" xlink:href="#DejaVuSans-45"/>
       <use x="290.576172" xlink:href="#DejaVuSans-48"/>
       <use x="354.199219" xlink:href="#DejaVuSans-51"/>
       <use x="417.822266" xlink:href="#DejaVuSans-45"/>
       <use x="453.90625" xlink:href="#DejaVuSans-48"/>
       <use x="517.529297" xlink:href="#DejaVuSans-49"/>
      </g>
     </g>
    </g>
    <g id="xtick_2">
     <g id="line2d_3">
      <path clip-path="url(#pc1472ea9ae)" d="M 121.106436 307.584 
L 121.106436 41.472 
" style="fill:none;stroke:#b0b0b0;stroke-dasharray:1.85,0.8;stroke-dashoffset:0;stroke-width:0.5;"/>
     </g>
     <g id="line2d_4">
      <g>
       <use style="stroke:#000000;stroke-width:0.8;" x="121.106436" xlink:href="#m46ad355d9d" y="307.584"/>
      </g>
     </g>
     <g id="text_2">
      <!-- 2018-06-01 -->
      <g transform="translate(109.948954 342.464116)rotate(-45)scale(0.06 -0.06)">
       <defs>
        <path d="M 33.015625 40.375 
Q 26.375 40.375 22.484375 35.828125 
Q 18.609375 31.296875 18.609375 23.390625 
Q 18.609375 15.53125 22.484375 10.953125 
Q 26.375 6.390625 33.015625 6.390625 
Q 39.65625 6.390625 43.53125 10.953125 
Q 47.40625 15.53125 47.40625 23.390625 
Q 47.40625 31.296875 43.53125 35.828125 
Q 39.65625 40.375 33.015625 40.375 
z
M 52.59375 71.296875 
L 52.59375 62.3125 
Q 48.875 64.0625 45.09375 64.984375 
Q 41.3125 65.921875 37.59375 65.921875 
Q 27.828125 65.921875 22.671875 59.328125 
Q 17.53125 52.734375 16.796875 39.40625 
Q 19.671875 43.65625 24.015625 45.921875 
Q 28.375 48.1875 33.59375 48.1875 
Q 44.578125 48.1875 50.953125 41.515625 
Q 57.328125 34.859375 57.328125 23.390625 
Q 57.328125 12.15625 50.6875 5.359375 
Q 44.046875 -1.421875 33.015625 -1.421875 
Q 20.359375 -1.421875 13.671875 8.265625 
Q 6.984375 17.96875 6.984375 36.375 
Q 6.984375 53.65625 15.1875 63.9375 
Q 23.390625 74.21875 37.203125 74.21875 
Q 40.921875 74.21875 44.703125 73.484375 
Q 48.484375 72.75 52.59375 71.296875 
z
" id="DejaVuSans-54"/>
       </defs>
       <use xlink:href="#DejaVuSans-50"/>
       <use x="63.623047" xlink:href="#DejaVuSans-48"/>
       <use x="127.246094" xlink:href="#DejaVuSans-49"/>
       <use x="190.869141" xlink:href="#DejaVuSans-56"/>
       <use x="254.492188" xlink:href="#DejaVuSans-45"/>
       <use x="290.576172" xlink:href="#DejaVuSans-48"/>
       <use x="354.199219" xlink:href="#DejaVuSans-54"/>
       <use x="417.822266" xlink:href="#DejaVuSans-45"/>
       <use x="453.90625" xlink:href="#DejaVuSans-48"/>
       <use x="517.529297" xlink:href="#DejaVuSans-49"/>
      </g>
     </g>
    </g>
    <g id="xtick_3">
     <g id="line2d_5">
      <path clip-path="url(#pc1472ea9ae)" d="M 149.908961 307.584 
L 149.908961 41.472 
" style="fill:none;stroke:#b0b0b0;stroke-dasharray:1.85,0.8;stroke-dashoffset:0;stroke-width:0.5;"/>
     </g>
     <g id="line2d_6">
      <g>
       <use style="stroke:#000000;stroke-width:0.8;" x="149.908961" xlink:href="#m46ad355d9d" y="307.584"/>
      </g>
     </g>
     <g id="text_3">
      <!-- 2018-09-01 -->
      <g transform="translate(138.751479 342.464116)rotate(-45)scale(0.06 -0.06)">
       <defs>
        <path d="M 10.984375 1.515625 
L 10.984375 10.5 
Q 14.703125 8.734375 18.5 7.8125 
Q 22.3125 6.890625 25.984375 6.890625 
Q 35.75 6.890625 40.890625 13.453125 
Q 46.046875 20.015625 46.78125 33.40625 
Q 43.953125 29.203125 39.59375 26.953125 
Q 35.25 24.703125 29.984375 24.703125 
Q 19.046875 24.703125 12.671875 31.3125 
Q 6.296875 37.9375 6.296875 49.421875 
Q 6.296875 60.640625 12.9375 67.421875 
Q 19.578125 74.21875 30.609375 74.21875 
Q 43.265625 74.21875 49.921875 64.515625 
Q 56.59375 54.828125 56.59375 36.375 
Q 56.59375 19.140625 48.40625 8.859375 
Q 40.234375 -1.421875 26.421875 -1.421875 
Q 22.703125 -1.421875 18.890625 -0.6875 
Q 15.09375 0.046875 10.984375 1.515625 
z
M 30.609375 32.421875 
Q 37.25 32.421875 41.125 36.953125 
Q 45.015625 41.5 45.015625 49.421875 
Q 45.015625 57.28125 41.125 61.84375 
Q 37.25 66.40625 30.609375 66.40625 
Q 23.96875 66.40625 20.09375 61.84375 
Q 16.21875 57.28125 16.21875 49.421875 
Q 16.21875 41.5 20.09375 36.953125 
Q 23.96875 32.421875 30.609375 32.421875 
z
" id="DejaVuSans-57"/>
       </defs>
       <use xlink:href="#DejaVuSans-50"/>
       <use x="63.623047" xlink:href="#DejaVuSans-48"/>
       <use x="127.246094" xlink:href="#DejaVuSans-49"/>
       <use x="190.869141" xlink:href="#DejaVuSans-56"/>
       <use x="254.492188" xlink:href="#DejaVuSans-45"/>
       <use x="290.576172" xlink:href="#DejaVuSans-48"/>
       <use x="354.199219" xlink:href="#DejaVuSans-57"/>
       <use x="417.822266" xlink:href="#DejaVuSans-45"/>
       <use x="453.90625" xlink:href="#DejaVuSans-48"/>
       <use x="517.529297" xlink:href="#DejaVuSans-49"/>
      </g>
     </g>
    </g>
    <g id="xtick_4">
     <g id="line2d_7">
      <path clip-path="url(#pc1472ea9ae)" d="M 178.398415 307.584 
L 178.398415 41.472 
" style="fill:none;stroke:#b0b0b0;stroke-dasharray:1.85,0.8;stroke-dashoffset:0;stroke-width:0.5;"/>
     </g>
     <g id="line2d_8">
      <g>
       <use style="stroke:#000000;stroke-width:0.8;" x="178.398415" xlink:href="#m46ad355d9d" y="307.584"/>
      </g>
     </g>
     <g id="text_4">
      <!-- 2018-12-01 -->
      <g transform="translate(167.240933 342.464116)rotate(-45)scale(0.06 -0.06)">
       <use xlink:href="#DejaVuSans-50"/>
       <use x="63.623047" xlink:href="#DejaVuSans-48"/>
       <use x="127.246094" xlink:href="#DejaVuSans-49"/>
       <use x="190.869141" xlink:href="#DejaVuSans-56"/>
       <use x="254.492188" xlink:href="#DejaVuSans-45"/>
       <use x="290.576172" xlink:href="#DejaVuSans-49"/>
       <use x="354.199219" xlink:href="#DejaVuSans-50"/>
       <use x="417.822266" xlink:href="#DejaVuSans-45"/>
       <use x="453.90625" xlink:href="#DejaVuSans-48"/>
       <use x="517.529297" xlink:href="#DejaVuSans-49"/>
      </g>
     </g>
    </g>
    <g id="xtick_5">
     <g id="line2d_9">
      <path clip-path="url(#pc1472ea9ae)" d="M 206.574798 307.584 
L 206.574798 41.472 
" style="fill:none;stroke:#b0b0b0;stroke-dasharray:1.85,0.8;stroke-dashoffset:0;stroke-width:0.5;"/>
     </g>
     <g id="line2d_10">
      <g>
       <use style="stroke:#000000;stroke-width:0.8;" x="206.574798" xlink:href="#m46ad355d9d" y="307.584"/>
      </g>
     </g>
     <g id="text_5">
      <!-- 2019-03-01 -->
      <g transform="translate(195.417316 342.464116)rotate(-45)scale(0.06 -0.06)">
       <use xlink:href="#DejaVuSans-50"/>
       <use x="63.623047" xlink:href="#DejaVuSans-48"/>
       <use x="127.246094" xlink:href="#DejaVuSans-49"/>
       <use x="190.869141" xlink:href="#DejaVuSans-57"/>
       <use x="254.492188" xlink:href="#DejaVuSans-45"/>
       <use x="290.576172" xlink:href="#DejaVuSans-48"/>
       <use x="354.199219" xlink:href="#DejaVuSans-51"/>
       <use x="417.822266" xlink:href="#DejaVuSans-45"/>
       <use x="453.90625" xlink:href="#DejaVuSans-48"/>
       <use x="517.529297" xlink:href="#DejaVuSans-49"/>
      </g>
     </g>
    </g>
    <g id="xtick_6">
     <g id="line2d_11">
      <path clip-path="url(#pc1472ea9ae)" d="M 235.377323 307.584 
L 235.377323 41.472 
" style="fill:none;stroke:#b0b0b0;stroke-dasharray:1.85,0.8;stroke-dashoffset:0;stroke-width:0.5;"/>
     </g>
     <g id="line2d_12">
      <g>
       <use style="stroke:#000000;stroke-width:0.8;" x="235.377323" xlink:href="#m46ad355d9d" y="307.584"/>
      </g>
     </g>
     <g id="text_6">
      <!-- 2019-06-01 -->
      <g transform="translate(224.219841 342.464116)rotate(-45)scale(0.06 -0.06)">
       <use xlink:href="#DejaVuSans-50"/>
       <use x="63.623047" xlink:href="#DejaVuSans-48"/>
       <use x="127.246094" xlink:href="#DejaVuSans-49"/>
       <use x="190.869141" xlink:href="#DejaVuSans-57"/>
       <use x="254.492188" xlink:href="#DejaVuSans-45"/>
       <use x="290.576172" xlink:href="#DejaVuSans-48"/>
       <use x="354.199219" xlink:href="#DejaVuSans-54"/>
       <use x="417.822266" xlink:href="#DejaVuSans-45"/>
       <use x="453.90625" xlink:href="#DejaVuSans-48"/>
       <use x="517.529297" xlink:href="#DejaVuSans-49"/>
      </g>
     </g>
    </g>
    <g id="xtick_7">
     <g id="line2d_13">
      <path clip-path="url(#pc1472ea9ae)" d="M 264.179847 307.584 
L 264.179847 41.472 
" style="fill:none;stroke:#b0b0b0;stroke-dasharray:1.85,0.8;stroke-dashoffset:0;stroke-width:0.5;"/>
     </g>
     <g id="line2d_14">
      <g>
       <use style="stroke:#000000;stroke-width:0.8;" x="264.179847" xlink:href="#m46ad355d9d" y="307.584"/>
      </g>
     </g>
     <g id="text_7">
      <!-- 2019-09-01 -->
      <g transform="translate(253.022365 342.464116)rotate(-45)scale(0.06 -0.06)">
       <use xlink:href="#DejaVuSans-50"/>
       <use x="63.623047" xlink:href="#DejaVuSans-48"/>
       <use x="127.246094" xlink:href="#DejaVuSans-49"/>
       <use x="190.869141" xlink:href="#DejaVuSans-57"/>
       <use x="254.492188" xlink:href="#DejaVuSans-45"/>
       <use x="290.576172" xlink:href="#DejaVuSans-48"/>
       <use x="354.199219" xlink:href="#DejaVuSans-57"/>
       <use x="417.822266" xlink:href="#DejaVuSans-45"/>
       <use x="453.90625" xlink:href="#DejaVuSans-48"/>
       <use x="517.529297" xlink:href="#DejaVuSans-49"/>
      </g>
     </g>
    </g>
    <g id="xtick_8">
     <g id="line2d_15">
      <path clip-path="url(#pc1472ea9ae)" d="M 292.669301 307.584 
L 292.669301 41.472 
" style="fill:none;stroke:#b0b0b0;stroke-dasharray:1.85,0.8;stroke-dashoffset:0;stroke-width:0.5;"/>
     </g>
     <g id="line2d_16">
      <g>
       <use style="stroke:#000000;stroke-width:0.8;" x="292.669301" xlink:href="#m46ad355d9d" y="307.584"/>
      </g>
     </g>
     <g id="text_8">
      <!-- 2019-12-01 -->
      <g transform="translate(281.511819 342.464116)rotate(-45)scale(0.06 -0.06)">
       <use xlink:href="#DejaVuSans-50"/>
       <use x="63.623047" xlink:href="#DejaVuSans-48"/>
       <use x="127.246094" xlink:href="#DejaVuSans-49"/>
       <use x="190.869141" xlink:href="#DejaVuSans-57"/>
       <use x="254.492188" xlink:href="#DejaVuSans-45"/>
       <use x="290.576172" xlink:href="#DejaVuSans-49"/>
       <use x="354.199219" xlink:href="#DejaVuSans-50"/>
       <use x="417.822266" xlink:href="#DejaVuSans-45"/>
       <use x="453.90625" xlink:href="#DejaVuSans-48"/>
       <use x="517.529297" xlink:href="#DejaVuSans-49"/>
      </g>
     </g>
    </g>
    <g id="xtick_9">
     <g id="line2d_17">
      <path clip-path="url(#pc1472ea9ae)" d="M 321.158755 307.584 
L 321.158755 41.472 
" style="fill:none;stroke:#b0b0b0;stroke-dasharray:1.85,0.8;stroke-dashoffset:0;stroke-width:0.5;"/>
     </g>
     <g id="line2d_18">
      <g>
       <use style="stroke:#000000;stroke-width:0.8;" x="321.158755" xlink:href="#m46ad355d9d" y="307.584"/>
      </g>
     </g>
     <g id="text_9">
      <!-- 2020-03-01 -->
      <g transform="translate(310.001273 342.464116)rotate(-45)scale(0.06 -0.06)">
       <use xlink:href="#DejaVuSans-50"/>
       <use x="63.623047" xlink:href="#DejaVuSans-48"/>
       <use x="127.246094" xlink:href="#DejaVuSans-50"/>
       <use x="190.869141" xlink:href="#DejaVuSans-48"/>
       <use x="254.492188" xlink:href="#DejaVuSans-45"/>
       <use x="290.576172" xlink:href="#DejaVuSans-48"/>
       <use x="354.199219" xlink:href="#DejaVuSans-51"/>
       <use x="417.822266" xlink:href="#DejaVuSans-45"/>
       <use x="453.90625" xlink:href="#DejaVuSans-48"/>
       <use x="517.529297" xlink:href="#DejaVuSans-49"/>
      </g>
     </g>
    </g>
    <g id="xtick_10">
     <g id="line2d_19">
      <path clip-path="url(#pc1472ea9ae)" d="M 349.96128 307.584 
L 349.96128 41.472 
" style="fill:none;stroke:#b0b0b0;stroke-dasharray:1.85,0.8;stroke-dashoffset:0;stroke-width:0.5;"/>
     </g>
     <g id="line2d_20">
      <g>
       <use style="stroke:#000000;stroke-width:0.8;" x="349.96128" xlink:href="#m46ad355d9d" y="307.584"/>
      </g>
     </g>
     <g id="text_10">
      <!-- 2020-06-01 -->
      <g transform="translate(338.803798 342.464116)rotate(-45)scale(0.06 -0.06)">
       <use xlink:href="#DejaVuSans-50"/>
       <use x="63.623047" xlink:href="#DejaVuSans-48"/>
       <use x="127.246094" xlink:href="#DejaVuSans-50"/>
       <use x="190.869141" xlink:href="#DejaVuSans-48"/>
       <use x="254.492188" xlink:href="#DejaVuSans-45"/>
       <use x="290.576172" xlink:href="#DejaVuSans-48"/>
       <use x="354.199219" xlink:href="#DejaVuSans-54"/>
       <use x="417.822266" xlink:href="#DejaVuSans-45"/>
       <use x="453.90625" xlink:href="#DejaVuSans-48"/>
       <use x="517.529297" xlink:href="#DejaVuSans-49"/>
      </g>
     </g>
    </g>
    <g id="xtick_11">
     <g id="line2d_21">
      <path clip-path="url(#pc1472ea9ae)" d="M 378.763805 307.584 
L 378.763805 41.472 
" style="fill:none;stroke:#b0b0b0;stroke-dasharray:1.85,0.8;stroke-dashoffset:0;stroke-width:0.5;"/>
     </g>
     <g id="line2d_22">
      <g>
       <use style="stroke:#000000;stroke-width:0.8;" x="378.763805" xlink:href="#m46ad355d9d" y="307.584"/>
      </g>
     </g>
     <g id="text_11">
      <!-- 2020-09-01 -->
      <g transform="translate(367.606323 342.464116)rotate(-45)scale(0.06 -0.06)">
       <use xlink:href="#DejaVuSans-50"/>
       <use x="63.623047" xlink:href="#DejaVuSans-48"/>
       <use x="127.246094" xlink:href="#DejaVuSans-50"/>
       <use x="190.869141" xlink:href="#DejaVuSans-48"/>
       <use x="254.492188" xlink:href="#DejaVuSans-45"/>
       <use x="290.576172" xlink:href="#DejaVuSans-48"/>
       <use x="354.199219" xlink:href="#DejaVuSans-57"/>
       <use x="417.822266" xlink:href="#DejaVuSans-45"/>
       <use x="453.90625" xlink:href="#DejaVuSans-48"/>
       <use x="517.529297" xlink:href="#DejaVuSans-49"/>
      </g>
     </g>
    </g>
    <g id="text_12">
     <!-- Date -->
     <g transform="translate(224.209219 354.94489)scale(0.1 -0.1)">
      <defs>
       <path d="M 19.671875 64.796875 
L 19.671875 8.109375 
L 31.59375 8.109375 
Q 46.6875 8.109375 53.6875 14.9375 
Q 60.6875 21.78125 60.6875 36.53125 
Q 60.6875 51.171875 53.6875 57.984375 
Q 46.6875 64.796875 31.59375 64.796875 
z
M 9.8125 72.90625 
L 30.078125 72.90625 
Q 51.265625 72.90625 61.171875 64.09375 
Q 71.09375 55.28125 71.09375 36.53125 
Q 71.09375 17.671875 61.125 8.828125 
Q 51.171875 0 30.078125 0 
L 9.8125 0 
z
" id="DejaVuSans-68"/>
       <path d="M 34.28125 27.484375 
Q 23.390625 27.484375 19.1875 25 
Q 14.984375 22.515625 14.984375 16.5 
Q 14.984375 11.71875 18.140625 8.90625 
Q 21.296875 6.109375 26.703125 6.109375 
Q 34.1875 6.109375 38.703125 11.40625 
Q 43.21875 16.703125 43.21875 25.484375 
L 43.21875 27.484375 
z
M 52.203125 31.203125 
L 52.203125 0 
L 43.21875 0 
L 43.21875 8.296875 
Q 40.140625 3.328125 35.546875 0.953125 
Q 30.953125 -1.421875 24.3125 -1.421875 
Q 15.921875 -1.421875 10.953125 3.296875 
Q 6 8.015625 6 15.921875 
Q 6 25.140625 12.171875 29.828125 
Q 18.359375 34.515625 30.609375 34.515625 
L 43.21875 34.515625 
L 43.21875 35.40625 
Q 43.21875 41.609375 39.140625 45 
Q 35.0625 48.390625 27.6875 48.390625 
Q 23 48.390625 18.546875 47.265625 
Q 14.109375 46.140625 10.015625 43.890625 
L 10.015625 52.203125 
Q 14.9375 54.109375 19.578125 55.046875 
Q 24.21875 56 28.609375 56 
Q 40.484375 56 46.34375 49.84375 
Q 52.203125 43.703125 52.203125 31.203125 
z
" id="DejaVuSans-97"/>
       <path d="M 18.3125 70.21875 
L 18.3125 54.6875 
L 36.8125 54.6875 
L 36.8125 47.703125 
L 18.3125 47.703125 
L 18.3125 18.015625 
Q 18.3125 11.328125 20.140625 9.421875 
Q 21.96875 7.515625 27.59375 7.515625 
L 36.8125 7.515625 
L 36.8125 0 
L 27.59375 0 
Q 17.1875 0 13.234375 3.875 
Q 9.28125 7.765625 9.28125 18.015625 
L 9.28125 47.703125 
L 2.6875 47.703125 
L 2.6875 54.6875 
L 9.28125 54.6875 
L 9.28125 70.21875 
z
" id="DejaVuSans-116"/>
       <path d="M 56.203125 29.59375 
L 56.203125 25.203125 
L 14.890625 25.203125 
Q 15.484375 15.921875 20.484375 11.0625 
Q 25.484375 6.203125 34.421875 6.203125 
Q 39.59375 6.203125 44.453125 7.46875 
Q 49.3125 8.734375 54.109375 11.28125 
L 54.109375 2.78125 
Q 49.265625 0.734375 44.1875 -0.34375 
Q 39.109375 -1.421875 33.890625 -1.421875 
Q 20.796875 -1.421875 13.15625 6.1875 
Q 5.515625 13.8125 5.515625 26.8125 
Q 5.515625 40.234375 12.765625 48.109375 
Q 20.015625 56 32.328125 56 
Q 43.359375 56 49.78125 48.890625 
Q 56.203125 41.796875 56.203125 29.59375 
z
M 47.21875 32.234375 
Q 47.125 39.59375 43.09375 43.984375 
Q 39.0625 48.390625 32.421875 48.390625 
Q 24.90625 48.390625 20.390625 44.140625 
Q 15.875 39.890625 15.1875 32.171875 
z
" id="DejaVuSans-101"/>
      </defs>
      <use xlink:href="#DejaVuSans-68"/>
      <use x="77.001953" xlink:href="#DejaVuSans-97"/>
      <use x="138.28125" xlink:href="#DejaVuSans-116"/>
      <use x="177.490234" xlink:href="#DejaVuSans-101"/>
     </g>
    </g>
   </g>
   <g id="matplotlib.axis_2">
    <g id="ytick_1">
     <g id="line2d_23">
      <path clip-path="url(#pc1472ea9ae)" d="M 57.6 281.358342 
L 414.72 281.358342 
" style="fill:none;stroke:#b0b0b0;stroke-dasharray:1.85,0.8;stroke-dashoffset:0;stroke-width:0.5;"/>
     </g>
     <g id="line2d_24">
      <defs>
       <path d="M 0 0 
L -3.5 0 
" id="mcb9162661f" style="stroke:#000000;stroke-width:0.8;"/>
      </defs>
      <g>
       <use style="stroke:#000000;stroke-width:0.8;" x="57.6" xlink:href="#mcb9162661f" y="281.358342"/>
      </g>
     </g>
     <g id="text_13">
      <!-- 200 -->
      <g transform="translate(31.5125 285.157561)scale(0.1 -0.1)">
       <use xlink:href="#DejaVuSans-50"/>
       <use x="63.623047" xlink:href="#DejaVuSans-48"/>
       <use x="127.246094" xlink:href="#DejaVuSans-48"/>
      </g>
     </g>
    </g>
    <g id="ytick_2">
     <g id="line2d_25">
      <path clip-path="url(#pc1472ea9ae)" d="M 57.6 241.309013 
L 414.72 241.309013 
" style="fill:none;stroke:#b0b0b0;stroke-dasharray:1.85,0.8;stroke-dashoffset:0;stroke-width:0.5;"/>
     </g>
     <g id="line2d_26">
      <g>
       <use style="stroke:#000000;stroke-width:0.8;" x="57.6" xlink:href="#mcb9162661f" y="241.309013"/>
      </g>
     </g>
     <g id="text_14">
      <!-- 400 -->
      <g transform="translate(31.5125 245.108232)scale(0.1 -0.1)">
       <defs>
        <path d="M 37.796875 64.3125 
L 12.890625 25.390625 
L 37.796875 25.390625 
z
M 35.203125 72.90625 
L 47.609375 72.90625 
L 47.609375 25.390625 
L 58.015625 25.390625 
L 58.015625 17.1875 
L 47.609375 17.1875 
L 47.609375 0 
L 37.796875 0 
L 37.796875 17.1875 
L 4.890625 17.1875 
L 4.890625 26.703125 
z
" id="DejaVuSans-52"/>
       </defs>
       <use xlink:href="#DejaVuSans-52"/>
       <use x="63.623047" xlink:href="#DejaVuSans-48"/>
       <use x="127.246094" xlink:href="#DejaVuSans-48"/>
      </g>
     </g>
    </g>
    <g id="ytick_3">
     <g id="line2d_27">
      <path clip-path="url(#pc1472ea9ae)" d="M 57.6 201.259684 
L 414.72 201.259684 
" style="fill:none;stroke:#b0b0b0;stroke-dasharray:1.85,0.8;stroke-dashoffset:0;stroke-width:0.5;"/>
     </g>
     <g id="line2d_28">
      <g>
       <use style="stroke:#000000;stroke-width:0.8;" x="57.6" xlink:href="#mcb9162661f" y="201.259684"/>
      </g>
     </g>
     <g id="text_15">
      <!-- 600 -->
      <g transform="translate(31.5125 205.058903)scale(0.1 -0.1)">
       <use xlink:href="#DejaVuSans-54"/>
       <use x="63.623047" xlink:href="#DejaVuSans-48"/>
       <use x="127.246094" xlink:href="#DejaVuSans-48"/>
      </g>
     </g>
    </g>
    <g id="ytick_4">
     <g id="line2d_29">
      <path clip-path="url(#pc1472ea9ae)" d="M 57.6 161.210355 
L 414.72 161.210355 
" style="fill:none;stroke:#b0b0b0;stroke-dasharray:1.85,0.8;stroke-dashoffset:0;stroke-width:0.5;"/>
     </g>
     <g id="line2d_30">
      <g>
       <use style="stroke:#000000;stroke-width:0.8;" x="57.6" xlink:href="#mcb9162661f" y="161.210355"/>
      </g>
     </g>
     <g id="text_16">
      <!-- 800 -->
      <g transform="translate(31.5125 165.009573)scale(0.1 -0.1)">
       <use xlink:href="#DejaVuSans-56"/>
       <use x="63.623047" xlink:href="#DejaVuSans-48"/>
       <use x="127.246094" xlink:href="#DejaVuSans-48"/>
      </g>
     </g>
    </g>
    <g id="ytick_5">
     <g id="line2d_31">
      <path clip-path="url(#pc1472ea9ae)" d="M 57.6 121.161025 
L 414.72 121.161025 
" style="fill:none;stroke:#b0b0b0;stroke-dasharray:1.85,0.8;stroke-dashoffset:0;stroke-width:0.5;"/>
     </g>
     <g id="line2d_32">
      <g>
       <use style="stroke:#000000;stroke-width:0.8;" x="57.6" xlink:href="#mcb9162661f" y="121.161025"/>
      </g>
     </g>
     <g id="text_17">
      <!-- 1000 -->
      <g transform="translate(25.15 124.960244)scale(0.1 -0.1)">
       <use xlink:href="#DejaVuSans-49"/>
       <use x="63.623047" xlink:href="#DejaVuSans-48"/>
       <use x="127.246094" xlink:href="#DejaVuSans-48"/>
       <use x="190.869141" xlink:href="#DejaVuSans-48"/>
      </g>
     </g>
    </g>
    <g id="ytick_6">
     <g id="line2d_33">
      <path clip-path="url(#pc1472ea9ae)" d="M 57.6 81.111696 
L 414.72 81.111696 
" style="fill:none;stroke:#b0b0b0;stroke-dasharray:1.85,0.8;stroke-dashoffset:0;stroke-width:0.5;"/>
     </g>
     <g id="line2d_34">
      <g>
       <use style="stroke:#000000;stroke-width:0.8;" x="57.6" xlink:href="#mcb9162661f" y="81.111696"/>
      </g>
     </g>
     <g id="text_18">
      <!-- 1200 -->
      <g transform="translate(25.15 84.910915)scale(0.1 -0.1)">
       <use xlink:href="#DejaVuSans-49"/>
       <use x="63.623047" xlink:href="#DejaVuSans-50"/>
       <use x="127.246094" xlink:href="#DejaVuSans-48"/>
       <use x="190.869141" xlink:href="#DejaVuSans-48"/>
      </g>
     </g>
    </g>
    <g id="text_19">
     <!-- Value (USD) -->
     <g transform="translate(19.070312 204.433469)rotate(-90)scale(0.1 -0.1)">
      <defs>
       <path d="M 28.609375 0 
L 0.78125 72.90625 
L 11.078125 72.90625 
L 34.1875 11.53125 
L 57.328125 72.90625 
L 67.578125 72.90625 
L 39.796875 0 
z
" id="DejaVuSans-86"/>
       <path d="M 9.421875 75.984375 
L 18.40625 75.984375 
L 18.40625 0 
L 9.421875 0 
z
" id="DejaVuSans-108"/>
       <path d="M 8.5 21.578125 
L 8.5 54.6875 
L 17.484375 54.6875 
L 17.484375 21.921875 
Q 17.484375 14.15625 20.5 10.265625 
Q 23.53125 6.390625 29.59375 6.390625 
Q 36.859375 6.390625 41.078125 11.03125 
Q 45.3125 15.671875 45.3125 23.6875 
L 45.3125 54.6875 
L 54.296875 54.6875 
L 54.296875 0 
L 45.3125 0 
L 45.3125 8.40625 
Q 42.046875 3.421875 37.71875 1 
Q 33.40625 -1.421875 27.6875 -1.421875 
Q 18.265625 -1.421875 13.375 4.4375 
Q 8.5 10.296875 8.5 21.578125 
z
M 31.109375 56 
z
" id="DejaVuSans-117"/>
       <path id="DejaVuSans-32"/>
       <path d="M 31 75.875 
Q 24.46875 64.65625 21.28125 53.65625 
Q 18.109375 42.671875 18.109375 31.390625 
Q 18.109375 20.125 21.3125 9.0625 
Q 24.515625 -2 31 -13.1875 
L 23.1875 -13.1875 
Q 15.875 -1.703125 12.234375 9.375 
Q 8.59375 20.453125 8.59375 31.390625 
Q 8.59375 42.28125 12.203125 53.3125 
Q 15.828125 64.359375 23.1875 75.875 
z
" id="DejaVuSans-40"/>
       <path d="M 8.6875 72.90625 
L 18.609375 72.90625 
L 18.609375 28.609375 
Q 18.609375 16.890625 22.84375 11.734375 
Q 27.09375 6.59375 36.625 6.59375 
Q 46.09375 6.59375 50.34375 11.734375 
Q 54.59375 16.890625 54.59375 28.609375 
L 54.59375 72.90625 
L 64.5 72.90625 
L 64.5 27.390625 
Q 64.5 13.140625 57.4375 5.859375 
Q 50.390625 -1.421875 36.625 -1.421875 
Q 22.796875 -1.421875 15.734375 5.859375 
Q 8.6875 13.140625 8.6875 27.390625 
z
" id="DejaVuSans-85"/>
       <path d="M 53.515625 70.515625 
L 53.515625 60.890625 
Q 47.90625 63.578125 42.921875 64.890625 
Q 37.9375 66.21875 33.296875 66.21875 
Q 25.25 66.21875 20.875 63.09375 
Q 16.5 59.96875 16.5 54.203125 
Q 16.5 49.359375 19.40625 46.890625 
Q 22.3125 44.4375 30.421875 42.921875 
L 36.375 41.703125 
Q 47.40625 39.59375 52.65625 34.296875 
Q 57.90625 29 57.90625 20.125 
Q 57.90625 9.515625 50.796875 4.046875 
Q 43.703125 -1.421875 29.984375 -1.421875 
Q 24.8125 -1.421875 18.96875 -0.25 
Q 13.140625 0.921875 6.890625 3.21875 
L 6.890625 13.375 
Q 12.890625 10.015625 18.65625 8.296875 
Q 24.421875 6.59375 29.984375 6.59375 
Q 38.421875 6.59375 43.015625 9.90625 
Q 47.609375 13.234375 47.609375 19.390625 
Q 47.609375 24.75 44.3125 27.78125 
Q 41.015625 30.8125 33.5 32.328125 
L 27.484375 33.5 
Q 16.453125 35.6875 11.515625 40.375 
Q 6.59375 45.0625 6.59375 53.421875 
Q 6.59375 63.09375 13.40625 68.65625 
Q 20.21875 74.21875 32.171875 74.21875 
Q 37.3125 74.21875 42.625 73.28125 
Q 47.953125 72.359375 53.515625 70.515625 
z
" id="DejaVuSans-83"/>
       <path d="M 8.015625 75.875 
L 15.828125 75.875 
Q 23.140625 64.359375 26.78125 53.3125 
Q 30.421875 42.28125 30.421875 31.390625 
Q 30.421875 20.453125 26.78125 9.375 
Q 23.140625 -1.703125 15.828125 -13.1875 
L 8.015625 -13.1875 
Q 14.5 -2 17.703125 9.0625 
Q 20.90625 20.125 20.90625 31.390625 
Q 20.90625 42.671875 17.703125 53.65625 
Q 14.5 64.65625 8.015625 75.875 
z
" id="DejaVuSans-41"/>
      </defs>
      <use xlink:href="#DejaVuSans-86"/>
      <use x="60.658203" xlink:href="#DejaVuSans-97"/>
      <use x="121.9375" xlink:href="#DejaVuSans-108"/>
      <use x="149.720703" xlink:href="#DejaVuSans-117"/>
      <use x="213.099609" xlink:href="#DejaVuSans-101"/>
      <use x="274.623047" xlink:href="#DejaVuSans-32"/>
      <use x="306.410156" xlink:href="#DejaVuSans-40"/>
      <use x="345.423828" xlink:href="#DejaVuSans-85"/>
      <use x="418.617188" xlink:href="#DejaVuSans-83"/>
      <use x="482.09375" xlink:href="#DejaVuSans-68"/>
      <use x="559.095703" xlink:href="#DejaVuSans-41"/>
     </g>
    </g>
   </g>
   <g id="line2d_35">
    <path clip-path="url(#pc1472ea9ae)" d="M 73.832727 121.161025 
L 74.145798 102.710491 
L 74.458869 74.922196 
L 74.77194 72.050339 
L 75.085011 67.226825 
L 75.398082 58.195994 
L 75.711153 53.568 
L 76.024224 78.890862 
L 76.337295 77.163689 
L 76.650366 80.858129 
L 76.963436 103.555921 
L 77.276507 83.961811 
L 77.589578 73.067974 
L 78.21572 96.788637 
L 78.528791 146.558004 
L 78.841862 148.251841 
L 79.154933 139.692717 
L 79.468004 138.796191 
L 79.781075 119.298056 
L 80.094146 143.203471 
L 80.407217 153.75927 
L 80.720288 154.66812 
L 81.033358 147.721038 
L 81.346429 147.777746 
L 81.6595 152.253021 
L 81.972571 145.820175 
L 82.285642 132.638492 
L 82.598713 143.104725 
L 82.911784 144.213696 
L 83.224855 163.150658 
L 83.537926 159.310282 
L 83.850997 177.427129 
L 84.164068 187.084785 
L 84.477139 182.051198 
L 84.79021 195.08783 
L 85.10328 218.20454 
L 85.416351 204.130049 
L 85.729422 208.313792 
L 86.355564 187.963547 
L 86.668635 186.738064 
L 86.981706 193.398026 
L 87.294777 184.560539 
L 87.607848 190.202133 
L 87.920919 175.167188 
L 88.23399 170.773272 
L 88.547061 169.239874 
L 88.860131 161.205753 
L 89.173202 170.037902 
L 89.486273 165.583532 
L 89.799344 167.147229 
L 90.112415 186.52222 
L 90.425486 185.813672 
L 90.738557 179.805289 
L 91.051628 187.25934 
L 91.364699 185.505768 
L 91.67777 180.600511 
L 91.990841 179.093517 
L 92.303912 184.28671 
L 92.616983 180.005009 
L 92.930053 179.66467 
L 93.243124 179.117346 
L 93.556195 177.080816 
L 93.869266 177.216465 
L 94.808479 201.890597 
L 95.12155 201.278181 
L 95.434621 206.165134 
L 95.747692 199.560953 
L 96.060763 203.09234 
L 96.373834 203.919964 
L 96.686905 216.482474 
L 96.999975 216.201312 
L 97.313046 215.627703 
L 97.626117 222.836804 
L 97.939188 223.371039 
L 98.252259 217.531692 
L 98.56533 215.8065 
L 98.878401 215.675552 
L 99.191472 219.300946 
L 99.504543 219.392293 
L 99.817614 221.876515 
L 100.130685 222.540895 
L 100.756827 232.972689 
L 101.069897 233.052851 
L 101.382968 243.446048 
L 101.696039 244.021806 
L 102.00911 243.500536 
L 102.322181 246.117034 
L 102.635252 243.797382 
L 102.948323 237.762616 
L 103.261394 245.404577 
L 103.574465 245.325386 
L 103.887536 248.368294 
L 104.513678 243.957865 
L 104.826748 245.245982 
L 105.139819 244.127653 
L 105.45289 241.424801 
L 105.765961 230.396905 
L 106.079032 230.328745 
L 106.392103 229.738403 
L 106.705174 223.974764 
L 107.018245 226.170725 
L 107.331316 227.420971 
L 107.957458 215.418266 
L 108.270529 208.385588 
L 108.89667 206.623957 
L 109.209741 202.491361 
L 109.522812 192.539168 
L 109.835883 207.982916 
L 110.148954 200.329978 
L 110.462025 204.337772 
L 110.775096 198.432642 
L 111.088167 196.669631 
L 111.401238 200.595106 
L 111.714309 200.822324 
L 112.02738 198.195971 
L 112.340451 189.041614 
L 112.653522 188.908356 
L 112.966592 184.127032 
L 113.279663 187.260505 
L 113.592734 193.009388 
L 113.905805 195.350415 
L 114.218876 195.128599 
L 114.531947 200.612854 
L 114.845018 209.346824 
L 115.158089 206.628532 
L 115.47116 201.751091 
L 115.784231 202.112192 
L 116.097302 206.9521 
L 116.410373 208.03624 
L 116.723443 213.655211 
L 117.036514 211.385263 
L 117.349585 212.091511 
L 117.662656 207.998819 
L 117.975727 210.482012 
L 118.601869 225.05904 
L 118.91494 222.647901 
L 119.228011 225.050735 
L 119.854153 227.264733 
L 120.167224 234.073193 
L 120.480295 226.996189 
L 120.793365 227.67709 
L 121.106436 225.838548 
L 121.419507 225.298939 
L 121.732578 223.165098 
L 122.045649 219.818164 
L 122.35872 223.200717 
L 122.671791 221.160795 
L 123.297933 221.579476 
L 123.611004 222.523433 
L 123.924075 224.624693 
L 124.237146 234.205401 
L 124.550217 232.693101 
L 125.176358 241.605631 
L 125.489429 236.313741 
L 125.8025 240.517485 
L 126.115571 239.667485 
L 126.428642 240.35801 
L 126.741713 237.36609 
L 127.054784 235.742003 
L 127.367855 236.32523 
L 127.680926 237.289489 
L 127.993997 245.791695 
L 128.307068 244.842432 
L 128.620139 246.49734 
L 128.933209 245.65907 
L 129.24628 249.458743 
L 129.559351 248.207521 
L 129.872422 251.492333 
L 130.498564 246.033898 
L 130.811635 246.521222 
L 131.124706 242.388777 
L 131.437777 243.915248 
L 131.750848 243.219036 
L 132.063919 243.745337 
L 132.37699 243.436767 
L 132.69006 241.492421 
L 133.003131 242.029009 
L 133.316202 243.511346 
L 133.629273 248.575006 
L 133.942344 247.310765 
L 134.255415 249.449035 
L 134.568486 248.678499 
L 134.881557 248.581066 
L 135.194628 246.712368 
L 135.82077 236.320877 
L 136.133841 237.50912 
L 136.446912 237.802673 
L 136.759982 241.161477 
L 137.073053 239.723696 
L 137.386124 239.964444 
L 137.699195 239.200155 
L 138.012266 232.929099 
L 138.638408 236.9997 
L 138.951479 235.392892 
L 139.577621 235.294794 
L 139.890692 236.348093 
L 140.203763 240.818801 
L 140.516834 242.035705 
L 140.829904 243.725473 
L 141.142975 243.852381 
L 141.456046 247.02671 
L 141.769117 246.374337 
L 142.082188 247.880134 
L 142.395259 251.574413 
L 142.70833 257.20043 
L 143.021401 254.532348 
L 143.334472 258.948198 
L 143.647543 260.290615 
L 143.960614 259.598801 
L 144.273685 262.525879 
L 144.586756 263.823767 
L 145.212897 262.423904 
L 145.525968 256.968214 
L 145.839039 260.526061 
L 146.15211 259.218569 
L 146.465181 263.207222 
L 146.778252 261.058417 
L 147.091323 262.944192 
L 147.717465 260.181363 
L 148.030536 260.114907 
L 148.343607 260.674949 
L 148.969748 256.121229 
L 149.59589 257.896889 
L 149.908961 257.783763 
L 150.222032 254.948931 
L 150.535103 254.549073 
L 150.848174 255.307466 
L 151.161245 254.94172 
L 151.474316 263.243917 
L 151.787387 264.269235 
L 152.100458 266.022847 
L 152.413529 268.76465 
L 152.726599 268.320618 
L 153.03967 268.421603 
L 153.352741 269.636706 
L 153.665812 269.49412 
L 153.978883 266.460153 
L 154.291954 266.634004 
L 154.605025 265.703983 
L 154.918096 265.999143 
L 155.231167 269.234945 
L 155.544238 266.643238 
L 155.857309 266.552325 
L 156.483451 256.648834 
L 156.796521 257.10773 
L 157.109592 256.591874 
L 157.422663 260.248032 
L 157.735734 261.003063 
L 158.048805 260.964883 
L 158.361876 257.705733 
L 158.674947 258.826631 
L 158.988018 257.848884 
L 159.301089 257.543092 
L 159.61416 257.824104 
L 159.927231 259.745106 
L 160.240302 260.226929 
L 160.866443 259.269028 
L 161.179514 260.361922 
L 161.492585 260.306436 
L 161.805656 259.420443 
L 162.118727 259.98866 
L 162.431798 260.809673 
L 162.744869 267.221683 
L 163.05794 265.711275 
L 163.371011 265.240745 
L 163.684082 266.018953 
L 163.997153 262.251221 
L 164.310224 261.8802 
L 164.623294 261.870204 
L 164.936365 263.325881 
L 165.249436 263.503594 
L 165.562507 262.896658 
L 166.50172 263.438149 
L 167.127862 263.788033 
L 167.440933 263.714084 
L 167.754004 263.992431 
L 168.067075 263.613049 
L 168.380146 265.853321 
L 169.006287 264.908186 
L 169.319358 264.739154 
L 169.632429 263.749076 
L 169.9455 264.028336 
L 170.571642 261.739936 
L 170.884713 258.936596 
L 171.197784 258.983072 
L 171.510855 260.932697 
L 171.823926 261.652078 
L 172.136997 261.219047 
L 172.763138 261.293369 
L 173.076209 261.867167 
L 173.38928 267.780882 
L 173.702351 268.356506 
L 174.015422 269.6108 
L 174.328493 269.257678 
L 174.641564 269.244992 
L 175.267706 280.396797 
L 175.580777 278.777293 
L 175.893848 281.737796 
L 176.206919 281.847292 
L 176.519989 285.883321 
L 176.83306 284.944377 
L 177.146131 286.995707 
L 177.459202 286.729828 
L 177.772273 283.13804 
L 178.085344 283.680193 
L 178.398415 285.670981 
L 178.711486 284.260134 
L 179.024557 284.890072 
L 179.337628 287.028218 
L 179.650699 286.70508 
L 179.96377 288.572395 
L 180.276841 291.671002 
L 180.589911 292.015507 
L 180.902982 292.06599 
L 181.216053 291.064145 
L 181.529124 292.201175 
L 181.842195 292.702928 
L 182.155266 292.203538 
L 182.781408 294.191853 
L 183.094479 294.29075 
L 183.40755 294.122696 
L 183.720621 291.189164 
L 184.033692 289.540837 
L 184.346763 289.230473 
L 184.659833 285.376366 
L 184.972904 287.149057 
L 185.599046 285.131482 
L 185.912117 283.524 
L 186.225188 286.294985 
L 186.538259 286.086072 
L 186.85133 289.02961 
L 187.164401 285.611279 
L 187.477472 285.879037 
L 187.790543 285.815415 
L 188.103614 287.1933 
L 188.729755 284.415703 
L 189.042826 285.719819 
L 189.355897 285.127782 
L 189.668968 285.267225 
L 189.982039 283.6552 
L 190.29511 284.112048 
L 190.608181 284.230125 
L 190.921252 284.032332 
L 191.234323 288.228253 
L 191.860465 288.604908 
L 192.173536 290.0346 
L 192.486606 288.096258 
L 192.799677 289.146107 
L 193.112748 288.728249 
L 193.425819 288.629732 
L 193.73889 289.069935 
L 194.051961 288.300206 
L 194.365032 289.563871 
L 194.678103 289.682383 
L 194.991174 289.31459 
L 195.304245 289.493097 
L 195.617316 289.433355 
L 196.243458 289.587542 
L 196.556528 289.995458 
L 196.869599 291.480543 
L 197.18267 291.782745 
L 197.495741 290.60426 
L 197.808812 291.179931 
L 198.434954 290.673736 
L 198.748025 291.085856 
L 199.374167 291.079726 
L 199.687238 291.820607 
L 200.000309 291.838945 
L 200.31338 288.867533 
L 200.62645 288.797422 
L 200.939521 288.458234 
L 201.252592 289.167998 
L 201.565663 288.967808 
L 202.191805 289.481047 
L 202.817947 289.107046 
L 203.131018 288.217188 
L 203.444089 285.921607 
L 203.75716 285.80273 
L 204.070231 284.854446 
L 204.383301 285.672007 
L 204.696372 285.226667 
L 205.009443 283.703477 
L 205.322514 287.907912 
L 205.635585 286.665199 
L 205.948656 287.053821 
L 206.261727 287.214131 
L 206.887869 287.043077 
L 207.514011 287.386933 
L 207.827082 288.437742 
L 208.140153 286.647588 
L 208.453223 286.489141 
L 208.766294 286.47432 
L 209.079365 286.858777 
L 209.392436 285.954385 
L 209.705507 286.106002 
L 210.018578 286.689111 
L 210.331649 286.41136 
L 210.64472 286.514999 
L 210.957791 286.418583 
L 211.583933 284.767199 
L 211.897004 285.15269 
L 212.210075 285.108937 
L 212.836216 284.686014 
L 213.149287 285.468823 
L 213.462358 285.245605 
L 213.775429 284.883447 
L 214.0885 285.16965 
L 214.401571 285.824784 
L 214.714642 285.773085 
L 215.027713 284.549086 
L 215.340784 284.80542 
L 215.653855 284.001389 
L 216.279996 284.05279 
L 216.593067 283.709233 
L 216.906138 277.13938 
L 217.219209 276.356641 
L 217.53228 277.193471 
L 217.845351 275.320963 
L 218.158422 275.168997 
L 218.471493 273.803861 
L 218.784564 273.298562 
L 219.097635 274.496459 
L 219.410706 273.445287 
L 219.723777 276.496301 
L 220.036848 276.387021 
L 220.349918 276.544225 
L 220.662989 275.681551 
L 220.97606 276.737418 
L 221.289131 275.341442 
L 221.602202 275.318705 
L 221.915273 274.582005 
L 222.541415 274.78004 
L 222.854486 275.31322 
L 223.480628 274.323532 
L 223.793699 275.738959 
L 224.10677 277.9487 
L 224.41984 277.113747 
L 225.045982 277.633696 
L 225.359053 278.466125 
L 225.672124 276.825767 
L 225.985195 276.666284 
L 226.298266 276.2191 
L 226.611337 274.193118 
L 226.924408 274.249496 
L 227.237479 274.629716 
L 228.176692 273.517414 
L 228.489762 272.792781 
L 228.802833 271.554058 
L 229.115904 264.449163 
L 229.428975 267.024927 
L 230.368188 253.488964 
L 230.681259 255.10094 
L 230.99433 259.814232 
L 231.307401 260.904859 
L 231.620472 253.839304 
L 231.933543 255.814081 
L 232.246613 255.646657 
L 232.559684 258.574633 
L 233.185826 256.291392 
L 233.498897 255.807841 
L 233.811968 251.325795 
L 234.125039 249.041575 
L 234.43811 250.306847 
L 234.751181 249.954835 
L 235.064252 253.119089 
L 235.377323 250.478537 
L 235.690394 251.155551 
L 236.003465 249.448536 
L 236.629606 257.91841 
L 237.568819 254.569516 
L 237.88189 255.635552 
L 238.194961 258.362529 
L 238.508032 255.090607 
L 238.821103 255.678641 
L 239.134174 253.39489 
L 239.447245 253.414785 
L 239.760316 250.865605 
L 240.386457 248.527459 
L 240.699528 246.511492 
L 241.012599 248.434044 
L 241.638741 245.994517 
L 242.264883 237.079689 
L 242.577954 236.939951 
L 242.891025 235.813037 
L 243.204096 232.250543 
L 243.517167 226.421377 
L 243.830238 239.048911 
L 244.143308 232.479874 
L 244.456379 232.833165 
L 244.76945 240.692195 
L 245.082521 241.243162 
L 245.395592 241.20542 
L 245.708663 235.048966 
L 246.021734 239.95878 
L 246.334805 241.140797 
L 246.960947 237.584086 
L 247.274018 233.453289 
L 247.587089 232.868523 
L 247.90016 236.7703 
L 248.21323 242.697514 
L 248.526301 239.890333 
L 248.839372 242.36062 
L 249.152443 251.287022 
L 249.465514 248.042875 
L 249.778585 256.738903 
L 250.091656 254.950696 
L 250.404727 248.940924 
L 250.717798 249.819715 
L 251.030869 247.763831 
L 251.34394 248.813414 
L 251.970082 253.398383 
L 252.283152 253.642278 
L 252.596223 253.134491 
L 252.909294 252.843461 
L 253.222365 255.895408 
L 253.535436 255.142037 
L 253.848507 255.353773 
L 254.161578 254.942104 
L 254.474649 251.829543 
L 254.78772 250.848603 
L 255.100791 250.257357 
L 255.413862 248.815527 
L 255.726933 248.093398 
L 256.040004 243.487398 
L 256.353074 245.549002 
L 256.666145 243.679479 
L 256.979216 243.824678 
L 257.605358 248.253613 
L 257.918429 246.226751 
L 258.2315 247.569179 
L 258.544571 249.709722 
L 258.857642 256.272295 
L 259.170713 254.779973 
L 259.483784 255.01761 
L 259.796855 255.405341 
L 260.109925 253.95545 
L 260.422996 250.832906 
L 260.736067 252.239675 
L 261.049138 255.785659 
L 261.362209 255.310952 
L 261.67528 253.854738 
L 261.988351 255.393584 
L 262.301422 255.850257 
L 262.614493 254.630333 
L 262.927564 255.509577 
L 263.240635 258.734575 
L 263.553706 260.45192 
L 264.492918 259.169192 
L 264.805989 256.019161 
L 265.11906 254.48345 
L 265.432131 255.138028 
L 265.745202 255.320231 
L 266.058273 256.67095 
L 266.371344 255.321604 
L 266.684415 255.175241 
L 266.997486 255.663918 
L 267.310557 256.602021 
L 267.623628 256.756343 
L 267.936699 255.560575 
L 268.249769 255.677919 
L 268.56284 255.087539 
L 268.875911 255.277995 
L 269.188982 254.847713 
L 269.815124 253.027493 
L 270.128195 252.225394 
L 271.067408 254.625994 
L 271.380479 257.314525 
L 271.69355 265.129154 
L 272.00662 265.874798 
L 272.319691 267.828825 
L 272.632762 266.959436 
L 272.945833 266.722593 
L 273.258904 267.887227 
L 273.571975 265.962892 
L 273.885046 265.565436 
L 274.198117 265.641508 
L 274.511188 266.58522 
L 274.824259 266.773566 
L 275.13733 266.779928 
L 275.450401 268.253849 
L 275.763472 265.837478 
L 276.076542 265.784568 
L 276.389613 263.160089 
L 276.702684 263.685975 
L 277.015755 265.735361 
L 277.641897 265.413386 
L 277.954968 264.420139 
L 278.58111 267.010715 
L 278.894181 266.074115 
L 279.207252 267.12342 
L 279.520323 267.260292 
L 279.833394 265.767724 
L 280.146464 265.715767 
L 280.459535 266.778948 
L 280.772606 270.470734 
L 281.085677 270.575542 
L 281.398748 263.07721 
L 282.02489 259.222267 
L 282.337961 260.48753 
L 282.651032 258.888722 
L 282.964103 260.508623 
L 283.277174 260.657615 
L 283.590245 260.330068 
L 283.903316 259.817142 
L 284.216386 260.411465 
L 284.529457 259.149242 
L 284.842528 259.123151 
L 285.155599 258.541859 
L 285.46867 259.876786 
L 285.781741 262.398325 
L 286.094812 262.072206 
L 286.407883 260.626865 
L 286.720954 262.437626 
L 287.034025 262.053985 
L 287.347096 262.1883 
L 287.660167 263.075715 
L 287.973237 264.377209 
L 288.599379 263.930104 
L 288.91245 266.104727 
L 289.538592 266.938943 
L 290.164734 272.759995 
L 290.477805 272.453837 
L 290.790876 275.299166 
L 291.103947 274.080443 
L 291.417018 273.731894 
L 291.730089 271.830806 
L 292.043159 272.159184 
L 292.35623 270.50281 
L 292.982372 272.288793 
L 293.295443 273.022475 
L 293.608514 273.277297 
L 293.921585 273.840797 
L 294.547727 272.001327 
L 294.860798 272.224318 
L 295.173869 271.921349 
L 295.800011 273.626498 
L 296.113081 273.967346 
L 296.426152 273.896254 
L 296.739223 273.614578 
L 297.052294 274.6683 
L 297.365365 274.49121 
L 297.991507 278.942964 
L 298.304578 275.069679 
L 298.617649 276.054212 
L 298.93072 275.782242 
L 299.243791 276.119156 
L 299.556862 274.081452 
L 299.869932 275.199092 
L 300.496074 276.044089 
L 300.809145 275.956274 
L 301.435287 275.067937 
L 301.748358 274.217765 
L 302.061429 275.178998 
L 302.3745 275.586176 
L 302.687571 275.499752 
L 303.000642 276.943839 
L 303.313713 274.665935 
L 303.626784 274.355747 
L 303.939854 274.24935 
L 304.252925 271.257541 
L 304.565996 269.642353 
L 304.879067 270.432929 
L 305.192138 271.591814 
L 305.505209 269.118063 
L 305.81828 270.07151 
L 306.131351 268.989112 
L 306.444422 269.474904 
L 306.757493 263.684639 
L 307.070564 263.43113 
L 307.383635 264.272909 
L 307.696706 262.358629 
L 308.009776 262.468662 
L 308.322847 264.045082 
L 308.635918 264.260673 
L 308.948989 263.582712 
L 309.26206 263.921065 
L 309.575131 265.847756 
L 309.888202 265.913993 
L 310.201273 266.499097 
L 311.140486 260.226451 
L 311.453557 260.470858 
L 311.766628 258.287401 
L 312.079698 259.789357 
L 312.392769 259.077484 
L 312.70584 258.746465 
L 313.018911 258.635427 
L 313.331982 259.126839 
L 313.645053 255.522422 
L 313.958124 254.21927 
L 314.584266 252.953667 
L 314.897337 251.317512 
L 315.210408 252.890149 
L 315.836549 247.673114 
L 316.14962 247.531152 
L 316.462691 245.698513 
L 316.775762 250.068942 
L 317.088833 250.41608 
L 317.401904 251.389153 
L 317.714975 248.472358 
L 318.028046 252.986401 
L 318.341117 253.354689 
L 318.654188 252.430344 
L 318.967259 252.743793 
L 319.28033 250.10822 
L 319.906471 255.577295 
L 320.219542 260.454912 
L 320.532613 260.358856 
L 320.845684 260.618305 
L 321.158755 262.166396 
L 321.471826 262.067089 
L 321.784897 259.306888 
L 322.097968 260.567835 
L 322.411039 260.667705 
L 323.037181 257.333147 
L 323.350252 259.177957 
L 323.663323 266.658578 
L 323.976393 267.018075 
L 324.289464 267.044432 
L 324.602535 267.437947 
L 324.915606 287.504929 
L 325.228677 283.571309 
L 325.541748 285.95428 
L 325.854819 284.76186 
L 326.16789 287.561424 
L 326.480961 285.336314 
L 326.794032 285.352124 
L 327.107103 279.998952 
L 327.420174 280.352472 
L 327.733244 280.526617 
L 328.046315 282.712074 
L 328.359386 278.91965 
L 328.672457 277.361907 
L 328.985528 277.765531 
L 329.298599 276.936161 
L 329.61167 279.219729 
L 329.924741 279.712398 
L 330.237812 281.921215 
L 330.550883 279.087022 
L 330.863954 278.895921 
L 331.490096 276.521126 
L 331.803166 276.778332 
L 332.116237 276.000893 
L 332.429308 276.498061 
L 332.742379 272.028937 
L 333.05545 272.859963 
L 333.368521 271.401694 
L 333.681592 271.832353 
L 333.994663 275.00485 
L 334.620805 274.730602 
L 334.933876 275.202667 
L 335.246947 275.160237 
L 335.560018 276.670453 
L 335.873088 273.337131 
L 336.186159 273.542386 
L 336.49923 271.426571 
L 336.812301 272.562985 
L 337.125372 274.571304 
L 337.438443 274.633601 
L 338.064585 271.009058 
L 339.003798 268.63372 
L 339.62994 267.9245 
L 339.94301 262.117229 
L 340.256081 263.7699 
L 340.882223 261.277339 
L 341.195294 262.065978 
L 341.508365 262.378876 
L 341.821436 262.012191 
L 342.134507 261.855211 
L 342.447578 257.363981 
L 342.760649 257.933258 
L 343.07372 259.138278 
L 343.386791 264.70558 
L 343.699861 265.635022 
L 344.012932 264.461963 
L 344.639074 259.088736 
L 344.952145 261.932029 
L 345.265216 261.188784 
L 345.578287 259.540546 
L 345.891358 258.716824 
L 346.204429 258.497144 
L 346.5175 259.848044 
L 346.830571 262.844253 
L 347.143642 261.913038 
L 347.456713 261.768682 
L 347.769783 264.265118 
L 348.082854 263.249735 
L 348.395925 263.688656 
L 349.022067 259.161398 
L 349.335138 259.703558 
L 349.648209 256.908124 
L 349.96128 258.572666 
L 350.274351 254.221355 
L 350.587422 257.844849 
L 350.900493 256.740293 
L 351.213564 256.056047 
L 351.526635 256.992736 
L 351.839705 256.795084 
L 352.465847 256.071669 
L 352.778918 256.353817 
L 353.091989 255.585889 
L 353.40506 259.553337 
L 353.718131 258.399804 
L 354.031202 258.344415 
L 354.344273 259.392665 
L 354.657344 259.064555 
L 354.970415 258.416952 
L 355.283486 258.623054 
L 355.909627 259.827655 
L 356.222698 259.581504 
L 356.535769 260.034707 
L 356.84884 257.219289 
L 357.161911 257.519763 
L 357.474982 259.665826 
L 357.788053 259.944307 
L 358.101124 260.532904 
L 358.414195 262.076106 
L 358.727266 261.173725 
L 359.040337 260.698623 
L 359.353408 261.069596 
L 359.666478 260.209383 
L 359.979549 261.144953 
L 360.29262 261.273731 
L 360.605691 260.637304 
L 360.918762 260.97118 
L 361.231833 258.533996 
L 361.544904 259.015786 
L 361.857975 257.047235 
L 362.171046 258.273272 
L 362.797188 258.397638 
L 363.110259 257.961336 
L 363.42333 258.499452 
L 363.7364 258.347366 
L 364.049471 258.676227 
L 364.362542 259.383769 
L 364.675613 259.382938 
L 365.301755 258.665545 
L 365.614826 259.279046 
L 366.240968 255.750814 
L 366.554039 254.735454 
L 366.86711 254.891151 
L 367.180181 252.040139 
L 367.493252 250.688514 
L 367.806322 245.411289 
L 368.119393 245.30743 
L 368.745535 243.15554 
L 369.058606 241.255366 
L 369.371677 235.760426 
L 369.684748 240.679068 
L 369.997819 238.401527 
L 370.31089 238.630315 
L 370.623961 235.607826 
L 370.937032 235.433514 
L 371.250103 237.540412 
L 371.563173 236.008527 
L 371.876244 236.541195 
L 372.189315 235.305592 
L 372.502386 238.840928 
L 372.815457 237.584733 
L 373.128528 233.958243 
L 373.441599 233.433829 
L 373.75467 233.203532 
L 374.067741 232.668402 
L 374.380812 230.749582 
L 375.006954 235.509835 
L 375.320025 234.120929 
L 375.633095 237.971142 
L 375.946166 236.458115 
L 376.259237 236.88237 
L 376.572308 235.251853 
L 376.885379 239.028523 
L 377.19845 238.425507 
L 377.511521 239.894314 
L 377.824592 237.866529 
L 378.137663 237.496284 
L 378.450734 234.578268 
L 378.763805 234.301314 
L 379.076876 230.590464 
L 379.389947 235.554384 
L 379.703017 245.759529 
L 380.016088 243.692688 
L 380.329159 248.777566 
L 380.64223 247.147096 
L 380.955301 246.65641 
L 381.268372 248.677834 
L 381.894514 245.783321 
L 382.207585 245.306519 
L 382.520656 244.101651 
L 382.833727 246.119449 
L 383.146798 243.91296 
L 383.459869 244.088417 
L 383.772939 243.408384 
L 384.08601 242.00748 
L 384.399081 242.454809 
L 384.712152 241.559373 
L 385.025223 243.322084 
L 385.338294 247.736545 
L 385.651365 247.033451 
L 385.964436 250.128518 
L 386.277507 245.952272 
L 387.21672 244.6452 
L 387.52979 245.298408 
L 387.842861 244.177841 
L 388.155932 244.444637 
L 388.782074 246.458242 
L 389.095145 246.573533 
L 389.408216 245.243728 
L 389.721287 244.568284 
L 390.034358 246.301958 
L 390.347429 245.850818 
L 391.286642 241.081512 
L 391.599712 240.270175 
L 391.912783 238.767165 
L 392.225854 239.541985 
L 392.538925 239.736177 
L 392.851996 239.686936 
L 393.165067 241.398352 
L 393.478138 241.036581 
L 394.10428 238.48948 
L 394.417351 238.810578 
L 394.730422 233.186909 
L 395.043493 231.014815 
L 395.356564 231.389778 
L 395.669634 230.258368 
L 396.295776 231.918233 
L 396.608847 228.674642 
L 396.921918 231.375526 
L 397.234989 231.008612 
L 397.54806 230.969073 
L 397.861131 229.675649 
L 398.174202 229.317713 
L 398.487273 230.985758 
L 398.487273 230.985758 
" style="fill:none;stroke:#1f77b4;stroke-linecap:square;stroke-width:0.7;"/>
   </g>
   <g id="line2d_36">
    <path clip-path="url(#pc1472ea9ae)" d="M 73.832727 121.161025 
L 74.145798 102.710491 
L 74.458869 74.922196 
L 74.77194 72.050339 
L 75.085011 67.226825 
L 75.398082 58.195994 
L 75.711153 53.568 
L 76.024224 78.890862 
L 76.337295 77.163689 
L 76.650366 80.858129 
L 76.963436 103.555921 
L 77.276507 83.961811 
L 77.589578 73.067974 
L 78.21572 96.788637 
L 78.528791 146.558004 
L 78.841862 148.251841 
L 79.154933 139.692717 
L 79.468004 138.796191 
L 79.781075 119.298056 
L 80.094146 143.203471 
L 80.407217 153.75927 
L 80.720288 154.66812 
L 81.033358 147.721038 
L 81.346429 147.777746 
L 81.6595 152.253021 
L 81.972571 145.820175 
L 82.285642 132.638492 
L 82.598713 143.104725 
L 82.911784 144.213696 
L 83.224855 163.150658 
L 83.537926 159.310282 
L 83.850997 177.996658 
L 84.164068 186.942129 
L 84.477139 182.145405 
L 84.79021 194.911776 
L 85.10328 218.329596 
L 85.416351 204.11157 
L 85.729422 208.238758 
L 86.355564 187.92516 
L 86.668635 186.478823 
L 86.981706 193.122169 
L 87.294777 183.984683 
L 87.607848 189.687613 
L 87.920919 174.671655 
L 88.23399 170.311232 
L 88.547061 168.44765 
L 88.860131 160.04886 
L 89.173202 168.979035 
L 89.486273 164.058714 
L 89.799344 165.586132 
L 90.112415 185.514758 
L 90.425486 184.810284 
L 90.738557 178.808907 
L 91.051628 186.411998 
L 91.364699 184.795921 
L 91.67777 179.328952 
L 91.990841 177.439922 
L 92.303912 182.917318 
L 92.616983 178.949269 
L 92.930053 179.110843 
L 93.243124 178.841239 
L 93.556195 176.672024 
L 93.869266 177.285917 
L 94.808479 201.646574 
L 95.12155 200.94651 
L 95.434621 205.904301 
L 95.747692 199.352125 
L 96.060763 202.852484 
L 96.373834 203.685544 
L 96.686905 216.287625 
L 96.999975 216.157768 
L 97.313046 215.63783 
L 97.626117 222.888709 
L 97.939188 223.337615 
L 98.252259 217.096238 
L 98.56533 215.318312 
L 98.878401 215.327085 
L 99.191472 219.03691 
L 99.504543 219.270446 
L 99.817614 221.72926 
L 100.130685 222.408271 
L 100.756827 232.944204 
L 101.069897 233.084741 
L 101.382968 243.459457 
L 101.696039 244.069017 
L 102.00911 243.611805 
L 102.322181 246.416653 
L 102.635252 244.14733 
L 102.948323 238.022053 
L 103.261394 245.65606 
L 103.574465 245.328858 
L 103.887536 248.568254 
L 104.513678 244.298283 
L 104.826748 245.236874 
L 105.139819 244.107922 
L 105.45289 239.915604 
L 105.765961 229.047048 
L 106.079032 229.124819 
L 106.392103 228.717899 
L 106.705174 223.07003 
L 107.018245 225.247292 
L 107.331316 226.233861 
L 107.957458 213.328888 
L 108.270529 204.92163 
L 108.5836 204.538393 
L 108.89667 203.683098 
L 109.209741 199.179004 
L 109.522812 187.869346 
L 109.835883 203.884231 
L 110.148954 195.521511 
L 110.462025 198.997492 
L 110.775096 192.000163 
L 111.088167 188.437985 
L 111.401238 194.415612 
L 111.714309 193.914007 
L 112.02738 191.301896 
L 112.340451 182.800721 
L 112.653522 183.120086 
L 112.966592 177.94465 
L 113.279663 181.153693 
L 113.592734 186.682252 
L 113.905805 188.952627 
L 114.218876 188.907376 
L 114.531947 194.617082 
L 114.845018 204.404151 
L 115.158089 201.918038 
L 115.47116 196.856751 
L 115.784231 197.813352 
L 116.097302 203.035352 
L 116.410373 204.185917 
L 116.723443 209.913601 
L 117.036514 207.546516 
L 117.349585 208.163444 
L 117.662656 203.633725 
L 117.975727 206.282347 
L 118.601869 221.793971 
L 118.91494 218.492616 
L 119.228011 221.073959 
L 119.854153 223.185901 
L 120.167224 230.262499 
L 120.480295 222.916583 
L 120.793365 223.657164 
L 121.106436 221.697801 
L 121.419507 221.113013 
L 122.045649 214.612444 
L 122.35872 218.405557 
L 122.671791 216.108517 
L 122.984862 216.490427 
L 123.297933 216.432199 
L 123.611004 217.595098 
L 123.924075 219.673654 
L 124.237146 230.367418 
L 124.550217 228.737279 
L 124.863287 234.771256 
L 125.176358 238.272857 
L 125.489429 232.586452 
L 125.8025 237.048313 
L 126.115571 236.294952 
L 126.428642 237.07712 
L 126.741713 233.979149 
L 127.054784 232.325641 
L 127.680926 234.051458 
L 127.993997 243.176652 
L 128.307068 242.396079 
L 128.620139 244.290574 
L 128.933209 243.460656 
L 129.24628 247.598081 
L 129.559351 246.151057 
L 129.872422 249.606849 
L 130.498564 244.025055 
L 130.811635 244.529142 
L 131.124706 239.967366 
L 131.437777 241.503031 
L 131.750848 240.638535 
L 132.063919 241.274828 
L 132.37699 241.215678 
L 132.69006 239.155368 
L 133.003131 239.775052 
L 133.316202 241.801817 
L 133.629273 246.972735 
L 133.942344 245.793897 
L 134.255415 248.012465 
L 134.568486 247.139844 
L 134.881557 247.037593 
L 135.194628 244.935032 
L 135.82077 234.029467 
L 136.133841 235.301595 
L 136.446912 235.818479 
L 136.759982 239.577076 
L 137.073053 238.009186 
L 137.386124 238.341383 
L 137.699195 237.856892 
L 138.012266 231.573692 
L 138.638408 235.547211 
L 138.951479 233.999588 
L 139.577621 233.914633 
L 139.890692 235.334632 
L 140.203763 239.828112 
L 140.516834 241.01233 
L 140.829904 242.969568 
L 141.142975 242.823835 
L 141.456046 245.834585 
L 141.769117 245.089867 
L 142.082188 246.637131 
L 142.395259 250.652034 
L 142.70833 256.834218 
L 143.021401 254.1505 
L 143.334472 258.737191 
L 143.647543 260.50795 
L 143.960614 259.874178 
L 144.273685 263.317302 
L 144.586756 264.702466 
L 145.212897 263.353224 
L 145.525968 256.918763 
L 145.839039 260.914384 
L 146.15211 259.441113 
L 146.465181 263.872527 
L 146.778252 261.696975 
L 147.091323 263.717382 
L 147.404394 262.033051 
L 147.717465 261.005154 
L 148.030536 260.997527 
L 148.343607 261.706952 
L 148.969748 256.579479 
L 149.59589 258.434266 
L 149.908961 258.207495 
L 150.222032 255.078231 
L 150.535103 254.866399 
L 150.848174 255.770593 
L 151.161245 255.595886 
L 151.474316 264.828636 
L 151.787387 265.403086 
L 152.100458 267.368612 
L 152.413529 270.331167 
L 152.726599 269.869483 
L 153.03967 270.065123 
L 153.352741 271.470662 
L 153.665812 271.449162 
L 153.978883 267.91716 
L 154.291954 268.254808 
L 154.605025 267.125335 
L 154.918096 267.418741 
L 155.231167 270.994746 
L 155.544238 267.931728 
L 155.857309 267.819804 
L 156.483451 256.109183 
L 156.796521 256.743565 
L 157.109592 255.9825 
L 157.422663 260.367915 
L 157.735734 261.016949 
L 158.048805 260.934881 
L 158.361876 257.406911 
L 158.674947 258.627972 
L 158.988018 257.375498 
L 159.301089 257.082219 
L 159.61416 257.381087 
L 159.927231 259.614744 
L 160.240302 260.098342 
L 160.866443 259.168558 
L 161.179514 260.457766 
L 161.492585 260.382255 
L 161.805656 259.393424 
L 162.431798 260.901667 
L 162.744869 268.151488 
L 163.05794 266.393938 
L 163.371011 265.869186 
L 163.684082 266.879028 
L 163.997153 262.938375 
L 164.310224 262.442167 
L 164.623294 262.406966 
L 164.936365 263.930243 
L 165.249436 264.080037 
L 165.562507 263.44436 
L 167.754004 264.600362 
L 168.067075 264.183917 
L 168.380146 266.584359 
L 169.006287 265.565203 
L 169.319358 265.378116 
L 169.632429 264.194266 
L 169.9455 264.473625 
L 170.571642 261.589917 
L 170.884713 258.083757 
L 171.197784 258.459344 
L 171.510855 260.742791 
L 171.823926 261.510703 
L 172.136997 261.006711 
L 172.763138 261.139098 
L 173.076209 261.904135 
L 173.38928 267.896338 
L 173.702351 268.298817 
L 174.015422 269.743869 
L 174.328493 269.221535 
L 174.641564 269.333013 
L 175.267706 280.411558 
L 175.580777 278.818996 
L 175.893848 281.857013 
L 176.206919 282.097681 
L 176.519989 286.017103 
L 176.83306 285.191863 
L 177.146131 287.224374 
L 177.459202 287.112815 
L 177.772273 283.688367 
L 178.085344 284.531141 
L 178.398415 286.34909 
L 178.711486 285.050598 
L 179.024557 285.727585 
L 179.337628 287.853388 
L 179.650699 287.739887 
L 179.96377 289.70127 
L 180.276841 292.963936 
L 180.589911 293.334319 
L 180.902982 293.367678 
L 181.216053 292.367278 
L 181.529124 293.514244 
L 181.842195 294.031787 
L 182.155266 293.486724 
L 182.781408 295.406637 
L 183.094479 295.488 
L 183.40755 295.266226 
L 183.720621 292.11729 
L 184.033692 290.331112 
L 184.346763 290.136057 
L 184.659833 286.246345 
L 184.972904 287.933285 
L 185.285975 286.97342 
L 185.912117 283.832775 
L 186.225188 286.711767 
L 186.538259 286.477137 
L 186.85133 289.735437 
L 187.164401 286.04477 
L 187.477472 286.171228 
L 187.790543 286.169506 
L 188.103614 287.609011 
L 188.416684 286.306916 
L 188.729755 284.516877 
L 189.042826 285.982762 
L 189.355897 285.334628 
L 189.668968 285.448943 
L 189.982039 283.929222 
L 190.29511 284.474593 
L 190.608181 284.552011 
L 190.921252 284.254492 
L 191.234323 288.725238 
L 191.860465 289.128343 
L 192.173536 290.70136 
L 192.486606 288.607105 
L 192.799677 289.716096 
L 193.112748 289.25143 
L 193.425819 289.151424 
L 193.73889 289.654745 
L 194.051961 288.899945 
L 194.365032 290.171193 
L 194.678103 290.294151 
L 194.991174 289.888906 
L 195.304245 290.072411 
L 195.617316 290.018138 
L 196.243458 290.202717 
L 196.556528 290.693098 
L 196.869599 292.261158 
L 197.18267 292.559237 
L 197.495741 291.186718 
L 197.808812 291.799212 
L 198.434954 291.279389 
L 198.748025 291.699408 
L 199.061096 291.619452 
L 199.374167 291.685104 
L 199.687238 292.45349 
L 200.000309 292.466171 
L 200.31338 289.350734 
L 200.62645 289.264646 
L 200.939521 288.894922 
L 201.252592 289.736007 
L 201.565663 289.414003 
L 202.191805 290.078957 
L 202.817947 289.664371 
L 203.131018 288.69325 
L 203.444089 286.141482 
L 203.75716 286.024744 
L 204.070231 284.819566 
L 204.383301 285.750391 
L 204.696372 285.281422 
L 205.009443 283.623579 
L 205.322514 288.120503 
L 205.635585 286.817024 
L 205.948656 287.324385 
L 206.261727 287.480197 
L 206.887869 287.297047 
L 207.514011 287.691746 
L 207.827082 288.845959 
L 208.140153 286.75112 
L 208.453223 286.61363 
L 208.766294 286.618464 
L 209.079365 287.146599 
L 209.392436 286.192374 
L 209.705507 286.322686 
L 210.018578 286.978941 
L 210.331649 286.689826 
L 210.64472 286.809717 
L 210.957791 286.729708 
L 211.583933 284.941395 
L 211.897004 285.37893 
L 212.210075 285.342457 
L 212.836216 284.994831 
L 213.149287 285.82792 
L 213.462358 285.556115 
L 213.775429 285.081363 
L 214.0885 285.452244 
L 214.401571 286.077978 
L 214.714642 286.032093 
L 215.027713 284.411597 
L 215.340784 284.758595 
L 215.653855 283.976989 
L 215.966926 284.130232 
L 216.279996 284.156835 
L 216.593067 283.826595 
L 216.906138 277.258139 
L 217.219209 276.454066 
L 217.53228 277.386346 
L 217.845351 275.296141 
L 218.158422 275.182208 
L 218.471493 273.801654 
L 218.784564 273.334207 
L 219.097635 274.523226 
L 219.410706 273.379555 
L 219.723777 276.742673 
L 220.036848 276.669408 
L 220.349918 276.87528 
L 220.662989 275.90609 
L 220.97606 276.977692 
L 221.289131 275.633243 
L 221.602202 275.659994 
L 221.915273 274.936557 
L 222.541415 275.317216 
L 222.854486 276.112322 
L 223.167557 275.748991 
L 223.480628 275.558872 
L 224.10677 279.335103 
L 224.41984 278.424051 
L 225.045982 279.016454 
L 225.359053 280.004238 
L 225.672124 278.06446 
L 225.985195 278.109264 
L 226.298266 277.841056 
L 226.611337 275.948971 
L 227.237479 276.651961 
L 227.55055 276.121302 
L 227.863621 276.205718 
L 228.489762 275.561738 
L 228.802833 274.638186 
L 229.115904 267.903038 
L 229.428975 270.440742 
L 230.055117 261.733919 
L 230.368188 256.380628 
L 230.681259 257.834127 
L 230.99433 262.390557 
L 231.307401 263.691866 
L 231.620472 257.196627 
L 231.933543 259.210628 
L 232.246613 258.888782 
L 232.559684 261.869182 
L 232.872755 260.998419 
L 233.185826 259.655377 
L 233.498897 259.231601 
L 234.125039 251.78776 
L 234.43811 253.183154 
L 234.751181 252.554733 
L 235.064252 255.973053 
L 235.377323 252.676385 
L 235.690394 253.769402 
L 236.003465 252.133577 
L 236.629606 260.51515 
L 237.568819 257.206296 
L 237.88189 258.470884 
L 238.194961 261.280051 
L 238.508032 258.02666 
L 238.821103 258.514158 
L 239.134174 256.323342 
L 239.447245 256.559924 
L 240.073387 253.378757 
L 240.386457 252.350019 
L 240.699528 250.696156 
L 241.012599 252.68837 
L 241.32567 251.578269 
L 241.638741 250.982338 
L 242.264883 242.825788 
L 242.577954 243.186212 
L 242.891025 242.329109 
L 243.204096 240.191739 
L 243.517167 236.818238 
L 243.830238 247.786516 
L 244.143308 242.931696 
L 244.456379 242.146918 
L 244.76945 249.148196 
L 245.082521 248.704473 
L 245.395592 249.47652 
L 245.708663 245.391675 
L 246.021734 249.477075 
L 246.334805 250.165576 
L 246.647876 248.866173 
L 247.274018 244.38134 
L 247.587089 244.67983 
L 248.21323 254.603186 
L 248.526301 252.224804 
L 248.839372 254.161825 
L 249.152443 262.372075 
L 249.465514 260.203248 
L 249.778585 267.174179 
L 250.091656 265.066053 
L 250.404727 260.405081 
L 250.717798 261.147013 
L 251.030869 259.058797 
L 251.34394 259.817174 
L 251.970082 263.765538 
L 252.909294 262.429529 
L 253.222365 265.326267 
L 253.535436 264.619255 
L 253.848507 264.838596 
L 254.161578 264.489367 
L 254.474649 262.00348 
L 255.100791 261.969981 
L 255.413862 260.992692 
L 255.726933 260.658977 
L 256.040004 257.692163 
L 256.353074 259.520356 
L 256.666145 258.8332 
L 256.979216 259.255411 
L 257.292287 261.820364 
L 257.605358 262.654804 
L 257.918429 260.663588 
L 258.544571 262.886487 
L 258.857642 268.838817 
L 259.170713 267.943468 
L 259.483784 268.459695 
L 259.796855 268.581308 
L 260.422996 264.83639 
L 260.736067 266.225691 
L 261.049138 268.72833 
L 261.67528 266.948599 
L 261.988351 268.134118 
L 262.301422 268.597201 
L 262.614493 267.900613 
L 262.927564 268.435702 
L 263.240635 271.473694 
L 263.553706 272.800668 
L 263.866777 272.564287 
L 264.179847 272.151811 
L 264.492918 272.005957 
L 264.805989 270.120876 
L 265.11906 269.211408 
L 265.432131 270.030604 
L 265.745202 270.336474 
L 266.058273 271.367078 
L 266.371344 269.561276 
L 266.684415 268.915664 
L 266.997486 269.165815 
L 267.623628 270.07267 
L 267.936699 269.54453 
L 268.249769 269.52651 
L 268.56284 268.383966 
L 268.875911 268.411245 
L 269.188982 267.588418 
L 269.815124 264.102927 
L 270.128195 263.517105 
L 271.067408 266.249609 
L 271.380479 268.788644 
L 271.69355 276.434956 
L 272.00662 276.26609 
L 272.319691 277.59799 
L 272.632762 276.651845 
L 272.945833 276.499708 
L 273.258904 277.506417 
L 273.571975 275.415458 
L 273.885046 275.233766 
L 274.198117 275.27126 
L 274.511188 275.818321 
L 274.824259 276.023237 
L 275.13733 275.941482 
L 275.450401 277.018088 
L 275.763472 274.517564 
L 276.076542 274.419242 
L 276.389613 272.352433 
L 276.702684 273.199102 
L 277.015755 274.926609 
L 277.328826 274.75375 
L 277.641897 274.447689 
L 277.954968 273.146479 
L 278.58111 275.623915 
L 278.894181 274.553074 
L 279.207252 275.570323 
L 279.520323 275.739894 
L 279.833394 274.704065 
L 280.146464 274.672727 
L 280.459535 275.447491 
L 280.772606 278.38944 
L 281.085677 278.326544 
L 281.398748 272.499732 
L 281.711819 272.015367 
L 282.02489 270.581104 
L 282.337961 271.209978 
L 282.651032 269.467417 
L 282.964103 270.930288 
L 283.277174 271.078834 
L 283.590245 270.930664 
L 283.903316 270.488515 
L 284.216386 270.953535 
L 284.529457 269.768936 
L 285.155599 268.536562 
L 285.781741 271.94674 
L 286.094812 271.45289 
L 286.407883 270.328692 
L 286.720954 271.656404 
L 287.034025 271.412822 
L 287.347096 271.431394 
L 287.660167 272.272924 
L 287.973237 273.485912 
L 288.599379 272.913389 
L 288.91245 274.931087 
L 289.538592 275.778253 
L 290.164734 281.013688 
L 290.477805 280.556376 
L 290.790876 283.262381 
L 291.103947 282.215152 
L 291.417018 281.779478 
L 291.730089 280.402145 
L 292.043159 280.726181 
L 292.35623 279.483394 
L 292.669301 280.297877 
L 292.982372 280.655645 
L 293.295443 281.396459 
L 293.608514 281.651183 
L 293.921585 282.221822 
L 294.547727 280.909633 
L 294.860798 281.069403 
L 295.173869 280.671263 
L 295.48694 281.515747 
L 296.113081 282.376035 
L 296.426152 282.30994 
L 296.739223 282.072795 
L 297.052294 282.905316 
L 297.365365 282.770675 
L 297.991507 287.426698 
L 298.304578 284.514604 
L 298.617649 285.41806 
L 298.93072 285.113547 
L 299.243791 285.425596 
L 299.556862 283.912035 
L 299.869932 284.916618 
L 300.183003 285.111144 
L 300.496074 285.590734 
L 300.809145 285.436168 
L 301.435287 284.504371 
L 301.748358 283.615849 
L 302.061429 284.372814 
L 302.3745 284.785279 
L 302.687571 284.651366 
L 303.000642 285.82378 
L 303.313713 283.87535 
L 303.939854 283.490998 
L 304.252925 280.640767 
L 304.565996 280.240953 
L 305.192138 281.726233 
L 305.505209 279.48789 
L 305.81828 280.166178 
L 306.131351 279.148786 
L 306.444422 279.69478 
L 306.757493 273.749281 
L 307.070564 273.774146 
L 307.383635 274.499014 
L 307.696706 272.278478 
L 308.009776 272.468809 
L 308.322847 274.014123 
L 308.635918 274.0677 
L 308.948989 273.450161 
L 309.26206 273.685105 
L 309.575131 275.466306 
L 309.888202 275.600445 
L 310.201273 276.161815 
L 310.827415 272.908431 
L 311.140486 270.978855 
L 311.453557 271.216916 
L 311.766628 268.722326 
L 312.079698 270.213031 
L 312.70584 268.707533 
L 313.018911 268.407375 
L 313.331982 268.461583 
L 313.645053 264.885998 
L 313.958124 263.51799 
L 314.271195 262.651181 
L 314.584266 262.296618 
L 314.897337 260.956212 
L 315.210408 262.141734 
L 315.523479 259.76172 
L 315.836549 256.167162 
L 316.14962 255.348819 
L 316.462691 253.005325 
L 316.775762 258.013691 
L 317.088833 258.993987 
L 317.401904 259.511027 
L 317.714975 256.935923 
L 318.028046 261.668508 
L 318.341117 262.189128 
L 318.654188 261.088822 
L 318.967259 261.422286 
L 319.28033 258.6232 
L 319.906471 264.143966 
L 320.219542 269.281936 
L 320.532613 269.047364 
L 320.845684 269.184594 
L 321.158755 270.714791 
L 321.471826 270.699017 
L 321.784897 268.078549 
L 322.097968 269.262639 
L 322.411039 269.325325 
L 322.72411 267.96781 
L 323.037181 266.044719 
L 323.350252 267.860613 
L 323.663323 275.272783 
L 324.289464 275.223527 
L 324.602535 275.891901 
L 324.915606 293.577699 
L 325.228677 289.401775 
L 325.541748 291.542212 
L 325.854819 290.546721 
L 326.16789 293.146168 
L 326.480961 291.426941 
L 326.794032 291.492692 
L 327.107103 287.017931 
L 327.420174 287.704286 
L 327.733244 287.694992 
L 328.046315 289.676831 
L 328.359386 286.72496 
L 328.672457 285.5777 
L 328.985528 286.044606 
L 329.298599 285.086623 
L 329.61167 286.882349 
L 329.924741 286.949733 
L 330.237812 288.734132 
L 330.550883 286.682618 
L 330.863954 286.483465 
L 331.490096 284.702786 
L 331.803166 284.704252 
L 332.116237 284.123232 
L 332.429308 284.53092 
L 332.742379 279.967178 
L 333.05545 280.761316 
L 333.368521 279.124275 
L 333.681592 279.611275 
L 333.994663 282.51414 
L 334.620805 282.284922 
L 334.933876 282.783946 
L 335.246947 282.719221 
L 335.560018 283.935069 
L 335.873088 280.796842 
L 336.186159 281.007084 
L 336.49923 278.687665 
L 336.812301 279.955796 
L 337.125372 281.738134 
L 337.438443 281.75265 
L 337.751514 279.74319 
L 338.377656 277.892496 
L 339.003798 276.40083 
L 339.316869 276.233078 
L 339.62994 275.634325 
L 339.94301 271.413535 
L 340.256081 273.436014 
L 340.882223 271.276431 
L 341.195294 272.193627 
L 341.508365 272.630009 
L 341.821436 272.654987 
L 342.134507 273.160397 
L 342.447578 270.260264 
L 342.760649 270.462068 
L 343.07372 270.993468 
L 343.386791 275.705473 
L 343.699861 276.490336 
L 344.012932 275.565699 
L 344.639074 272.224617 
L 344.952145 274.183459 
L 345.578287 272.308355 
L 345.891358 271.222653 
L 346.204429 271.09374 
L 346.5175 272.05287 
L 346.830571 274.448117 
L 347.143642 273.308139 
L 347.456713 273.28458 
L 347.769783 275.030941 
L 348.082854 274.184242 
L 348.395925 274.656645 
L 348.708996 273.238411 
L 349.022067 271.166539 
L 349.335138 271.41183 
L 349.648209 268.370111 
L 349.96128 269.975675 
L 350.274351 266.706239 
L 350.587422 269.081598 
L 350.900493 268.018412 
L 351.213564 267.564634 
L 351.526635 268.268385 
L 352.152776 267.932096 
L 352.465847 267.62216 
L 352.778918 268.078527 
L 353.091989 267.486056 
L 353.40506 271.070741 
L 353.718131 269.977103 
L 354.031202 269.886816 
L 354.344273 270.903419 
L 354.657344 270.789049 
L 354.970415 270.317802 
L 355.283486 270.232065 
L 355.909627 271.384736 
L 356.222698 271.229495 
L 356.535769 271.667487 
L 356.84884 269.287785 
L 357.161911 269.466661 
L 357.474982 271.134207 
L 357.788053 271.423481 
L 358.101124 271.881872 
L 358.414195 273.631946 
L 359.040337 272.340333 
L 359.353408 272.752353 
L 359.666478 271.805869 
L 359.979549 272.569848 
L 360.29262 272.601885 
L 360.605691 271.891155 
L 360.918762 272.242617 
L 361.231833 269.583326 
L 361.544904 269.803661 
L 361.857975 267.397027 
L 362.171046 268.350709 
L 362.484117 268.665898 
L 363.110259 267.997802 
L 363.42333 268.577001 
L 363.7364 268.294012 
L 364.049471 268.452545 
L 364.362542 269.23151 
L 364.675613 269.278484 
L 365.301755 268.561559 
L 365.614826 269.481209 
L 366.554039 264.844644 
L 366.86711 265.084044 
L 367.180181 261.557927 
L 367.493252 260.7632 
L 367.806322 257.905709 
L 368.119393 257.090041 
L 368.432464 256.596135 
L 369.058606 253.235502 
L 369.371677 247.56084 
L 369.684748 251.595207 
L 369.997819 248.711321 
L 370.31089 248.629455 
L 370.623961 246.996629 
L 370.937032 246.682618 
L 371.250103 248.867949 
L 371.563173 246.593445 
L 371.876244 246.648617 
L 372.189315 245.368872 
L 372.502386 248.585515 
L 372.815457 246.513842 
L 373.128528 242.942415 
L 374.380812 239.851156 
L 375.006954 244.80017 
L 375.320025 243.49039 
L 375.633095 248.160148 
L 375.946166 246.041493 
L 376.259237 246.819358 
L 376.572308 245.065484 
L 376.885379 248.999211 
L 377.19845 248.469748 
L 377.511521 250.337741 
L 377.824592 248.381085 
L 378.137663 247.431731 
L 378.450734 244.480716 
L 378.763805 244.488087 
L 379.076876 240.827913 
L 379.389947 245.908884 
L 379.703017 255.659931 
L 380.016088 253.785588 
L 380.329159 259.686334 
L 380.64223 257.295475 
L 380.955301 257.317568 
L 381.268372 259.34125 
L 381.894514 256.412352 
L 382.207585 256.026726 
L 382.520656 254.454554 
L 382.833727 256.403358 
L 383.146798 254.853738 
L 383.459869 255.850014 
L 383.772939 255.582501 
L 384.08601 253.829329 
L 384.399081 254.70238 
L 384.712152 254.384612 
L 385.025223 256.211699 
L 385.338294 260.675876 
L 385.651365 259.964041 
L 385.964436 263.104331 
L 386.277507 258.889634 
L 386.590578 257.916659 
L 386.903649 257.7277 
L 387.21672 257.18156 
L 387.52979 257.675325 
L 387.842861 256.93985 
L 388.155932 257.296756 
L 388.469003 258.153543 
L 388.782074 259.492676 
L 389.095145 259.564574 
L 389.408216 258.125338 
L 389.721287 257.719299 
L 390.034358 259.533976 
L 390.347429 259.09767 
L 391.286642 254.793305 
L 391.599712 254.093005 
L 391.912783 252.715996 
L 392.538925 253.68537 
L 392.851996 254.01538 
L 393.165067 255.699709 
L 393.478138 255.432853 
L 393.791209 254.304668 
L 394.10428 253.643243 
L 394.417351 254.903734 
L 394.730422 250.626608 
L 395.043493 248.17532 
L 395.356564 248.425542 
L 395.669634 247.373708 
L 396.295776 249.308698 
L 396.608847 247.35367 
L 396.921918 249.608044 
L 397.54806 250.550962 
L 398.174202 248.952983 
L 398.487273 250.892628 
L 398.487273 250.892628 
" style="fill:none;stroke:#ff7f0e;stroke-linecap:square;stroke-width:0.7;"/>
   </g>
   <g id="patch_3">
    <path d="M 57.6 307.584 
L 57.6 41.472 
" style="fill:none;stroke:#000000;stroke-linecap:square;stroke-linejoin:miter;stroke-width:0.8;"/>
   </g>
   <g id="patch_4">
    <path d="M 414.72 307.584 
L 414.72 41.472 
" style="fill:none;stroke:#000000;stroke-linecap:square;stroke-linejoin:miter;stroke-width:0.8;"/>
   </g>
   <g id="patch_5">
    <path d="M 57.6 307.584 
L 414.72 307.584 
" style="fill:none;stroke:#000000;stroke-linecap:square;stroke-linejoin:miter;stroke-width:0.8;"/>
   </g>
   <g id="patch_6">
    <path d="M 57.6 41.472 
L 414.72 41.472 
" style="fill:none;stroke:#000000;stroke-linecap:square;stroke-linejoin:miter;stroke-width:0.8;"/>
   </g>
   <g id="text_20">
    <!-- BCI10 2018-01-01 - 2020-11-03 -->
    <g transform="translate(140.929688 35.472)scale(0.12 -0.12)">
     <defs>
      <path d="M 19.671875 34.8125 
L 19.671875 8.109375 
L 35.5 8.109375 
Q 43.453125 8.109375 47.28125 11.40625 
Q 51.125 14.703125 51.125 21.484375 
Q 51.125 28.328125 47.28125 31.5625 
Q 43.453125 34.8125 35.5 34.8125 
z
M 19.671875 64.796875 
L 19.671875 42.828125 
L 34.28125 42.828125 
Q 41.5 42.828125 45.03125 45.53125 
Q 48.578125 48.25 48.578125 53.8125 
Q 48.578125 59.328125 45.03125 62.0625 
Q 41.5 64.796875 34.28125 64.796875 
z
M 9.8125 72.90625 
L 35.015625 72.90625 
Q 46.296875 72.90625 52.390625 68.21875 
Q 58.5 63.53125 58.5 54.890625 
Q 58.5 48.1875 55.375 44.234375 
Q 52.25 40.28125 46.1875 39.3125 
Q 53.46875 37.75 57.5 32.78125 
Q 61.53125 27.828125 61.53125 20.40625 
Q 61.53125 10.640625 54.890625 5.3125 
Q 48.25 0 35.984375 0 
L 9.8125 0 
z
" id="DejaVuSans-66"/>
      <path d="M 64.40625 67.28125 
L 64.40625 56.890625 
Q 59.421875 61.53125 53.78125 63.8125 
Q 48.140625 66.109375 41.796875 66.109375 
Q 29.296875 66.109375 22.65625 58.46875 
Q 16.015625 50.828125 16.015625 36.375 
Q 16.015625 21.96875 22.65625 14.328125 
Q 29.296875 6.6875 41.796875 6.6875 
Q 48.140625 6.6875 53.78125 8.984375 
Q 59.421875 11.28125 64.40625 15.921875 
L 64.40625 5.609375 
Q 59.234375 2.09375 53.4375 0.328125 
Q 47.65625 -1.421875 41.21875 -1.421875 
Q 24.65625 -1.421875 15.125 8.703125 
Q 5.609375 18.84375 5.609375 36.375 
Q 5.609375 53.953125 15.125 64.078125 
Q 24.65625 74.21875 41.21875 74.21875 
Q 47.75 74.21875 53.53125 72.484375 
Q 59.328125 70.75 64.40625 67.28125 
z
" id="DejaVuSans-67"/>
      <path d="M 9.8125 72.90625 
L 19.671875 72.90625 
L 19.671875 0 
L 9.8125 0 
z
" id="DejaVuSans-73"/>
     </defs>
     <use xlink:href="#DejaVuSans-66"/>
     <use x="66.853516" xlink:href="#DejaVuSans-67"/>
     <use x="136.677734" xlink:href="#DejaVuSans-73"/>
     <use x="166.169922" xlink:href="#DejaVuSans-49"/>
     <use x="229.792969" xlink:href="#DejaVuSans-48"/>
     <use x="293.416016" xlink:href="#DejaVuSans-32"/>
     <use x="325.203125" xlink:href="#DejaVuSans-50"/>
     <use x="388.826172" xlink:href="#DejaVuSans-48"/>
     <use x="452.449219" xlink:href="#DejaVuSans-49"/>
     <use x="516.072266" xlink:href="#DejaVuSans-56"/>
     <use x="579.695312" xlink:href="#DejaVuSans-45"/>
     <use x="615.779297" xlink:href="#DejaVuSans-48"/>
     <use x="679.402344" xlink:href="#DejaVuSans-49"/>
     <use x="743.025391" xlink:href="#DejaVuSans-45"/>
     <use x="779.109375" xlink:href="#DejaVuSans-48"/>
     <use x="842.732422" xlink:href="#DejaVuSans-49"/>
     <use x="906.355469" xlink:href="#DejaVuSans-32"/>
     <use x="938.142578" xlink:href="#DejaVuSans-45"/>
     <use x="974.226562" xlink:href="#DejaVuSans-32"/>
     <use x="1006.013672" xlink:href="#DejaVuSans-50"/>
     <use x="1069.636719" xlink:href="#DejaVuSans-48"/>
     <use x="1133.259766" xlink:href="#DejaVuSans-50"/>
     <use x="1196.882812" xlink:href="#DejaVuSans-48"/>
     <use x="1260.505859" xlink:href="#DejaVuSans-45"/>
     <use x="1296.589844" xlink:href="#DejaVuSans-49"/>
     <use x="1360.212891" xlink:href="#DejaVuSans-49"/>
     <use x="1423.835938" xlink:href="#DejaVuSans-45"/>
     <use x="1459.919922" xlink:href="#DejaVuSans-48"/>
     <use x="1523.542969" xlink:href="#DejaVuSans-51"/>
    </g>
   </g>
   <g id="legend_1">
    <g id="patch_7">
     <path d="M 333.834063 78.82825 
L 407.72 78.82825 
Q 409.72 78.82825 409.72 76.82825 
L 409.72 48.472 
Q 409.72 46.472 407.72 46.472 
L 333.834063 46.472 
Q 331.834063 46.472 331.834063 48.472 
L 331.834063 76.82825 
Q 331.834063 78.82825 333.834063 78.82825 
z
" style="fill:#ffffff;opacity:0.8;stroke:#cccccc;stroke-linejoin:miter;"/>
    </g>
    <g id="line2d_37">
     <path d="M 335.834063 54.570437 
L 355.834063 54.570437 
" style="fill:none;stroke:#1f77b4;stroke-linecap:square;stroke-width:0.7;"/>
    </g>
    <g id="line2d_38"/>
    <g id="text_21">
     <!-- baseline -->
     <g transform="translate(363.834063 58.070437)scale(0.1 -0.1)">
      <defs>
       <path d="M 48.6875 27.296875 
Q 48.6875 37.203125 44.609375 42.84375 
Q 40.53125 48.484375 33.40625 48.484375 
Q 26.265625 48.484375 22.1875 42.84375 
Q 18.109375 37.203125 18.109375 27.296875 
Q 18.109375 17.390625 22.1875 11.75 
Q 26.265625 6.109375 33.40625 6.109375 
Q 40.53125 6.109375 44.609375 11.75 
Q 48.6875 17.390625 48.6875 27.296875 
z
M 18.109375 46.390625 
Q 20.953125 51.265625 25.265625 53.625 
Q 29.59375 56 35.59375 56 
Q 45.5625 56 51.78125 48.09375 
Q 58.015625 40.1875 58.015625 27.296875 
Q 58.015625 14.40625 51.78125 6.484375 
Q 45.5625 -1.421875 35.59375 -1.421875 
Q 29.59375 -1.421875 25.265625 0.953125 
Q 20.953125 3.328125 18.109375 8.203125 
L 18.109375 0 
L 9.078125 0 
L 9.078125 75.984375 
L 18.109375 75.984375 
z
" id="DejaVuSans-98"/>
       <path d="M 44.28125 53.078125 
L 44.28125 44.578125 
Q 40.484375 46.53125 36.375 47.5 
Q 32.28125 48.484375 27.875 48.484375 
Q 21.1875 48.484375 17.84375 46.4375 
Q 14.5 44.390625 14.5 40.28125 
Q 14.5 37.15625 16.890625 35.375 
Q 19.28125 33.59375 26.515625 31.984375 
L 29.59375 31.296875 
Q 39.15625 29.25 43.1875 25.515625 
Q 47.21875 21.78125 47.21875 15.09375 
Q 47.21875 7.46875 41.1875 3.015625 
Q 35.15625 -1.421875 24.609375 -1.421875 
Q 20.21875 -1.421875 15.453125 -0.5625 
Q 10.6875 0.296875 5.421875 2 
L 5.421875 11.28125 
Q 10.40625 8.6875 15.234375 7.390625 
Q 20.0625 6.109375 24.8125 6.109375 
Q 31.15625 6.109375 34.5625 8.28125 
Q 37.984375 10.453125 37.984375 14.40625 
Q 37.984375 18.0625 35.515625 20.015625 
Q 33.0625 21.96875 24.703125 23.78125 
L 21.578125 24.515625 
Q 13.234375 26.265625 9.515625 29.90625 
Q 5.8125 33.546875 5.8125 39.890625 
Q 5.8125 47.609375 11.28125 51.796875 
Q 16.75 56 26.8125 56 
Q 31.78125 56 36.171875 55.265625 
Q 40.578125 54.546875 44.28125 53.078125 
z
" id="DejaVuSans-115"/>
       <path d="M 9.421875 54.6875 
L 18.40625 54.6875 
L 18.40625 0 
L 9.421875 0 
z
M 9.421875 75.984375 
L 18.40625 75.984375 
L 18.40625 64.59375 
L 9.421875 64.59375 
z
" id="DejaVuSans-105"/>
       <path d="M 54.890625 33.015625 
L 54.890625 0 
L 45.90625 0 
L 45.90625 32.71875 
Q 45.90625 40.484375 42.875 44.328125 
Q 39.84375 48.1875 33.796875 48.1875 
Q 26.515625 48.1875 22.3125 43.546875 
Q 18.109375 38.921875 18.109375 30.90625 
L 18.109375 0 
L 9.078125 0 
L 9.078125 54.6875 
L 18.109375 54.6875 
L 18.109375 46.1875 
Q 21.34375 51.125 25.703125 53.5625 
Q 30.078125 56 35.796875 56 
Q 45.21875 56 50.046875 50.171875 
Q 54.890625 44.34375 54.890625 33.015625 
z
" id="DejaVuSans-110"/>
      </defs>
      <use xlink:href="#DejaVuSans-98"/>
      <use x="63.476562" xlink:href="#DejaVuSans-97"/>
      <use x="124.755859" xlink:href="#DejaVuSans-115"/>
      <use x="176.855469" xlink:href="#DejaVuSans-101"/>
      <use x="238.378906" xlink:href="#DejaVuSans-108"/>
      <use x="266.162109" xlink:href="#DejaVuSans-105"/>
      <use x="293.945312" xlink:href="#DejaVuSans-110"/>
      <use x="357.324219" xlink:href="#DejaVuSans-101"/>
     </g>
    </g>
    <g id="line2d_39">
     <path d="M 335.834063 69.248562 
L 355.834063 69.248562 
" style="fill:none;stroke:#ff7f0e;stroke-linecap:square;stroke-width:0.7;"/>
    </g>
    <g id="line2d_40"/>
    <g id="text_22">
     <!-- BCI10 -->
     <g transform="translate(363.834063 72.748562)scale(0.1 -0.1)">
      <use xlink:href="#DejaVuSans-66"/>
      <use x="66.853516" xlink:href="#DejaVuSans-67"/>
      <use x="136.677734" xlink:href="#DejaVuSans-73"/>
      <use x="166.169922" xlink:href="#DejaVuSans-49"/>
      <use x="229.792969" xlink:href="#DejaVuSans-48"/>
     </g>
    </g>
   </g>
  </g>
 </g>
 <defs>
  <clipPath id="pc1472ea9ae">
   <rect height="266.112" width="357.12" x="57.6" y="41.472"/>
  </clipPath>
 </defs>
</svg>
