<?xml version="1.0" encoding="utf-8" standalone="no"?>
<!DOCTYPE svg PUBLIC "-//W3C//DTD SVG 1.1//EN"
  "http://www.w3.org/Graphics/SVG/1.1/DTD/svg11.dtd">
<!-- Created with matplotlib (https://matplotlib.org/) -->
<svg height="345.6pt" version="1.1" viewBox="0 0 460.8 345.6" width="460.8pt" xmlns="http://www.w3.org/2000/svg" xmlns:xlink="http://www.w3.org/1999/xlink">
 <metadata>
  <rdf:RDF xmlns:cc="http://creativecommons.org/ns#" xmlns:dc="http://purl.org/dc/elements/1.1/" xmlns:rdf="http://www.w3.org/1999/02/22-rdf-syntax-ns#">
   <cc:Work>
    <dc:type rdf:resource="http://purl.org/dc/dcmitype/StillImage"/>
    <dc:date>2020-11-12T22:21:03.807318</dc:date>
    <dc:format>image/svg+xml</dc:format>
    <dc:creator>
     <cc:Agent>
      <dc:title>Matplotlib v3.3.3, https://matplotlib.org/</dc:title>
     </cc:Agent>
    </dc:creator>
   </cc:Work>
  </rdf:RDF>
 </metadata>
 <defs>
  <style type="text/css">*{stroke-linecap:butt;stroke-linejoin:round;}</style>
 </defs>
 <g id="figure_1">
  <g id="patch_1">
   <path d="M 0 345.6 
L 460.8 345.6 
L 460.8 0 
L 0 0 
z
" style="fill:#ffffff;"/>
  </g>
  <g id="axes_1">
   <g id="patch_2">
    <path d="M 57.6 307.584 
L 414.72 307.584 
L 414.72 41.472 
L 57.6 41.472 
z
" style="fill:#ffffff;"/>
   </g>
   <g id="matplotlib.axis_1">
    <g id="xtick_1">
     <g id="line2d_1">
      <path clip-path="url(#p3c737809ba)" d="M 102.336623 307.584 
L 102.336623 41.472 
" style="fill:none;stroke:#b0b0b0;stroke-dasharray:1.85,0.8;stroke-dashoffset:0;stroke-width:0.5;"/>
     </g>
     <g id="line2d_2">
      <defs>
       <path d="M 0 0 
L 0 3.5 
" id="ma16d44572c" style="stroke:#000000;stroke-width:0.8;"/>
      </defs>
      <g>
       <use style="stroke:#000000;stroke-width:0.8;" x="102.336623" xlink:href="#ma16d44572c" y="307.584"/>
      </g>
     </g>
     <g id="text_1">
      <!-- 2019-03-01 -->
      <g transform="translate(91.179141 342.464116)rotate(-45)scale(0.06 -0.06)">
       <defs>
        <path d="M 19.1875 8.296875 
L 53.609375 8.296875 
L 53.609375 0 
L 7.328125 0 
L 7.328125 8.296875 
Q 12.9375 14.109375 22.625 23.890625 
Q 32.328125 33.6875 34.8125 36.53125 
Q 39.546875 41.84375 41.421875 45.53125 
Q 43.3125 49.21875 43.3125 52.78125 
Q 43.3125 58.59375 39.234375 62.25 
Q 35.15625 65.921875 28.609375 65.921875 
Q 23.96875 65.921875 18.8125 64.3125 
Q 13.671875 62.703125 7.8125 59.421875 
L 7.8125 69.390625 
Q 13.765625 71.78125 18.9375 73 
Q 24.125 74.21875 28.421875 74.21875 
Q 39.75 74.21875 46.484375 68.546875 
Q 53.21875 62.890625 53.21875 53.421875 
Q 53.21875 48.921875 51.53125 44.890625 
Q 49.859375 40.875 45.40625 35.40625 
Q 44.1875 33.984375 37.640625 27.21875 
Q 31.109375 20.453125 19.1875 8.296875 
z
" id="DejaVuSans-50"/>
        <path d="M 31.78125 66.40625 
Q 24.171875 66.40625 20.328125 58.90625 
Q 16.5 51.421875 16.5 36.375 
Q 16.5 21.390625 20.328125 13.890625 
Q 24.171875 6.390625 31.78125 6.390625 
Q 39.453125 6.390625 43.28125 13.890625 
Q 47.125 21.390625 47.125 36.375 
Q 47.125 51.421875 43.28125 58.90625 
Q 39.453125 66.40625 31.78125 66.40625 
z
M 31.78125 74.21875 
Q 44.046875 74.21875 50.515625 64.515625 
Q 56.984375 54.828125 56.984375 36.375 
Q 56.984375 17.96875 50.515625 8.265625 
Q 44.046875 -1.421875 31.78125 -1.421875 
Q 19.53125 -1.421875 13.0625 8.265625 
Q 6.59375 17.96875 6.59375 36.375 
Q 6.59375 54.828125 13.0625 64.515625 
Q 19.53125 74.21875 31.78125 74.21875 
z
" id="DejaVuSans-48"/>
        <path d="M 12.40625 8.296875 
L 28.515625 8.296875 
L 28.515625 63.921875 
L 10.984375 60.40625 
L 10.984375 69.390625 
L 28.421875 72.90625 
L 38.28125 72.90625 
L 38.28125 8.296875 
L 54.390625 8.296875 
L 54.390625 0 
L 12.40625 0 
z
" id="DejaVuSans-49"/>
        <path d="M 10.984375 1.515625 
L 10.984375 10.5 
Q 14.703125 8.734375 18.5 7.8125 
Q 22.3125 6.890625 25.984375 6.890625 
Q 35.75 6.890625 40.890625 13.453125 
Q 46.046875 20.015625 46.78125 33.40625 
Q 43.953125 29.203125 39.59375 26.953125 
Q 35.25 24.703125 29.984375 24.703125 
Q 19.046875 24.703125 12.671875 31.3125 
Q 6.296875 37.9375 6.296875 49.421875 
Q 6.296875 60.640625 12.9375 67.421875 
Q 19.578125 74.21875 30.609375 74.21875 
Q 43.265625 74.21875 49.921875 64.515625 
Q 56.59375 54.828125 56.59375 36.375 
Q 56.59375 19.140625 48.40625 8.859375 
Q 40.234375 -1.421875 26.421875 -1.421875 
Q 22.703125 -1.421875 18.890625 -0.6875 
Q 15.09375 0.046875 10.984375 1.515625 
z
M 30.609375 32.421875 
Q 37.25 32.421875 41.125 36.953125 
Q 45.015625 41.5 45.015625 49.421875 
Q 45.015625 57.28125 41.125 61.84375 
Q 37.25 66.40625 30.609375 66.40625 
Q 23.96875 66.40625 20.09375 61.84375 
Q 16.21875 57.28125 16.21875 49.421875 
Q 16.21875 41.5 20.09375 36.953125 
Q 23.96875 32.421875 30.609375 32.421875 
z
" id="DejaVuSans-57"/>
        <path d="M 4.890625 31.390625 
L 31.203125 31.390625 
L 31.203125 23.390625 
L 4.890625 23.390625 
z
" id="DejaVuSans-45"/>
        <path d="M 40.578125 39.3125 
Q 47.65625 37.796875 51.625 33 
Q 55.609375 28.21875 55.609375 21.1875 
Q 55.609375 10.40625 48.1875 4.484375 
Q 40.765625 -1.421875 27.09375 -1.421875 
Q 22.515625 -1.421875 17.65625 -0.515625 
Q 12.796875 0.390625 7.625 2.203125 
L 7.625 11.71875 
Q 11.71875 9.328125 16.59375 8.109375 
Q 21.484375 6.890625 26.8125 6.890625 
Q 36.078125 6.890625 40.9375 10.546875 
Q 45.796875 14.203125 45.796875 21.1875 
Q 45.796875 27.640625 41.28125 31.265625 
Q 36.765625 34.90625 28.71875 34.90625 
L 20.21875 34.90625 
L 20.21875 43.015625 
L 29.109375 43.015625 
Q 36.375 43.015625 40.234375 45.921875 
Q 44.09375 48.828125 44.09375 54.296875 
Q 44.09375 59.90625 40.109375 62.90625 
Q 36.140625 65.921875 28.71875 65.921875 
Q 24.65625 65.921875 20.015625 65.03125 
Q 15.375 64.15625 9.8125 62.3125 
L 9.8125 71.09375 
Q 15.4375 72.65625 20.34375 73.4375 
Q 25.25 74.21875 29.59375 74.21875 
Q 40.828125 74.21875 47.359375 69.109375 
Q 53.90625 64.015625 53.90625 55.328125 
Q 53.90625 49.265625 50.4375 45.09375 
Q 46.96875 40.921875 40.578125 39.3125 
z
" id="DejaVuSans-51"/>
       </defs>
       <use xlink:href="#DejaVuSans-50"/>
       <use x="63.623047" xlink:href="#DejaVuSans-48"/>
       <use x="127.246094" xlink:href="#DejaVuSans-49"/>
       <use x="190.869141" xlink:href="#DejaVuSans-57"/>
       <use x="254.492188" xlink:href="#DejaVuSans-45"/>
       <use x="290.576172" xlink:href="#DejaVuSans-48"/>
       <use x="354.199219" xlink:href="#DejaVuSans-51"/>
       <use x="417.822266" xlink:href="#DejaVuSans-45"/>
       <use x="453.90625" xlink:href="#DejaVuSans-48"/>
       <use x="517.529297" xlink:href="#DejaVuSans-49"/>
      </g>
     </g>
    </g>
    <g id="xtick_2">
     <g id="line2d_3">
      <path clip-path="url(#p3c737809ba)" d="M 146.783377 307.584 
L 146.783377 41.472 
" style="fill:none;stroke:#b0b0b0;stroke-dasharray:1.85,0.8;stroke-dashoffset:0;stroke-width:0.5;"/>
     </g>
     <g id="line2d_4">
      <g>
       <use style="stroke:#000000;stroke-width:0.8;" x="146.783377" xlink:href="#ma16d44572c" y="307.584"/>
      </g>
     </g>
     <g id="text_2">
      <!-- 2019-06-01 -->
      <g transform="translate(135.625895 342.464116)rotate(-45)scale(0.06 -0.06)">
       <defs>
        <path d="M 33.015625 40.375 
Q 26.375 40.375 22.484375 35.828125 
Q 18.609375 31.296875 18.609375 23.390625 
Q 18.609375 15.53125 22.484375 10.953125 
Q 26.375 6.390625 33.015625 6.390625 
Q 39.65625 6.390625 43.53125 10.953125 
Q 47.40625 15.53125 47.40625 23.390625 
Q 47.40625 31.296875 43.53125 35.828125 
Q 39.65625 40.375 33.015625 40.375 
z
M 52.59375 71.296875 
L 52.59375 62.3125 
Q 48.875 64.0625 45.09375 64.984375 
Q 41.3125 65.921875 37.59375 65.921875 
Q 27.828125 65.921875 22.671875 59.328125 
Q 17.53125 52.734375 16.796875 39.40625 
Q 19.671875 43.65625 24.015625 45.921875 
Q 28.375 48.1875 33.59375 48.1875 
Q 44.578125 48.1875 50.953125 41.515625 
Q 57.328125 34.859375 57.328125 23.390625 
Q 57.328125 12.15625 50.6875 5.359375 
Q 44.046875 -1.421875 33.015625 -1.421875 
Q 20.359375 -1.421875 13.671875 8.265625 
Q 6.984375 17.96875 6.984375 36.375 
Q 6.984375 53.65625 15.1875 63.9375 
Q 23.390625 74.21875 37.203125 74.21875 
Q 40.921875 74.21875 44.703125 73.484375 
Q 48.484375 72.75 52.59375 71.296875 
z
" id="DejaVuSans-54"/>
       </defs>
       <use xlink:href="#DejaVuSans-50"/>
       <use x="63.623047" xlink:href="#DejaVuSans-48"/>
       <use x="127.246094" xlink:href="#DejaVuSans-49"/>
       <use x="190.869141" xlink:href="#DejaVuSans-57"/>
       <use x="254.492188" xlink:href="#DejaVuSans-45"/>
       <use x="290.576172" xlink:href="#DejaVuSans-48"/>
       <use x="354.199219" xlink:href="#DejaVuSans-54"/>
       <use x="417.822266" xlink:href="#DejaVuSans-45"/>
       <use x="453.90625" xlink:href="#DejaVuSans-48"/>
       <use x="517.529297" xlink:href="#DejaVuSans-49"/>
      </g>
     </g>
    </g>
    <g id="xtick_3">
     <g id="line2d_5">
      <path clip-path="url(#p3c737809ba)" d="M 191.23013 307.584 
L 191.23013 41.472 
" style="fill:none;stroke:#b0b0b0;stroke-dasharray:1.85,0.8;stroke-dashoffset:0;stroke-width:0.5;"/>
     </g>
     <g id="line2d_6">
      <g>
       <use style="stroke:#000000;stroke-width:0.8;" x="191.23013" xlink:href="#ma16d44572c" y="307.584"/>
      </g>
     </g>
     <g id="text_3">
      <!-- 2019-09-01 -->
      <g transform="translate(180.072648 342.464116)rotate(-45)scale(0.06 -0.06)">
       <use xlink:href="#DejaVuSans-50"/>
       <use x="63.623047" xlink:href="#DejaVuSans-48"/>
       <use x="127.246094" xlink:href="#DejaVuSans-49"/>
       <use x="190.869141" xlink:href="#DejaVuSans-57"/>
       <use x="254.492188" xlink:href="#DejaVuSans-45"/>
       <use x="290.576172" xlink:href="#DejaVuSans-48"/>
       <use x="354.199219" xlink:href="#DejaVuSans-57"/>
       <use x="417.822266" xlink:href="#DejaVuSans-45"/>
       <use x="453.90625" xlink:href="#DejaVuSans-48"/>
       <use x="517.529297" xlink:href="#DejaVuSans-49"/>
      </g>
     </g>
    </g>
    <g id="xtick_4">
     <g id="line2d_7">
      <path clip-path="url(#p3c737809ba)" d="M 235.193766 307.584 
L 235.193766 41.472 
" style="fill:none;stroke:#b0b0b0;stroke-dasharray:1.85,0.8;stroke-dashoffset:0;stroke-width:0.5;"/>
     </g>
     <g id="line2d_8">
      <g>
       <use style="stroke:#000000;stroke-width:0.8;" x="235.193766" xlink:href="#ma16d44572c" y="307.584"/>
      </g>
     </g>
     <g id="text_4">
      <!-- 2019-12-01 -->
      <g transform="translate(224.036284 342.464116)rotate(-45)scale(0.06 -0.06)">
       <use xlink:href="#DejaVuSans-50"/>
       <use x="63.623047" xlink:href="#DejaVuSans-48"/>
       <use x="127.246094" xlink:href="#DejaVuSans-49"/>
       <use x="190.869141" xlink:href="#DejaVuSans-57"/>
       <use x="254.492188" xlink:href="#DejaVuSans-45"/>
       <use x="290.576172" xlink:href="#DejaVuSans-49"/>
       <use x="354.199219" xlink:href="#DejaVuSans-50"/>
       <use x="417.822266" xlink:href="#DejaVuSans-45"/>
       <use x="453.90625" xlink:href="#DejaVuSans-48"/>
       <use x="517.529297" xlink:href="#DejaVuSans-49"/>
      </g>
     </g>
    </g>
    <g id="xtick_5">
     <g id="line2d_9">
      <path clip-path="url(#p3c737809ba)" d="M 279.157403 307.584 
L 279.157403 41.472 
" style="fill:none;stroke:#b0b0b0;stroke-dasharray:1.85,0.8;stroke-dashoffset:0;stroke-width:0.5;"/>
     </g>
     <g id="line2d_10">
      <g>
       <use style="stroke:#000000;stroke-width:0.8;" x="279.157403" xlink:href="#ma16d44572c" y="307.584"/>
      </g>
     </g>
     <g id="text_5">
      <!-- 2020-03-01 -->
      <g transform="translate(267.999921 342.464116)rotate(-45)scale(0.06 -0.06)">
       <use xlink:href="#DejaVuSans-50"/>
       <use x="63.623047" xlink:href="#DejaVuSans-48"/>
       <use x="127.246094" xlink:href="#DejaVuSans-50"/>
       <use x="190.869141" xlink:href="#DejaVuSans-48"/>
       <use x="254.492188" xlink:href="#DejaVuSans-45"/>
       <use x="290.576172" xlink:href="#DejaVuSans-48"/>
       <use x="354.199219" xlink:href="#DejaVuSans-51"/>
       <use x="417.822266" xlink:href="#DejaVuSans-45"/>
       <use x="453.90625" xlink:href="#DejaVuSans-48"/>
       <use x="517.529297" xlink:href="#DejaVuSans-49"/>
      </g>
     </g>
    </g>
    <g id="xtick_6">
     <g id="line2d_11">
      <path clip-path="url(#p3c737809ba)" d="M 323.604156 307.584 
L 323.604156 41.472 
" style="fill:none;stroke:#b0b0b0;stroke-dasharray:1.85,0.8;stroke-dashoffset:0;stroke-width:0.5;"/>
     </g>
     <g id="line2d_12">
      <g>
       <use style="stroke:#000000;stroke-width:0.8;" x="323.604156" xlink:href="#ma16d44572c" y="307.584"/>
      </g>
     </g>
     <g id="text_6">
      <!-- 2020-06-01 -->
      <g transform="translate(312.446674 342.464116)rotate(-45)scale(0.06 -0.06)">
       <use xlink:href="#DejaVuSans-50"/>
       <use x="63.623047" xlink:href="#DejaVuSans-48"/>
       <use x="127.246094" xlink:href="#DejaVuSans-50"/>
       <use x="190.869141" xlink:href="#DejaVuSans-48"/>
       <use x="254.492188" xlink:href="#DejaVuSans-45"/>
       <use x="290.576172" xlink:href="#DejaVuSans-48"/>
       <use x="354.199219" xlink:href="#DejaVuSans-54"/>
       <use x="417.822266" xlink:href="#DejaVuSans-45"/>
       <use x="453.90625" xlink:href="#DejaVuSans-48"/>
       <use x="517.529297" xlink:href="#DejaVuSans-49"/>
      </g>
     </g>
    </g>
    <g id="xtick_7">
     <g id="line2d_13">
      <path clip-path="url(#p3c737809ba)" d="M 368.050909 307.584 
L 368.050909 41.472 
" style="fill:none;stroke:#b0b0b0;stroke-dasharray:1.85,0.8;stroke-dashoffset:0;stroke-width:0.5;"/>
     </g>
     <g id="line2d_14">
      <g>
       <use style="stroke:#000000;stroke-width:0.8;" x="368.050909" xlink:href="#ma16d44572c" y="307.584"/>
      </g>
     </g>
     <g id="text_7">
      <!-- 2020-09-01 -->
      <g transform="translate(356.893427 342.464116)rotate(-45)scale(0.06 -0.06)">
       <use xlink:href="#DejaVuSans-50"/>
       <use x="63.623047" xlink:href="#DejaVuSans-48"/>
       <use x="127.246094" xlink:href="#DejaVuSans-50"/>
       <use x="190.869141" xlink:href="#DejaVuSans-48"/>
       <use x="254.492188" xlink:href="#DejaVuSans-45"/>
       <use x="290.576172" xlink:href="#DejaVuSans-48"/>
       <use x="354.199219" xlink:href="#DejaVuSans-57"/>
       <use x="417.822266" xlink:href="#DejaVuSans-45"/>
       <use x="453.90625" xlink:href="#DejaVuSans-48"/>
       <use x="517.529297" xlink:href="#DejaVuSans-49"/>
      </g>
     </g>
    </g>
    <g id="text_8">
     <!-- Date -->
     <g transform="translate(224.209219 354.94489)scale(0.1 -0.1)">
      <defs>
       <path d="M 19.671875 64.796875 
L 19.671875 8.109375 
L 31.59375 8.109375 
Q 46.6875 8.109375 53.6875 14.9375 
Q 60.6875 21.78125 60.6875 36.53125 
Q 60.6875 51.171875 53.6875 57.984375 
Q 46.6875 64.796875 31.59375 64.796875 
z
M 9.8125 72.90625 
L 30.078125 72.90625 
Q 51.265625 72.90625 61.171875 64.09375 
Q 71.09375 55.28125 71.09375 36.53125 
Q 71.09375 17.671875 61.125 8.828125 
Q 51.171875 0 30.078125 0 
L 9.8125 0 
z
" id="DejaVuSans-68"/>
       <path d="M 34.28125 27.484375 
Q 23.390625 27.484375 19.1875 25 
Q 14.984375 22.515625 14.984375 16.5 
Q 14.984375 11.71875 18.140625 8.90625 
Q 21.296875 6.109375 26.703125 6.109375 
Q 34.1875 6.109375 38.703125 11.40625 
Q 43.21875 16.703125 43.21875 25.484375 
L 43.21875 27.484375 
z
M 52.203125 31.203125 
L 52.203125 0 
L 43.21875 0 
L 43.21875 8.296875 
Q 40.140625 3.328125 35.546875 0.953125 
Q 30.953125 -1.421875 24.3125 -1.421875 
Q 15.921875 -1.421875 10.953125 3.296875 
Q 6 8.015625 6 15.921875 
Q 6 25.140625 12.171875 29.828125 
Q 18.359375 34.515625 30.609375 34.515625 
L 43.21875 34.515625 
L 43.21875 35.40625 
Q 43.21875 41.609375 39.140625 45 
Q 35.0625 48.390625 27.6875 48.390625 
Q 23 48.390625 18.546875 47.265625 
Q 14.109375 46.140625 10.015625 43.890625 
L 10.015625 52.203125 
Q 14.9375 54.109375 19.578125 55.046875 
Q 24.21875 56 28.609375 56 
Q 40.484375 56 46.34375 49.84375 
Q 52.203125 43.703125 52.203125 31.203125 
z
" id="DejaVuSans-97"/>
       <path d="M 18.3125 70.21875 
L 18.3125 54.6875 
L 36.8125 54.6875 
L 36.8125 47.703125 
L 18.3125 47.703125 
L 18.3125 18.015625 
Q 18.3125 11.328125 20.140625 9.421875 
Q 21.96875 7.515625 27.59375 7.515625 
L 36.8125 7.515625 
L 36.8125 0 
L 27.59375 0 
Q 17.1875 0 13.234375 3.875 
Q 9.28125 7.765625 9.28125 18.015625 
L 9.28125 47.703125 
L 2.6875 47.703125 
L 2.6875 54.6875 
L 9.28125 54.6875 
L 9.28125 70.21875 
z
" id="DejaVuSans-116"/>
       <path d="M 56.203125 29.59375 
L 56.203125 25.203125 
L 14.890625 25.203125 
Q 15.484375 15.921875 20.484375 11.0625 
Q 25.484375 6.203125 34.421875 6.203125 
Q 39.59375 6.203125 44.453125 7.46875 
Q 49.3125 8.734375 54.109375 11.28125 
L 54.109375 2.78125 
Q 49.265625 0.734375 44.1875 -0.34375 
Q 39.109375 -1.421875 33.890625 -1.421875 
Q 20.796875 -1.421875 13.15625 6.1875 
Q 5.515625 13.8125 5.515625 26.8125 
Q 5.515625 40.234375 12.765625 48.109375 
Q 20.015625 56 32.328125 56 
Q 43.359375 56 49.78125 48.890625 
Q 56.203125 41.796875 56.203125 29.59375 
z
M 47.21875 32.234375 
Q 47.125 39.59375 43.09375 43.984375 
Q 39.0625 48.390625 32.421875 48.390625 
Q 24.90625 48.390625 20.390625 44.140625 
Q 15.875 39.890625 15.1875 32.171875 
z
" id="DejaVuSans-101"/>
      </defs>
      <use xlink:href="#DejaVuSans-68"/>
      <use x="77.001953" xlink:href="#DejaVuSans-97"/>
      <use x="138.28125" xlink:href="#DejaVuSans-116"/>
      <use x="177.490234" xlink:href="#DejaVuSans-101"/>
     </g>
    </g>
   </g>
   <g id="matplotlib.axis_2">
    <g id="ytick_1">
     <g id="line2d_15">
      <path clip-path="url(#p3c737809ba)" d="M 57.6 274.751643 
L 414.72 274.751643 
" style="fill:none;stroke:#b0b0b0;stroke-dasharray:1.85,0.8;stroke-dashoffset:0;stroke-width:0.5;"/>
     </g>
     <g id="line2d_16">
      <defs>
       <path d="M 0 0 
L -3.5 0 
" id="m5c9f09c05d" style="stroke:#000000;stroke-width:0.8;"/>
      </defs>
      <g>
       <use style="stroke:#000000;stroke-width:0.8;" x="57.6" xlink:href="#m5c9f09c05d" y="274.751643"/>
      </g>
     </g>
     <g id="text_9">
      <!-- 1000 -->
      <g transform="translate(25.15 278.550862)scale(0.1 -0.1)">
       <use xlink:href="#DejaVuSans-49"/>
       <use x="63.623047" xlink:href="#DejaVuSans-48"/>
       <use x="127.246094" xlink:href="#DejaVuSans-48"/>
       <use x="190.869141" xlink:href="#DejaVuSans-48"/>
      </g>
     </g>
    </g>
    <g id="ytick_2">
     <g id="line2d_17">
      <path clip-path="url(#p3c737809ba)" d="M 57.6 240.248795 
L 414.72 240.248795 
" style="fill:none;stroke:#b0b0b0;stroke-dasharray:1.85,0.8;stroke-dashoffset:0;stroke-width:0.5;"/>
     </g>
     <g id="line2d_18">
      <g>
       <use style="stroke:#000000;stroke-width:0.8;" x="57.6" xlink:href="#m5c9f09c05d" y="240.248795"/>
      </g>
     </g>
     <g id="text_10">
      <!-- 1250 -->
      <g transform="translate(25.15 244.048013)scale(0.1 -0.1)">
       <defs>
        <path d="M 10.796875 72.90625 
L 49.515625 72.90625 
L 49.515625 64.59375 
L 19.828125 64.59375 
L 19.828125 46.734375 
Q 21.96875 47.46875 24.109375 47.828125 
Q 26.265625 48.1875 28.421875 48.1875 
Q 40.625 48.1875 47.75 41.5 
Q 54.890625 34.8125 54.890625 23.390625 
Q 54.890625 11.625 47.5625 5.09375 
Q 40.234375 -1.421875 26.90625 -1.421875 
Q 22.3125 -1.421875 17.546875 -0.640625 
Q 12.796875 0.140625 7.71875 1.703125 
L 7.71875 11.625 
Q 12.109375 9.234375 16.796875 8.0625 
Q 21.484375 6.890625 26.703125 6.890625 
Q 35.15625 6.890625 40.078125 11.328125 
Q 45.015625 15.765625 45.015625 23.390625 
Q 45.015625 31 40.078125 35.4375 
Q 35.15625 39.890625 26.703125 39.890625 
Q 22.75 39.890625 18.8125 39.015625 
Q 14.890625 38.140625 10.796875 36.28125 
z
" id="DejaVuSans-53"/>
       </defs>
       <use xlink:href="#DejaVuSans-49"/>
       <use x="63.623047" xlink:href="#DejaVuSans-50"/>
       <use x="127.246094" xlink:href="#DejaVuSans-53"/>
       <use x="190.869141" xlink:href="#DejaVuSans-48"/>
      </g>
     </g>
    </g>
    <g id="ytick_3">
     <g id="line2d_19">
      <path clip-path="url(#p3c737809ba)" d="M 57.6 205.745946 
L 414.72 205.745946 
" style="fill:none;stroke:#b0b0b0;stroke-dasharray:1.85,0.8;stroke-dashoffset:0;stroke-width:0.5;"/>
     </g>
     <g id="line2d_20">
      <g>
       <use style="stroke:#000000;stroke-width:0.8;" x="57.6" xlink:href="#m5c9f09c05d" y="205.745946"/>
      </g>
     </g>
     <g id="text_11">
      <!-- 1500 -->
      <g transform="translate(25.15 209.545165)scale(0.1 -0.1)">
       <use xlink:href="#DejaVuSans-49"/>
       <use x="63.623047" xlink:href="#DejaVuSans-53"/>
       <use x="127.246094" xlink:href="#DejaVuSans-48"/>
       <use x="190.869141" xlink:href="#DejaVuSans-48"/>
      </g>
     </g>
    </g>
    <g id="ytick_4">
     <g id="line2d_21">
      <path clip-path="url(#p3c737809ba)" d="M 57.6 171.243098 
L 414.72 171.243098 
" style="fill:none;stroke:#b0b0b0;stroke-dasharray:1.85,0.8;stroke-dashoffset:0;stroke-width:0.5;"/>
     </g>
     <g id="line2d_22">
      <g>
       <use style="stroke:#000000;stroke-width:0.8;" x="57.6" xlink:href="#m5c9f09c05d" y="171.243098"/>
      </g>
     </g>
     <g id="text_12">
      <!-- 1750 -->
      <g transform="translate(25.15 175.042316)scale(0.1 -0.1)">
       <defs>
        <path d="M 8.203125 72.90625 
L 55.078125 72.90625 
L 55.078125 68.703125 
L 28.609375 0 
L 18.3125 0 
L 43.21875 64.59375 
L 8.203125 64.59375 
z
" id="DejaVuSans-55"/>
       </defs>
       <use xlink:href="#DejaVuSans-49"/>
       <use x="63.623047" xlink:href="#DejaVuSans-55"/>
       <use x="127.246094" xlink:href="#DejaVuSans-53"/>
       <use x="190.869141" xlink:href="#DejaVuSans-48"/>
      </g>
     </g>
    </g>
    <g id="ytick_5">
     <g id="line2d_23">
      <path clip-path="url(#p3c737809ba)" d="M 57.6 136.740249 
L 414.72 136.740249 
" style="fill:none;stroke:#b0b0b0;stroke-dasharray:1.85,0.8;stroke-dashoffset:0;stroke-width:0.5;"/>
     </g>
     <g id="line2d_24">
      <g>
       <use style="stroke:#000000;stroke-width:0.8;" x="57.6" xlink:href="#m5c9f09c05d" y="136.740249"/>
      </g>
     </g>
     <g id="text_13">
      <!-- 2000 -->
      <g transform="translate(25.15 140.539468)scale(0.1 -0.1)">
       <use xlink:href="#DejaVuSans-50"/>
       <use x="63.623047" xlink:href="#DejaVuSans-48"/>
       <use x="127.246094" xlink:href="#DejaVuSans-48"/>
       <use x="190.869141" xlink:href="#DejaVuSans-48"/>
      </g>
     </g>
    </g>
    <g id="ytick_6">
     <g id="line2d_25">
      <path clip-path="url(#p3c737809ba)" d="M 57.6 102.2374 
L 414.72 102.2374 
" style="fill:none;stroke:#b0b0b0;stroke-dasharray:1.85,0.8;stroke-dashoffset:0;stroke-width:0.5;"/>
     </g>
     <g id="line2d_26">
      <g>
       <use style="stroke:#000000;stroke-width:0.8;" x="57.6" xlink:href="#m5c9f09c05d" y="102.2374"/>
      </g>
     </g>
     <g id="text_14">
      <!-- 2250 -->
      <g transform="translate(25.15 106.036619)scale(0.1 -0.1)">
       <use xlink:href="#DejaVuSans-50"/>
       <use x="63.623047" xlink:href="#DejaVuSans-50"/>
       <use x="127.246094" xlink:href="#DejaVuSans-53"/>
       <use x="190.869141" xlink:href="#DejaVuSans-48"/>
      </g>
     </g>
    </g>
    <g id="ytick_7">
     <g id="line2d_27">
      <path clip-path="url(#p3c737809ba)" d="M 57.6 67.734552 
L 414.72 67.734552 
" style="fill:none;stroke:#b0b0b0;stroke-dasharray:1.85,0.8;stroke-dashoffset:0;stroke-width:0.5;"/>
     </g>
     <g id="line2d_28">
      <g>
       <use style="stroke:#000000;stroke-width:0.8;" x="57.6" xlink:href="#m5c9f09c05d" y="67.734552"/>
      </g>
     </g>
     <g id="text_15">
      <!-- 2500 -->
      <g transform="translate(25.15 71.533771)scale(0.1 -0.1)">
       <use xlink:href="#DejaVuSans-50"/>
       <use x="63.623047" xlink:href="#DejaVuSans-53"/>
       <use x="127.246094" xlink:href="#DejaVuSans-48"/>
       <use x="190.869141" xlink:href="#DejaVuSans-48"/>
      </g>
     </g>
    </g>
    <g id="text_16">
     <!-- Value (USD) -->
     <g transform="translate(19.070312 204.433469)rotate(-90)scale(0.1 -0.1)">
      <defs>
       <path d="M 28.609375 0 
L 0.78125 72.90625 
L 11.078125 72.90625 
L 34.1875 11.53125 
L 57.328125 72.90625 
L 67.578125 72.90625 
L 39.796875 0 
z
" id="DejaVuSans-86"/>
       <path d="M 9.421875 75.984375 
L 18.40625 75.984375 
L 18.40625 0 
L 9.421875 0 
z
" id="DejaVuSans-108"/>
       <path d="M 8.5 21.578125 
L 8.5 54.6875 
L 17.484375 54.6875 
L 17.484375 21.921875 
Q 17.484375 14.15625 20.5 10.265625 
Q 23.53125 6.390625 29.59375 6.390625 
Q 36.859375 6.390625 41.078125 11.03125 
Q 45.3125 15.671875 45.3125 23.6875 
L 45.3125 54.6875 
L 54.296875 54.6875 
L 54.296875 0 
L 45.3125 0 
L 45.3125 8.40625 
Q 42.046875 3.421875 37.71875 1 
Q 33.40625 -1.421875 27.6875 -1.421875 
Q 18.265625 -1.421875 13.375 4.4375 
Q 8.5 10.296875 8.5 21.578125 
z
M 31.109375 56 
z
" id="DejaVuSans-117"/>
       <path id="DejaVuSans-32"/>
       <path d="M 31 75.875 
Q 24.46875 64.65625 21.28125 53.65625 
Q 18.109375 42.671875 18.109375 31.390625 
Q 18.109375 20.125 21.3125 9.0625 
Q 24.515625 -2 31 -13.1875 
L 23.1875 -13.1875 
Q 15.875 -1.703125 12.234375 9.375 
Q 8.59375 20.453125 8.59375 31.390625 
Q 8.59375 42.28125 12.203125 53.3125 
Q 15.828125 64.359375 23.1875 75.875 
z
" id="DejaVuSans-40"/>
       <path d="M 8.6875 72.90625 
L 18.609375 72.90625 
L 18.609375 28.609375 
Q 18.609375 16.890625 22.84375 11.734375 
Q 27.09375 6.59375 36.625 6.59375 
Q 46.09375 6.59375 50.34375 11.734375 
Q 54.59375 16.890625 54.59375 28.609375 
L 54.59375 72.90625 
L 64.5 72.90625 
L 64.5 27.390625 
Q 64.5 13.140625 57.4375 5.859375 
Q 50.390625 -1.421875 36.625 -1.421875 
Q 22.796875 -1.421875 15.734375 5.859375 
Q 8.6875 13.140625 8.6875 27.390625 
z
" id="DejaVuSans-85"/>
       <path d="M 53.515625 70.515625 
L 53.515625 60.890625 
Q 47.90625 63.578125 42.921875 64.890625 
Q 37.9375 66.21875 33.296875 66.21875 
Q 25.25 66.21875 20.875 63.09375 
Q 16.5 59.96875 16.5 54.203125 
Q 16.5 49.359375 19.40625 46.890625 
Q 22.3125 44.4375 30.421875 42.921875 
L 36.375 41.703125 
Q 47.40625 39.59375 52.65625 34.296875 
Q 57.90625 29 57.90625 20.125 
Q 57.90625 9.515625 50.796875 4.046875 
Q 43.703125 -1.421875 29.984375 -1.421875 
Q 24.8125 -1.421875 18.96875 -0.25 
Q 13.140625 0.921875 6.890625 3.21875 
L 6.890625 13.375 
Q 12.890625 10.015625 18.65625 8.296875 
Q 24.421875 6.59375 29.984375 6.59375 
Q 38.421875 6.59375 43.015625 9.90625 
Q 47.609375 13.234375 47.609375 19.390625 
Q 47.609375 24.75 44.3125 27.78125 
Q 41.015625 30.8125 33.5 32.328125 
L 27.484375 33.5 
Q 16.453125 35.6875 11.515625 40.375 
Q 6.59375 45.0625 6.59375 53.421875 
Q 6.59375 63.09375 13.40625 68.65625 
Q 20.21875 74.21875 32.171875 74.21875 
Q 37.3125 74.21875 42.625 73.28125 
Q 47.953125 72.359375 53.515625 70.515625 
z
" id="DejaVuSans-83"/>
       <path d="M 8.015625 75.875 
L 15.828125 75.875 
Q 23.140625 64.359375 26.78125 53.3125 
Q 30.421875 42.28125 30.421875 31.390625 
Q 30.421875 20.453125 26.78125 9.375 
Q 23.140625 -1.703125 15.828125 -13.1875 
L 8.015625 -13.1875 
Q 14.5 -2 17.703125 9.0625 
Q 20.90625 20.125 20.90625 31.390625 
Q 20.90625 42.671875 17.703125 53.65625 
Q 14.5 64.65625 8.015625 75.875 
z
" id="DejaVuSans-41"/>
      </defs>
      <use xlink:href="#DejaVuSans-86"/>
      <use x="60.658203" xlink:href="#DejaVuSans-97"/>
      <use x="121.9375" xlink:href="#DejaVuSans-108"/>
      <use x="149.720703" xlink:href="#DejaVuSans-117"/>
      <use x="213.099609" xlink:href="#DejaVuSans-101"/>
      <use x="274.623047" xlink:href="#DejaVuSans-32"/>
      <use x="306.410156" xlink:href="#DejaVuSans-40"/>
      <use x="345.423828" xlink:href="#DejaVuSans-85"/>
      <use x="418.617188" xlink:href="#DejaVuSans-83"/>
      <use x="482.09375" xlink:href="#DejaVuSans-68"/>
      <use x="559.095703" xlink:href="#DejaVuSans-41"/>
     </g>
    </g>
   </g>
   <g id="line2d_29">
    <path clip-path="url(#p3c737809ba)" d="M 73.832727 274.751643 
L 74.315844 269.413335 
L 74.798961 262.094367 
L 75.282078 267.93255 
L 75.765195 265.259055 
L 76.248312 266.164888 
L 76.731429 260.872322 
L 77.214545 263.126923 
L 77.697662 263.686207 
L 78.180779 262.614544 
L 78.663896 280.336139 
L 79.147013 281.177995 
L 79.63013 281.743716 
L 80.113247 287.959342 
L 80.596364 279.48186 
L 81.079481 284.072528 
L 81.562597 282.348093 
L 82.045714 281.989464 
L 82.528831 283.934066 
L 83.011948 280.962148 
L 83.495065 286.042118 
L 83.978182 286.577542 
L 84.461299 284.977599 
L 84.944416 285.728262 
L 85.427532 285.669167 
L 85.910649 286.255467 
L 86.393766 286.446005 
L 86.876883 288.29185 
L 87.36 294.383227 
L 87.843117 295.488 
L 88.326234 289.703549 
L 88.809351 292.082359 
L 89.292468 291.504592 
L 89.775584 290.236891 
L 90.258701 291.882613 
L 90.741818 291.790505 
L 91.224935 291.903304 
L 91.708052 294.872182 
L 92.191169 295.002282 
L 92.674286 283.167239 
L 93.157403 283.009073 
L 93.640519 281.640585 
L 94.123636 284.377867 
L 94.606753 283.108162 
L 95.08987 283.892291 
L 95.572987 285.30329 
L 96.539221 283.930636 
L 97.022338 279.597604 
L 97.505455 269.121258 
L 97.988571 268.885197 
L 98.471688 264.295282 
L 98.954805 267.602451 
L 99.437922 265.831344 
L 99.921039 258.829234 
L 100.404156 277.109366 
L 100.887273 271.711577 
L 101.37039 273.798143 
L 101.853506 274.546303 
L 102.336623 274.026547 
L 102.81974 274.000263 
L 103.785974 275.844415 
L 104.269091 280.491207 
L 104.752208 272.427128 
L 105.235325 272.121395 
L 105.718442 272.336495 
L 106.201558 274.525144 
L 106.684675 271.063353 
L 107.167792 272.010859 
L 107.650909 274.798886 
L 108.134026 273.969764 
L 108.617143 274.436669 
L 109.10026 274.253974 
L 110.066494 267.370202 
L 110.54961 269.073596 
L 111.032727 269.039997 
L 111.515844 268.243638 
L 111.998961 267.700121 
L 112.482078 270.910695 
L 112.965195 270.336763 
L 113.448312 269.143214 
L 113.931429 270.195272 
L 114.414545 272.435403 
L 114.897662 272.405309 
L 115.380779 266.235864 
L 115.863896 267.492277 
L 116.347013 264.604366 
L 116.83013 265.101956 
L 117.313247 265.263037 
L 117.796364 264.369537 
L 118.279481 238.574518 
L 118.762597 236.38171 
L 119.245714 240.091257 
L 119.728831 232.027989 
L 120.211948 231.904493 
L 120.695065 226.022107 
L 121.178182 223.498735 
L 121.661299 227.750474 
L 122.144416 223.433584 
L 122.627532 235.963652 
L 123.110649 235.418335 
L 123.593766 236.164452 
L 124.076883 232.769429 
L 124.56 236.516638 
L 125.043117 231.155053 
L 125.526234 230.854127 
L 126.009351 227.924069 
L 126.492468 228.52654 
L 126.975584 228.906769 
L 127.458701 231.335918 
L 127.941818 229.95134 
L 128.424935 228.158952 
L 128.908052 234.781059 
L 129.391169 243.764713 
L 129.874286 240.069667 
L 130.840519 241.834705 
L 131.323636 245.436312 
L 131.806753 238.340639 
L 132.28987 238.375351 
L 132.772987 236.820547 
L 133.256104 229.058696 
L 133.739221 229.938488 
L 134.222338 231.086648 
L 134.705455 228.650262 
L 135.188571 228.315921 
L 135.671688 226.547367 
L 136.154805 224.143527 
L 136.637922 220.489808 
L 137.121039 193.357809 
L 137.604156 203.030092 
L 139.053506 147.193871 
L 139.536623 151.319925 
L 140.01974 170.540415 
L 140.502857 175.678383 
L 140.985974 148.1472 
L 141.469091 156.079968 
L 141.952208 154.810619 
L 142.435325 166.555504 
L 143.401558 158.54509 
L 143.884675 156.884384 
L 144.367792 139.796637 
L 144.850909 128.235702 
L 145.817143 130.812014 
L 146.30026 144.476387 
L 146.783377 131.205445 
L 147.266494 136.388402 
L 147.74961 130.090119 
L 148.232727 149.599071 
L 148.715844 164.398675 
L 149.198961 159.24985 
L 149.682078 156.347597 
L 150.165195 152.322442 
L 150.648312 157.633895 
L 151.131429 168.791926 
L 151.614545 157.123048 
L 152.097662 160.564694 
L 152.580779 151.445603 
L 153.063896 150.966704 
L 153.547013 141.616742 
L 154.513247 132.137542 
L 154.996364 124.05186 
L 155.479481 132.896978 
L 155.962597 127.907705 
L 156.445714 124.275413 
L 157.411948 88.384132 
L 157.895065 88.999167 
L 158.378182 84.900486 
L 158.861299 73.119869 
L 159.344416 53.568 
L 159.827532 101.086442 
L 160.310649 78.270863 
L 160.793766 78.522363 
L 161.276883 108.168825 
L 161.76 107.947052 
L 162.243117 108.676423 
L 162.726234 87.548172 
L 163.209351 106.646439 
L 163.692468 110.225705 
L 164.175584 104.091603 
L 164.658701 96.42747 
L 165.141818 82.591511 
L 165.624935 81.328594 
L 166.108052 97.499309 
L 166.591169 121.139861 
L 167.074286 111.48017 
L 167.557403 119.88396 
L 168.040519 154.891804 
L 168.523636 143.283652 
L 169.006753 174.524973 
L 169.48987 167.650617 
L 169.972987 147.225795 
L 170.456104 150.842576 
L 170.939221 142.320203 
L 171.422338 145.774902 
L 172.388571 161.885566 
L 172.871688 161.185116 
L 173.837922 157.910577 
L 174.321039 170.036981 
L 174.804156 167.046865 
L 175.287273 167.972019 
L 175.77039 166.273329 
L 176.253506 155.702522 
L 176.736623 153.221615 
L 177.21974 151.353041 
L 177.702857 145.980715 
L 178.185974 143.512976 
L 178.669091 127.547957 
L 179.152208 135.300274 
L 179.635325 129.458837 
L 180.118442 130.636925 
L 181.084675 146.588893 
L 181.567792 138.877712 
L 182.050909 143.551028 
L 182.534026 149.919461 
L 183.017143 175.181116 
L 183.50026 170.367451 
L 183.983377 171.613299 
L 184.466494 172.401591 
L 184.94961 166.210668 
L 185.432727 155.468807 
L 185.915844 160.953326 
L 186.398961 173.567674 
L 186.882078 170.915691 
L 187.365195 165.985921 
L 187.848312 171.524671 
L 188.331429 173.646029 
L 188.814545 169.541144 
L 189.297662 172.375567 
L 189.780779 184.697136 
L 190.263896 190.324155 
L 190.747013 188.943948 
L 191.23013 187.221629 
L 191.713247 186.21114 
L 192.196364 175.310289 
L 192.679481 170.42199 
L 193.162597 173.066057 
L 193.645714 173.721825 
L 194.128831 178.811409 
L 194.611948 172.561687 
L 195.095065 171.099371 
L 195.578182 172.431498 
L 196.061299 175.637003 
L 196.544416 176.562442 
L 197.027532 172.527031 
L 197.510649 173.067959 
L 197.993766 169.364678 
L 198.476883 169.648444 
L 198.96 167.44276 
L 199.443117 161.793814 
L 200.409351 155.712623 
L 201.858701 165.115573 
L 202.341818 174.901572 
L 202.824935 206.327144 
L 203.308052 207.920912 
L 203.791169 214.78611 
L 204.274286 211.0985 
L 204.757403 210.159187 
L 205.240519 214.386078 
L 205.723636 206.186995 
L 206.206753 204.85279 
L 206.68987 205.098889 
L 207.172987 208.524647 
L 207.656104 209.278362 
L 208.139221 209.245219 
L 208.622338 214.373474 
L 209.105455 204.303329 
L 209.588571 204.001933 
L 210.071688 194.217418 
L 210.554805 196.79071 
L 211.037922 204.525575 
L 212.004156 202.941358 
L 212.487273 198.201358 
L 213.453506 208.451515 
L 213.936623 204.7237 
L 214.41974 208.920458 
L 214.902857 209.655384 
L 215.385974 204.363121 
L 215.869091 204.216318 
L 216.352208 207.862636 
L 216.835325 221.413192 
L 217.318442 221.720987 
L 217.801558 194.084215 
L 218.767792 181.93867 
L 219.250909 185.999353 
L 219.734026 179.181171 
L 220.217143 185.361591 
L 220.70026 186.099742 
L 221.183377 185.246598 
L 221.666494 183.429156 
L 222.14961 185.681614 
L 222.632727 180.975552 
L 223.115844 180.369577 
L 223.598961 177.606815 
L 224.082078 183.325549 
L 224.565195 192.327998 
L 225.048312 190.911154 
L 225.531429 185.939703 
L 226.014545 192.536349 
L 226.497662 190.993717 
L 226.980779 191.409241 
L 227.463896 194.751343 
L 227.947013 199.896441 
L 228.43013 198.687953 
L 228.913247 197.952504 
L 229.396364 206.161169 
L 229.879481 208.025302 
L 230.362597 209.380141 
L 231.328831 231.936931 
L 231.811948 230.465685 
L 232.295065 241.478107 
L 232.778182 236.925213 
L 233.261299 235.540471 
L 233.744416 228.859313 
L 234.227532 230.12879 
L 234.710649 224.210547 
L 235.193766 227.840563 
L 236.16 232.971966 
L 236.643117 233.872017 
L 237.126234 236.201661 
L 238.092468 229.494398 
L 238.575584 230.311716 
L 239.058701 228.836008 
L 239.541818 232.689112 
L 240.024935 235.062501 
L 240.508052 236.556204 
L 240.991169 236.188554 
L 241.474286 235.198547 
L 241.957403 239.003721 
L 242.440519 238.36266 
L 242.923636 246.026292 
L 243.406753 256.465247 
L 243.88987 242.442895 
L 244.372987 246.150302 
L 244.856104 245.073183 
L 245.339221 246.316158 
L 245.822338 239.178007 
L 246.305455 243.325315 
L 246.788571 244.417734 
L 247.271688 246.46507 
L 247.754805 245.923779 
L 248.721039 242.333105 
L 249.204156 238.629213 
L 249.687273 242.184175 
L 250.17039 243.724602 
L 250.653506 243.384631 
L 251.136623 248.738215 
L 251.61974 240.197874 
L 252.102857 239.168479 
L 252.585974 238.825201 
L 253.069091 227.077341 
L 253.552208 222.478565 
L 254.035325 225.650983 
L 254.518442 229.717924 
L 255.001558 220.01438 
L 255.484675 223.658373 
L 255.967792 219.299944 
L 256.450909 221.27925 
L 256.934026 197.49277 
L 257.417143 197.882037 
L 257.90026 200.824137 
L 258.383377 193.077428 
L 258.866494 193.336092 
L 259.34961 199.727078 
L 259.832727 200.440972 
L 260.315844 197.971462 
L 260.798961 199.234547 
L 261.282078 206.197786 
L 261.765195 206.541884 
L 262.248312 208.884473 
L 262.731429 200.850542 
L 263.214545 194.842721 
L 263.697662 185.73215 
L 264.180779 187.022328 
L 264.663896 178.403493 
L 265.147013 184.64889 
L 266.113247 179.840157 
L 266.596364 179.10153 
L 267.079481 179.902326 
L 267.562597 165.376372 
L 268.045714 159.945967 
L 268.528831 156.539766 
L 269.011948 154.925286 
L 269.495065 148.729571 
L 269.978182 154.181337 
L 270.944416 131.961977 
L 271.427532 129.84389 
L 271.910649 121.777429 
L 272.393766 140.536343 
L 273.36 145.526957 
L 273.843117 134.366675 
L 274.326234 153.01727 
L 274.809351 154.599809 
L 275.292468 151.02736 
L 275.775584 152.473918 
L 276.258701 141.758484 
L 276.741818 151.056145 
L 277.224935 163.296336 
L 277.708052 182.79839 
L 278.191169 182.160432 
L 278.674286 182.754156 
L 279.157403 188.770856 
L 279.640519 188.167521 
L 280.123636 177.395445 
L 280.606753 182.652607 
L 281.08987 183.144942 
L 282.056104 169.307134 
L 282.539221 176.485889 
L 283.022338 206.878277 
L 283.505455 207.299398 
L 283.988571 207.231693 
L 284.471688 209.093117 
L 284.954805 286.386794 
L 285.437922 270.765381 
L 285.921039 279.818534 
L 286.404156 275.446248 
L 286.887273 286.222119 
L 287.37039 278.148581 
L 287.853506 278.442764 
L 288.336623 258.187601 
L 288.81974 260.44655 
L 289.302857 260.689247 
L 289.785974 268.983639 
L 290.269091 255.350177 
L 290.752208 249.927642 
L 291.235325 251.618426 
L 291.718442 248.185656 
L 292.201558 256.427043 
L 292.684675 257.686219 
L 293.167792 265.841301 
L 293.650909 255.778446 
L 294.134026 255.053661 
L 295.10026 246.313285 
L 295.583377 247.024963 
L 296.066494 244.215757 
L 296.54961 246.090879 
L 297.032727 227.548545 
L 297.515844 231.155066 
L 297.998961 225.048489 
L 298.482078 227.174708 
L 298.965195 239.192501 
L 299.448312 238.788938 
L 299.931429 238.232533 
L 300.414545 240.148218 
L 300.897662 239.906228 
L 301.380779 245.37452 
L 301.863896 232.074171 
L 302.347013 232.945788 
L 302.83013 223.982838 
L 303.313247 228.884958 
L 303.796364 236.6594 
L 304.279481 236.922051 
L 304.762597 228.614942 
L 305.245714 223.926329 
L 306.211948 218.340274 
L 306.695065 214.833434 
L 307.178182 213.889958 
L 307.661299 212.182982 
L 308.144416 191.23175 
L 308.627532 198.154677 
L 309.110649 192.6267 
L 309.593766 189.148217 
L 310.076883 192.376314 
L 310.56 193.904534 
L 311.043117 192.992608 
L 311.526234 193.369695 
L 312.009351 177.879595 
L 312.492468 179.615891 
L 312.975584 183.329639 
L 313.458701 204.426658 
L 313.941818 207.917312 
L 314.424935 204.089562 
L 315.391169 185.224205 
L 315.874286 195.177299 
L 316.357403 192.028771 
L 316.840519 186.296413 
L 317.323636 182.661861 
L 317.806753 182.25356 
L 318.28987 187.199366 
L 318.772987 198.140074 
L 319.256104 194.059574 
L 319.739221 193.680392 
L 320.222338 202.129808 
L 320.705455 198.529669 
L 321.188571 200.401906 
L 321.671688 193.308974 
L 322.154805 184.199014 
L 322.637922 185.877693 
L 323.121039 174.442463 
L 323.604156 181.094183 
L 324.087273 165.500723 
L 324.57039 178.518598 
L 325.053506 174.640212 
L 325.536623 172.496063 
L 326.01974 175.426256 
L 326.502857 174.784079 
L 326.985974 173.133303 
L 327.469091 171.956304 
L 327.952208 173.133965 
L 328.435325 170.35125 
L 328.918442 185.058257 
L 329.401558 180.755937 
L 329.884675 180.59279 
L 330.367792 184.513877 
L 330.850909 183.699119 
L 331.334026 181.231022 
L 331.817143 182.041936 
L 332.783377 186.532144 
L 333.266494 185.773613 
L 333.74961 187.438371 
L 334.232727 176.703911 
L 334.715844 177.781583 
L 335.198961 185.668114 
L 335.682078 186.711634 
L 336.165195 188.958753 
L 336.648312 195.258239 
L 337.131429 191.916914 
L 337.614545 190.214112 
L 338.097662 191.811342 
L 338.580779 189.079445 
L 339.063896 192.453597 
L 339.547013 192.867975 
L 340.03013 190.415534 
L 340.513247 191.68251 
L 340.996364 181.700762 
L 341.479481 184.364343 
L 341.962597 177.041804 
L 342.445714 181.555585 
L 342.928831 181.700279 
L 343.411948 182.659084 
L 343.895065 181.096788 
L 344.378182 183.117319 
L 344.861299 182.897023 
L 345.344416 184.300994 
L 345.827532 187.152376 
L 346.310649 187.263901 
L 347.276883 183.839288 
L 347.76 185.996923 
L 348.243117 179.480079 
L 348.726234 171.408 
L 349.209351 166.793544 
L 349.692468 166.836492 
L 350.175584 155.249327 
L 350.658701 150.644967 
L 351.141818 131.916322 
L 351.624935 131.825064 
L 352.108052 127.642938 
L 352.591169 121.87014 
L 353.074286 113.754131 
L 353.557403 90.289713 
L 354.040519 108.232492 
L 354.523636 98.112142 
L 355.006753 99.295659 
L 355.48987 88.658786 
L 355.972987 88.731079 
L 356.456104 97.351496 
L 356.939221 91.390385 
L 357.422338 93.603449 
L 357.905455 88.210902 
L 358.388571 101.546323 
L 358.871688 96.756834 
L 359.354805 79.995486 
L 359.837922 76.48644 
L 360.321039 75.394109 
L 360.804156 73.692365 
L 361.287273 68.340729 
L 362.253506 87.200714 
L 362.736623 82.06837 
L 363.21974 97.678603 
L 363.702857 91.723819 
L 364.185974 93.866219 
L 364.669091 86.429619 
L 365.152208 101.513002 
L 365.635325 99.663284 
L 366.118442 105.174741 
L 366.601558 97.106676 
L 367.084675 96.012231 
L 367.567792 83.045522 
L 368.050909 81.551497 
L 368.534026 64.163317 
L 369.017143 85.414121 
L 369.50026 124.404348 
L 369.983377 116.468832 
L 370.466494 138.498582 
L 370.94961 131.695333 
L 371.432727 130.597085 
L 371.915844 138.857428 
L 372.882078 126.346725 
L 373.365195 124.217976 
L 373.848312 118.720333 
L 374.331429 127.582596 
L 374.814545 119.513151 
L 375.297662 121.203462 
L 375.780779 118.636482 
L 376.263896 111.297861 
L 376.747013 113.39209 
L 377.23013 110.43412 
L 377.713247 117.772064 
L 378.196364 135.364366 
L 378.679481 132.785423 
L 379.162597 145.698806 
L 379.645714 129.090304 
L 380.128831 127.999582 
L 381.095065 124.461365 
L 381.578182 126.710852 
L 382.061299 122.699364 
L 382.544416 123.809032 
L 383.510649 131.77764 
L 383.993766 132.294478 
L 384.476883 126.92003 
L 384.96 124.811198 
L 385.443117 131.11215 
L 385.926234 129.710733 
L 387.375584 111.882594 
L 387.858701 109.275003 
L 388.341818 103.326312 
L 388.824935 106.017878 
L 389.308052 106.969856 
L 389.791169 107.147619 
L 390.274286 113.993432 
L 390.757403 112.773561 
L 391.723636 103.599483 
L 392.206753 105.705998 
L 392.68987 85.474584 
L 393.172987 75.973728 
L 393.656104 77.696201 
L 394.139221 74.038842 
L 394.622338 77.23337 
L 395.105455 81.63674 
L 395.588571 70.112358 
L 396.071688 79.800664 
L 396.554805 78.976723 
L 397.037922 79.751882 
L 397.521039 75.576074 
L 398.004156 73.471561 
L 398.487273 79.95736 
L 398.487273 79.95736 
" style="fill:none;stroke:#1f77b4;stroke-linecap:square;stroke-width:0.7;"/>
   </g>
   <g id="line2d_30">
    <path clip-path="url(#p3c737809ba)" d="M 73.832727 274.751643 
L 74.315844 269.413335 
L 74.798961 262.094367 
L 75.282078 267.93255 
L 75.765195 265.259055 
L 76.248312 266.164888 
L 76.731429 260.872322 
L 77.214545 263.126923 
L 77.697662 263.686207 
L 78.180779 262.614544 
L 78.663896 280.336139 
L 79.147013 281.177995 
L 79.63013 281.743716 
L 80.113247 287.959342 
L 80.596364 279.48186 
L 81.079481 284.072528 
L 81.562597 282.348093 
L 82.045714 281.989464 
L 82.528831 283.934066 
L 83.011948 280.962148 
L 83.495065 286.042118 
L 83.978182 286.577542 
L 84.461299 284.977599 
L 84.944416 285.728262 
L 85.427532 285.669167 
L 85.910649 286.255467 
L 86.393766 286.446005 
L 86.876883 288.29185 
L 87.36 294.383227 
L 87.843117 295.488 
L 88.326234 289.703549 
L 88.809351 292.082359 
L 89.292468 291.531726 
L 89.775584 290.253259 
L 90.258701 291.919043 
L 90.741818 291.843297 
L 91.224935 291.966419 
L 91.708052 294.964973 
L 92.191169 295.079488 
L 92.674286 283.213572 
L 93.157403 283.053562 
L 93.640519 281.697598 
L 94.123636 284.463452 
L 94.606753 283.151612 
L 95.08987 283.935973 
L 95.572987 285.371901 
L 96.539221 284.006415 
L 97.022338 279.652178 
L 97.505455 269.0995 
L 97.988571 268.870156 
L 98.471688 264.197073 
L 98.954805 267.572226 
L 99.437922 265.801194 
L 99.921039 258.76467 
L 100.404156 277.157811 
L 100.887273 271.633496 
L 101.37039 273.785346 
L 101.853506 274.565968 
L 102.336623 274.029563 
L 102.81974 273.993266 
L 103.785974 275.83242 
L 104.269091 280.500003 
L 104.752208 272.417981 
L 105.235325 272.119595 
L 105.718442 272.344668 
L 106.201558 274.558478 
L 106.684675 271.089324 
L 107.167792 272.032455 
L 107.650909 274.822561 
L 108.134026 273.989479 
L 108.617143 274.438026 
L 109.10026 274.266826 
L 110.066494 267.37494 
L 110.54961 269.0814 
L 111.032727 269.038541 
L 111.515844 268.247539 
L 111.998961 267.718675 
L 112.482078 270.936847 
L 112.965195 270.363221 
L 113.448312 269.159758 
L 113.931429 270.221787 
L 114.414545 272.457415 
L 114.897662 272.439507 
L 115.380779 266.207267 
L 115.863896 267.476779 
L 116.347013 264.626865 
L 116.83013 265.127856 
L 117.313247 265.284984 
L 117.796364 264.394166 
L 118.279481 238.594212 
L 118.762597 236.37883 
L 119.245714 240.145405 
L 119.728831 231.95463 
L 120.211948 231.86891 
L 120.695065 226.01236 
L 121.178182 223.56553 
L 121.661299 227.830248 
L 122.144416 223.504671 
L 122.627532 236.114329 
L 123.110649 235.5814 
L 123.593766 236.339551 
L 124.076883 232.938141 
L 124.56 236.635047 
L 125.043117 231.31604 
L 125.526234 230.994977 
L 126.009351 228.105186 
L 126.492468 228.741105 
L 126.975584 229.16659 
L 127.458701 231.654683 
L 128.424935 228.619582 
L 128.908052 235.343002 
L 129.391169 244.272517 
L 129.874286 240.563323 
L 130.840519 242.349853 
L 131.323636 246.002001 
L 131.806753 238.802091 
L 132.28987 239.004093 
L 132.772987 237.599063 
L 133.256104 229.977035 
L 134.222338 232.188926 
L 134.705455 229.601033 
L 135.188571 229.548934 
L 135.671688 227.937738 
L 136.154805 225.913813 
L 136.637922 222.512469 
L 137.121039 195.658543 
L 137.604156 205.270788 
L 138.087273 188.798355 
L 139.053506 148.364209 
L 139.536623 152.338812 
L 140.01974 171.58495 
L 140.502857 176.979763 
L 140.985974 149.626706 
L 141.469091 157.664485 
L 141.952208 156.291902 
L 142.435325 168.17684 
L 143.401558 160.334427 
L 143.884675 158.7174 
L 144.367792 141.894548 
L 144.850909 129.814372 
L 145.817143 132.078609 
L 146.30026 145.899832 
L 146.783377 132.288913 
L 147.266494 137.886071 
L 147.74961 131.578267 
L 148.232727 151.071078 
L 148.715844 165.749383 
L 149.198961 160.578469 
L 150.165195 153.645743 
L 150.648312 159.127407 
L 151.131429 170.413484 
L 151.614545 158.810996 
L 152.097662 162.264839 
L 152.580779 153.225359 
L 153.063896 152.845162 
L 153.547013 144.018335 
L 154.513247 134.544138 
L 154.996364 126.669704 
L 155.479481 135.636752 
L 155.962597 130.777446 
L 156.445714 127.621352 
L 157.411948 92.155142 
L 157.895065 93.211712 
L 158.378182 89.337129 
L 158.861299 78.767919 
L 159.344416 61.104123 
L 159.827532 107.383489 
L 160.310649 85.96531 
L 160.793766 85.32363 
L 161.276883 114.28771 
L 161.76 112.458786 
L 162.243117 114.463545 
L 162.726234 96.211744 
L 163.209351 114.503509 
L 163.692468 117.388122 
L 164.175584 111.766172 
L 164.658701 103.647624 
L 165.141818 92.106029 
L 165.624935 92.313516 
L 166.108052 109.407685 
L 166.591169 132.994059 
L 167.074286 123.966629 
L 167.557403 131.701048 
L 168.040519 166.581343 
L 168.523636 156.451256 
L 169.006753 185.376725 
L 169.48987 177.887546 
L 169.972987 159.417463 
L 170.456104 163.120953 
L 170.939221 154.336851 
L 171.422338 157.456845 
L 172.388571 172.683991 
L 173.837922 167.346594 
L 174.321039 179.420921 
L 174.804156 176.392462 
L 175.287273 177.362781 
L 175.77039 175.626831 
L 176.253506 166.015989 
L 176.736623 165.277604 
L 177.21974 164.28827 
L 177.702857 159.566026 
L 178.185974 157.701959 
L 178.669091 144.443571 
L 179.152208 151.841863 
L 179.635325 148.122877 
L 180.118442 150.040564 
L 180.601558 159.843451 
L 181.084675 164.682651 
L 181.567792 156.689277 
L 182.534026 165.48596 
L 183.017143 190.568609 
L 183.50026 186.699082 
L 183.983377 188.525022 
L 184.466494 188.68867 
L 185.432727 172.568698 
L 185.915844 178.335014 
L 186.398961 189.376171 
L 186.882078 186.026927 
L 187.365195 181.815058 
L 187.848312 186.960078 
L 188.331429 189.16728 
L 188.814545 185.931201 
L 189.297662 188.182967 
L 189.780779 200.502372 
L 190.263896 205.486607 
L 190.747013 204.56601 
L 191.23013 202.541671 
L 191.713247 202.393098 
L 192.196364 193.604211 
L 192.679481 189.946 
L 193.162597 193.072182 
L 193.645714 193.949704 
L 194.128831 198.641929 
L 194.611948 191.271879 
L 195.095065 188.708906 
L 195.578182 189.711035 
L 196.061299 192.027537 
L 196.544416 193.601698 
L 197.027532 190.688346 
L 197.510649 190.958057 
L 197.993766 185.877984 
L 198.476883 185.832927 
L 198.96 182.526829 
L 199.443117 174.081286 
L 199.926234 169.663897 
L 200.409351 166.288455 
L 201.858701 177.044393 
L 202.341818 186.897361 
L 202.824935 219.585812 
L 203.308052 219.089722 
L 203.791169 224.908388 
L 204.274286 220.81976 
L 204.757403 219.954189 
L 205.240519 224.065838 
L 205.723636 214.971442 
L 206.206753 214.083315 
L 206.68987 214.262151 
L 207.172987 217.195992 
L 207.656104 218.002037 
L 208.139221 217.811841 
L 208.622338 222.272444 
L 209.105455 211.629315 
L 209.588571 211.211038 
L 210.071688 201.931185 
L 210.554805 205.231008 
L 211.037922 212.79945 
L 212.004156 210.78397 
L 212.487273 205.025671 
L 213.453506 215.452679 
L 213.936623 211.102645 
L 214.41974 215.519259 
L 214.902857 216.422722 
L 215.385974 211.770828 
L 215.869091 211.684384 
L 216.352208 214.903339 
L 216.835325 227.600206 
L 217.318442 227.677909 
L 217.801558 202.227672 
L 218.284675 199.232218 
L 218.767792 193.798021 
L 219.250909 196.809255 
L 219.734026 189.381205 
L 220.217143 195.371385 
L 220.70026 196.165396 
L 221.183377 195.798544 
L 221.666494 193.996945 
L 222.14961 196.091971 
L 222.632727 191.455659 
L 223.115844 189.990002 
L 223.598961 186.663919 
L 224.082078 193.190316 
L 224.565195 201.307985 
L 225.048312 199.558547 
L 225.531429 195.141706 
L 226.014545 201.009569 
L 226.497662 199.699986 
L 226.980779 199.939232 
L 227.463896 203.269669 
L 227.947013 208.512761 
L 228.43013 207.084495 
L 228.913247 206.232264 
L 229.396364 214.318365 
L 230.362597 217.579479 
L 231.328831 239.969151 
L 231.811948 238.187838 
L 232.295065 249.30352 
L 232.778182 245.011261 
L 233.261299 243.545107 
L 233.744416 237.68738 
L 234.227532 238.936665 
L 234.710649 233.67425 
L 235.193766 236.979806 
L 235.676883 238.755157 
L 236.16 241.519745 
L 236.643117 242.498411 
L 237.126234 244.896346 
L 238.092468 238.925626 
L 238.575584 239.640055 
L 239.058701 237.828337 
L 239.541818 241.450633 
L 240.508052 245.171032 
L 240.991169 244.75119 
L 241.474286 243.854124 
L 241.957403 247.378424 
L 242.440519 246.764896 
L 242.923636 254.989059 
L 243.406753 266.369979 
L 243.88987 253.79986 
L 244.372987 257.598093 
L 244.856104 256.45157 
L 245.339221 257.682516 
L 245.822338 251.433402 
L 246.305455 255.543227 
L 246.788571 256.366874 
L 247.271688 258.487363 
L 247.754805 257.81373 
L 248.721039 253.960526 
L 249.204156 249.873331 
L 249.687273 253.163689 
L 250.17039 254.769194 
L 250.653506 254.302531 
L 251.136623 259.265955 
L 251.61974 251.033508 
L 252.102857 250.146351 
L 252.585974 249.671195 
L 253.069091 237.425581 
L 253.552208 235.376939 
L 254.518442 242.091406 
L 255.001558 232.363383 
L 255.484675 235.643894 
L 255.967792 231.351242 
L 256.450909 233.426875 
L 256.934026 208.008006 
L 257.417143 208.726929 
L 257.90026 211.790883 
L 258.383377 202.993116 
L 258.866494 203.373077 
L 259.34961 209.858413 
L 259.832727 210.24593 
L 260.315844 207.818656 
L 260.798961 208.941024 
L 261.282078 215.954324 
L 261.765195 216.645075 
L 262.248312 218.987091 
L 262.731429 210.476057 
L 263.214545 205.228509 
L 263.697662 197.254549 
L 264.180779 198.556943 
L 264.663896 189.234875 
L 265.147013 195.678343 
L 266.113247 189.570636 
L 266.596364 188.287666 
L 267.079481 188.110158 
L 267.562597 172.622308 
L 268.045714 166.831472 
L 268.528831 162.868743 
L 269.011948 161.625157 
L 269.495065 155.82268 
L 269.978182 160.686491 
L 270.461299 150.496649 
L 270.944416 135.307763 
L 271.427532 131.397226 
L 271.910649 121.579054 
L 272.393766 142.520228 
L 272.876883 146.421007 
L 273.36 147.593715 
L 273.843117 136.613224 
L 274.326234 156.514628 
L 274.809351 158.570533 
L 275.292468 154.447625 
L 275.775584 156.237521 
L 276.258701 144.716154 
L 276.741818 154.503558 
L 277.224935 167.811335 
L 277.708052 188.619025 
L 278.191169 187.572104 
L 278.674286 187.76523 
L 279.157403 194.259669 
L 279.640519 193.603476 
L 280.123636 182.548619 
L 280.606753 188.024786 
L 281.08987 188.702649 
L 281.572987 182.96497 
L 282.056104 174.184406 
L 282.539221 181.518187 
L 283.022338 213.371053 
L 283.505455 212.957554 
L 283.988571 212.730569 
L 284.471688 215.236763 
L 284.954805 291.660447 
L 285.437922 274.946741 
L 285.921039 283.902743 
L 286.404156 279.675591 
L 286.887273 290.454431 
L 287.37039 282.933278 
L 287.853506 283.247121 
L 288.336623 263.642781 
L 288.81974 266.704604 
L 289.302857 266.625531 
L 289.785974 274.924418 
L 290.269091 262.284093 
L 290.752208 257.486353 
L 291.235325 259.347761 
L 291.718442 255.37553 
L 292.201558 262.897363 
L 292.684675 263.385621 
L 293.167792 271.206129 
L 293.650909 262.175609 
L 294.134026 261.376707 
L 294.617143 257.775161 
L 295.10026 253.284764 
L 295.583377 253.546564 
L 296.066494 250.974758 
L 296.54961 252.835167 
L 297.032727 232.895643 
L 297.515844 236.730853 
L 297.998961 229.928635 
L 298.482078 232.336388 
L 298.965195 244.370029 
L 299.931429 243.546064 
L 300.414545 245.568717 
L 300.897662 245.296875 
L 301.380779 250.467657 
L 301.863896 236.774425 
L 302.347013 237.694758 
L 302.83013 227.693956 
L 303.313247 233.141563 
L 303.796364 241.011991 
L 304.279481 241.233425 
L 304.762597 232.649621 
L 305.245714 228.904778 
L 306.211948 222.907206 
L 306.695065 219.564485 
L 307.178182 219.132944 
L 307.661299 216.620556 
L 308.144416 197.794171 
L 308.627532 205.790563 
L 309.110649 200.451785 
L 309.593766 197.016206 
L 310.076883 200.604856 
L 310.56 202.545326 
L 311.043117 202.375163 
L 311.526234 204.078224 
L 312.009351 191.001882 
L 312.492468 192.028002 
L 312.975584 194.643989 
L 313.458701 215.142011 
L 313.941818 218.506726 
L 314.424935 215.135043 
L 314.908052 205.885614 
L 315.391169 199.39259 
L 315.874286 208.1009 
L 316.357403 204.66751 
L 317.323636 195.510989 
L 317.806753 195.413051 
L 318.28987 199.870565 
L 318.772987 210.06544 
L 319.256104 205.406087 
L 319.739221 205.294875 
L 320.222338 212.536655 
L 320.705455 209.116714 
L 321.188571 211.179927 
L 321.671688 204.900541 
L 322.154805 196.403918 
L 322.637922 197.669563 
L 323.121039 185.084326 
L 323.604156 191.947439 
L 324.087273 177.961947 
L 324.57039 189.064797 
L 325.053506 185.425499 
L 325.536623 183.596346 
L 326.01974 186.113676 
L 326.502857 185.653104 
L 327.469091 183.067936 
L 327.952208 184.58026 
L 328.435325 181.970813 
L 328.918442 196.534467 
L 329.401558 192.203182 
L 329.884675 192.042968 
L 330.367792 195.943507 
L 330.850909 195.56042 
L 331.334026 193.380645 
L 331.817143 193.681522 
L 332.783377 198.359257 
L 333.266494 197.730492 
L 333.74961 199.493721 
L 334.232727 189.182596 
L 334.715844 190.192667 
L 335.198961 197.427312 
L 335.682078 198.46699 
L 336.165195 200.500832 
L 336.648312 207.54115 
L 337.131429 204.332192 
L 337.614545 202.586131 
L 338.097662 204.365569 
L 338.580779 201.725738 
L 339.063896 204.84147 
L 339.547013 204.994163 
L 340.03013 202.357418 
L 340.513247 203.647211 
L 340.996364 192.537979 
L 341.479481 195.396397 
L 341.962597 186.630241 
L 342.445714 190.693397 
L 343.411948 192.064227 
L 343.895065 190.766819 
L 344.378182 193.042347 
L 344.861299 192.864846 
L 345.344416 194.37575 
L 345.827532 197.48127 
L 346.310649 197.771514 
L 347.276883 193.609758 
L 347.76 196.298291 
L 348.243117 189.890323 
L 348.726234 181.112525 
L 349.209351 176.146863 
L 349.692468 176.280878 
L 350.175584 163.060325 
L 350.658701 159.488334 
L 351.141818 144.031208 
L 351.624935 142.31174 
L 352.108052 137.937336 
L 352.591169 131.35216 
L 353.074286 122.264041 
L 353.557403 97.626078 
L 354.040519 114.337419 
L 354.523636 102.608576 
L 355.006753 103.760991 
L 355.48987 95.079795 
L 355.972987 94.823396 
L 356.456104 104.032796 
L 356.939221 97.838602 
L 357.422338 100.448387 
L 357.905455 96.005537 
L 358.388571 108.995067 
L 358.871688 105.062145 
L 359.354805 87.90291 
L 359.837922 84.325864 
L 360.321039 84.665388 
L 360.804156 82.906981 
L 361.287273 77.541379 
L 362.253506 97.055174 
L 362.736623 91.852628 
L 363.21974 108.375991 
L 363.702857 102.44725 
L 364.185974 104.932174 
L 364.669091 97.337437 
L 365.152208 112.789118 
L 365.635325 111.256133 
L 366.118442 117.864323 
L 366.601558 110.087414 
L 367.084675 107.726813 
L 367.567792 94.95516 
L 368.050909 92.688734 
L 368.534026 76.102857 
L 369.017143 97.598872 
L 369.50026 137.456524 
L 369.983377 129.437151 
L 370.466494 152.821266 
L 370.94961 143.17883 
L 371.432727 142.706968 
L 371.915844 150.927655 
L 372.882078 138.437129 
L 373.365195 136.823507 
L 373.848312 131.313286 
L 374.331429 140.428208 
L 374.814545 133.340936 
L 375.297662 136.799389 
L 375.780779 134.935354 
L 376.263896 127.630877 
L 376.747013 130.941334 
L 377.23013 128.407143 
L 377.713247 135.8156 
L 378.196364 153.364367 
L 378.679481 150.985107 
L 379.162597 164.696023 
L 379.645714 146.483235 
L 380.128831 143.384088 
L 380.611948 142.194764 
L 381.095065 139.901215 
L 381.578182 142.610113 
L 382.061299 139.510276 
L 382.544416 140.864989 
L 383.510649 149.318761 
L 383.993766 149.792859 
L 384.476883 143.596492 
L 384.96 141.45593 
L 385.443117 148.978535 
L 385.926234 147.139664 
L 386.892468 132.752907 
L 387.375584 129.057363 
L 387.858701 126.256344 
L 388.341818 120.161034 
L 388.824935 122.52401 
L 389.308052 123.830554 
L 389.791169 124.796106 
L 390.274286 131.532145 
L 390.757403 130.557221 
L 391.240519 125.880041 
L 391.723636 122.413163 
L 392.206753 127.03114 
L 392.68987 108.604348 
L 393.172987 97.780464 
L 393.656104 98.945128 
L 394.139221 94.894747 
L 394.622338 99.097995 
L 395.105455 104.585327 
L 395.588571 95.034306 
L 396.071688 104.016073 
L 396.554805 104.442928 
L 397.037922 106.00184 
L 398.004156 99.494982 
L 398.487273 106.959412 
L 398.487273 106.959412 
" style="fill:none;stroke:#ff7f0e;stroke-linecap:square;stroke-width:0.7;"/>
   </g>
   <g id="patch_3">
    <path d="M 57.6 307.584 
L 57.6 41.472 
" style="fill:none;stroke:#000000;stroke-linecap:square;stroke-linejoin:miter;stroke-width:0.8;"/>
   </g>
   <g id="patch_4">
    <path d="M 414.72 307.584 
L 414.72 41.472 
" style="fill:none;stroke:#000000;stroke-linecap:square;stroke-linejoin:miter;stroke-width:0.8;"/>
   </g>
   <g id="patch_5">
    <path d="M 57.6 307.584 
L 414.72 307.584 
" style="fill:none;stroke:#000000;stroke-linecap:square;stroke-linejoin:miter;stroke-width:0.8;"/>
   </g>
   <g id="patch_6">
    <path d="M 57.6 41.472 
L 414.72 41.472 
" style="fill:none;stroke:#000000;stroke-linecap:square;stroke-linejoin:miter;stroke-width:0.8;"/>
   </g>
   <g id="text_17">
    <!-- BCI5 2019-01-01 - 2020-11-03 -->
    <g transform="translate(144.747187 35.472)scale(0.12 -0.12)">
     <defs>
      <path d="M 19.671875 34.8125 
L 19.671875 8.109375 
L 35.5 8.109375 
Q 43.453125 8.109375 47.28125 11.40625 
Q 51.125 14.703125 51.125 21.484375 
Q 51.125 28.328125 47.28125 31.5625 
Q 43.453125 34.8125 35.5 34.8125 
z
M 19.671875 64.796875 
L 19.671875 42.828125 
L 34.28125 42.828125 
Q 41.5 42.828125 45.03125 45.53125 
Q 48.578125 48.25 48.578125 53.8125 
Q 48.578125 59.328125 45.03125 62.0625 
Q 41.5 64.796875 34.28125 64.796875 
z
M 9.8125 72.90625 
L 35.015625 72.90625 
Q 46.296875 72.90625 52.390625 68.21875 
Q 58.5 63.53125 58.5 54.890625 
Q 58.5 48.1875 55.375 44.234375 
Q 52.25 40.28125 46.1875 39.3125 
Q 53.46875 37.75 57.5 32.78125 
Q 61.53125 27.828125 61.53125 20.40625 
Q 61.53125 10.640625 54.890625 5.3125 
Q 48.25 0 35.984375 0 
L 9.8125 0 
z
" id="DejaVuSans-66"/>
      <path d="M 64.40625 67.28125 
L 64.40625 56.890625 
Q 59.421875 61.53125 53.78125 63.8125 
Q 48.140625 66.109375 41.796875 66.109375 
Q 29.296875 66.109375 22.65625 58.46875 
Q 16.015625 50.828125 16.015625 36.375 
Q 16.015625 21.96875 22.65625 14.328125 
Q 29.296875 6.6875 41.796875 6.6875 
Q 48.140625 6.6875 53.78125 8.984375 
Q 59.421875 11.28125 64.40625 15.921875 
L 64.40625 5.609375 
Q 59.234375 2.09375 53.4375 0.328125 
Q 47.65625 -1.421875 41.21875 -1.421875 
Q 24.65625 -1.421875 15.125 8.703125 
Q 5.609375 18.84375 5.609375 36.375 
Q 5.609375 53.953125 15.125 64.078125 
Q 24.65625 74.21875 41.21875 74.21875 
Q 47.75 74.21875 53.53125 72.484375 
Q 59.328125 70.75 64.40625 67.28125 
z
" id="DejaVuSans-67"/>
      <path d="M 9.8125 72.90625 
L 19.671875 72.90625 
L 19.671875 0 
L 9.8125 0 
z
" id="DejaVuSans-73"/>
     </defs>
     <use xlink:href="#DejaVuSans-66"/>
     <use x="66.853516" xlink:href="#DejaVuSans-67"/>
     <use x="136.677734" xlink:href="#DejaVuSans-73"/>
     <use x="166.169922" xlink:href="#DejaVuSans-53"/>
     <use x="229.792969" xlink:href="#DejaVuSans-32"/>
     <use x="261.580078" xlink:href="#DejaVuSans-50"/>
     <use x="325.203125" xlink:href="#DejaVuSans-48"/>
     <use x="388.826172" xlink:href="#DejaVuSans-49"/>
     <use x="452.449219" xlink:href="#DejaVuSans-57"/>
     <use x="516.072266" xlink:href="#DejaVuSans-45"/>
     <use x="552.15625" xlink:href="#DejaVuSans-48"/>
     <use x="615.779297" xlink:href="#DejaVuSans-49"/>
     <use x="679.402344" xlink:href="#DejaVuSans-45"/>
     <use x="715.486328" xlink:href="#DejaVuSans-48"/>
     <use x="779.109375" xlink:href="#DejaVuSans-49"/>
     <use x="842.732422" xlink:href="#DejaVuSans-32"/>
     <use x="874.519531" xlink:href="#DejaVuSans-45"/>
     <use x="910.603516" xlink:href="#DejaVuSans-32"/>
     <use x="942.390625" xlink:href="#DejaVuSans-50"/>
     <use x="1006.013672" xlink:href="#DejaVuSans-48"/>
     <use x="1069.636719" xlink:href="#DejaVuSans-50"/>
     <use x="1133.259766" xlink:href="#DejaVuSans-48"/>
     <use x="1196.882812" xlink:href="#DejaVuSans-45"/>
     <use x="1232.966797" xlink:href="#DejaVuSans-49"/>
     <use x="1296.589844" xlink:href="#DejaVuSans-49"/>
     <use x="1360.212891" xlink:href="#DejaVuSans-45"/>
     <use x="1396.296875" xlink:href="#DejaVuSans-48"/>
     <use x="1459.919922" xlink:href="#DejaVuSans-51"/>
    </g>
   </g>
   <g id="legend_1">
    <g id="patch_7">
     <path d="M 64.6 78.82825 
L 138.485938 78.82825 
Q 140.485938 78.82825 140.485938 76.82825 
L 140.485938 48.472 
Q 140.485938 46.472 138.485938 46.472 
L 64.6 46.472 
Q 62.6 46.472 62.6 48.472 
L 62.6 76.82825 
Q 62.6 78.82825 64.6 78.82825 
z
" style="fill:#ffffff;opacity:0.8;stroke:#cccccc;stroke-linejoin:miter;"/>
    </g>
    <g id="line2d_31">
     <path d="M 66.6 54.570437 
L 86.6 54.570437 
" style="fill:none;stroke:#1f77b4;stroke-linecap:square;stroke-width:0.7;"/>
    </g>
    <g id="line2d_32"/>
    <g id="text_18">
     <!-- baseline -->
     <g transform="translate(94.6 58.070437)scale(0.1 -0.1)">
      <defs>
       <path d="M 48.6875 27.296875 
Q 48.6875 37.203125 44.609375 42.84375 
Q 40.53125 48.484375 33.40625 48.484375 
Q 26.265625 48.484375 22.1875 42.84375 
Q 18.109375 37.203125 18.109375 27.296875 
Q 18.109375 17.390625 22.1875 11.75 
Q 26.265625 6.109375 33.40625 6.109375 
Q 40.53125 6.109375 44.609375 11.75 
Q 48.6875 17.390625 48.6875 27.296875 
z
M 18.109375 46.390625 
Q 20.953125 51.265625 25.265625 53.625 
Q 29.59375 56 35.59375 56 
Q 45.5625 56 51.78125 48.09375 
Q 58.015625 40.1875 58.015625 27.296875 
Q 58.015625 14.40625 51.78125 6.484375 
Q 45.5625 -1.421875 35.59375 -1.421875 
Q 29.59375 -1.421875 25.265625 0.953125 
Q 20.953125 3.328125 18.109375 8.203125 
L 18.109375 0 
L 9.078125 0 
L 9.078125 75.984375 
L 18.109375 75.984375 
z
" id="DejaVuSans-98"/>
       <path d="M 44.28125 53.078125 
L 44.28125 44.578125 
Q 40.484375 46.53125 36.375 47.5 
Q 32.28125 48.484375 27.875 48.484375 
Q 21.1875 48.484375 17.84375 46.4375 
Q 14.5 44.390625 14.5 40.28125 
Q 14.5 37.15625 16.890625 35.375 
Q 19.28125 33.59375 26.515625 31.984375 
L 29.59375 31.296875 
Q 39.15625 29.25 43.1875 25.515625 
Q 47.21875 21.78125 47.21875 15.09375 
Q 47.21875 7.46875 41.1875 3.015625 
Q 35.15625 -1.421875 24.609375 -1.421875 
Q 20.21875 -1.421875 15.453125 -0.5625 
Q 10.6875 0.296875 5.421875 2 
L 5.421875 11.28125 
Q 10.40625 8.6875 15.234375 7.390625 
Q 20.0625 6.109375 24.8125 6.109375 
Q 31.15625 6.109375 34.5625 8.28125 
Q 37.984375 10.453125 37.984375 14.40625 
Q 37.984375 18.0625 35.515625 20.015625 
Q 33.0625 21.96875 24.703125 23.78125 
L 21.578125 24.515625 
Q 13.234375 26.265625 9.515625 29.90625 
Q 5.8125 33.546875 5.8125 39.890625 
Q 5.8125 47.609375 11.28125 51.796875 
Q 16.75 56 26.8125 56 
Q 31.78125 56 36.171875 55.265625 
Q 40.578125 54.546875 44.28125 53.078125 
z
" id="DejaVuSans-115"/>
       <path d="M 9.421875 54.6875 
L 18.40625 54.6875 
L 18.40625 0 
L 9.421875 0 
z
M 9.421875 75.984375 
L 18.40625 75.984375 
L 18.40625 64.59375 
L 9.421875 64.59375 
z
" id="DejaVuSans-105"/>
       <path d="M 54.890625 33.015625 
L 54.890625 0 
L 45.90625 0 
L 45.90625 32.71875 
Q 45.90625 40.484375 42.875 44.328125 
Q 39.84375 48.1875 33.796875 48.1875 
Q 26.515625 48.1875 22.3125 43.546875 
Q 18.109375 38.921875 18.109375 30.90625 
L 18.109375 0 
L 9.078125 0 
L 9.078125 54.6875 
L 18.109375 54.6875 
L 18.109375 46.1875 
Q 21.34375 51.125 25.703125 53.5625 
Q 30.078125 56 35.796875 56 
Q 45.21875 56 50.046875 50.171875 
Q 54.890625 44.34375 54.890625 33.015625 
z
" id="DejaVuSans-110"/>
      </defs>
      <use xlink:href="#DejaVuSans-98"/>
      <use x="63.476562" xlink:href="#DejaVuSans-97"/>
      <use x="124.755859" xlink:href="#DejaVuSans-115"/>
      <use x="176.855469" xlink:href="#DejaVuSans-101"/>
      <use x="238.378906" xlink:href="#DejaVuSans-108"/>
      <use x="266.162109" xlink:href="#DejaVuSans-105"/>
      <use x="293.945312" xlink:href="#DejaVuSans-110"/>
      <use x="357.324219" xlink:href="#DejaVuSans-101"/>
     </g>
    </g>
    <g id="line2d_33">
     <path d="M 66.6 69.248562 
L 86.6 69.248562 
" style="fill:none;stroke:#ff7f0e;stroke-linecap:square;stroke-width:0.7;"/>
    </g>
    <g id="line2d_34"/>
    <g id="text_19">
     <!-- BCI5 -->
     <g transform="translate(94.6 72.748562)scale(0.1 -0.1)">
      <use xlink:href="#DejaVuSans-66"/>
      <use x="66.853516" xlink:href="#DejaVuSans-67"/>
      <use x="136.677734" xlink:href="#DejaVuSans-73"/>
      <use x="166.169922" xlink:href="#DejaVuSans-53"/>
     </g>
    </g>
   </g>
  </g>
 </g>
 <defs>
  <clipPath id="p3c737809ba">
   <rect height="266.112" width="357.12" x="57.6" y="41.472"/>
  </clipPath>
 </defs>
</svg>
