<?xml version="1.0" encoding="utf-8" standalone="no"?>
<!DOCTYPE svg PUBLIC "-//W3C//DTD SVG 1.1//EN"
  "http://www.w3.org/Graphics/SVG/1.1/DTD/svg11.dtd">
<!-- Created with matplotlib (https://matplotlib.org/) -->
<svg height="345.6pt" version="1.1" viewBox="0 0 460.8 345.6" width="460.8pt" xmlns="http://www.w3.org/2000/svg" xmlns:xlink="http://www.w3.org/1999/xlink">
 <metadata>
  <rdf:RDF xmlns:cc="http://creativecommons.org/ns#" xmlns:dc="http://purl.org/dc/elements/1.1/" xmlns:rdf="http://www.w3.org/1999/02/22-rdf-syntax-ns#">
   <cc:Work>
    <dc:type rdf:resource="http://purl.org/dc/dcmitype/StillImage"/>
    <dc:date>2020-11-12T22:19:48.807418</dc:date>
    <dc:format>image/svg+xml</dc:format>
    <dc:creator>
     <cc:Agent>
      <dc:title>Matplotlib v3.3.3, https://matplotlib.org/</dc:title>
     </cc:Agent>
    </dc:creator>
   </cc:Work>
  </rdf:RDF>
 </metadata>
 <defs>
  <style type="text/css">*{stroke-linecap:butt;stroke-linejoin:round;}</style>
 </defs>
 <g id="figure_1">
  <g id="patch_1">
   <path d="M 0 345.6 
L 460.8 345.6 
L 460.8 0 
L 0 0 
z
" style="fill:#ffffff;"/>
  </g>
  <g id="axes_1">
   <g id="patch_2">
    <path d="M 57.6 307.584 
L 414.72 307.584 
L 414.72 41.472 
L 57.6 41.472 
z
" style="fill:#ffffff;"/>
   </g>
   <g id="matplotlib.axis_1">
    <g id="xtick_1">
     <g id="line2d_1">
      <path clip-path="url(#pd82b68ff6b)" d="M 92.303912 307.584 
L 92.303912 41.472 
" style="fill:none;stroke:#b0b0b0;stroke-dasharray:1.85,0.8;stroke-dashoffset:0;stroke-width:0.5;"/>
     </g>
     <g id="line2d_2">
      <defs>
       <path d="M 0 0 
L 0 3.5 
" id="m87e541c5cf" style="stroke:#000000;stroke-width:0.8;"/>
      </defs>
      <g>
       <use style="stroke:#000000;stroke-width:0.8;" x="92.303912" xlink:href="#m87e541c5cf" y="307.584"/>
      </g>
     </g>
     <g id="text_1">
      <!-- 2018-03-01 -->
      <g transform="translate(81.14643 342.464116)rotate(-45)scale(0.06 -0.06)">
       <defs>
        <path d="M 19.1875 8.296875 
L 53.609375 8.296875 
L 53.609375 0 
L 7.328125 0 
L 7.328125 8.296875 
Q 12.9375 14.109375 22.625 23.890625 
Q 32.328125 33.6875 34.8125 36.53125 
Q 39.546875 41.84375 41.421875 45.53125 
Q 43.3125 49.21875 43.3125 52.78125 
Q 43.3125 58.59375 39.234375 62.25 
Q 35.15625 65.921875 28.609375 65.921875 
Q 23.96875 65.921875 18.8125 64.3125 
Q 13.671875 62.703125 7.8125 59.421875 
L 7.8125 69.390625 
Q 13.765625 71.78125 18.9375 73 
Q 24.125 74.21875 28.421875 74.21875 
Q 39.75 74.21875 46.484375 68.546875 
Q 53.21875 62.890625 53.21875 53.421875 
Q 53.21875 48.921875 51.53125 44.890625 
Q 49.859375 40.875 45.40625 35.40625 
Q 44.1875 33.984375 37.640625 27.21875 
Q 31.109375 20.453125 19.1875 8.296875 
z
" id="DejaVuSans-50"/>
        <path d="M 31.78125 66.40625 
Q 24.171875 66.40625 20.328125 58.90625 
Q 16.5 51.421875 16.5 36.375 
Q 16.5 21.390625 20.328125 13.890625 
Q 24.171875 6.390625 31.78125 6.390625 
Q 39.453125 6.390625 43.28125 13.890625 
Q 47.125 21.390625 47.125 36.375 
Q 47.125 51.421875 43.28125 58.90625 
Q 39.453125 66.40625 31.78125 66.40625 
z
M 31.78125 74.21875 
Q 44.046875 74.21875 50.515625 64.515625 
Q 56.984375 54.828125 56.984375 36.375 
Q 56.984375 17.96875 50.515625 8.265625 
Q 44.046875 -1.421875 31.78125 -1.421875 
Q 19.53125 -1.421875 13.0625 8.265625 
Q 6.59375 17.96875 6.59375 36.375 
Q 6.59375 54.828125 13.0625 64.515625 
Q 19.53125 74.21875 31.78125 74.21875 
z
" id="DejaVuSans-48"/>
        <path d="M 12.40625 8.296875 
L 28.515625 8.296875 
L 28.515625 63.921875 
L 10.984375 60.40625 
L 10.984375 69.390625 
L 28.421875 72.90625 
L 38.28125 72.90625 
L 38.28125 8.296875 
L 54.390625 8.296875 
L 54.390625 0 
L 12.40625 0 
z
" id="DejaVuSans-49"/>
        <path d="M 31.78125 34.625 
Q 24.75 34.625 20.71875 30.859375 
Q 16.703125 27.09375 16.703125 20.515625 
Q 16.703125 13.921875 20.71875 10.15625 
Q 24.75 6.390625 31.78125 6.390625 
Q 38.8125 6.390625 42.859375 10.171875 
Q 46.921875 13.96875 46.921875 20.515625 
Q 46.921875 27.09375 42.890625 30.859375 
Q 38.875 34.625 31.78125 34.625 
z
M 21.921875 38.8125 
Q 15.578125 40.375 12.03125 44.71875 
Q 8.5 49.078125 8.5 55.328125 
Q 8.5 64.0625 14.71875 69.140625 
Q 20.953125 74.21875 31.78125 74.21875 
Q 42.671875 74.21875 48.875 69.140625 
Q 55.078125 64.0625 55.078125 55.328125 
Q 55.078125 49.078125 51.53125 44.71875 
Q 48 40.375 41.703125 38.8125 
Q 48.828125 37.15625 52.796875 32.3125 
Q 56.78125 27.484375 56.78125 20.515625 
Q 56.78125 9.90625 50.3125 4.234375 
Q 43.84375 -1.421875 31.78125 -1.421875 
Q 19.734375 -1.421875 13.25 4.234375 
Q 6.78125 9.90625 6.78125 20.515625 
Q 6.78125 27.484375 10.78125 32.3125 
Q 14.796875 37.15625 21.921875 38.8125 
z
M 18.3125 54.390625 
Q 18.3125 48.734375 21.84375 45.5625 
Q 25.390625 42.390625 31.78125 42.390625 
Q 38.140625 42.390625 41.71875 45.5625 
Q 45.3125 48.734375 45.3125 54.390625 
Q 45.3125 60.0625 41.71875 63.234375 
Q 38.140625 66.40625 31.78125 66.40625 
Q 25.390625 66.40625 21.84375 63.234375 
Q 18.3125 60.0625 18.3125 54.390625 
z
" id="DejaVuSans-56"/>
        <path d="M 4.890625 31.390625 
L 31.203125 31.390625 
L 31.203125 23.390625 
L 4.890625 23.390625 
z
" id="DejaVuSans-45"/>
        <path d="M 40.578125 39.3125 
Q 47.65625 37.796875 51.625 33 
Q 55.609375 28.21875 55.609375 21.1875 
Q 55.609375 10.40625 48.1875 4.484375 
Q 40.765625 -1.421875 27.09375 -1.421875 
Q 22.515625 -1.421875 17.65625 -0.515625 
Q 12.796875 0.390625 7.625 2.203125 
L 7.625 11.71875 
Q 11.71875 9.328125 16.59375 8.109375 
Q 21.484375 6.890625 26.8125 6.890625 
Q 36.078125 6.890625 40.9375 10.546875 
Q 45.796875 14.203125 45.796875 21.1875 
Q 45.796875 27.640625 41.28125 31.265625 
Q 36.765625 34.90625 28.71875 34.90625 
L 20.21875 34.90625 
L 20.21875 43.015625 
L 29.109375 43.015625 
Q 36.375 43.015625 40.234375 45.921875 
Q 44.09375 48.828125 44.09375 54.296875 
Q 44.09375 59.90625 40.109375 62.90625 
Q 36.140625 65.921875 28.71875 65.921875 
Q 24.65625 65.921875 20.015625 65.03125 
Q 15.375 64.15625 9.8125 62.3125 
L 9.8125 71.09375 
Q 15.4375 72.65625 20.34375 73.4375 
Q 25.25 74.21875 29.59375 74.21875 
Q 40.828125 74.21875 47.359375 69.109375 
Q 53.90625 64.015625 53.90625 55.328125 
Q 53.90625 49.265625 50.4375 45.09375 
Q 46.96875 40.921875 40.578125 39.3125 
z
" id="DejaVuSans-51"/>
       </defs>
       <use xlink:href="#DejaVuSans-50"/>
       <use x="63.623047" xlink:href="#DejaVuSans-48"/>
       <use x="127.246094" xlink:href="#DejaVuSans-49"/>
       <use x="190.869141" xlink:href="#DejaVuSans-56"/>
       <use x="254.492188" xlink:href="#DejaVuSans-45"/>
       <use x="290.576172" xlink:href="#DejaVuSans-48"/>
       <use x="354.199219" xlink:href="#DejaVuSans-51"/>
       <use x="417.822266" xlink:href="#DejaVuSans-45"/>
       <use x="453.90625" xlink:href="#DejaVuSans-48"/>
       <use x="517.529297" xlink:href="#DejaVuSans-49"/>
      </g>
     </g>
    </g>
    <g id="xtick_2">
     <g id="line2d_3">
      <path clip-path="url(#pd82b68ff6b)" d="M 121.106436 307.584 
L 121.106436 41.472 
" style="fill:none;stroke:#b0b0b0;stroke-dasharray:1.85,0.8;stroke-dashoffset:0;stroke-width:0.5;"/>
     </g>
     <g id="line2d_4">
      <g>
       <use style="stroke:#000000;stroke-width:0.8;" x="121.106436" xlink:href="#m87e541c5cf" y="307.584"/>
      </g>
     </g>
     <g id="text_2">
      <!-- 2018-06-01 -->
      <g transform="translate(109.948954 342.464116)rotate(-45)scale(0.06 -0.06)">
       <defs>
        <path d="M 33.015625 40.375 
Q 26.375 40.375 22.484375 35.828125 
Q 18.609375 31.296875 18.609375 23.390625 
Q 18.609375 15.53125 22.484375 10.953125 
Q 26.375 6.390625 33.015625 6.390625 
Q 39.65625 6.390625 43.53125 10.953125 
Q 47.40625 15.53125 47.40625 23.390625 
Q 47.40625 31.296875 43.53125 35.828125 
Q 39.65625 40.375 33.015625 40.375 
z
M 52.59375 71.296875 
L 52.59375 62.3125 
Q 48.875 64.0625 45.09375 64.984375 
Q 41.3125 65.921875 37.59375 65.921875 
Q 27.828125 65.921875 22.671875 59.328125 
Q 17.53125 52.734375 16.796875 39.40625 
Q 19.671875 43.65625 24.015625 45.921875 
Q 28.375 48.1875 33.59375 48.1875 
Q 44.578125 48.1875 50.953125 41.515625 
Q 57.328125 34.859375 57.328125 23.390625 
Q 57.328125 12.15625 50.6875 5.359375 
Q 44.046875 -1.421875 33.015625 -1.421875 
Q 20.359375 -1.421875 13.671875 8.265625 
Q 6.984375 17.96875 6.984375 36.375 
Q 6.984375 53.65625 15.1875 63.9375 
Q 23.390625 74.21875 37.203125 74.21875 
Q 40.921875 74.21875 44.703125 73.484375 
Q 48.484375 72.75 52.59375 71.296875 
z
" id="DejaVuSans-54"/>
       </defs>
       <use xlink:href="#DejaVuSans-50"/>
       <use x="63.623047" xlink:href="#DejaVuSans-48"/>
       <use x="127.246094" xlink:href="#DejaVuSans-49"/>
       <use x="190.869141" xlink:href="#DejaVuSans-56"/>
       <use x="254.492188" xlink:href="#DejaVuSans-45"/>
       <use x="290.576172" xlink:href="#DejaVuSans-48"/>
       <use x="354.199219" xlink:href="#DejaVuSans-54"/>
       <use x="417.822266" xlink:href="#DejaVuSans-45"/>
       <use x="453.90625" xlink:href="#DejaVuSans-48"/>
       <use x="517.529297" xlink:href="#DejaVuSans-49"/>
      </g>
     </g>
    </g>
    <g id="xtick_3">
     <g id="line2d_5">
      <path clip-path="url(#pd82b68ff6b)" d="M 149.908961 307.584 
L 149.908961 41.472 
" style="fill:none;stroke:#b0b0b0;stroke-dasharray:1.85,0.8;stroke-dashoffset:0;stroke-width:0.5;"/>
     </g>
     <g id="line2d_6">
      <g>
       <use style="stroke:#000000;stroke-width:0.8;" x="149.908961" xlink:href="#m87e541c5cf" y="307.584"/>
      </g>
     </g>
     <g id="text_3">
      <!-- 2018-09-01 -->
      <g transform="translate(138.751479 342.464116)rotate(-45)scale(0.06 -0.06)">
       <defs>
        <path d="M 10.984375 1.515625 
L 10.984375 10.5 
Q 14.703125 8.734375 18.5 7.8125 
Q 22.3125 6.890625 25.984375 6.890625 
Q 35.75 6.890625 40.890625 13.453125 
Q 46.046875 20.015625 46.78125 33.40625 
Q 43.953125 29.203125 39.59375 26.953125 
Q 35.25 24.703125 29.984375 24.703125 
Q 19.046875 24.703125 12.671875 31.3125 
Q 6.296875 37.9375 6.296875 49.421875 
Q 6.296875 60.640625 12.9375 67.421875 
Q 19.578125 74.21875 30.609375 74.21875 
Q 43.265625 74.21875 49.921875 64.515625 
Q 56.59375 54.828125 56.59375 36.375 
Q 56.59375 19.140625 48.40625 8.859375 
Q 40.234375 -1.421875 26.421875 -1.421875 
Q 22.703125 -1.421875 18.890625 -0.6875 
Q 15.09375 0.046875 10.984375 1.515625 
z
M 30.609375 32.421875 
Q 37.25 32.421875 41.125 36.953125 
Q 45.015625 41.5 45.015625 49.421875 
Q 45.015625 57.28125 41.125 61.84375 
Q 37.25 66.40625 30.609375 66.40625 
Q 23.96875 66.40625 20.09375 61.84375 
Q 16.21875 57.28125 16.21875 49.421875 
Q 16.21875 41.5 20.09375 36.953125 
Q 23.96875 32.421875 30.609375 32.421875 
z
" id="DejaVuSans-57"/>
       </defs>
       <use xlink:href="#DejaVuSans-50"/>
       <use x="63.623047" xlink:href="#DejaVuSans-48"/>
       <use x="127.246094" xlink:href="#DejaVuSans-49"/>
       <use x="190.869141" xlink:href="#DejaVuSans-56"/>
       <use x="254.492188" xlink:href="#DejaVuSans-45"/>
       <use x="290.576172" xlink:href="#DejaVuSans-48"/>
       <use x="354.199219" xlink:href="#DejaVuSans-57"/>
       <use x="417.822266" xlink:href="#DejaVuSans-45"/>
       <use x="453.90625" xlink:href="#DejaVuSans-48"/>
       <use x="517.529297" xlink:href="#DejaVuSans-49"/>
      </g>
     </g>
    </g>
    <g id="xtick_4">
     <g id="line2d_7">
      <path clip-path="url(#pd82b68ff6b)" d="M 178.398415 307.584 
L 178.398415 41.472 
" style="fill:none;stroke:#b0b0b0;stroke-dasharray:1.85,0.8;stroke-dashoffset:0;stroke-width:0.5;"/>
     </g>
     <g id="line2d_8">
      <g>
       <use style="stroke:#000000;stroke-width:0.8;" x="178.398415" xlink:href="#m87e541c5cf" y="307.584"/>
      </g>
     </g>
     <g id="text_4">
      <!-- 2018-12-01 -->
      <g transform="translate(167.240933 342.464116)rotate(-45)scale(0.06 -0.06)">
       <use xlink:href="#DejaVuSans-50"/>
       <use x="63.623047" xlink:href="#DejaVuSans-48"/>
       <use x="127.246094" xlink:href="#DejaVuSans-49"/>
       <use x="190.869141" xlink:href="#DejaVuSans-56"/>
       <use x="254.492188" xlink:href="#DejaVuSans-45"/>
       <use x="290.576172" xlink:href="#DejaVuSans-49"/>
       <use x="354.199219" xlink:href="#DejaVuSans-50"/>
       <use x="417.822266" xlink:href="#DejaVuSans-45"/>
       <use x="453.90625" xlink:href="#DejaVuSans-48"/>
       <use x="517.529297" xlink:href="#DejaVuSans-49"/>
      </g>
     </g>
    </g>
    <g id="xtick_5">
     <g id="line2d_9">
      <path clip-path="url(#pd82b68ff6b)" d="M 206.574798 307.584 
L 206.574798 41.472 
" style="fill:none;stroke:#b0b0b0;stroke-dasharray:1.85,0.8;stroke-dashoffset:0;stroke-width:0.5;"/>
     </g>
     <g id="line2d_10">
      <g>
       <use style="stroke:#000000;stroke-width:0.8;" x="206.574798" xlink:href="#m87e541c5cf" y="307.584"/>
      </g>
     </g>
     <g id="text_5">
      <!-- 2019-03-01 -->
      <g transform="translate(195.417316 342.464116)rotate(-45)scale(0.06 -0.06)">
       <use xlink:href="#DejaVuSans-50"/>
       <use x="63.623047" xlink:href="#DejaVuSans-48"/>
       <use x="127.246094" xlink:href="#DejaVuSans-49"/>
       <use x="190.869141" xlink:href="#DejaVuSans-57"/>
       <use x="254.492188" xlink:href="#DejaVuSans-45"/>
       <use x="290.576172" xlink:href="#DejaVuSans-48"/>
       <use x="354.199219" xlink:href="#DejaVuSans-51"/>
       <use x="417.822266" xlink:href="#DejaVuSans-45"/>
       <use x="453.90625" xlink:href="#DejaVuSans-48"/>
       <use x="517.529297" xlink:href="#DejaVuSans-49"/>
      </g>
     </g>
    </g>
    <g id="xtick_6">
     <g id="line2d_11">
      <path clip-path="url(#pd82b68ff6b)" d="M 235.377323 307.584 
L 235.377323 41.472 
" style="fill:none;stroke:#b0b0b0;stroke-dasharray:1.85,0.8;stroke-dashoffset:0;stroke-width:0.5;"/>
     </g>
     <g id="line2d_12">
      <g>
       <use style="stroke:#000000;stroke-width:0.8;" x="235.377323" xlink:href="#m87e541c5cf" y="307.584"/>
      </g>
     </g>
     <g id="text_6">
      <!-- 2019-06-01 -->
      <g transform="translate(224.219841 342.464116)rotate(-45)scale(0.06 -0.06)">
       <use xlink:href="#DejaVuSans-50"/>
       <use x="63.623047" xlink:href="#DejaVuSans-48"/>
       <use x="127.246094" xlink:href="#DejaVuSans-49"/>
       <use x="190.869141" xlink:href="#DejaVuSans-57"/>
       <use x="254.492188" xlink:href="#DejaVuSans-45"/>
       <use x="290.576172" xlink:href="#DejaVuSans-48"/>
       <use x="354.199219" xlink:href="#DejaVuSans-54"/>
       <use x="417.822266" xlink:href="#DejaVuSans-45"/>
       <use x="453.90625" xlink:href="#DejaVuSans-48"/>
       <use x="517.529297" xlink:href="#DejaVuSans-49"/>
      </g>
     </g>
    </g>
    <g id="xtick_7">
     <g id="line2d_13">
      <path clip-path="url(#pd82b68ff6b)" d="M 264.179847 307.584 
L 264.179847 41.472 
" style="fill:none;stroke:#b0b0b0;stroke-dasharray:1.85,0.8;stroke-dashoffset:0;stroke-width:0.5;"/>
     </g>
     <g id="line2d_14">
      <g>
       <use style="stroke:#000000;stroke-width:0.8;" x="264.179847" xlink:href="#m87e541c5cf" y="307.584"/>
      </g>
     </g>
     <g id="text_7">
      <!-- 2019-09-01 -->
      <g transform="translate(253.022365 342.464116)rotate(-45)scale(0.06 -0.06)">
       <use xlink:href="#DejaVuSans-50"/>
       <use x="63.623047" xlink:href="#DejaVuSans-48"/>
       <use x="127.246094" xlink:href="#DejaVuSans-49"/>
       <use x="190.869141" xlink:href="#DejaVuSans-57"/>
       <use x="254.492188" xlink:href="#DejaVuSans-45"/>
       <use x="290.576172" xlink:href="#DejaVuSans-48"/>
       <use x="354.199219" xlink:href="#DejaVuSans-57"/>
       <use x="417.822266" xlink:href="#DejaVuSans-45"/>
       <use x="453.90625" xlink:href="#DejaVuSans-48"/>
       <use x="517.529297" xlink:href="#DejaVuSans-49"/>
      </g>
     </g>
    </g>
    <g id="xtick_8">
     <g id="line2d_15">
      <path clip-path="url(#pd82b68ff6b)" d="M 292.669301 307.584 
L 292.669301 41.472 
" style="fill:none;stroke:#b0b0b0;stroke-dasharray:1.85,0.8;stroke-dashoffset:0;stroke-width:0.5;"/>
     </g>
     <g id="line2d_16">
      <g>
       <use style="stroke:#000000;stroke-width:0.8;" x="292.669301" xlink:href="#m87e541c5cf" y="307.584"/>
      </g>
     </g>
     <g id="text_8">
      <!-- 2019-12-01 -->
      <g transform="translate(281.511819 342.464116)rotate(-45)scale(0.06 -0.06)">
       <use xlink:href="#DejaVuSans-50"/>
       <use x="63.623047" xlink:href="#DejaVuSans-48"/>
       <use x="127.246094" xlink:href="#DejaVuSans-49"/>
       <use x="190.869141" xlink:href="#DejaVuSans-57"/>
       <use x="254.492188" xlink:href="#DejaVuSans-45"/>
       <use x="290.576172" xlink:href="#DejaVuSans-49"/>
       <use x="354.199219" xlink:href="#DejaVuSans-50"/>
       <use x="417.822266" xlink:href="#DejaVuSans-45"/>
       <use x="453.90625" xlink:href="#DejaVuSans-48"/>
       <use x="517.529297" xlink:href="#DejaVuSans-49"/>
      </g>
     </g>
    </g>
    <g id="xtick_9">
     <g id="line2d_17">
      <path clip-path="url(#pd82b68ff6b)" d="M 321.158755 307.584 
L 321.158755 41.472 
" style="fill:none;stroke:#b0b0b0;stroke-dasharray:1.85,0.8;stroke-dashoffset:0;stroke-width:0.5;"/>
     </g>
     <g id="line2d_18">
      <g>
       <use style="stroke:#000000;stroke-width:0.8;" x="321.158755" xlink:href="#m87e541c5cf" y="307.584"/>
      </g>
     </g>
     <g id="text_9">
      <!-- 2020-03-01 -->
      <g transform="translate(310.001273 342.464116)rotate(-45)scale(0.06 -0.06)">
       <use xlink:href="#DejaVuSans-50"/>
       <use x="63.623047" xlink:href="#DejaVuSans-48"/>
       <use x="127.246094" xlink:href="#DejaVuSans-50"/>
       <use x="190.869141" xlink:href="#DejaVuSans-48"/>
       <use x="254.492188" xlink:href="#DejaVuSans-45"/>
       <use x="290.576172" xlink:href="#DejaVuSans-48"/>
       <use x="354.199219" xlink:href="#DejaVuSans-51"/>
       <use x="417.822266" xlink:href="#DejaVuSans-45"/>
       <use x="453.90625" xlink:href="#DejaVuSans-48"/>
       <use x="517.529297" xlink:href="#DejaVuSans-49"/>
      </g>
     </g>
    </g>
    <g id="xtick_10">
     <g id="line2d_19">
      <path clip-path="url(#pd82b68ff6b)" d="M 349.96128 307.584 
L 349.96128 41.472 
" style="fill:none;stroke:#b0b0b0;stroke-dasharray:1.85,0.8;stroke-dashoffset:0;stroke-width:0.5;"/>
     </g>
     <g id="line2d_20">
      <g>
       <use style="stroke:#000000;stroke-width:0.8;" x="349.96128" xlink:href="#m87e541c5cf" y="307.584"/>
      </g>
     </g>
     <g id="text_10">
      <!-- 2020-06-01 -->
      <g transform="translate(338.803798 342.464116)rotate(-45)scale(0.06 -0.06)">
       <use xlink:href="#DejaVuSans-50"/>
       <use x="63.623047" xlink:href="#DejaVuSans-48"/>
       <use x="127.246094" xlink:href="#DejaVuSans-50"/>
       <use x="190.869141" xlink:href="#DejaVuSans-48"/>
       <use x="254.492188" xlink:href="#DejaVuSans-45"/>
       <use x="290.576172" xlink:href="#DejaVuSans-48"/>
       <use x="354.199219" xlink:href="#DejaVuSans-54"/>
       <use x="417.822266" xlink:href="#DejaVuSans-45"/>
       <use x="453.90625" xlink:href="#DejaVuSans-48"/>
       <use x="517.529297" xlink:href="#DejaVuSans-49"/>
      </g>
     </g>
    </g>
    <g id="xtick_11">
     <g id="line2d_21">
      <path clip-path="url(#pd82b68ff6b)" d="M 378.763805 307.584 
L 378.763805 41.472 
" style="fill:none;stroke:#b0b0b0;stroke-dasharray:1.85,0.8;stroke-dashoffset:0;stroke-width:0.5;"/>
     </g>
     <g id="line2d_22">
      <g>
       <use style="stroke:#000000;stroke-width:0.8;" x="378.763805" xlink:href="#m87e541c5cf" y="307.584"/>
      </g>
     </g>
     <g id="text_11">
      <!-- 2020-09-01 -->
      <g transform="translate(367.606323 342.464116)rotate(-45)scale(0.06 -0.06)">
       <use xlink:href="#DejaVuSans-50"/>
       <use x="63.623047" xlink:href="#DejaVuSans-48"/>
       <use x="127.246094" xlink:href="#DejaVuSans-50"/>
       <use x="190.869141" xlink:href="#DejaVuSans-48"/>
       <use x="254.492188" xlink:href="#DejaVuSans-45"/>
       <use x="290.576172" xlink:href="#DejaVuSans-48"/>
       <use x="354.199219" xlink:href="#DejaVuSans-57"/>
       <use x="417.822266" xlink:href="#DejaVuSans-45"/>
       <use x="453.90625" xlink:href="#DejaVuSans-48"/>
       <use x="517.529297" xlink:href="#DejaVuSans-49"/>
      </g>
     </g>
    </g>
    <g id="text_12">
     <!-- Date -->
     <g transform="translate(224.209219 354.94489)scale(0.1 -0.1)">
      <defs>
       <path d="M 19.671875 64.796875 
L 19.671875 8.109375 
L 31.59375 8.109375 
Q 46.6875 8.109375 53.6875 14.9375 
Q 60.6875 21.78125 60.6875 36.53125 
Q 60.6875 51.171875 53.6875 57.984375 
Q 46.6875 64.796875 31.59375 64.796875 
z
M 9.8125 72.90625 
L 30.078125 72.90625 
Q 51.265625 72.90625 61.171875 64.09375 
Q 71.09375 55.28125 71.09375 36.53125 
Q 71.09375 17.671875 61.125 8.828125 
Q 51.171875 0 30.078125 0 
L 9.8125 0 
z
" id="DejaVuSans-68"/>
       <path d="M 34.28125 27.484375 
Q 23.390625 27.484375 19.1875 25 
Q 14.984375 22.515625 14.984375 16.5 
Q 14.984375 11.71875 18.140625 8.90625 
Q 21.296875 6.109375 26.703125 6.109375 
Q 34.1875 6.109375 38.703125 11.40625 
Q 43.21875 16.703125 43.21875 25.484375 
L 43.21875 27.484375 
z
M 52.203125 31.203125 
L 52.203125 0 
L 43.21875 0 
L 43.21875 8.296875 
Q 40.140625 3.328125 35.546875 0.953125 
Q 30.953125 -1.421875 24.3125 -1.421875 
Q 15.921875 -1.421875 10.953125 3.296875 
Q 6 8.015625 6 15.921875 
Q 6 25.140625 12.171875 29.828125 
Q 18.359375 34.515625 30.609375 34.515625 
L 43.21875 34.515625 
L 43.21875 35.40625 
Q 43.21875 41.609375 39.140625 45 
Q 35.0625 48.390625 27.6875 48.390625 
Q 23 48.390625 18.546875 47.265625 
Q 14.109375 46.140625 10.015625 43.890625 
L 10.015625 52.203125 
Q 14.9375 54.109375 19.578125 55.046875 
Q 24.21875 56 28.609375 56 
Q 40.484375 56 46.34375 49.84375 
Q 52.203125 43.703125 52.203125 31.203125 
z
" id="DejaVuSans-97"/>
       <path d="M 18.3125 70.21875 
L 18.3125 54.6875 
L 36.8125 54.6875 
L 36.8125 47.703125 
L 18.3125 47.703125 
L 18.3125 18.015625 
Q 18.3125 11.328125 20.140625 9.421875 
Q 21.96875 7.515625 27.59375 7.515625 
L 36.8125 7.515625 
L 36.8125 0 
L 27.59375 0 
Q 17.1875 0 13.234375 3.875 
Q 9.28125 7.765625 9.28125 18.015625 
L 9.28125 47.703125 
L 2.6875 47.703125 
L 2.6875 54.6875 
L 9.28125 54.6875 
L 9.28125 70.21875 
z
" id="DejaVuSans-116"/>
       <path d="M 56.203125 29.59375 
L 56.203125 25.203125 
L 14.890625 25.203125 
Q 15.484375 15.921875 20.484375 11.0625 
Q 25.484375 6.203125 34.421875 6.203125 
Q 39.59375 6.203125 44.453125 7.46875 
Q 49.3125 8.734375 54.109375 11.28125 
L 54.109375 2.78125 
Q 49.265625 0.734375 44.1875 -0.34375 
Q 39.109375 -1.421875 33.890625 -1.421875 
Q 20.796875 -1.421875 13.15625 6.1875 
Q 5.515625 13.8125 5.515625 26.8125 
Q 5.515625 40.234375 12.765625 48.109375 
Q 20.015625 56 32.328125 56 
Q 43.359375 56 49.78125 48.890625 
Q 56.203125 41.796875 56.203125 29.59375 
z
M 47.21875 32.234375 
Q 47.125 39.59375 43.09375 43.984375 
Q 39.0625 48.390625 32.421875 48.390625 
Q 24.90625 48.390625 20.390625 44.140625 
Q 15.875 39.890625 15.1875 32.171875 
z
" id="DejaVuSans-101"/>
      </defs>
      <use xlink:href="#DejaVuSans-68"/>
      <use x="77.001953" xlink:href="#DejaVuSans-97"/>
      <use x="138.28125" xlink:href="#DejaVuSans-116"/>
      <use x="177.490234" xlink:href="#DejaVuSans-101"/>
     </g>
    </g>
   </g>
   <g id="matplotlib.axis_2">
    <g id="ytick_1">
     <g id="line2d_23">
      <path clip-path="url(#pd82b68ff6b)" d="M 57.6 282.893426 
L 414.72 282.893426 
" style="fill:none;stroke:#b0b0b0;stroke-dasharray:1.85,0.8;stroke-dashoffset:0;stroke-width:0.5;"/>
     </g>
     <g id="line2d_24">
      <defs>
       <path d="M 0 0 
L -3.5 0 
" id="m09a935679e" style="stroke:#000000;stroke-width:0.8;"/>
      </defs>
      <g>
       <use style="stroke:#000000;stroke-width:0.8;" x="57.6" xlink:href="#m09a935679e" y="282.893426"/>
      </g>
     </g>
     <g id="text_13">
      <!-- 200 -->
      <g transform="translate(31.5125 286.692645)scale(0.1 -0.1)">
       <use xlink:href="#DejaVuSans-50"/>
       <use x="63.623047" xlink:href="#DejaVuSans-48"/>
       <use x="127.246094" xlink:href="#DejaVuSans-48"/>
      </g>
     </g>
    </g>
    <g id="ytick_2">
     <g id="line2d_25">
      <path clip-path="url(#pd82b68ff6b)" d="M 57.6 242.340957 
L 414.72 242.340957 
" style="fill:none;stroke:#b0b0b0;stroke-dasharray:1.85,0.8;stroke-dashoffset:0;stroke-width:0.5;"/>
     </g>
     <g id="line2d_26">
      <g>
       <use style="stroke:#000000;stroke-width:0.8;" x="57.6" xlink:href="#m09a935679e" y="242.340957"/>
      </g>
     </g>
     <g id="text_14">
      <!-- 400 -->
      <g transform="translate(31.5125 246.140175)scale(0.1 -0.1)">
       <defs>
        <path d="M 37.796875 64.3125 
L 12.890625 25.390625 
L 37.796875 25.390625 
z
M 35.203125 72.90625 
L 47.609375 72.90625 
L 47.609375 25.390625 
L 58.015625 25.390625 
L 58.015625 17.1875 
L 47.609375 17.1875 
L 47.609375 0 
L 37.796875 0 
L 37.796875 17.1875 
L 4.890625 17.1875 
L 4.890625 26.703125 
z
" id="DejaVuSans-52"/>
       </defs>
       <use xlink:href="#DejaVuSans-52"/>
       <use x="63.623047" xlink:href="#DejaVuSans-48"/>
       <use x="127.246094" xlink:href="#DejaVuSans-48"/>
      </g>
     </g>
    </g>
    <g id="ytick_3">
     <g id="line2d_27">
      <path clip-path="url(#pd82b68ff6b)" d="M 57.6 201.788487 
L 414.72 201.788487 
" style="fill:none;stroke:#b0b0b0;stroke-dasharray:1.85,0.8;stroke-dashoffset:0;stroke-width:0.5;"/>
     </g>
     <g id="line2d_28">
      <g>
       <use style="stroke:#000000;stroke-width:0.8;" x="57.6" xlink:href="#m09a935679e" y="201.788487"/>
      </g>
     </g>
     <g id="text_15">
      <!-- 600 -->
      <g transform="translate(31.5125 205.587706)scale(0.1 -0.1)">
       <use xlink:href="#DejaVuSans-54"/>
       <use x="63.623047" xlink:href="#DejaVuSans-48"/>
       <use x="127.246094" xlink:href="#DejaVuSans-48"/>
      </g>
     </g>
    </g>
    <g id="ytick_4">
     <g id="line2d_29">
      <path clip-path="url(#pd82b68ff6b)" d="M 57.6 161.236017 
L 414.72 161.236017 
" style="fill:none;stroke:#b0b0b0;stroke-dasharray:1.85,0.8;stroke-dashoffset:0;stroke-width:0.5;"/>
     </g>
     <g id="line2d_30">
      <g>
       <use style="stroke:#000000;stroke-width:0.8;" x="57.6" xlink:href="#m09a935679e" y="161.236017"/>
      </g>
     </g>
     <g id="text_16">
      <!-- 800 -->
      <g transform="translate(31.5125 165.035236)scale(0.1 -0.1)">
       <use xlink:href="#DejaVuSans-56"/>
       <use x="63.623047" xlink:href="#DejaVuSans-48"/>
       <use x="127.246094" xlink:href="#DejaVuSans-48"/>
      </g>
     </g>
    </g>
    <g id="ytick_5">
     <g id="line2d_31">
      <path clip-path="url(#pd82b68ff6b)" d="M 57.6 120.683547 
L 414.72 120.683547 
" style="fill:none;stroke:#b0b0b0;stroke-dasharray:1.85,0.8;stroke-dashoffset:0;stroke-width:0.5;"/>
     </g>
     <g id="line2d_32">
      <g>
       <use style="stroke:#000000;stroke-width:0.8;" x="57.6" xlink:href="#m09a935679e" y="120.683547"/>
      </g>
     </g>
     <g id="text_17">
      <!-- 1000 -->
      <g transform="translate(25.15 124.482766)scale(0.1 -0.1)">
       <use xlink:href="#DejaVuSans-49"/>
       <use x="63.623047" xlink:href="#DejaVuSans-48"/>
       <use x="127.246094" xlink:href="#DejaVuSans-48"/>
       <use x="190.869141" xlink:href="#DejaVuSans-48"/>
      </g>
     </g>
    </g>
    <g id="ytick_6">
     <g id="line2d_33">
      <path clip-path="url(#pd82b68ff6b)" d="M 57.6 80.131077 
L 414.72 80.131077 
" style="fill:none;stroke:#b0b0b0;stroke-dasharray:1.85,0.8;stroke-dashoffset:0;stroke-width:0.5;"/>
     </g>
     <g id="line2d_34">
      <g>
       <use style="stroke:#000000;stroke-width:0.8;" x="57.6" xlink:href="#m09a935679e" y="80.131077"/>
      </g>
     </g>
     <g id="text_18">
      <!-- 1200 -->
      <g transform="translate(25.15 83.930296)scale(0.1 -0.1)">
       <use xlink:href="#DejaVuSans-49"/>
       <use x="63.623047" xlink:href="#DejaVuSans-50"/>
       <use x="127.246094" xlink:href="#DejaVuSans-48"/>
       <use x="190.869141" xlink:href="#DejaVuSans-48"/>
      </g>
     </g>
    </g>
    <g id="text_19">
     <!-- Value (USD) -->
     <g transform="translate(19.070312 204.433469)rotate(-90)scale(0.1 -0.1)">
      <defs>
       <path d="M 28.609375 0 
L 0.78125 72.90625 
L 11.078125 72.90625 
L 34.1875 11.53125 
L 57.328125 72.90625 
L 67.578125 72.90625 
L 39.796875 0 
z
" id="DejaVuSans-86"/>
       <path d="M 9.421875 75.984375 
L 18.40625 75.984375 
L 18.40625 0 
L 9.421875 0 
z
" id="DejaVuSans-108"/>
       <path d="M 8.5 21.578125 
L 8.5 54.6875 
L 17.484375 54.6875 
L 17.484375 21.921875 
Q 17.484375 14.15625 20.5 10.265625 
Q 23.53125 6.390625 29.59375 6.390625 
Q 36.859375 6.390625 41.078125 11.03125 
Q 45.3125 15.671875 45.3125 23.6875 
L 45.3125 54.6875 
L 54.296875 54.6875 
L 54.296875 0 
L 45.3125 0 
L 45.3125 8.40625 
Q 42.046875 3.421875 37.71875 1 
Q 33.40625 -1.421875 27.6875 -1.421875 
Q 18.265625 -1.421875 13.375 4.4375 
Q 8.5 10.296875 8.5 21.578125 
z
M 31.109375 56 
z
" id="DejaVuSans-117"/>
       <path id="DejaVuSans-32"/>
       <path d="M 31 75.875 
Q 24.46875 64.65625 21.28125 53.65625 
Q 18.109375 42.671875 18.109375 31.390625 
Q 18.109375 20.125 21.3125 9.0625 
Q 24.515625 -2 31 -13.1875 
L 23.1875 -13.1875 
Q 15.875 -1.703125 12.234375 9.375 
Q 8.59375 20.453125 8.59375 31.390625 
Q 8.59375 42.28125 12.203125 53.3125 
Q 15.828125 64.359375 23.1875 75.875 
z
" id="DejaVuSans-40"/>
       <path d="M 8.6875 72.90625 
L 18.609375 72.90625 
L 18.609375 28.609375 
Q 18.609375 16.890625 22.84375 11.734375 
Q 27.09375 6.59375 36.625 6.59375 
Q 46.09375 6.59375 50.34375 11.734375 
Q 54.59375 16.890625 54.59375 28.609375 
L 54.59375 72.90625 
L 64.5 72.90625 
L 64.5 27.390625 
Q 64.5 13.140625 57.4375 5.859375 
Q 50.390625 -1.421875 36.625 -1.421875 
Q 22.796875 -1.421875 15.734375 5.859375 
Q 8.6875 13.140625 8.6875 27.390625 
z
" id="DejaVuSans-85"/>
       <path d="M 53.515625 70.515625 
L 53.515625 60.890625 
Q 47.90625 63.578125 42.921875 64.890625 
Q 37.9375 66.21875 33.296875 66.21875 
Q 25.25 66.21875 20.875 63.09375 
Q 16.5 59.96875 16.5 54.203125 
Q 16.5 49.359375 19.40625 46.890625 
Q 22.3125 44.4375 30.421875 42.921875 
L 36.375 41.703125 
Q 47.40625 39.59375 52.65625 34.296875 
Q 57.90625 29 57.90625 20.125 
Q 57.90625 9.515625 50.796875 4.046875 
Q 43.703125 -1.421875 29.984375 -1.421875 
Q 24.8125 -1.421875 18.96875 -0.25 
Q 13.140625 0.921875 6.890625 3.21875 
L 6.890625 13.375 
Q 12.890625 10.015625 18.65625 8.296875 
Q 24.421875 6.59375 29.984375 6.59375 
Q 38.421875 6.59375 43.015625 9.90625 
Q 47.609375 13.234375 47.609375 19.390625 
Q 47.609375 24.75 44.3125 27.78125 
Q 41.015625 30.8125 33.5 32.328125 
L 27.484375 33.5 
Q 16.453125 35.6875 11.515625 40.375 
Q 6.59375 45.0625 6.59375 53.421875 
Q 6.59375 63.09375 13.40625 68.65625 
Q 20.21875 74.21875 32.171875 74.21875 
Q 37.3125 74.21875 42.625 73.28125 
Q 47.953125 72.359375 53.515625 70.515625 
z
" id="DejaVuSans-83"/>
       <path d="M 8.015625 75.875 
L 15.828125 75.875 
Q 23.140625 64.359375 26.78125 53.3125 
Q 30.421875 42.28125 30.421875 31.390625 
Q 30.421875 20.453125 26.78125 9.375 
Q 23.140625 -1.703125 15.828125 -13.1875 
L 8.015625 -13.1875 
Q 14.5 -2 17.703125 9.0625 
Q 20.90625 20.125 20.90625 31.390625 
Q 20.90625 42.671875 17.703125 53.65625 
Q 14.5 64.65625 8.015625 75.875 
z
" id="DejaVuSans-41"/>
      </defs>
      <use xlink:href="#DejaVuSans-86"/>
      <use x="60.658203" xlink:href="#DejaVuSans-97"/>
      <use x="121.9375" xlink:href="#DejaVuSans-108"/>
      <use x="149.720703" xlink:href="#DejaVuSans-117"/>
      <use x="213.099609" xlink:href="#DejaVuSans-101"/>
      <use x="274.623047" xlink:href="#DejaVuSans-32"/>
      <use x="306.410156" xlink:href="#DejaVuSans-40"/>
      <use x="345.423828" xlink:href="#DejaVuSans-85"/>
      <use x="418.617188" xlink:href="#DejaVuSans-83"/>
      <use x="482.09375" xlink:href="#DejaVuSans-68"/>
      <use x="559.095703" xlink:href="#DejaVuSans-41"/>
     </g>
    </g>
   </g>
   <g id="line2d_35">
    <path clip-path="url(#pd82b68ff6b)" d="M 73.832727 120.683547 
L 74.145798 102.376792 
L 74.458869 77.247833 
L 74.77194 72.390383 
L 75.711153 53.568 
L 76.024224 79.675355 
L 76.337295 78.000141 
L 76.650366 79.962634 
L 76.963436 103.214509 
L 77.276507 84.168811 
L 77.589578 73.706036 
L 78.21572 97.091462 
L 78.528791 146.431598 
L 78.841862 148.745742 
L 79.154933 140.019634 
L 79.468004 139.656661 
L 79.781075 119.711498 
L 80.094146 143.565859 
L 80.407217 154.357185 
L 80.720288 154.88597 
L 81.033358 148.149766 
L 81.346429 148.512411 
L 81.6595 152.96107 
L 81.972571 147.061026 
L 82.285642 132.268261 
L 82.598713 142.551949 
L 82.911784 143.679602 
L 83.224855 162.355782 
L 83.537926 158.46901 
L 83.850997 176.215394 
L 84.164068 186.181483 
L 84.477139 181.90539 
L 84.79021 195.307761 
L 85.10328 218.638049 
L 85.416351 205.036374 
L 85.729422 208.997186 
L 86.355564 188.388076 
L 86.668635 186.774262 
L 86.981706 193.344301 
L 87.294777 184.230871 
L 87.607848 190.261062 
L 87.920919 176.321005 
L 88.23399 171.830073 
L 88.547061 170.176098 
L 88.860131 161.847601 
L 89.173202 170.317564 
L 89.486273 165.740993 
L 89.799344 167.202351 
L 90.112415 186.691662 
L 90.425486 185.99529 
L 90.738557 179.809732 
L 91.051628 187.353483 
L 91.364699 186.057876 
L 91.67777 180.77995 
L 91.990841 178.836366 
L 92.303912 183.729774 
L 92.616983 179.445464 
L 93.243124 178.56441 
L 93.556195 176.398475 
L 93.869266 176.626033 
L 94.808479 202.009641 
L 95.12155 201.607781 
L 95.434621 206.618817 
L 95.747692 199.814874 
L 96.060763 203.449614 
L 96.373834 204.512995 
L 96.686905 217.036046 
L 96.999975 216.677165 
L 97.313046 215.892749 
L 97.626117 222.794223 
L 97.939188 223.461905 
L 98.252259 217.545692 
L 98.56533 216.138828 
L 98.878401 215.786975 
L 99.191472 219.489243 
L 99.504543 219.624384 
L 99.817614 222.100994 
L 100.130685 222.97856 
L 100.756827 233.19539 
L 101.069897 233.201911 
L 101.382968 243.848098 
L 101.696039 244.567819 
L 102.00911 244.092779 
L 102.322181 246.848869 
L 102.635252 244.712 
L 102.948323 238.859894 
L 103.261394 246.237648 
L 103.574465 246.148002 
L 103.887536 249.126529 
L 104.513678 244.597324 
L 104.826748 245.831124 
L 105.139819 244.558272 
L 105.45289 241.866562 
L 105.765961 230.39275 
L 106.079032 230.233348 
L 106.392103 229.729315 
L 106.705174 224.266089 
L 107.331316 228.194903 
L 107.644387 223.355395 
L 108.270529 209.245669 
L 108.5836 207.759377 
L 108.89667 207.017644 
L 109.209741 202.851487 
L 109.522812 192.679443 
L 109.835883 207.997189 
L 110.148954 200.453817 
L 110.462025 204.450905 
L 110.775096 198.559251 
L 111.088167 196.91895 
L 111.401238 200.559783 
L 111.714309 200.961357 
L 112.02738 198.244168 
L 112.340451 188.355981 
L 112.653522 188.167488 
L 112.966592 183.101008 
L 113.279663 186.120856 
L 113.592734 191.970024 
L 113.905805 194.102258 
L 114.218876 193.705609 
L 114.531947 199.07623 
L 114.845018 207.908039 
L 115.158089 205.639407 
L 115.47116 200.524962 
L 115.784231 201.222155 
L 116.097302 205.922205 
L 116.410373 206.865659 
L 116.723443 212.511843 
L 117.036514 210.289681 
L 117.349585 210.853487 
L 117.662656 206.634988 
L 117.975727 209.015209 
L 118.601869 224.153571 
L 118.91494 221.738245 
L 119.228011 224.187067 
L 119.854153 226.36592 
L 120.167224 233.250632 
L 120.480295 226.037591 
L 120.793365 226.608694 
L 121.106436 224.762835 
L 121.419507 224.238477 
L 121.732578 222.080514 
L 122.045649 218.482588 
L 122.35872 221.870418 
L 122.671791 219.697049 
L 123.297933 220.076994 
L 123.611004 220.990915 
L 123.924075 223.073479 
L 124.237146 233.03966 
L 124.550217 231.405399 
L 124.863287 236.910256 
L 125.176358 240.406315 
L 125.489429 235.074219 
L 125.8025 239.399314 
L 126.115571 238.512985 
L 126.428642 239.19406 
L 126.741713 235.962946 
L 127.054784 234.116775 
L 127.367855 234.659371 
L 127.680926 235.646704 
L 127.993997 244.449242 
L 128.307068 243.364155 
L 128.620139 245.041617 
L 128.933209 244.2297 
L 129.24628 248.090284 
L 129.559351 246.93714 
L 129.872422 250.21793 
L 130.498564 244.600695 
L 130.811635 245.170554 
L 131.124706 241.054171 
L 131.437777 242.645764 
L 131.750848 241.92272 
L 132.063919 242.373369 
L 132.37699 242.031092 
L 132.69006 239.864683 
L 133.003131 240.418968 
L 133.316202 241.905192 
L 133.629273 247.14007 
L 133.942344 245.792517 
L 134.255415 248.009614 
L 134.568486 247.404569 
L 134.881557 247.330476 
L 135.194628 245.441983 
L 135.82077 234.614545 
L 136.133841 236.333782 
L 136.446912 236.664638 
L 136.759982 239.761603 
L 137.073053 238.442043 
L 137.386124 238.552906 
L 137.699195 237.652713 
L 138.012266 231.014189 
L 138.638408 235.44832 
L 138.951479 233.723638 
L 139.577621 233.441365 
L 139.890692 234.408834 
L 140.203763 239.026493 
L 140.829904 242.007703 
L 141.142975 242.1616 
L 141.456046 245.390733 
L 141.769117 244.790998 
L 142.082188 246.281594 
L 142.395259 250.151685 
L 142.70833 255.812143 
L 143.021401 253.149767 
L 143.334472 257.913303 
L 143.647543 259.278609 
L 143.960614 258.586257 
L 144.273685 261.670144 
L 144.586756 262.929178 
L 145.212897 261.453472 
L 145.525968 255.872656 
L 145.839039 259.50752 
L 146.15211 258.066794 
L 146.465181 262.240443 
L 146.778252 259.926458 
L 147.091323 261.839442 
L 147.717465 258.941318 
L 148.030536 258.851963 
L 148.343607 259.40938 
L 148.969748 255.037647 
L 149.59589 256.681151 
L 149.908961 256.793021 
L 150.222032 253.985456 
L 150.535103 253.428732 
L 150.848174 254.383782 
L 151.161245 254.194357 
L 151.474316 262.662562 
L 151.787387 263.883663 
L 152.100458 265.785705 
L 152.413529 268.640871 
L 152.726599 268.209165 
L 153.03967 268.300945 
L 153.352741 269.606664 
L 153.665812 269.387965 
L 153.978883 266.240567 
L 154.291954 266.46526 
L 154.605025 265.45453 
L 154.918096 265.765818 
L 155.231167 269.105739 
L 155.544238 266.43712 
L 155.857309 266.267724 
L 156.483451 255.918963 
L 156.796521 256.303882 
L 157.109592 256.190863 
L 157.422663 259.869149 
L 157.735734 260.6411 
L 158.048805 260.464876 
L 158.361876 257.196627 
L 158.674947 258.296953 
L 158.988018 257.184003 
L 159.301089 256.872829 
L 159.61416 257.18337 
L 159.927231 259.240385 
L 160.240302 259.605748 
L 160.866443 258.649102 
L 161.179514 259.783849 
L 161.492585 259.770758 
L 161.805656 258.876813 
L 162.118727 259.414735 
L 162.431798 260.258465 
L 162.744869 266.780146 
L 163.05794 265.234294 
L 163.371011 264.747251 
L 163.684082 265.469048 
L 163.997153 261.501247 
L 164.310224 261.113797 
L 164.623294 261.229547 
L 164.936365 262.752432 
L 165.249436 262.986021 
L 165.562507 262.332331 
L 165.875578 262.465519 
L 166.50172 262.915155 
L 167.127862 263.208631 
L 167.440933 263.080399 
L 167.754004 263.290128 
L 168.067075 262.910283 
L 168.380146 265.188131 
L 169.006287 264.244669 
L 169.319358 264.056818 
L 169.632429 263.142663 
L 169.9455 263.445388 
L 170.571642 261.095631 
L 170.884713 258.264032 
L 171.197784 258.130458 
L 171.510855 260.257965 
L 171.823926 261.007134 
L 172.136997 260.573134 
L 172.763138 260.792072 
L 173.076209 261.299434 
L 173.38928 267.444777 
L 173.702351 268.140622 
L 174.015422 269.457384 
L 174.328493 269.082609 
L 174.641564 269.09133 
L 174.954635 276.129152 
L 175.267706 280.656437 
L 175.580777 279.059896 
L 175.893848 282.108162 
L 176.206919 282.18924 
L 176.519989 286.322647 
L 176.83306 285.335873 
L 177.146131 287.456378 
L 177.459202 287.25221 
L 177.772273 283.5096 
L 178.085344 284.084557 
L 178.398415 286.196651 
L 178.711486 284.738958 
L 179.024557 285.374326 
L 179.337628 287.565518 
L 179.650699 287.197387 
L 179.96377 289.094126 
L 180.276841 292.251066 
L 180.589911 292.584066 
L 180.902982 292.613556 
L 181.216053 291.616446 
L 181.529124 292.738227 
L 181.842195 293.204399 
L 182.155266 292.675171 
L 182.781408 294.676546 
L 183.094479 294.769876 
L 183.40755 294.667553 
L 183.720621 291.637924 
L 184.033692 289.850362 
L 184.346763 289.474411 
L 184.659833 285.471742 
L 184.972904 287.320263 
L 185.599046 285.200586 
L 185.912117 283.477 
L 186.225188 286.335823 
L 186.538259 286.078221 
L 186.85133 289.149163 
L 187.164401 285.566317 
L 187.477472 285.829173 
L 187.790543 285.743416 
L 188.103614 287.184637 
L 188.729755 284.248909 
L 189.042826 285.601206 
L 189.355897 284.963233 
L 189.668968 285.183695 
L 189.982039 283.597738 
L 190.29511 284.087212 
L 190.608181 284.251886 
L 190.921252 284.027927 
L 191.234323 288.365326 
L 191.860465 288.728618 
L 192.173536 290.215731 
L 192.486606 288.167246 
L 192.799677 289.283464 
L 193.112748 288.857404 
L 193.425819 288.755449 
L 193.73889 289.201587 
L 194.051961 288.39809 
L 194.365032 289.727685 
L 194.678103 289.866041 
L 194.991174 289.484645 
L 195.304245 289.678266 
L 195.617316 289.649861 
L 196.243458 289.810004 
L 196.556528 290.210538 
L 196.869599 291.71089 
L 197.18267 292.007933 
L 197.495741 290.736417 
L 197.808812 291.292846 
L 198.434954 290.79661 
L 198.748025 291.232816 
L 199.374167 291.210524 
L 199.687238 291.963415 
L 200.000309 292.021031 
L 200.31338 289.08603 
L 200.62645 289.074611 
L 200.939521 288.752713 
L 201.252592 289.409852 
L 201.565663 289.249082 
L 202.191805 289.713731 
L 202.817947 289.377279 
L 203.131018 288.398683 
L 203.444089 285.978804 
L 203.75716 285.907398 
L 204.070231 284.990708 
L 204.383301 285.757548 
L 204.696372 285.323013 
L 205.009443 283.710204 
L 205.322514 288.070327 
L 205.635585 286.749047 
L 205.948656 287.157131 
L 206.261727 287.342227 
L 206.887869 287.224334 
L 207.514011 287.655838 
L 207.827082 288.703595 
L 208.140153 286.954667 
L 208.766294 286.89431 
L 209.079365 287.286372 
L 209.392436 286.41171 
L 209.705507 286.644491 
L 210.018578 287.256878 
L 210.331649 287.091288 
L 210.64472 287.200027 
L 210.957791 287.105932 
L 211.583933 285.452149 
L 211.897004 285.856929 
L 212.210075 285.817069 
L 212.836216 285.354536 
L 213.149287 286.12493 
L 213.462358 285.918937 
L 213.775429 285.566245 
L 214.0885 285.836251 
L 214.401571 286.497254 
L 214.714642 286.429208 
L 215.027713 285.206573 
L 215.340784 285.473757 
L 215.653855 284.634509 
L 216.279996 284.740938 
L 216.593067 284.430186 
L 216.906138 277.716429 
L 217.219209 277.056148 
L 217.53228 277.924595 
L 217.845351 276.094842 
L 218.158422 276.014405 
L 218.471493 274.532331 
L 218.784564 273.891514 
L 219.097635 275.046505 
L 219.410706 273.919046 
L 219.723777 276.924688 
L 220.036848 276.749797 
L 220.349918 276.893789 
L 220.662989 276.125961 
L 220.97606 277.088773 
L 221.289131 275.648658 
L 221.602202 275.538072 
L 221.915273 274.83356 
L 222.541415 275.010623 
L 222.854486 275.414219 
L 223.167557 274.912189 
L 223.480628 274.144398 
L 223.793699 275.56534 
L 224.10677 277.946584 
L 224.41984 277.071259 
L 225.045982 277.491807 
L 225.359053 278.309635 
L 225.672124 276.726699 
L 225.985195 276.576482 
L 226.298266 276.042243 
L 226.611337 273.929445 
L 226.924408 273.914198 
L 227.237479 274.256856 
L 228.176692 272.847536 
L 228.802833 270.609753 
L 229.115904 263.166507 
L 229.428975 265.825835 
L 230.055117 256.021646 
L 230.368188 251.710232 
L 230.681259 253.34391 
L 230.99433 258.378698 
L 231.307401 259.539173 
L 231.620472 252.025511 
L 231.933543 254.011067 
L 232.246613 253.811539 
L 232.559684 256.824948 
L 233.185826 254.65499 
L 233.498897 254.165587 
L 233.811968 249.443053 
L 234.125039 247.221578 
L 234.751181 248.09842 
L 235.064252 251.453477 
L 235.377323 248.722126 
L 235.690394 249.357826 
L 236.003465 247.538571 
L 236.629606 256.471295 
L 236.942677 255.18543 
L 237.255748 254.538351 
L 237.568819 253.335237 
L 237.88189 254.512334 
L 238.194961 257.407716 
L 238.508032 254.26485 
L 238.821103 255.123358 
L 239.134174 252.574746 
L 239.447245 252.41535 
L 239.760316 249.477109 
L 240.386457 247.025565 
L 240.699528 244.643612 
L 241.012599 246.844507 
L 241.638741 244.05358 
L 242.264883 234.178512 
L 242.577954 233.812392 
L 242.891025 232.481598 
L 243.204096 228.236727 
L 243.517167 221.14727 
L 243.830238 234.915532 
L 244.143308 227.573059 
L 244.456379 228.57228 
L 244.76945 237.009969 
L 245.082521 237.700845 
L 245.395592 237.371731 
L 245.708663 230.386145 
L 246.021734 235.959623 
L 246.334805 237.291626 
L 246.960947 233.442222 
L 247.274018 228.652927 
L 247.587089 227.727328 
L 247.90016 231.70926 
L 248.21323 238.181247 
L 248.526301 235.207948 
L 248.839372 237.854736 
L 249.152443 247.507233 
L 249.465514 243.785626 
L 249.778585 253.21093 
L 250.091656 251.555627 
L 250.404727 245.133264 
L 250.717798 246.067443 
L 251.030869 243.850932 
L 251.34394 245.001832 
L 251.970082 249.886495 
L 252.283152 250.284238 
L 252.596223 249.706878 
L 252.909294 249.432538 
L 253.222365 252.702173 
L 253.535436 251.880806 
L 253.848507 252.089962 
L 254.161578 251.612343 
L 254.474649 248.336611 
L 255.726933 243.741166 
L 256.040004 238.533432 
L 256.353074 240.75756 
L 256.666145 238.514728 
L 256.979216 238.60552 
L 257.605358 243.480658 
L 257.918429 241.389335 
L 258.2315 242.74298 
L 258.544571 245.150916 
L 258.857642 252.294662 
L 259.170713 250.622399 
L 259.483784 250.802126 
L 259.796855 251.178509 
L 260.109925 249.725326 
L 260.422996 246.152534 
L 260.736067 247.627782 
L 261.049138 251.627056 
L 261.362209 251.110319 
L 261.67528 249.502829 
L 261.988351 251.190486 
L 262.301422 251.713989 
L 262.614493 250.305689 
L 262.927564 251.258019 
L 263.240635 254.677764 
L 263.553706 256.455279 
L 264.492918 255.07362 
L 264.805989 251.44924 
L 265.11906 249.746334 
L 265.432131 250.394257 
L 265.745202 250.534454 
L 266.058273 252.072292 
L 266.371344 250.693098 
L 266.684415 250.623809 
L 266.997486 251.150991 
L 267.310557 252.225635 
L 267.623628 252.356228 
L 267.936699 250.918087 
L 268.249769 251.126342 
L 268.56284 250.530709 
L 268.875911 250.707819 
L 269.188982 250.3267 
L 269.502053 249.280179 
L 269.815124 248.771751 
L 270.128195 247.79016 
L 270.441266 248.658446 
L 270.754337 249.889031 
L 271.067408 250.186656 
L 271.380479 252.979074 
L 271.69355 261.464856 
L 272.00662 262.398197 
L 272.319691 264.597137 
L 272.632762 263.637863 
L 272.945833 263.353656 
L 273.258904 264.594489 
L 273.571975 262.492152 
L 273.885046 262.014916 
L 274.198117 262.103207 
L 274.511188 263.230661 
L 274.824259 263.42307 
L 275.13733 263.439912 
L 275.450401 265.059816 
L 275.763472 262.414191 
L 276.076542 262.341283 
L 276.389613 259.417145 
L 276.702684 259.914268 
L 277.015755 262.178193 
L 277.328826 261.930669 
L 277.641897 261.836534 
L 277.954968 260.75261 
L 278.58111 263.579487 
L 278.894181 262.655912 
L 279.207252 263.788571 
L 279.520323 263.937071 
L 279.833394 262.259721 
L 280.146464 262.209975 
L 280.459535 263.366666 
L 280.772606 267.443396 
L 281.085677 267.585974 
L 281.398748 259.221785 
L 282.02489 254.793532 
L 282.337961 256.22209 
L 282.651032 254.46418 
L 282.964103 256.249398 
L 283.277174 256.447173 
L 283.590245 256.114094 
L 283.903316 255.563954 
L 284.216386 256.240671 
L 284.529457 254.932422 
L 284.842528 255.068364 
L 285.155599 254.400083 
L 285.46867 255.79419 
L 285.781741 258.621718 
L 286.094812 258.340933 
L 286.407883 256.795382 
L 286.720954 258.82085 
L 287.034025 258.333295 
L 287.347096 258.499624 
L 287.660167 259.435863 
L 287.973237 260.84929 
L 288.599379 260.397024 
L 288.91245 262.713135 
L 289.538592 263.606873 
L 290.164734 269.956702 
L 290.477805 269.636692 
L 290.790876 272.684736 
L 291.103947 271.358317 
L 291.417018 271.015455 
L 291.730089 268.873978 
L 292.043159 269.211561 
L 292.35623 267.390742 
L 292.982372 269.383993 
L 293.295443 270.14599 
L 293.608514 270.399603 
L 293.921585 271.03116 
L 294.547727 268.940491 
L 294.860798 269.190675 
L 295.173869 268.854223 
L 295.800011 270.741595 
L 296.113081 271.118328 
L 296.426152 271.039067 
L 296.739223 270.739488 
L 297.052294 271.8923 
L 297.365365 271.694391 
L 297.678436 273.69172 
L 297.991507 276.425399 
L 298.304578 272.120152 
L 298.617649 273.187109 
L 298.93072 272.89823 
L 299.243791 273.246065 
L 299.556862 270.992378 
L 299.869932 272.213997 
L 300.496074 273.14781 
L 300.809145 273.03614 
L 301.435287 272.132488 
L 301.748358 271.185191 
L 302.061429 272.253551 
L 302.3745 272.667485 
L 302.687571 272.599834 
L 303.000642 274.173139 
L 303.313713 271.698507 
L 303.626784 271.371744 
L 303.939854 271.31906 
L 304.252925 268.058905 
L 304.565996 266.142041 
L 304.879067 267.000077 
L 305.192138 268.32973 
L 305.505209 265.631609 
L 305.81828 266.785902 
L 306.131351 265.617388 
L 306.444422 266.124929 
L 306.757493 259.933914 
L 307.070564 259.911168 
L 307.383635 260.806764 
L 307.696706 258.790395 
L 308.009776 258.755333 
L 308.322847 260.508075 
L 308.635918 260.785439 
L 308.948989 260.044152 
L 309.26206 260.446707 
L 309.575131 262.450911 
L 309.888202 262.502345 
L 310.201273 263.148423 
L 311.140486 256.24527 
L 311.453557 256.56185 
L 311.766628 254.396916 
L 312.079698 256.058291 
L 312.392769 255.399221 
L 312.70584 255.021479 
L 313.018911 254.920048 
L 313.331982 255.420498 
L 313.645053 251.564678 
L 313.958124 250.104439 
L 314.271195 249.265289 
L 314.584266 248.807785 
L 314.897337 247.027771 
L 315.210408 248.73552 
L 315.836549 243.209819 
L 316.14962 243.022654 
L 316.462691 241.091663 
L 316.775762 245.693954 
L 317.088833 245.962046 
L 317.401904 246.961806 
L 317.714975 243.774897 
L 318.028046 248.574966 
L 318.341117 248.938231 
L 318.654188 248.060835 
L 318.967259 248.426357 
L 319.28033 245.654814 
L 319.906471 251.418077 
L 320.219542 256.509698 
L 320.532613 256.464129 
L 320.845684 256.709034 
L 321.158755 258.366927 
L 321.471826 258.229039 
L 321.784897 255.262776 
L 322.097968 256.670339 
L 322.411039 256.740754 
L 323.037181 253.077699 
L 323.350252 255.037905 
L 323.663323 263.10016 
L 323.976393 263.497172 
L 324.289464 263.532344 
L 324.602535 263.880617 
L 324.915606 285.995993 
L 325.228677 281.868935 
L 325.541748 284.467242 
L 325.854819 283.186323 
L 326.16789 286.214832 
L 326.480961 283.75028 
L 326.794032 283.839782 
L 327.107103 277.890856 
L 327.733244 278.468899 
L 328.046315 280.815523 
L 328.359386 276.650176 
L 328.672457 274.910512 
L 328.985528 275.322944 
L 329.298599 274.464394 
L 329.61167 276.984507 
L 329.924741 277.574021 
L 330.237812 280.018486 
L 330.550883 276.833038 
L 330.863954 276.631352 
L 331.490096 273.936176 
L 331.803166 274.277381 
L 332.116237 273.404667 
L 332.429308 273.966242 
L 332.742379 269.096596 
L 333.05545 270.014814 
L 333.368521 268.456802 
L 333.681592 269.000268 
L 333.994663 272.400345 
L 334.620805 272.094101 
L 334.933876 272.594701 
L 335.246947 272.544425 
L 335.560018 274.201879 
L 335.873088 270.530836 
L 336.186159 270.753499 
L 336.49923 268.432873 
L 336.812301 269.653183 
L 337.125372 271.876017 
L 337.438443 271.964435 
L 338.064585 267.995799 
L 339.316869 264.95795 
L 339.62994 264.658338 
L 339.94301 258.073819 
L 340.256081 259.773553 
L 340.569152 258.121414 
L 340.882223 257.098445 
L 341.195294 257.912629 
L 341.508365 258.210964 
L 342.134507 257.44753 
L 342.447578 252.342095 
L 342.760649 253.027998 
L 343.07372 254.392963 
L 343.386791 260.54923 
L 343.699861 261.585513 
L 344.012932 260.35099 
L 344.639074 254.155731 
L 344.952145 257.373796 
L 345.265216 256.57447 
L 345.578287 254.678769 
L 345.891358 253.824687 
L 346.204429 253.573377 
L 346.5175 255.110546 
L 346.830571 258.447518 
L 347.143642 257.454458 
L 347.456713 257.282023 
L 347.769783 260.066477 
L 348.082854 258.958213 
L 348.395925 259.437122 
L 349.022067 254.340248 
L 349.335138 254.94402 
L 349.648209 251.936767 
L 349.96128 253.738304 
L 350.274351 248.851783 
L 350.587422 253.025605 
L 351.213564 251.063988 
L 351.526635 252.079727 
L 351.839705 251.86287 
L 352.465847 251.006123 
L 352.778918 251.293841 
L 353.091989 250.45909 
L 353.40506 254.777333 
L 353.718131 253.531712 
L 354.031202 253.507159 
L 354.344273 254.627641 
L 354.657344 254.216587 
L 354.970415 253.48413 
L 355.283486 253.743038 
L 355.909627 255.051597 
L 356.222698 254.798211 
L 356.535769 255.287167 
L 356.84884 252.130848 
L 357.161911 252.479804 
L 357.474982 254.868435 
L 357.788053 255.158275 
L 358.101124 255.855352 
L 358.414195 257.482742 
L 358.727266 256.471621 
L 359.040337 255.9684 
L 359.353408 256.384677 
L 359.666478 255.440837 
L 359.979549 256.491002 
L 360.29262 256.620175 
L 360.605691 255.941361 
L 360.918762 256.300141 
L 361.231833 253.646597 
L 361.544904 254.195347 
L 361.857975 252.155766 
L 362.171046 253.621249 
L 362.484117 253.605334 
L 362.797188 253.819062 
L 363.110259 253.321206 
L 363.42333 253.874785 
L 363.7364 253.702771 
L 364.049471 254.106908 
L 364.362542 254.903681 
L 364.675613 254.927207 
L 365.301755 254.134079 
L 365.614826 254.750795 
L 366.240968 250.85382 
L 366.554039 249.702849 
L 366.86711 249.826541 
L 367.180181 246.802311 
L 367.493252 245.217079 
L 367.806322 239.149455 
L 368.119393 239.213078 
L 368.745535 236.781718 
L 369.058606 234.659788 
L 369.371677 228.677261 
L 369.684748 234.095437 
L 369.997819 231.627742 
L 370.31089 231.885173 
L 370.623961 228.4317 
L 370.937032 228.348047 
L 371.250103 230.634207 
L 371.563173 228.907757 
L 371.876244 229.493714 
L 372.189315 228.099791 
L 372.502386 231.920905 
L 372.815457 230.512448 
L 373.128528 226.466652 
L 373.441599 225.901307 
L 373.75467 225.750371 
L 374.067741 225.370865 
L 374.380812 223.34519 
L 375.006954 228.439125 
L 375.320025 227.049255 
L 375.633095 231.177423 
L 375.946166 229.590527 
L 376.259237 230.13374 
L 376.572308 228.324878 
L 376.885379 232.43777 
L 377.19845 231.748768 
L 377.511521 233.29608 
L 377.824592 231.149199 
L 378.137663 230.908613 
L 378.450734 227.747254 
L 378.763805 227.400321 
L 379.076876 223.350892 
L 379.389947 228.809914 
L 379.703017 239.794989 
L 380.016088 237.589791 
L 380.329159 243.057535 
L 380.64223 241.389799 
L 380.955301 240.898595 
L 381.268372 243.140082 
L 381.894514 239.94383 
L 382.207585 239.414266 
L 382.520656 238.120936 
L 382.833727 240.230278 
L 383.146798 237.753777 
L 383.459869 237.862064 
L 383.772939 236.98042 
L 384.08601 235.440785 
L 384.399081 235.924171 
L 384.712152 234.944143 
L 385.025223 236.867359 
L 385.338294 241.702625 
L 385.651365 240.979768 
L 385.964436 244.376249 
L 386.277507 239.704931 
L 386.590578 239.383942 
L 387.21672 238.411006 
L 387.52979 239.102605 
L 387.842861 237.883578 
L 388.155932 238.258117 
L 388.782074 240.446905 
L 389.095145 240.605979 
L 389.408216 239.174634 
L 389.721287 238.470271 
L 390.034358 240.36048 
L 390.347429 239.891552 
L 391.286642 234.565254 
L 391.599712 233.797805 
L 391.912783 232.107027 
L 392.225854 232.953688 
L 392.538925 233.134139 
L 392.851996 233.038631 
L 393.165067 234.875501 
L 393.478138 234.478042 
L 394.10428 231.660577 
L 394.417351 231.808039 
L 394.730422 225.502531 
L 395.043493 223.141676 
L 395.356564 223.577607 
L 395.669634 222.412802 
L 396.295776 224.162078 
L 396.608847 220.414679 
L 396.921918 223.347504 
L 397.234989 222.849132 
L 397.54806 222.746822 
L 397.861131 221.333769 
L 398.174202 220.94389 
L 398.487273 222.706357 
L 398.487273 222.706357 
" style="fill:none;stroke:#1f77b4;stroke-linecap:square;stroke-width:0.7;"/>
   </g>
   <g id="line2d_36">
    <path clip-path="url(#pd82b68ff6b)" d="M 73.832727 120.683547 
L 74.145798 102.376792 
L 74.458869 77.247833 
L 74.77194 72.390383 
L 75.711153 53.568 
L 76.024224 79.675355 
L 76.337295 78.000141 
L 76.650366 79.962634 
L 76.963436 103.214509 
L 77.276507 84.168811 
L 77.589578 73.706036 
L 78.21572 97.091462 
L 78.528791 146.431598 
L 78.841862 148.745742 
L 79.154933 140.019634 
L 79.468004 139.656661 
L 79.781075 119.711498 
L 80.094146 143.565859 
L 80.407217 154.357185 
L 80.720288 154.88597 
L 81.033358 148.149766 
L 81.346429 148.512411 
L 81.6595 152.96107 
L 81.972571 147.061026 
L 82.285642 132.268261 
L 82.598713 142.551949 
L 82.911784 143.679602 
L 83.224855 162.355782 
L 83.537926 158.46901 
L 83.850997 176.665901 
L 84.164068 185.975193 
L 84.477139 181.708522 
L 84.79021 194.834154 
L 85.10328 218.255183 
L 85.416351 204.786766 
L 85.729422 208.602291 
L 86.355564 187.804837 
L 86.668635 185.871021 
L 86.981706 192.535816 
L 87.294777 183.152985 
L 87.607848 189.346123 
L 87.920919 175.223484 
L 88.23399 170.375785 
L 88.547061 168.672751 
L 88.860131 159.882522 
L 89.173202 168.443813 
L 89.486273 163.536068 
L 89.799344 164.635245 
L 90.112415 184.730792 
L 90.425486 184.010999 
L 90.738557 178.005763 
L 91.051628 185.779918 
L 91.364699 184.593265 
L 91.67777 179.015886 
L 91.990841 176.898723 
L 92.303912 181.946018 
L 92.616983 177.599872 
L 93.243124 176.984222 
L 93.556195 174.310129 
L 93.869266 174.820912 
L 94.808479 200.43754 
L 95.12155 199.953549 
L 95.434621 205.076282 
L 95.747692 198.140537 
L 96.060763 201.870558 
L 96.373834 202.961961 
L 96.686905 215.662184 
L 96.999975 215.355066 
L 97.313046 214.549054 
L 97.626117 221.517187 
L 97.939188 222.185389 
L 98.252259 215.893464 
L 98.56533 214.555171 
L 98.878401 214.29169 
L 99.191472 218.075057 
L 99.504543 218.347753 
L 99.817614 220.778437 
L 100.130685 221.64883 
L 100.756827 232.010789 
L 101.069897 232.058145 
L 101.382968 242.907372 
L 101.696039 243.632459 
L 102.00911 243.168831 
L 102.322181 246.175401 
L 102.635252 244.093462 
L 102.948323 237.876824 
L 103.261394 245.426986 
L 103.574465 245.383097 
L 103.887536 248.48509 
L 104.513678 243.852338 
L 104.826748 244.953068 
L 105.139819 243.603174 
L 105.45289 240.553625 
L 105.765961 228.75979 
L 106.079032 228.580168 
L 106.392103 228.129711 
L 106.705174 222.349785 
L 107.331316 226.149963 
L 107.644387 220.706655 
L 108.270529 204.428381 
L 108.89667 202.529879 
L 109.209741 197.679585 
L 109.522812 187.450372 
L 109.835883 203.879564 
L 110.148954 195.668007 
L 110.462025 199.937132 
L 110.775096 193.493946 
L 111.088167 191.66215 
L 111.401238 195.81906 
L 111.714309 196.141187 
L 112.02738 193.200529 
L 112.340451 183.003454 
L 112.653522 182.836414 
L 112.966592 177.358003 
L 113.279663 180.497398 
L 113.592734 186.68181 
L 113.905805 188.945109 
L 114.218876 188.57477 
L 114.531947 194.282885 
L 114.845018 203.580445 
L 115.158089 201.107223 
L 115.47116 195.746127 
L 115.784231 196.561096 
L 116.097302 201.563728 
L 116.410373 202.521181 
L 116.723443 208.464363 
L 117.036514 206.19778 
L 117.349585 206.820304 
L 117.662656 202.356912 
L 117.975727 204.896605 
L 118.601869 220.741006 
L 118.91494 218.099771 
L 119.228011 220.710178 
L 119.854153 222.956945 
L 120.167224 230.259679 
L 120.480295 222.666785 
L 120.793365 223.21377 
L 121.106436 221.289568 
L 121.419507 220.722342 
L 121.732578 218.3606 
L 122.045649 214.457007 
L 122.35872 218.024891 
L 122.671791 215.721957 
L 122.984862 216.04079 
L 123.297933 216.164694 
L 123.611004 217.136149 
L 123.924075 219.3317 
L 124.237146 229.767003 
L 124.550217 228.030102 
L 124.863287 233.842524 
L 125.176358 237.481127 
L 125.489429 231.962243 
L 125.8025 236.481349 
L 126.115571 235.593622 
L 126.428642 236.31111 
L 126.741713 233.004062 
L 127.054784 231.055947 
L 127.367855 231.679197 
L 127.680926 232.726663 
L 127.993997 241.85651 
L 128.307068 240.758055 
L 128.620139 242.55359 
L 128.933209 241.722355 
L 129.24628 245.797921 
L 129.559351 244.564 
L 129.872422 247.993017 
L 130.498564 242.209395 
L 130.811635 242.787236 
L 131.124706 238.455383 
L 131.437777 240.107399 
L 131.750848 239.367818 
L 132.063919 239.943483 
L 132.37699 239.651675 
L 132.69006 237.410513 
L 133.003131 238.033283 
L 133.316202 239.622911 
L 133.629273 245.056303 
L 133.942344 243.643614 
L 134.255415 245.961271 
L 134.568486 245.251291 
L 134.881557 245.162795 
L 135.194628 243.175318 
L 135.82077 231.982196 
L 136.133841 233.873258 
L 136.446912 234.326549 
L 136.759982 237.81389 
L 137.073053 236.396059 
L 137.386124 236.509009 
L 137.699195 235.86282 
L 138.012266 229.246475 
L 138.638408 233.69129 
L 138.951479 232.02557 
L 139.577621 231.753657 
L 139.890692 232.859038 
L 140.203763 237.499025 
L 140.829904 240.578402 
L 141.142975 240.38655 
L 141.456046 243.459272 
L 141.769117 242.8217 
L 142.082188 244.374297 
L 142.395259 248.720225 
L 142.70833 255.020139 
L 143.021401 252.426159 
L 143.334472 257.470462 
L 143.647543 259.271548 
L 143.960614 258.673505 
L 144.273685 262.29441 
L 144.586756 263.514247 
L 145.212897 262.002851 
L 145.525968 255.454434 
L 145.839039 259.491649 
L 146.15211 257.87203 
L 146.465181 262.523391 
L 146.778252 260.146037 
L 147.091323 262.181792 
L 147.717465 259.344285 
L 148.030536 259.336397 
L 148.343607 260.018441 
L 148.969748 255.150329 
L 149.59589 256.822428 
L 149.908961 256.753147 
L 150.222032 253.59126 
L 150.535103 253.158277 
L 150.848174 254.332503 
L 151.161245 254.437081 
L 151.474316 264.094694 
L 151.787387 264.799321 
L 152.100458 266.969092 
L 152.413529 270.103268 
L 152.726599 269.622748 
L 153.03967 269.806005 
L 153.352741 271.399022 
L 153.665812 271.221944 
L 153.978883 267.367511 
L 154.291954 267.799313 
L 154.605025 266.507587 
L 154.918096 266.838431 
L 155.231167 270.615483 
L 155.544238 267.354937 
L 155.857309 267.215849 
L 156.483451 254.376585 
L 156.796521 254.900027 
L 157.109592 254.710856 
L 157.422663 259.30829 
L 157.735734 259.933693 
L 158.048805 259.608762 
L 158.361876 256.051292 
L 158.674947 257.266679 
L 158.988018 255.714539 
L 159.301089 255.418239 
L 159.61416 255.705201 
L 159.927231 258.185959 
L 160.240302 258.52041 
L 160.866443 257.604731 
L 161.179514 259.005717 
L 161.492585 259.032638 
L 161.805656 258.015245 
L 162.118727 258.655514 
L 162.431798 259.57678 
L 162.744869 267.122523 
L 163.05794 265.261962 
L 163.371011 264.682847 
L 163.684082 265.665965 
L 163.997153 261.396292 
L 164.310224 260.869801 
L 164.623294 261.039104 
L 164.936365 262.657379 
L 165.249436 262.89019 
L 165.562507 262.177243 
L 165.875578 262.294362 
L 166.188649 262.608232 
L 166.50172 262.693907 
L 167.127862 263.042401 
L 167.440933 262.897845 
L 167.754004 263.127518 
L 168.067075 262.695896 
L 168.380146 265.188982 
L 169.006287 264.124438 
L 169.319358 263.913342 
L 169.632429 262.792472 
L 169.9455 263.079334 
L 170.571642 259.990255 
L 170.884713 256.265132 
L 171.197784 256.455252 
L 171.510855 259.102777 
L 171.823926 259.890593 
L 172.136997 259.360411 
L 172.450068 259.591953 
L 172.763138 259.601591 
L 173.076209 260.300447 
L 173.38928 266.615744 
L 173.702351 267.133861 
L 174.015422 268.68342 
L 174.328493 268.090712 
L 174.641564 268.28743 
L 175.267706 279.835857 
L 175.580777 278.270299 
L 175.893848 281.401664 
L 176.206919 281.68927 
L 176.519989 285.705667 
L 176.83306 284.811418 
L 177.146131 286.923275 
L 177.459202 286.887352 
L 177.772273 283.326227 
L 178.085344 284.321956 
L 178.398415 286.255097 
L 178.711486 284.939461 
L 179.024557 285.64771 
L 179.337628 287.840718 
L 179.650699 287.66341 
L 179.96377 289.651848 
L 180.276841 293.056614 
L 180.589911 293.380605 
L 180.902982 293.414874 
L 181.216053 292.404256 
L 181.529124 293.534386 
L 181.842195 294.018876 
L 182.155266 293.438683 
L 182.781408 295.404021 
L 183.094479 295.488 
L 183.40755 295.346174 
L 183.720621 292.001048 
L 184.033692 290.006733 
L 184.346763 289.736944 
L 184.659833 285.597208 
L 184.972904 287.42921 
L 185.285975 286.371353 
L 185.912117 282.912658 
L 186.225188 285.933206 
L 186.538259 285.611306 
L 186.85133 289.173779 
L 187.164401 285.162136 
L 187.790543 285.270668 
L 188.103614 286.825149 
L 188.416684 285.408651 
L 188.729755 283.466593 
L 189.042826 285.015731 
L 189.355897 284.30633 
L 189.668968 284.546689 
L 189.982039 283.142329 
L 190.29511 283.740578 
L 190.608181 283.888982 
L 190.921252 283.60462 
L 191.234323 288.306971 
L 191.860465 288.680466 
L 192.173536 290.329757 
L 192.486606 288.080292 
L 192.799677 289.298407 
L 193.112748 288.840835 
L 193.425819 288.745674 
L 193.73889 289.261666 
L 194.051961 288.47308 
L 194.365032 289.821029 
L 194.678103 289.963101 
L 194.991174 289.538563 
L 195.304245 289.737749 
L 195.617316 289.722068 
L 196.243458 289.928199 
L 196.556528 290.417986 
L 196.869599 292.034307 
L 197.18267 292.327454 
L 197.495741 290.792574 
L 197.808812 291.423782 
L 198.121883 291.277674 
L 198.434954 290.938438 
L 198.748025 291.380447 
L 199.374167 291.393018 
L 199.687238 292.188672 
L 200.000309 292.219058 
L 200.31338 289.070486 
L 200.62645 289.028028 
L 200.939521 288.668229 
L 201.252592 289.402137 
L 201.565663 289.054045 
L 201.878734 289.262172 
L 202.191805 289.64319 
L 202.817947 289.280864 
L 203.131018 288.125485 
L 203.444089 285.325376 
L 203.75716 285.264521 
L 204.070231 284.024537 
L 204.383301 284.92012 
L 204.696372 284.450184 
L 205.009443 282.583072 
L 205.322514 287.463615 
L 205.635585 285.997761 
L 205.948656 286.568746 
L 206.261727 286.775881 
L 206.574798 286.633548 
L 206.887869 286.623916 
L 207.514011 287.111928 
L 207.827082 288.350452 
L 208.140153 286.205921 
L 208.453223 286.126746 
L 208.766294 286.186468 
L 209.079365 286.773893 
L 209.392436 285.853368 
L 209.705507 286.103624 
L 210.018578 286.843966 
L 210.331649 286.622912 
L 210.64472 286.741932 
L 210.957791 286.696504 
L 211.583933 284.867771 
L 211.897004 285.320573 
L 212.210075 285.309201 
L 212.836216 284.95898 
L 213.149287 285.812908 
L 213.462358 285.660699 
L 213.775429 285.341365 
L 214.0885 285.62317 
L 214.401571 286.216385 
L 214.714642 286.211633 
L 215.027713 284.557934 
L 215.340784 284.894794 
L 215.653855 284.138581 
L 216.279996 284.31321 
L 216.593067 284.076835 
L 216.906138 277.230925 
L 217.219209 276.643083 
L 217.53228 277.642528 
L 217.845351 275.46914 
L 218.158422 275.446394 
L 218.471493 273.892383 
L 218.784564 273.243127 
L 219.097635 274.374752 
L 219.410706 273.226979 
L 219.723777 276.572899 
L 220.036848 276.431488 
L 220.349918 276.63266 
L 220.662989 275.73011 
L 220.97606 276.711069 
L 221.289131 275.299693 
L 221.602202 275.2145 
L 221.915273 274.447706 
L 222.541415 274.729345 
L 222.854486 275.38955 
L 223.480628 274.584199 
L 224.10677 278.73764 
L 224.41984 277.753421 
L 225.045982 278.227469 
L 225.359053 279.196551 
L 225.672124 277.286085 
L 225.985195 277.339686 
L 226.298266 276.966867 
L 226.611337 274.944393 
L 227.237479 275.531309 
L 227.55055 274.844623 
L 227.863621 274.830798 
L 228.489762 273.866234 
L 228.802833 272.963702 
L 229.115904 265.838125 
L 229.428975 268.388694 
L 230.055117 258.56494 
L 230.368188 253.288771 
L 230.681259 254.343415 
L 230.99433 259.450297 
L 231.307401 260.881788 
L 231.620472 253.623769 
L 231.933543 255.75656 
L 232.246613 255.392351 
L 232.559684 258.545969 
L 233.185826 256.465018 
L 233.498897 256.035947 
L 234.125039 248.366649 
L 234.751181 248.967455 
L 235.064252 252.634859 
L 235.377323 249.023258 
L 235.690394 250.50844 
L 236.003465 248.834691 
L 236.629606 257.901854 
L 236.942677 256.529774 
L 237.568819 254.690204 
L 237.88189 256.14474 
L 238.194961 259.139454 
L 238.508032 256.060782 
L 238.821103 256.977245 
L 239.134174 254.578656 
L 239.447245 254.477773 
L 239.760316 252.135611 
L 240.386457 249.621672 
L 240.699528 247.532224 
L 241.012599 249.911593 
L 241.638741 247.78474 
L 242.264883 238.373929 
L 242.577954 238.654286 
L 242.891025 237.626181 
L 243.204096 234.821686 
L 243.517167 230.134671 
L 243.830238 242.414708 
L 244.143308 236.731483 
L 244.456379 236.561216 
L 244.76945 244.246714 
L 245.082521 243.761417 
L 245.395592 244.293371 
L 245.708663 239.450332 
L 246.021734 244.303975 
L 246.334805 245.069395 
L 246.647876 243.577634 
L 246.960947 241.423412 
L 247.274018 238.360898 
L 247.587089 238.415953 
L 247.90016 242.95182 
L 248.21323 249.210366 
L 248.526301 246.814975 
L 248.839372 248.86727 
L 249.152443 258.122611 
L 249.465514 255.434635 
L 249.778585 263.109887 
L 250.091656 261.122665 
L 250.404727 256.221705 
L 250.717798 257.204411 
L 251.030869 254.873586 
L 251.34394 255.701464 
L 251.970082 259.741923 
L 252.909294 258.325667 
L 253.222365 261.52954 
L 253.535436 260.725951 
L 253.848507 260.983421 
L 254.161578 260.522794 
L 254.474649 257.972597 
L 255.100791 257.514154 
L 255.413862 256.261126 
L 255.726933 255.766504 
L 256.040004 252.248446 
L 256.353074 254.211552 
L 256.666145 253.224734 
L 256.979216 253.733584 
L 257.292287 256.33474 
L 257.605358 257.618801 
L 257.918429 255.497793 
L 258.544571 257.831956 
L 258.857642 264.487532 
L 259.170713 263.460769 
L 259.483784 263.945275 
L 259.796855 263.988698 
L 260.422996 259.711331 
L 260.736067 261.241399 
L 261.049138 264.171124 
L 261.67528 262.164814 
L 261.988351 263.530023 
L 262.301422 264.115695 
L 262.614493 263.257015 
L 262.927564 263.854512 
L 263.240635 267.123415 
L 263.553706 268.44596 
L 263.866777 268.201684 
L 264.179847 267.664534 
L 264.492918 267.625111 
L 264.805989 265.293016 
L 265.11906 264.322325 
L 265.432131 265.151845 
L 265.745202 265.384691 
L 266.058273 266.629754 
L 266.371344 264.674142 
L 266.684415 263.994068 
L 266.997486 264.259978 
L 267.623628 265.292349 
L 267.936699 264.519304 
L 268.249769 264.59087 
L 268.56284 263.242894 
L 268.875911 263.230939 
L 269.188982 262.353679 
L 269.502053 260.11269 
L 270.128195 258.044895 
L 271.067408 260.898938 
L 271.380479 263.513382 
L 271.69355 272.187126 
L 272.00662 272.05549 
L 272.319691 273.599449 
L 272.632762 272.514549 
L 272.945833 272.284873 
L 273.258904 273.375882 
L 273.571975 270.962722 
L 273.885046 270.727061 
L 274.198117 270.774515 
L 274.511188 271.552997 
L 274.824259 271.766878 
L 275.13733 271.71641 
L 275.450401 272.900012 
L 275.763472 270.075902 
L 276.076542 269.964914 
L 276.389613 267.502544 
L 276.702684 268.378138 
L 277.015755 270.386393 
L 277.641897 269.851594 
L 277.954968 268.323653 
L 278.58111 271.090416 
L 278.894181 269.936153 
L 279.207252 271.108083 
L 279.520323 271.347813 
L 279.833394 270.113452 
L 280.146464 270.090515 
L 280.459535 270.944651 
L 280.772606 274.313712 
L 281.085677 274.33433 
L 281.398748 267.581216 
L 281.711819 266.786384 
L 282.02489 265.344443 
L 282.337961 266.143461 
L 282.651032 264.172459 
L 282.964103 265.761929 
L 283.277174 265.972616 
L 283.590245 265.875274 
L 283.903316 265.397227 
L 284.216386 265.953133 
L 284.529457 264.722907 
L 284.842528 264.334001 
L 285.155599 263.451439 
L 285.781741 267.337181 
L 286.094812 266.872975 
L 286.407883 265.700984 
L 286.720954 267.257997 
L 287.034025 266.910505 
L 287.347096 266.973988 
L 287.660167 267.857705 
L 287.973237 269.248938 
L 288.599379 268.643818 
L 288.91245 270.789431 
L 289.538592 271.654754 
L 290.164734 277.59576 
L 290.477805 277.123096 
L 290.790876 280.072595 
L 291.103947 278.933662 
L 291.417018 278.544625 
L 291.730089 276.990301 
L 292.043159 277.321794 
L 292.35623 275.925434 
L 292.669301 276.802549 
L 292.982372 277.273631 
L 293.295443 278.007203 
L 293.608514 278.266888 
L 293.921585 278.90317 
L 294.547727 277.318865 
L 294.860798 277.508435 
L 295.173869 277.027704 
L 295.48694 277.988865 
L 296.113081 278.976057 
L 296.426152 278.864654 
L 296.739223 278.626621 
L 297.052294 279.561779 
L 297.365365 279.398982 
L 297.678436 281.581229 
L 297.991507 284.601109 
L 298.304578 281.265681 
L 298.617649 282.273526 
L 298.93072 281.969301 
L 299.243791 282.295927 
L 299.556862 280.637751 
L 299.869932 281.728276 
L 300.183003 281.946827 
L 300.496074 282.50949 
L 300.809145 282.330744 
L 301.435287 281.308313 
L 301.748358 280.223792 
L 302.061429 281.096875 
L 302.3745 281.522889 
L 302.687571 281.399062 
L 303.000642 282.716086 
L 303.313713 280.53164 
L 303.939854 280.170156 
L 304.252925 276.920834 
L 304.565996 276.377235 
L 305.192138 278.158891 
L 305.505209 275.577601 
L 305.81828 276.448071 
L 306.131351 275.309033 
L 306.444422 275.859794 
L 306.757493 269.115003 
L 307.070564 269.305766 
L 307.383635 270.118774 
L 307.696706 267.784323 
L 308.009776 267.885144 
L 308.322847 269.606001 
L 308.635918 269.708827 
L 308.948989 269.06476 
L 309.26206 269.362576 
L 309.575131 271.223525 
L 309.888202 271.406813 
L 310.201273 272.028257 
L 310.514344 269.76989 
L 310.827415 268.377475 
L 311.140486 266.261618 
L 311.453557 266.607203 
L 311.766628 264.133631 
L 312.079698 265.843379 
L 312.70584 264.222724 
L 313.018911 263.882293 
L 313.331982 263.835192 
L 313.645053 259.725556 
L 314.271195 257.137488 
L 314.584266 256.807508 
L 314.897337 255.267845 
L 315.210408 256.558437 
L 315.523479 253.854605 
L 315.836549 249.824297 
L 316.14962 248.786653 
L 316.462691 246.181442 
L 316.775762 251.738095 
L 317.088833 252.77315 
L 317.401904 253.084323 
L 317.714975 250.170696 
L 318.028046 255.45145 
L 318.341117 255.996976 
L 318.654188 254.90298 
L 318.967259 255.377921 
L 319.28033 252.320775 
L 319.593401 254.917821 
L 319.906471 258.448984 
L 320.219542 263.970218 
L 320.532613 263.692422 
L 320.845684 263.743667 
L 321.158755 265.466939 
L 321.471826 265.292821 
L 321.784897 262.359461 
L 322.097968 263.812539 
L 322.411039 263.992407 
L 322.72411 262.469938 
L 323.037181 260.140052 
L 323.350252 262.08604 
L 323.663323 270.538065 
L 324.289464 270.368116 
L 324.602535 271.033124 
L 324.915606 291.311829 
L 325.228677 286.876917 
L 325.541748 289.253355 
L 325.854819 288.131698 
L 326.16789 290.991818 
L 326.480961 288.996111 
L 326.794032 289.079388 
L 327.107103 283.877458 
L 327.420174 284.6899 
L 327.733244 284.668919 
L 328.046315 286.870994 
L 328.359386 283.516936 
L 328.672457 282.243876 
L 328.985528 282.737793 
L 329.298599 281.683778 
L 329.61167 283.679665 
L 329.924741 283.809222 
L 330.237812 285.884361 
L 330.550883 283.488151 
L 330.863954 283.276165 
L 331.490096 281.129002 
L 331.803166 281.198469 
L 332.116237 280.516051 
L 332.429308 281.009703 
L 332.742379 275.718834 
L 333.05545 276.736491 
L 333.368521 274.931551 
L 333.681592 275.570438 
L 333.994663 278.763514 
L 334.620805 278.544879 
L 334.933876 279.081581 
L 335.246947 279.009449 
L 335.560018 280.381494 
L 335.873088 276.748052 
L 336.186159 276.992259 
L 336.49923 274.338588 
L 336.812301 275.784088 
L 337.125372 277.872473 
L 337.438443 277.931229 
L 337.751514 275.653553 
L 338.377656 273.945377 
L 339.003798 272.181467 
L 339.316869 272.066959 
L 339.62994 271.400307 
L 339.94301 266.404805 
L 340.256081 268.526614 
L 340.882223 266.198375 
L 341.195294 267.150608 
L 341.508365 267.665504 
L 341.821436 267.620352 
L 342.134507 268.072252 
L 342.447578 264.602499 
L 342.760649 264.874776 
L 343.07372 265.568917 
L 343.386791 271.007982 
L 343.699861 271.900795 
L 344.012932 271.006133 
L 344.639074 266.828939 
L 344.952145 269.139652 
L 345.265216 268.228616 
L 345.891358 265.798972 
L 346.204429 265.772985 
L 346.5175 266.955767 
L 346.830571 269.660935 
L 347.143642 268.424595 
L 347.456713 268.395085 
L 347.769783 270.316661 
L 348.082854 269.409194 
L 348.395925 269.956659 
L 349.022067 266.035907 
L 349.335138 266.37174 
L 349.648209 263.0323 
L 349.96128 264.853399 
L 350.274351 261.142407 
L 350.587422 264.088502 
L 350.900493 263.122829 
L 351.213564 262.637471 
L 351.526635 263.305434 
L 351.839705 263.183223 
L 352.465847 262.49726 
L 352.778918 262.898549 
L 353.091989 262.206143 
L 353.40506 266.070547 
L 353.718131 264.921259 
L 354.031202 264.878747 
L 354.344273 265.913739 
L 354.657344 265.812088 
L 354.970415 265.233694 
L 355.283486 265.313531 
L 355.909627 266.554748 
L 356.222698 266.387908 
L 356.535769 266.855773 
L 356.84884 264.119759 
L 357.161911 264.387777 
L 357.474982 266.30746 
L 357.788053 266.583334 
L 358.101124 267.123006 
L 358.414195 268.991125 
L 358.727266 268.139641 
L 359.040337 267.676331 
L 359.353408 268.148498 
L 359.666478 267.44803 
L 359.979549 268.274776 
L 360.29262 268.315293 
L 360.605691 267.615643 
L 360.918762 267.957885 
L 361.231833 265.010096 
L 361.544904 265.768565 
L 361.857975 263.442502 
L 362.171046 264.520644 
L 362.797188 264.884388 
L 363.110259 264.540126 
L 363.42333 265.143928 
L 363.7364 265.096829 
L 364.049471 265.497741 
L 364.362542 266.321778 
L 364.675613 266.398793 
L 365.301755 265.294488 
L 365.614826 266.007879 
L 365.927897 264.307552 
L 366.240968 261.9784 
L 366.554039 260.660782 
L 366.86711 260.696342 
L 367.180181 257.188324 
L 367.493252 256.240511 
L 367.806322 252.139027 
L 368.119393 251.682773 
L 368.432464 250.522044 
L 368.745535 248.774694 
L 369.058606 246.3632 
L 369.371677 239.82562 
L 369.684748 244.259904 
L 369.997819 241.147704 
L 370.31089 241.453493 
L 370.623961 239.149974 
L 370.937032 239.081939 
L 371.250103 241.525615 
L 371.563173 239.882012 
L 371.876244 240.574507 
L 372.189315 239.395616 
L 372.502386 242.842333 
L 372.815457 241.798749 
L 373.128528 237.245617 
L 373.441599 236.296463 
L 373.75467 236.386554 
L 374.067741 235.919968 
L 374.380812 234.496228 
L 375.006954 239.674132 
L 375.320025 238.293659 
L 375.633095 242.678064 
L 375.946166 241.104897 
L 376.259237 241.764262 
L 376.572308 239.74903 
L 376.885379 243.849069 
L 377.19845 243.442298 
L 377.511521 245.195753 
L 377.824592 243.132183 
L 378.137663 242.505807 
L 378.450734 239.116903 
L 378.763805 238.515516 
L 379.076876 234.114523 
L 379.389947 239.8184 
L 379.703017 250.394462 
L 380.016088 248.266555 
L 380.329159 254.471432 
L 380.64223 251.912852 
L 380.955301 251.787645 
L 381.268372 253.96897 
L 381.894514 250.654661 
L 382.207585 250.226494 
L 382.520656 248.764379 
L 382.833727 251.182986 
L 383.146798 249.302408 
L 383.459869 250.220094 
L 383.772939 249.72548 
L 384.08601 247.787268 
L 384.399081 248.665683 
L 384.712152 247.993247 
L 385.025223 249.95905 
L 385.338294 254.615542 
L 385.651365 253.984215 
L 385.964436 257.622349 
L 386.277507 252.789662 
L 386.590578 251.967316 
L 386.903649 251.651734 
L 387.21672 251.043151 
L 387.52979 251.761945 
L 387.842861 250.939416 
L 388.155932 251.298884 
L 388.782074 253.542057 
L 389.095145 253.667857 
L 389.408216 252.023677 
L 389.721287 251.455688 
L 390.034358 253.451779 
L 390.347429 252.963843 
L 391.286642 248.16578 
L 391.599712 247.422541 
L 391.912783 245.805176 
L 392.225854 246.432182 
L 392.851996 247.035073 
L 393.165067 248.822453 
L 393.478138 248.563761 
L 394.10428 246.402769 
L 394.417351 247.62813 
L 394.730422 242.738658 
L 395.043493 239.866585 
L 395.356564 240.175624 
L 395.669634 239.100872 
L 396.295776 241.672227 
L 396.608847 239.137904 
L 396.921918 241.521178 
L 397.234989 241.634442 
L 397.54806 242.048093 
L 398.174202 240.321525 
L 398.487273 242.302181 
L 398.487273 242.302181 
" style="fill:none;stroke:#ff7f0e;stroke-linecap:square;stroke-width:0.7;"/>
   </g>
   <g id="patch_3">
    <path d="M 57.6 307.584 
L 57.6 41.472 
" style="fill:none;stroke:#000000;stroke-linecap:square;stroke-linejoin:miter;stroke-width:0.8;"/>
   </g>
   <g id="patch_4">
    <path d="M 414.72 307.584 
L 414.72 41.472 
" style="fill:none;stroke:#000000;stroke-linecap:square;stroke-linejoin:miter;stroke-width:0.8;"/>
   </g>
   <g id="patch_5">
    <path d="M 57.6 307.584 
L 414.72 307.584 
" style="fill:none;stroke:#000000;stroke-linecap:square;stroke-linejoin:miter;stroke-width:0.8;"/>
   </g>
   <g id="patch_6">
    <path d="M 57.6 41.472 
L 414.72 41.472 
" style="fill:none;stroke:#000000;stroke-linecap:square;stroke-linejoin:miter;stroke-width:0.8;"/>
   </g>
   <g id="text_20">
    <!-- BCI5 2018-01-01 - 2020-11-03 -->
    <g transform="translate(144.747187 35.472)scale(0.12 -0.12)">
     <defs>
      <path d="M 19.671875 34.8125 
L 19.671875 8.109375 
L 35.5 8.109375 
Q 43.453125 8.109375 47.28125 11.40625 
Q 51.125 14.703125 51.125 21.484375 
Q 51.125 28.328125 47.28125 31.5625 
Q 43.453125 34.8125 35.5 34.8125 
z
M 19.671875 64.796875 
L 19.671875 42.828125 
L 34.28125 42.828125 
Q 41.5 42.828125 45.03125 45.53125 
Q 48.578125 48.25 48.578125 53.8125 
Q 48.578125 59.328125 45.03125 62.0625 
Q 41.5 64.796875 34.28125 64.796875 
z
M 9.8125 72.90625 
L 35.015625 72.90625 
Q 46.296875 72.90625 52.390625 68.21875 
Q 58.5 63.53125 58.5 54.890625 
Q 58.5 48.1875 55.375 44.234375 
Q 52.25 40.28125 46.1875 39.3125 
Q 53.46875 37.75 57.5 32.78125 
Q 61.53125 27.828125 61.53125 20.40625 
Q 61.53125 10.640625 54.890625 5.3125 
Q 48.25 0 35.984375 0 
L 9.8125 0 
z
" id="DejaVuSans-66"/>
      <path d="M 64.40625 67.28125 
L 64.40625 56.890625 
Q 59.421875 61.53125 53.78125 63.8125 
Q 48.140625 66.109375 41.796875 66.109375 
Q 29.296875 66.109375 22.65625 58.46875 
Q 16.015625 50.828125 16.015625 36.375 
Q 16.015625 21.96875 22.65625 14.328125 
Q 29.296875 6.6875 41.796875 6.6875 
Q 48.140625 6.6875 53.78125 8.984375 
Q 59.421875 11.28125 64.40625 15.921875 
L 64.40625 5.609375 
Q 59.234375 2.09375 53.4375 0.328125 
Q 47.65625 -1.421875 41.21875 -1.421875 
Q 24.65625 -1.421875 15.125 8.703125 
Q 5.609375 18.84375 5.609375 36.375 
Q 5.609375 53.953125 15.125 64.078125 
Q 24.65625 74.21875 41.21875 74.21875 
Q 47.75 74.21875 53.53125 72.484375 
Q 59.328125 70.75 64.40625 67.28125 
z
" id="DejaVuSans-67"/>
      <path d="M 9.8125 72.90625 
L 19.671875 72.90625 
L 19.671875 0 
L 9.8125 0 
z
" id="DejaVuSans-73"/>
      <path d="M 10.796875 72.90625 
L 49.515625 72.90625 
L 49.515625 64.59375 
L 19.828125 64.59375 
L 19.828125 46.734375 
Q 21.96875 47.46875 24.109375 47.828125 
Q 26.265625 48.1875 28.421875 48.1875 
Q 40.625 48.1875 47.75 41.5 
Q 54.890625 34.8125 54.890625 23.390625 
Q 54.890625 11.625 47.5625 5.09375 
Q 40.234375 -1.421875 26.90625 -1.421875 
Q 22.3125 -1.421875 17.546875 -0.640625 
Q 12.796875 0.140625 7.71875 1.703125 
L 7.71875 11.625 
Q 12.109375 9.234375 16.796875 8.0625 
Q 21.484375 6.890625 26.703125 6.890625 
Q 35.15625 6.890625 40.078125 11.328125 
Q 45.015625 15.765625 45.015625 23.390625 
Q 45.015625 31 40.078125 35.4375 
Q 35.15625 39.890625 26.703125 39.890625 
Q 22.75 39.890625 18.8125 39.015625 
Q 14.890625 38.140625 10.796875 36.28125 
z
" id="DejaVuSans-53"/>
     </defs>
     <use xlink:href="#DejaVuSans-66"/>
     <use x="66.853516" xlink:href="#DejaVuSans-67"/>
     <use x="136.677734" xlink:href="#DejaVuSans-73"/>
     <use x="166.169922" xlink:href="#DejaVuSans-53"/>
     <use x="229.792969" xlink:href="#DejaVuSans-32"/>
     <use x="261.580078" xlink:href="#DejaVuSans-50"/>
     <use x="325.203125" xlink:href="#DejaVuSans-48"/>
     <use x="388.826172" xlink:href="#DejaVuSans-49"/>
     <use x="452.449219" xlink:href="#DejaVuSans-56"/>
     <use x="516.072266" xlink:href="#DejaVuSans-45"/>
     <use x="552.15625" xlink:href="#DejaVuSans-48"/>
     <use x="615.779297" xlink:href="#DejaVuSans-49"/>
     <use x="679.402344" xlink:href="#DejaVuSans-45"/>
     <use x="715.486328" xlink:href="#DejaVuSans-48"/>
     <use x="779.109375" xlink:href="#DejaVuSans-49"/>
     <use x="842.732422" xlink:href="#DejaVuSans-32"/>
     <use x="874.519531" xlink:href="#DejaVuSans-45"/>
     <use x="910.603516" xlink:href="#DejaVuSans-32"/>
     <use x="942.390625" xlink:href="#DejaVuSans-50"/>
     <use x="1006.013672" xlink:href="#DejaVuSans-48"/>
     <use x="1069.636719" xlink:href="#DejaVuSans-50"/>
     <use x="1133.259766" xlink:href="#DejaVuSans-48"/>
     <use x="1196.882812" xlink:href="#DejaVuSans-45"/>
     <use x="1232.966797" xlink:href="#DejaVuSans-49"/>
     <use x="1296.589844" xlink:href="#DejaVuSans-49"/>
     <use x="1360.212891" xlink:href="#DejaVuSans-45"/>
     <use x="1396.296875" xlink:href="#DejaVuSans-48"/>
     <use x="1459.919922" xlink:href="#DejaVuSans-51"/>
    </g>
   </g>
   <g id="legend_1">
    <g id="patch_7">
     <path d="M 333.834063 78.82825 
L 407.72 78.82825 
Q 409.72 78.82825 409.72 76.82825 
L 409.72 48.472 
Q 409.72 46.472 407.72 46.472 
L 333.834063 46.472 
Q 331.834063 46.472 331.834063 48.472 
L 331.834063 76.82825 
Q 331.834063 78.82825 333.834063 78.82825 
z
" style="fill:#ffffff;opacity:0.8;stroke:#cccccc;stroke-linejoin:miter;"/>
    </g>
    <g id="line2d_37">
     <path d="M 335.834063 54.570437 
L 355.834063 54.570437 
" style="fill:none;stroke:#1f77b4;stroke-linecap:square;stroke-width:0.7;"/>
    </g>
    <g id="line2d_38"/>
    <g id="text_21">
     <!-- baseline -->
     <g transform="translate(363.834063 58.070437)scale(0.1 -0.1)">
      <defs>
       <path d="M 48.6875 27.296875 
Q 48.6875 37.203125 44.609375 42.84375 
Q 40.53125 48.484375 33.40625 48.484375 
Q 26.265625 48.484375 22.1875 42.84375 
Q 18.109375 37.203125 18.109375 27.296875 
Q 18.109375 17.390625 22.1875 11.75 
Q 26.265625 6.109375 33.40625 6.109375 
Q 40.53125 6.109375 44.609375 11.75 
Q 48.6875 17.390625 48.6875 27.296875 
z
M 18.109375 46.390625 
Q 20.953125 51.265625 25.265625 53.625 
Q 29.59375 56 35.59375 56 
Q 45.5625 56 51.78125 48.09375 
Q 58.015625 40.1875 58.015625 27.296875 
Q 58.015625 14.40625 51.78125 6.484375 
Q 45.5625 -1.421875 35.59375 -1.421875 
Q 29.59375 -1.421875 25.265625 0.953125 
Q 20.953125 3.328125 18.109375 8.203125 
L 18.109375 0 
L 9.078125 0 
L 9.078125 75.984375 
L 18.109375 75.984375 
z
" id="DejaVuSans-98"/>
       <path d="M 44.28125 53.078125 
L 44.28125 44.578125 
Q 40.484375 46.53125 36.375 47.5 
Q 32.28125 48.484375 27.875 48.484375 
Q 21.1875 48.484375 17.84375 46.4375 
Q 14.5 44.390625 14.5 40.28125 
Q 14.5 37.15625 16.890625 35.375 
Q 19.28125 33.59375 26.515625 31.984375 
L 29.59375 31.296875 
Q 39.15625 29.25 43.1875 25.515625 
Q 47.21875 21.78125 47.21875 15.09375 
Q 47.21875 7.46875 41.1875 3.015625 
Q 35.15625 -1.421875 24.609375 -1.421875 
Q 20.21875 -1.421875 15.453125 -0.5625 
Q 10.6875 0.296875 5.421875 2 
L 5.421875 11.28125 
Q 10.40625 8.6875 15.234375 7.390625 
Q 20.0625 6.109375 24.8125 6.109375 
Q 31.15625 6.109375 34.5625 8.28125 
Q 37.984375 10.453125 37.984375 14.40625 
Q 37.984375 18.0625 35.515625 20.015625 
Q 33.0625 21.96875 24.703125 23.78125 
L 21.578125 24.515625 
Q 13.234375 26.265625 9.515625 29.90625 
Q 5.8125 33.546875 5.8125 39.890625 
Q 5.8125 47.609375 11.28125 51.796875 
Q 16.75 56 26.8125 56 
Q 31.78125 56 36.171875 55.265625 
Q 40.578125 54.546875 44.28125 53.078125 
z
" id="DejaVuSans-115"/>
       <path d="M 9.421875 54.6875 
L 18.40625 54.6875 
L 18.40625 0 
L 9.421875 0 
z
M 9.421875 75.984375 
L 18.40625 75.984375 
L 18.40625 64.59375 
L 9.421875 64.59375 
z
" id="DejaVuSans-105"/>
       <path d="M 54.890625 33.015625 
L 54.890625 0 
L 45.90625 0 
L 45.90625 32.71875 
Q 45.90625 40.484375 42.875 44.328125 
Q 39.84375 48.1875 33.796875 48.1875 
Q 26.515625 48.1875 22.3125 43.546875 
Q 18.109375 38.921875 18.109375 30.90625 
L 18.109375 0 
L 9.078125 0 
L 9.078125 54.6875 
L 18.109375 54.6875 
L 18.109375 46.1875 
Q 21.34375 51.125 25.703125 53.5625 
Q 30.078125 56 35.796875 56 
Q 45.21875 56 50.046875 50.171875 
Q 54.890625 44.34375 54.890625 33.015625 
z
" id="DejaVuSans-110"/>
      </defs>
      <use xlink:href="#DejaVuSans-98"/>
      <use x="63.476562" xlink:href="#DejaVuSans-97"/>
      <use x="124.755859" xlink:href="#DejaVuSans-115"/>
      <use x="176.855469" xlink:href="#DejaVuSans-101"/>
      <use x="238.378906" xlink:href="#DejaVuSans-108"/>
      <use x="266.162109" xlink:href="#DejaVuSans-105"/>
      <use x="293.945312" xlink:href="#DejaVuSans-110"/>
      <use x="357.324219" xlink:href="#DejaVuSans-101"/>
     </g>
    </g>
    <g id="line2d_39">
     <path d="M 335.834063 69.248562 
L 355.834063 69.248562 
" style="fill:none;stroke:#ff7f0e;stroke-linecap:square;stroke-width:0.7;"/>
    </g>
    <g id="line2d_40"/>
    <g id="text_22">
     <!-- BCI5 -->
     <g transform="translate(363.834063 72.748562)scale(0.1 -0.1)">
      <use xlink:href="#DejaVuSans-66"/>
      <use x="66.853516" xlink:href="#DejaVuSans-67"/>
      <use x="136.677734" xlink:href="#DejaVuSans-73"/>
      <use x="166.169922" xlink:href="#DejaVuSans-53"/>
     </g>
    </g>
   </g>
  </g>
 </g>
 <defs>
  <clipPath id="pd82b68ff6b">
   <rect height="266.112" width="357.12" x="57.6" y="41.472"/>
  </clipPath>
 </defs>
</svg>
