<?xml version="1.0" encoding="utf-8" standalone="no"?>
<!DOCTYPE svg PUBLIC "-//W3C//DTD SVG 1.1//EN"
  "http://www.w3.org/Graphics/SVG/1.1/DTD/svg11.dtd">
<!-- Created with matplotlib (https://matplotlib.org/) -->
<svg height="345.6pt" version="1.1" viewBox="0 0 460.8 345.6" width="460.8pt" xmlns="http://www.w3.org/2000/svg" xmlns:xlink="http://www.w3.org/1999/xlink">
 <metadata>
  <rdf:RDF xmlns:cc="http://creativecommons.org/ns#" xmlns:dc="http://purl.org/dc/elements/1.1/" xmlns:rdf="http://www.w3.org/1999/02/22-rdf-syntax-ns#">
   <cc:Work>
    <dc:type rdf:resource="http://purl.org/dc/dcmitype/StillImage"/>
    <dc:date>2020-11-12T22:34:31.127822</dc:date>
    <dc:format>image/svg+xml</dc:format>
    <dc:creator>
     <cc:Agent>
      <dc:title>Matplotlib v3.3.3, https://matplotlib.org/</dc:title>
     </cc:Agent>
    </dc:creator>
   </cc:Work>
  </rdf:RDF>
 </metadata>
 <defs>
  <style type="text/css">*{stroke-linecap:butt;stroke-linejoin:round;}</style>
 </defs>
 <g id="figure_1">
  <g id="patch_1">
   <path d="M 0 345.6 
L 460.8 345.6 
L 460.8 0 
L 0 0 
z
" style="fill:#ffffff;"/>
  </g>
  <g id="axes_1">
   <g id="patch_2">
    <path d="M 57.6 307.584 
L 414.72 307.584 
L 414.72 41.472 
L 57.6 41.472 
z
" style="fill:#ffffff;"/>
   </g>
   <g id="matplotlib.axis_1">
    <g id="xtick_1">
     <g id="line2d_1">
      <path clip-path="url(#p003001339f)" d="M 102.336623 307.584 
L 102.336623 41.472 
" style="fill:none;stroke:#b0b0b0;stroke-dasharray:1.85,0.8;stroke-dashoffset:0;stroke-width:0.5;"/>
     </g>
     <g id="line2d_2">
      <defs>
       <path d="M 0 0 
L 0 3.5 
" id="m50fc29dbab" style="stroke:#000000;stroke-width:0.8;"/>
      </defs>
      <g>
       <use style="stroke:#000000;stroke-width:0.8;" x="102.336623" xlink:href="#m50fc29dbab" y="307.584"/>
      </g>
     </g>
     <g id="text_1">
      <!-- 2019-03-01 -->
      <g transform="translate(91.179141 342.464116)rotate(-45)scale(0.06 -0.06)">
       <defs>
        <path d="M 19.1875 8.296875 
L 53.609375 8.296875 
L 53.609375 0 
L 7.328125 0 
L 7.328125 8.296875 
Q 12.9375 14.109375 22.625 23.890625 
Q 32.328125 33.6875 34.8125 36.53125 
Q 39.546875 41.84375 41.421875 45.53125 
Q 43.3125 49.21875 43.3125 52.78125 
Q 43.3125 58.59375 39.234375 62.25 
Q 35.15625 65.921875 28.609375 65.921875 
Q 23.96875 65.921875 18.8125 64.3125 
Q 13.671875 62.703125 7.8125 59.421875 
L 7.8125 69.390625 
Q 13.765625 71.78125 18.9375 73 
Q 24.125 74.21875 28.421875 74.21875 
Q 39.75 74.21875 46.484375 68.546875 
Q 53.21875 62.890625 53.21875 53.421875 
Q 53.21875 48.921875 51.53125 44.890625 
Q 49.859375 40.875 45.40625 35.40625 
Q 44.1875 33.984375 37.640625 27.21875 
Q 31.109375 20.453125 19.1875 8.296875 
z
" id="DejaVuSans-50"/>
        <path d="M 31.78125 66.40625 
Q 24.171875 66.40625 20.328125 58.90625 
Q 16.5 51.421875 16.5 36.375 
Q 16.5 21.390625 20.328125 13.890625 
Q 24.171875 6.390625 31.78125 6.390625 
Q 39.453125 6.390625 43.28125 13.890625 
Q 47.125 21.390625 47.125 36.375 
Q 47.125 51.421875 43.28125 58.90625 
Q 39.453125 66.40625 31.78125 66.40625 
z
M 31.78125 74.21875 
Q 44.046875 74.21875 50.515625 64.515625 
Q 56.984375 54.828125 56.984375 36.375 
Q 56.984375 17.96875 50.515625 8.265625 
Q 44.046875 -1.421875 31.78125 -1.421875 
Q 19.53125 -1.421875 13.0625 8.265625 
Q 6.59375 17.96875 6.59375 36.375 
Q 6.59375 54.828125 13.0625 64.515625 
Q 19.53125 74.21875 31.78125 74.21875 
z
" id="DejaVuSans-48"/>
        <path d="M 12.40625 8.296875 
L 28.515625 8.296875 
L 28.515625 63.921875 
L 10.984375 60.40625 
L 10.984375 69.390625 
L 28.421875 72.90625 
L 38.28125 72.90625 
L 38.28125 8.296875 
L 54.390625 8.296875 
L 54.390625 0 
L 12.40625 0 
z
" id="DejaVuSans-49"/>
        <path d="M 10.984375 1.515625 
L 10.984375 10.5 
Q 14.703125 8.734375 18.5 7.8125 
Q 22.3125 6.890625 25.984375 6.890625 
Q 35.75 6.890625 40.890625 13.453125 
Q 46.046875 20.015625 46.78125 33.40625 
Q 43.953125 29.203125 39.59375 26.953125 
Q 35.25 24.703125 29.984375 24.703125 
Q 19.046875 24.703125 12.671875 31.3125 
Q 6.296875 37.9375 6.296875 49.421875 
Q 6.296875 60.640625 12.9375 67.421875 
Q 19.578125 74.21875 30.609375 74.21875 
Q 43.265625 74.21875 49.921875 64.515625 
Q 56.59375 54.828125 56.59375 36.375 
Q 56.59375 19.140625 48.40625 8.859375 
Q 40.234375 -1.421875 26.421875 -1.421875 
Q 22.703125 -1.421875 18.890625 -0.6875 
Q 15.09375 0.046875 10.984375 1.515625 
z
M 30.609375 32.421875 
Q 37.25 32.421875 41.125 36.953125 
Q 45.015625 41.5 45.015625 49.421875 
Q 45.015625 57.28125 41.125 61.84375 
Q 37.25 66.40625 30.609375 66.40625 
Q 23.96875 66.40625 20.09375 61.84375 
Q 16.21875 57.28125 16.21875 49.421875 
Q 16.21875 41.5 20.09375 36.953125 
Q 23.96875 32.421875 30.609375 32.421875 
z
" id="DejaVuSans-57"/>
        <path d="M 4.890625 31.390625 
L 31.203125 31.390625 
L 31.203125 23.390625 
L 4.890625 23.390625 
z
" id="DejaVuSans-45"/>
        <path d="M 40.578125 39.3125 
Q 47.65625 37.796875 51.625 33 
Q 55.609375 28.21875 55.609375 21.1875 
Q 55.609375 10.40625 48.1875 4.484375 
Q 40.765625 -1.421875 27.09375 -1.421875 
Q 22.515625 -1.421875 17.65625 -0.515625 
Q 12.796875 0.390625 7.625 2.203125 
L 7.625 11.71875 
Q 11.71875 9.328125 16.59375 8.109375 
Q 21.484375 6.890625 26.8125 6.890625 
Q 36.078125 6.890625 40.9375 10.546875 
Q 45.796875 14.203125 45.796875 21.1875 
Q 45.796875 27.640625 41.28125 31.265625 
Q 36.765625 34.90625 28.71875 34.90625 
L 20.21875 34.90625 
L 20.21875 43.015625 
L 29.109375 43.015625 
Q 36.375 43.015625 40.234375 45.921875 
Q 44.09375 48.828125 44.09375 54.296875 
Q 44.09375 59.90625 40.109375 62.90625 
Q 36.140625 65.921875 28.71875 65.921875 
Q 24.65625 65.921875 20.015625 65.03125 
Q 15.375 64.15625 9.8125 62.3125 
L 9.8125 71.09375 
Q 15.4375 72.65625 20.34375 73.4375 
Q 25.25 74.21875 29.59375 74.21875 
Q 40.828125 74.21875 47.359375 69.109375 
Q 53.90625 64.015625 53.90625 55.328125 
Q 53.90625 49.265625 50.4375 45.09375 
Q 46.96875 40.921875 40.578125 39.3125 
z
" id="DejaVuSans-51"/>
       </defs>
       <use xlink:href="#DejaVuSans-50"/>
       <use x="63.623047" xlink:href="#DejaVuSans-48"/>
       <use x="127.246094" xlink:href="#DejaVuSans-49"/>
       <use x="190.869141" xlink:href="#DejaVuSans-57"/>
       <use x="254.492188" xlink:href="#DejaVuSans-45"/>
       <use x="290.576172" xlink:href="#DejaVuSans-48"/>
       <use x="354.199219" xlink:href="#DejaVuSans-51"/>
       <use x="417.822266" xlink:href="#DejaVuSans-45"/>
       <use x="453.90625" xlink:href="#DejaVuSans-48"/>
       <use x="517.529297" xlink:href="#DejaVuSans-49"/>
      </g>
     </g>
    </g>
    <g id="xtick_2">
     <g id="line2d_3">
      <path clip-path="url(#p003001339f)" d="M 146.783377 307.584 
L 146.783377 41.472 
" style="fill:none;stroke:#b0b0b0;stroke-dasharray:1.85,0.8;stroke-dashoffset:0;stroke-width:0.5;"/>
     </g>
     <g id="line2d_4">
      <g>
       <use style="stroke:#000000;stroke-width:0.8;" x="146.783377" xlink:href="#m50fc29dbab" y="307.584"/>
      </g>
     </g>
     <g id="text_2">
      <!-- 2019-06-01 -->
      <g transform="translate(135.625895 342.464116)rotate(-45)scale(0.06 -0.06)">
       <defs>
        <path d="M 33.015625 40.375 
Q 26.375 40.375 22.484375 35.828125 
Q 18.609375 31.296875 18.609375 23.390625 
Q 18.609375 15.53125 22.484375 10.953125 
Q 26.375 6.390625 33.015625 6.390625 
Q 39.65625 6.390625 43.53125 10.953125 
Q 47.40625 15.53125 47.40625 23.390625 
Q 47.40625 31.296875 43.53125 35.828125 
Q 39.65625 40.375 33.015625 40.375 
z
M 52.59375 71.296875 
L 52.59375 62.3125 
Q 48.875 64.0625 45.09375 64.984375 
Q 41.3125 65.921875 37.59375 65.921875 
Q 27.828125 65.921875 22.671875 59.328125 
Q 17.53125 52.734375 16.796875 39.40625 
Q 19.671875 43.65625 24.015625 45.921875 
Q 28.375 48.1875 33.59375 48.1875 
Q 44.578125 48.1875 50.953125 41.515625 
Q 57.328125 34.859375 57.328125 23.390625 
Q 57.328125 12.15625 50.6875 5.359375 
Q 44.046875 -1.421875 33.015625 -1.421875 
Q 20.359375 -1.421875 13.671875 8.265625 
Q 6.984375 17.96875 6.984375 36.375 
Q 6.984375 53.65625 15.1875 63.9375 
Q 23.390625 74.21875 37.203125 74.21875 
Q 40.921875 74.21875 44.703125 73.484375 
Q 48.484375 72.75 52.59375 71.296875 
z
" id="DejaVuSans-54"/>
       </defs>
       <use xlink:href="#DejaVuSans-50"/>
       <use x="63.623047" xlink:href="#DejaVuSans-48"/>
       <use x="127.246094" xlink:href="#DejaVuSans-49"/>
       <use x="190.869141" xlink:href="#DejaVuSans-57"/>
       <use x="254.492188" xlink:href="#DejaVuSans-45"/>
       <use x="290.576172" xlink:href="#DejaVuSans-48"/>
       <use x="354.199219" xlink:href="#DejaVuSans-54"/>
       <use x="417.822266" xlink:href="#DejaVuSans-45"/>
       <use x="453.90625" xlink:href="#DejaVuSans-48"/>
       <use x="517.529297" xlink:href="#DejaVuSans-49"/>
      </g>
     </g>
    </g>
    <g id="xtick_3">
     <g id="line2d_5">
      <path clip-path="url(#p003001339f)" d="M 191.23013 307.584 
L 191.23013 41.472 
" style="fill:none;stroke:#b0b0b0;stroke-dasharray:1.85,0.8;stroke-dashoffset:0;stroke-width:0.5;"/>
     </g>
     <g id="line2d_6">
      <g>
       <use style="stroke:#000000;stroke-width:0.8;" x="191.23013" xlink:href="#m50fc29dbab" y="307.584"/>
      </g>
     </g>
     <g id="text_3">
      <!-- 2019-09-01 -->
      <g transform="translate(180.072648 342.464116)rotate(-45)scale(0.06 -0.06)">
       <use xlink:href="#DejaVuSans-50"/>
       <use x="63.623047" xlink:href="#DejaVuSans-48"/>
       <use x="127.246094" xlink:href="#DejaVuSans-49"/>
       <use x="190.869141" xlink:href="#DejaVuSans-57"/>
       <use x="254.492188" xlink:href="#DejaVuSans-45"/>
       <use x="290.576172" xlink:href="#DejaVuSans-48"/>
       <use x="354.199219" xlink:href="#DejaVuSans-57"/>
       <use x="417.822266" xlink:href="#DejaVuSans-45"/>
       <use x="453.90625" xlink:href="#DejaVuSans-48"/>
       <use x="517.529297" xlink:href="#DejaVuSans-49"/>
      </g>
     </g>
    </g>
    <g id="xtick_4">
     <g id="line2d_7">
      <path clip-path="url(#p003001339f)" d="M 235.193766 307.584 
L 235.193766 41.472 
" style="fill:none;stroke:#b0b0b0;stroke-dasharray:1.85,0.8;stroke-dashoffset:0;stroke-width:0.5;"/>
     </g>
     <g id="line2d_8">
      <g>
       <use style="stroke:#000000;stroke-width:0.8;" x="235.193766" xlink:href="#m50fc29dbab" y="307.584"/>
      </g>
     </g>
     <g id="text_4">
      <!-- 2019-12-01 -->
      <g transform="translate(224.036284 342.464116)rotate(-45)scale(0.06 -0.06)">
       <use xlink:href="#DejaVuSans-50"/>
       <use x="63.623047" xlink:href="#DejaVuSans-48"/>
       <use x="127.246094" xlink:href="#DejaVuSans-49"/>
       <use x="190.869141" xlink:href="#DejaVuSans-57"/>
       <use x="254.492188" xlink:href="#DejaVuSans-45"/>
       <use x="290.576172" xlink:href="#DejaVuSans-49"/>
       <use x="354.199219" xlink:href="#DejaVuSans-50"/>
       <use x="417.822266" xlink:href="#DejaVuSans-45"/>
       <use x="453.90625" xlink:href="#DejaVuSans-48"/>
       <use x="517.529297" xlink:href="#DejaVuSans-49"/>
      </g>
     </g>
    </g>
    <g id="xtick_5">
     <g id="line2d_9">
      <path clip-path="url(#p003001339f)" d="M 279.157403 307.584 
L 279.157403 41.472 
" style="fill:none;stroke:#b0b0b0;stroke-dasharray:1.85,0.8;stroke-dashoffset:0;stroke-width:0.5;"/>
     </g>
     <g id="line2d_10">
      <g>
       <use style="stroke:#000000;stroke-width:0.8;" x="279.157403" xlink:href="#m50fc29dbab" y="307.584"/>
      </g>
     </g>
     <g id="text_5">
      <!-- 2020-03-01 -->
      <g transform="translate(267.999921 342.464116)rotate(-45)scale(0.06 -0.06)">
       <use xlink:href="#DejaVuSans-50"/>
       <use x="63.623047" xlink:href="#DejaVuSans-48"/>
       <use x="127.246094" xlink:href="#DejaVuSans-50"/>
       <use x="190.869141" xlink:href="#DejaVuSans-48"/>
       <use x="254.492188" xlink:href="#DejaVuSans-45"/>
       <use x="290.576172" xlink:href="#DejaVuSans-48"/>
       <use x="354.199219" xlink:href="#DejaVuSans-51"/>
       <use x="417.822266" xlink:href="#DejaVuSans-45"/>
       <use x="453.90625" xlink:href="#DejaVuSans-48"/>
       <use x="517.529297" xlink:href="#DejaVuSans-49"/>
      </g>
     </g>
    </g>
    <g id="xtick_6">
     <g id="line2d_11">
      <path clip-path="url(#p003001339f)" d="M 323.604156 307.584 
L 323.604156 41.472 
" style="fill:none;stroke:#b0b0b0;stroke-dasharray:1.85,0.8;stroke-dashoffset:0;stroke-width:0.5;"/>
     </g>
     <g id="line2d_12">
      <g>
       <use style="stroke:#000000;stroke-width:0.8;" x="323.604156" xlink:href="#m50fc29dbab" y="307.584"/>
      </g>
     </g>
     <g id="text_6">
      <!-- 2020-06-01 -->
      <g transform="translate(312.446674 342.464116)rotate(-45)scale(0.06 -0.06)">
       <use xlink:href="#DejaVuSans-50"/>
       <use x="63.623047" xlink:href="#DejaVuSans-48"/>
       <use x="127.246094" xlink:href="#DejaVuSans-50"/>
       <use x="190.869141" xlink:href="#DejaVuSans-48"/>
       <use x="254.492188" xlink:href="#DejaVuSans-45"/>
       <use x="290.576172" xlink:href="#DejaVuSans-48"/>
       <use x="354.199219" xlink:href="#DejaVuSans-54"/>
       <use x="417.822266" xlink:href="#DejaVuSans-45"/>
       <use x="453.90625" xlink:href="#DejaVuSans-48"/>
       <use x="517.529297" xlink:href="#DejaVuSans-49"/>
      </g>
     </g>
    </g>
    <g id="xtick_7">
     <g id="line2d_13">
      <path clip-path="url(#p003001339f)" d="M 368.050909 307.584 
L 368.050909 41.472 
" style="fill:none;stroke:#b0b0b0;stroke-dasharray:1.85,0.8;stroke-dashoffset:0;stroke-width:0.5;"/>
     </g>
     <g id="line2d_14">
      <g>
       <use style="stroke:#000000;stroke-width:0.8;" x="368.050909" xlink:href="#m50fc29dbab" y="307.584"/>
      </g>
     </g>
     <g id="text_7">
      <!-- 2020-09-01 -->
      <g transform="translate(356.893427 342.464116)rotate(-45)scale(0.06 -0.06)">
       <use xlink:href="#DejaVuSans-50"/>
       <use x="63.623047" xlink:href="#DejaVuSans-48"/>
       <use x="127.246094" xlink:href="#DejaVuSans-50"/>
       <use x="190.869141" xlink:href="#DejaVuSans-48"/>
       <use x="254.492188" xlink:href="#DejaVuSans-45"/>
       <use x="290.576172" xlink:href="#DejaVuSans-48"/>
       <use x="354.199219" xlink:href="#DejaVuSans-57"/>
       <use x="417.822266" xlink:href="#DejaVuSans-45"/>
       <use x="453.90625" xlink:href="#DejaVuSans-48"/>
       <use x="517.529297" xlink:href="#DejaVuSans-49"/>
      </g>
     </g>
    </g>
    <g id="text_8">
     <!-- Date -->
     <g transform="translate(224.209219 354.94489)scale(0.1 -0.1)">
      <defs>
       <path d="M 19.671875 64.796875 
L 19.671875 8.109375 
L 31.59375 8.109375 
Q 46.6875 8.109375 53.6875 14.9375 
Q 60.6875 21.78125 60.6875 36.53125 
Q 60.6875 51.171875 53.6875 57.984375 
Q 46.6875 64.796875 31.59375 64.796875 
z
M 9.8125 72.90625 
L 30.078125 72.90625 
Q 51.265625 72.90625 61.171875 64.09375 
Q 71.09375 55.28125 71.09375 36.53125 
Q 71.09375 17.671875 61.125 8.828125 
Q 51.171875 0 30.078125 0 
L 9.8125 0 
z
" id="DejaVuSans-68"/>
       <path d="M 34.28125 27.484375 
Q 23.390625 27.484375 19.1875 25 
Q 14.984375 22.515625 14.984375 16.5 
Q 14.984375 11.71875 18.140625 8.90625 
Q 21.296875 6.109375 26.703125 6.109375 
Q 34.1875 6.109375 38.703125 11.40625 
Q 43.21875 16.703125 43.21875 25.484375 
L 43.21875 27.484375 
z
M 52.203125 31.203125 
L 52.203125 0 
L 43.21875 0 
L 43.21875 8.296875 
Q 40.140625 3.328125 35.546875 0.953125 
Q 30.953125 -1.421875 24.3125 -1.421875 
Q 15.921875 -1.421875 10.953125 3.296875 
Q 6 8.015625 6 15.921875 
Q 6 25.140625 12.171875 29.828125 
Q 18.359375 34.515625 30.609375 34.515625 
L 43.21875 34.515625 
L 43.21875 35.40625 
Q 43.21875 41.609375 39.140625 45 
Q 35.0625 48.390625 27.6875 48.390625 
Q 23 48.390625 18.546875 47.265625 
Q 14.109375 46.140625 10.015625 43.890625 
L 10.015625 52.203125 
Q 14.9375 54.109375 19.578125 55.046875 
Q 24.21875 56 28.609375 56 
Q 40.484375 56 46.34375 49.84375 
Q 52.203125 43.703125 52.203125 31.203125 
z
" id="DejaVuSans-97"/>
       <path d="M 18.3125 70.21875 
L 18.3125 54.6875 
L 36.8125 54.6875 
L 36.8125 47.703125 
L 18.3125 47.703125 
L 18.3125 18.015625 
Q 18.3125 11.328125 20.140625 9.421875 
Q 21.96875 7.515625 27.59375 7.515625 
L 36.8125 7.515625 
L 36.8125 0 
L 27.59375 0 
Q 17.1875 0 13.234375 3.875 
Q 9.28125 7.765625 9.28125 18.015625 
L 9.28125 47.703125 
L 2.6875 47.703125 
L 2.6875 54.6875 
L 9.28125 54.6875 
L 9.28125 70.21875 
z
" id="DejaVuSans-116"/>
       <path d="M 56.203125 29.59375 
L 56.203125 25.203125 
L 14.890625 25.203125 
Q 15.484375 15.921875 20.484375 11.0625 
Q 25.484375 6.203125 34.421875 6.203125 
Q 39.59375 6.203125 44.453125 7.46875 
Q 49.3125 8.734375 54.109375 11.28125 
L 54.109375 2.78125 
Q 49.265625 0.734375 44.1875 -0.34375 
Q 39.109375 -1.421875 33.890625 -1.421875 
Q 20.796875 -1.421875 13.15625 6.1875 
Q 5.515625 13.8125 5.515625 26.8125 
Q 5.515625 40.234375 12.765625 48.109375 
Q 20.015625 56 32.328125 56 
Q 43.359375 56 49.78125 48.890625 
Q 56.203125 41.796875 56.203125 29.59375 
z
M 47.21875 32.234375 
Q 47.125 39.59375 43.09375 43.984375 
Q 39.0625 48.390625 32.421875 48.390625 
Q 24.90625 48.390625 20.390625 44.140625 
Q 15.875 39.890625 15.1875 32.171875 
z
" id="DejaVuSans-101"/>
      </defs>
      <use xlink:href="#DejaVuSans-68"/>
      <use x="77.001953" xlink:href="#DejaVuSans-97"/>
      <use x="138.28125" xlink:href="#DejaVuSans-116"/>
      <use x="177.490234" xlink:href="#DejaVuSans-101"/>
     </g>
    </g>
   </g>
   <g id="matplotlib.axis_2">
    <g id="ytick_1">
     <g id="line2d_15">
      <path clip-path="url(#p003001339f)" d="M 57.6 307.069713 
L 414.72 307.069713 
" style="fill:none;stroke:#b0b0b0;stroke-dasharray:1.85,0.8;stroke-dashoffset:0;stroke-width:0.5;"/>
     </g>
     <g id="line2d_16">
      <defs>
       <path d="M 0 0 
L -3.5 0 
" id="m92ba95291a" style="stroke:#000000;stroke-width:0.8;"/>
      </defs>
      <g>
       <use style="stroke:#000000;stroke-width:0.8;" x="57.6" xlink:href="#m92ba95291a" y="307.069713"/>
      </g>
     </g>
     <g id="text_9">
      <!-- 750 -->
      <g transform="translate(31.5125 310.868932)scale(0.1 -0.1)">
       <defs>
        <path d="M 8.203125 72.90625 
L 55.078125 72.90625 
L 55.078125 68.703125 
L 28.609375 0 
L 18.3125 0 
L 43.21875 64.59375 
L 8.203125 64.59375 
z
" id="DejaVuSans-55"/>
        <path d="M 10.796875 72.90625 
L 49.515625 72.90625 
L 49.515625 64.59375 
L 19.828125 64.59375 
L 19.828125 46.734375 
Q 21.96875 47.46875 24.109375 47.828125 
Q 26.265625 48.1875 28.421875 48.1875 
Q 40.625 48.1875 47.75 41.5 
Q 54.890625 34.8125 54.890625 23.390625 
Q 54.890625 11.625 47.5625 5.09375 
Q 40.234375 -1.421875 26.90625 -1.421875 
Q 22.3125 -1.421875 17.546875 -0.640625 
Q 12.796875 0.140625 7.71875 1.703125 
L 7.71875 11.625 
Q 12.109375 9.234375 16.796875 8.0625 
Q 21.484375 6.890625 26.703125 6.890625 
Q 35.15625 6.890625 40.078125 11.328125 
Q 45.015625 15.765625 45.015625 23.390625 
Q 45.015625 31 40.078125 35.4375 
Q 35.15625 39.890625 26.703125 39.890625 
Q 22.75 39.890625 18.8125 39.015625 
Q 14.890625 38.140625 10.796875 36.28125 
z
" id="DejaVuSans-53"/>
       </defs>
       <use xlink:href="#DejaVuSans-55"/>
       <use x="63.623047" xlink:href="#DejaVuSans-53"/>
       <use x="127.246094" xlink:href="#DejaVuSans-48"/>
      </g>
     </g>
    </g>
    <g id="ytick_2">
     <g id="line2d_17">
      <path clip-path="url(#p003001339f)" d="M 57.6 272.340943 
L 414.72 272.340943 
" style="fill:none;stroke:#b0b0b0;stroke-dasharray:1.85,0.8;stroke-dashoffset:0;stroke-width:0.5;"/>
     </g>
     <g id="line2d_18">
      <g>
       <use style="stroke:#000000;stroke-width:0.8;" x="57.6" xlink:href="#m92ba95291a" y="272.340943"/>
      </g>
     </g>
     <g id="text_10">
      <!-- 1000 -->
      <g transform="translate(25.15 276.140161)scale(0.1 -0.1)">
       <use xlink:href="#DejaVuSans-49"/>
       <use x="63.623047" xlink:href="#DejaVuSans-48"/>
       <use x="127.246094" xlink:href="#DejaVuSans-48"/>
       <use x="190.869141" xlink:href="#DejaVuSans-48"/>
      </g>
     </g>
    </g>
    <g id="ytick_3">
     <g id="line2d_19">
      <path clip-path="url(#p003001339f)" d="M 57.6 237.612172 
L 414.72 237.612172 
" style="fill:none;stroke:#b0b0b0;stroke-dasharray:1.85,0.8;stroke-dashoffset:0;stroke-width:0.5;"/>
     </g>
     <g id="line2d_20">
      <g>
       <use style="stroke:#000000;stroke-width:0.8;" x="57.6" xlink:href="#m92ba95291a" y="237.612172"/>
      </g>
     </g>
     <g id="text_11">
      <!-- 1250 -->
      <g transform="translate(25.15 241.411391)scale(0.1 -0.1)">
       <use xlink:href="#DejaVuSans-49"/>
       <use x="63.623047" xlink:href="#DejaVuSans-50"/>
       <use x="127.246094" xlink:href="#DejaVuSans-53"/>
       <use x="190.869141" xlink:href="#DejaVuSans-48"/>
      </g>
     </g>
    </g>
    <g id="ytick_4">
     <g id="line2d_21">
      <path clip-path="url(#p003001339f)" d="M 57.6 202.883402 
L 414.72 202.883402 
" style="fill:none;stroke:#b0b0b0;stroke-dasharray:1.85,0.8;stroke-dashoffset:0;stroke-width:0.5;"/>
     </g>
     <g id="line2d_22">
      <g>
       <use style="stroke:#000000;stroke-width:0.8;" x="57.6" xlink:href="#m92ba95291a" y="202.883402"/>
      </g>
     </g>
     <g id="text_12">
      <!-- 1500 -->
      <g transform="translate(25.15 206.682621)scale(0.1 -0.1)">
       <use xlink:href="#DejaVuSans-49"/>
       <use x="63.623047" xlink:href="#DejaVuSans-53"/>
       <use x="127.246094" xlink:href="#DejaVuSans-48"/>
       <use x="190.869141" xlink:href="#DejaVuSans-48"/>
      </g>
     </g>
    </g>
    <g id="ytick_5">
     <g id="line2d_23">
      <path clip-path="url(#p003001339f)" d="M 57.6 168.154632 
L 414.72 168.154632 
" style="fill:none;stroke:#b0b0b0;stroke-dasharray:1.85,0.8;stroke-dashoffset:0;stroke-width:0.5;"/>
     </g>
     <g id="line2d_24">
      <g>
       <use style="stroke:#000000;stroke-width:0.8;" x="57.6" xlink:href="#m92ba95291a" y="168.154632"/>
      </g>
     </g>
     <g id="text_13">
      <!-- 1750 -->
      <g transform="translate(25.15 171.953851)scale(0.1 -0.1)">
       <use xlink:href="#DejaVuSans-49"/>
       <use x="63.623047" xlink:href="#DejaVuSans-55"/>
       <use x="127.246094" xlink:href="#DejaVuSans-53"/>
       <use x="190.869141" xlink:href="#DejaVuSans-48"/>
      </g>
     </g>
    </g>
    <g id="ytick_6">
     <g id="line2d_25">
      <path clip-path="url(#p003001339f)" d="M 57.6 133.425862 
L 414.72 133.425862 
" style="fill:none;stroke:#b0b0b0;stroke-dasharray:1.85,0.8;stroke-dashoffset:0;stroke-width:0.5;"/>
     </g>
     <g id="line2d_26">
      <g>
       <use style="stroke:#000000;stroke-width:0.8;" x="57.6" xlink:href="#m92ba95291a" y="133.425862"/>
      </g>
     </g>
     <g id="text_14">
      <!-- 2000 -->
      <g transform="translate(25.15 137.22508)scale(0.1 -0.1)">
       <use xlink:href="#DejaVuSans-50"/>
       <use x="63.623047" xlink:href="#DejaVuSans-48"/>
       <use x="127.246094" xlink:href="#DejaVuSans-48"/>
       <use x="190.869141" xlink:href="#DejaVuSans-48"/>
      </g>
     </g>
    </g>
    <g id="ytick_7">
     <g id="line2d_27">
      <path clip-path="url(#p003001339f)" d="M 57.6 98.697091 
L 414.72 98.697091 
" style="fill:none;stroke:#b0b0b0;stroke-dasharray:1.85,0.8;stroke-dashoffset:0;stroke-width:0.5;"/>
     </g>
     <g id="line2d_28">
      <g>
       <use style="stroke:#000000;stroke-width:0.8;" x="57.6" xlink:href="#m92ba95291a" y="98.697091"/>
      </g>
     </g>
     <g id="text_15">
      <!-- 2250 -->
      <g transform="translate(25.15 102.49631)scale(0.1 -0.1)">
       <use xlink:href="#DejaVuSans-50"/>
       <use x="63.623047" xlink:href="#DejaVuSans-50"/>
       <use x="127.246094" xlink:href="#DejaVuSans-53"/>
       <use x="190.869141" xlink:href="#DejaVuSans-48"/>
      </g>
     </g>
    </g>
    <g id="ytick_8">
     <g id="line2d_29">
      <path clip-path="url(#p003001339f)" d="M 57.6 63.968321 
L 414.72 63.968321 
" style="fill:none;stroke:#b0b0b0;stroke-dasharray:1.85,0.8;stroke-dashoffset:0;stroke-width:0.5;"/>
     </g>
     <g id="line2d_30">
      <g>
       <use style="stroke:#000000;stroke-width:0.8;" x="57.6" xlink:href="#m92ba95291a" y="63.968321"/>
      </g>
     </g>
     <g id="text_16">
      <!-- 2500 -->
      <g transform="translate(25.15 67.76754)scale(0.1 -0.1)">
       <use xlink:href="#DejaVuSans-50"/>
       <use x="63.623047" xlink:href="#DejaVuSans-53"/>
       <use x="127.246094" xlink:href="#DejaVuSans-48"/>
       <use x="190.869141" xlink:href="#DejaVuSans-48"/>
      </g>
     </g>
    </g>
    <g id="text_17">
     <!-- Value (USD) -->
     <g transform="translate(19.070312 204.433469)rotate(-90)scale(0.1 -0.1)">
      <defs>
       <path d="M 28.609375 0 
L 0.78125 72.90625 
L 11.078125 72.90625 
L 34.1875 11.53125 
L 57.328125 72.90625 
L 67.578125 72.90625 
L 39.796875 0 
z
" id="DejaVuSans-86"/>
       <path d="M 9.421875 75.984375 
L 18.40625 75.984375 
L 18.40625 0 
L 9.421875 0 
z
" id="DejaVuSans-108"/>
       <path d="M 8.5 21.578125 
L 8.5 54.6875 
L 17.484375 54.6875 
L 17.484375 21.921875 
Q 17.484375 14.15625 20.5 10.265625 
Q 23.53125 6.390625 29.59375 6.390625 
Q 36.859375 6.390625 41.078125 11.03125 
Q 45.3125 15.671875 45.3125 23.6875 
L 45.3125 54.6875 
L 54.296875 54.6875 
L 54.296875 0 
L 45.3125 0 
L 45.3125 8.40625 
Q 42.046875 3.421875 37.71875 1 
Q 33.40625 -1.421875 27.6875 -1.421875 
Q 18.265625 -1.421875 13.375 4.4375 
Q 8.5 10.296875 8.5 21.578125 
z
M 31.109375 56 
z
" id="DejaVuSans-117"/>
       <path id="DejaVuSans-32"/>
       <path d="M 31 75.875 
Q 24.46875 64.65625 21.28125 53.65625 
Q 18.109375 42.671875 18.109375 31.390625 
Q 18.109375 20.125 21.3125 9.0625 
Q 24.515625 -2 31 -13.1875 
L 23.1875 -13.1875 
Q 15.875 -1.703125 12.234375 9.375 
Q 8.59375 20.453125 8.59375 31.390625 
Q 8.59375 42.28125 12.203125 53.3125 
Q 15.828125 64.359375 23.1875 75.875 
z
" id="DejaVuSans-40"/>
       <path d="M 8.6875 72.90625 
L 18.609375 72.90625 
L 18.609375 28.609375 
Q 18.609375 16.890625 22.84375 11.734375 
Q 27.09375 6.59375 36.625 6.59375 
Q 46.09375 6.59375 50.34375 11.734375 
Q 54.59375 16.890625 54.59375 28.609375 
L 54.59375 72.90625 
L 64.5 72.90625 
L 64.5 27.390625 
Q 64.5 13.140625 57.4375 5.859375 
Q 50.390625 -1.421875 36.625 -1.421875 
Q 22.796875 -1.421875 15.734375 5.859375 
Q 8.6875 13.140625 8.6875 27.390625 
z
" id="DejaVuSans-85"/>
       <path d="M 53.515625 70.515625 
L 53.515625 60.890625 
Q 47.90625 63.578125 42.921875 64.890625 
Q 37.9375 66.21875 33.296875 66.21875 
Q 25.25 66.21875 20.875 63.09375 
Q 16.5 59.96875 16.5 54.203125 
Q 16.5 49.359375 19.40625 46.890625 
Q 22.3125 44.4375 30.421875 42.921875 
L 36.375 41.703125 
Q 47.40625 39.59375 52.65625 34.296875 
Q 57.90625 29 57.90625 20.125 
Q 57.90625 9.515625 50.796875 4.046875 
Q 43.703125 -1.421875 29.984375 -1.421875 
Q 24.8125 -1.421875 18.96875 -0.25 
Q 13.140625 0.921875 6.890625 3.21875 
L 6.890625 13.375 
Q 12.890625 10.015625 18.65625 8.296875 
Q 24.421875 6.59375 29.984375 6.59375 
Q 38.421875 6.59375 43.015625 9.90625 
Q 47.609375 13.234375 47.609375 19.390625 
Q 47.609375 24.75 44.3125 27.78125 
Q 41.015625 30.8125 33.5 32.328125 
L 27.484375 33.5 
Q 16.453125 35.6875 11.515625 40.375 
Q 6.59375 45.0625 6.59375 53.421875 
Q 6.59375 63.09375 13.40625 68.65625 
Q 20.21875 74.21875 32.171875 74.21875 
Q 37.3125 74.21875 42.625 73.28125 
Q 47.953125 72.359375 53.515625 70.515625 
z
" id="DejaVuSans-83"/>
       <path d="M 8.015625 75.875 
L 15.828125 75.875 
Q 23.140625 64.359375 26.78125 53.3125 
Q 30.421875 42.28125 30.421875 31.390625 
Q 30.421875 20.453125 26.78125 9.375 
Q 23.140625 -1.703125 15.828125 -13.1875 
L 8.015625 -13.1875 
Q 14.5 -2 17.703125 9.0625 
Q 20.90625 20.125 20.90625 31.390625 
Q 20.90625 42.671875 17.703125 53.65625 
Q 14.5 64.65625 8.015625 75.875 
z
" id="DejaVuSans-41"/>
      </defs>
      <use xlink:href="#DejaVuSans-86"/>
      <use x="60.658203" xlink:href="#DejaVuSans-97"/>
      <use x="121.9375" xlink:href="#DejaVuSans-108"/>
      <use x="149.720703" xlink:href="#DejaVuSans-117"/>
      <use x="213.099609" xlink:href="#DejaVuSans-101"/>
      <use x="274.623047" xlink:href="#DejaVuSans-32"/>
      <use x="306.410156" xlink:href="#DejaVuSans-40"/>
      <use x="345.423828" xlink:href="#DejaVuSans-85"/>
      <use x="418.617188" xlink:href="#DejaVuSans-83"/>
      <use x="482.09375" xlink:href="#DejaVuSans-68"/>
      <use x="559.095703" xlink:href="#DejaVuSans-41"/>
     </g>
    </g>
   </g>
   <g id="line2d_31">
    <path clip-path="url(#p003001339f)" d="M 73.832727 272.340943 
L 74.315844 266.977878 
L 74.798961 259.674656 
L 75.282078 265.579811 
L 75.765195 262.720507 
L 76.248312 263.05861 
L 76.731429 256.852915 
L 77.214545 258.961457 
L 77.697662 258.783222 
L 78.180779 257.365649 
L 78.663896 275.667596 
L 79.147013 276.901145 
L 79.63013 277.700144 
L 80.113247 284.340631 
L 80.596364 275.211124 
L 81.079481 279.831218 
L 81.562597 277.879523 
L 82.045714 277.473296 
L 82.528831 279.569304 
L 83.011948 276.578307 
L 83.495065 281.788023 
L 83.978182 282.007838 
L 84.461299 280.254004 
L 84.944416 281.001758 
L 85.427532 280.737887 
L 85.910649 281.293426 
L 86.393766 281.240192 
L 86.876883 283.084465 
L 87.36 289.767184 
L 87.843117 290.90485 
L 88.326234 285.358506 
L 88.809351 288.089795 
L 89.292468 287.158461 
L 89.775584 285.924842 
L 90.258701 287.657039 
L 90.741818 287.319945 
L 91.224935 287.582613 
L 91.708052 290.754146 
L 92.191169 290.819893 
L 92.674286 277.892938 
L 93.157403 277.541816 
L 93.640519 275.987624 
L 94.123636 279.451979 
L 94.606753 278.137992 
L 95.08987 279.316333 
L 95.572987 280.873256 
L 96.539221 279.151208 
L 97.022338 275.091008 
L 97.505455 264.513241 
L 97.988571 264.03697 
L 98.471688 259.083421 
L 98.954805 262.900793 
L 99.437922 260.949132 
L 99.921039 254.056359 
L 100.404156 272.712345 
L 100.887273 267.372074 
L 101.37039 269.441882 
L 101.853506 270.073725 
L 102.336623 269.603035 
L 102.81974 269.333682 
L 103.785974 270.996519 
L 104.269091 275.790297 
L 104.752208 267.070106 
L 105.235325 266.494013 
L 105.718442 266.513018 
L 106.201558 268.705335 
L 106.684675 264.74339 
L 107.167792 265.301046 
L 107.650909 268.036624 
L 108.134026 266.840337 
L 108.617143 267.356379 
L 109.10026 267.01712 
L 110.066494 259.570091 
L 110.54961 261.393163 
L 111.032727 261.25454 
L 111.998961 259.796897 
L 112.482078 263.261875 
L 112.965195 262.136548 
L 113.448312 260.177398 
L 113.931429 261.708379 
L 114.414545 264.309217 
L 114.897662 264.113659 
L 115.380779 257.410803 
L 115.863896 258.848977 
L 116.347013 255.567564 
L 116.83013 256.204831 
L 117.313247 256.320488 
L 117.796364 254.977037 
L 118.279481 227.627553 
L 118.762597 224.288125 
L 119.245714 228.141714 
L 119.728831 219.482181 
L 120.211948 218.974002 
L 120.695065 213.20243 
L 121.178182 211.226811 
L 121.661299 216.1782 
L 122.144416 211.440248 
L 122.627532 225.438262 
L 123.110649 225.134223 
L 123.593766 225.989018 
L 124.076883 221.935944 
L 124.56 226.441418 
L 125.043117 220.83944 
L 125.526234 220.969019 
L 126.009351 217.898381 
L 126.975584 219.45685 
L 127.458701 222.776789 
L 127.941818 221.266474 
L 128.424935 220.481988 
L 128.908052 227.375713 
L 129.391169 236.188099 
L 129.874286 232.403945 
L 130.357403 233.346288 
L 130.840519 234.866772 
L 131.323636 238.965049 
L 131.806753 230.889791 
L 132.28987 230.975022 
L 132.772987 229.744606 
L 133.256104 221.779816 
L 134.222338 224.566355 
L 134.705455 222.417706 
L 135.188571 222.572051 
L 136.154805 219.500621 
L 136.637922 215.510156 
L 137.121039 187.338647 
L 137.604156 197.903884 
L 138.087273 181.740908 
L 139.053506 140.190273 
L 139.536623 146.163231 
L 140.01974 165.1315 
L 140.502857 170.387603 
L 140.985974 143.233939 
L 141.469091 151.533604 
L 141.952208 150.255459 
L 142.435325 162.533058 
L 142.918442 158.80191 
L 143.401558 153.244425 
L 143.884675 151.450803 
L 144.367792 133.649722 
L 144.850909 120.7476 
L 145.334026 126.313031 
L 145.817143 124.117877 
L 146.30026 138.232319 
L 146.783377 124.733112 
L 147.266494 129.030578 
L 147.74961 122.265416 
L 148.232727 142.419373 
L 148.715844 157.198061 
L 149.682078 148.358444 
L 150.165195 143.487198 
L 150.648312 148.618465 
L 151.131429 160.183557 
L 151.614545 146.646173 
L 152.097662 148.705923 
L 152.580779 139.542916 
L 153.063896 140.402651 
L 153.547013 132.10983 
L 154.996364 115.389798 
L 155.479481 123.595376 
L 155.962597 118.867311 
L 156.445714 115.98875 
L 157.411948 81.663352 
L 157.895065 82.826888 
L 158.378182 79.087629 
L 158.861299 69.197613 
L 159.344416 53.568 
L 159.827532 100.174844 
L 160.310649 78.868786 
L 160.793766 76.340827 
L 161.276883 105.990667 
L 161.76 105.457922 
L 162.243117 107.476406 
L 162.726234 87.981264 
L 163.209351 105.797883 
L 163.692468 109.228278 
L 164.175584 103.384748 
L 164.658701 95.247423 
L 165.141818 83.096429 
L 165.624935 83.01145 
L 166.108052 100.0924 
L 166.591169 123.497679 
L 167.074286 113.209176 
L 167.557403 121.767466 
L 168.040519 156.126066 
L 168.523636 145.760622 
L 169.006753 176.637731 
L 169.48987 168.529042 
L 169.972987 147.669163 
L 170.456104 150.773187 
L 170.939221 142.289694 
L 171.422338 145.711524 
L 172.388571 162.694011 
L 172.871688 161.706956 
L 173.354805 160.272193 
L 173.837922 158.267047 
L 174.321039 170.364914 
L 174.804156 167.441838 
L 175.287273 168.322675 
L 175.77039 166.867502 
L 176.253506 155.83184 
L 176.736623 154.242238 
L 177.21974 153.251161 
L 177.702857 148.535284 
L 178.185974 146.567503 
L 178.669091 131.83253 
L 179.152208 139.686658 
L 179.635325 134.932966 
L 180.118442 136.108887 
L 180.601558 145.782125 
L 181.084675 151.416512 
L 181.567792 143.417176 
L 182.534026 154.429559 
L 183.017143 179.387122 
L 183.50026 174.861391 
L 183.983377 176.472807 
L 184.466494 177.432244 
L 184.94961 170.742184 
L 185.432727 161.091542 
L 185.915844 166.634153 
L 186.398961 178.449579 
L 186.882078 175.761153 
L 187.365195 171.002286 
L 187.848312 176.293798 
L 188.331429 178.207365 
L 188.814545 174.530521 
L 189.297662 177.238998 
L 189.780779 189.820412 
L 190.263896 195.768829 
L 191.713247 191.675926 
L 192.196364 181.841225 
L 192.679481 177.060334 
L 193.162597 179.976848 
L 193.645714 180.964181 
L 194.128831 185.671991 
L 194.611948 179.17581 
L 195.095065 177.463439 
L 195.578182 178.766892 
L 196.061299 181.648023 
L 196.544416 182.761415 
L 197.027532 179.444979 
L 197.510649 179.683832 
L 197.993766 176.037832 
L 198.476883 176.390878 
L 198.96 173.943362 
L 199.926234 163.684453 
L 200.409351 161.066792 
L 201.858701 171.088343 
L 202.341818 181.37682 
L 202.824935 212.201677 
L 203.308052 213.329025 
L 203.791169 219.802741 
L 204.274286 216.18046 
L 204.757403 215.432284 
L 205.240519 219.682905 
L 205.723636 211.682059 
L 206.206753 210.513499 
L 206.68987 210.731788 
L 207.172987 213.557235 
L 207.656104 214.351626 
L 208.139221 214.179601 
L 208.622338 219.220003 
L 209.105455 209.301493 
L 209.588571 208.994546 
L 210.071688 199.849566 
L 210.554805 202.68477 
L 211.037922 210.069575 
L 212.004156 208.452904 
L 212.487273 203.879169 
L 213.453506 214.018836 
L 213.936623 210.143379 
L 214.41974 214.207348 
L 214.902857 214.80375 
L 215.385974 209.883666 
L 215.869091 209.71055 
L 216.352208 213.291724 
L 216.835325 226.321004 
L 217.318442 226.326925 
L 217.801558 200.027693 
L 218.284675 195.160021 
L 218.767792 188.763173 
L 219.250909 192.359209 
L 219.734026 185.626719 
L 220.217143 191.838732 
L 220.70026 192.44199 
L 221.183377 191.463906 
L 221.666494 189.630188 
L 222.14961 191.72633 
L 222.632727 186.818384 
L 223.115844 185.560395 
L 223.598961 183.011808 
L 224.082078 188.825219 
L 224.565195 197.302314 
L 225.048312 195.607907 
L 225.531429 190.526571 
L 226.014545 196.735076 
L 226.497662 195.457535 
L 226.980779 195.722452 
L 227.463896 199.186116 
L 227.947013 204.165074 
L 228.913247 202.100303 
L 229.396364 210.504084 
L 229.879481 212.491284 
L 230.362597 213.924217 
L 231.328831 235.901863 
L 231.811948 234.299667 
L 232.295065 245.396717 
L 232.778182 240.843186 
L 233.261299 239.177517 
L 233.744416 232.729671 
L 234.227532 234.068982 
L 234.710649 228.328839 
L 235.193766 231.968874 
L 235.676883 234.025769 
L 236.16 237.023053 
L 236.643117 237.994893 
L 237.126234 240.307927 
L 238.092468 234.125686 
L 238.575584 234.887295 
L 239.058701 233.491132 
L 239.541818 237.212893 
L 240.024935 239.552797 
L 240.508052 240.935034 
L 240.991169 240.672537 
L 241.474286 239.630722 
L 241.957403 243.334407 
L 242.440519 242.741974 
L 242.923636 250.481522 
L 243.406753 260.807044 
L 243.88987 247.391107 
L 244.372987 251.066333 
L 244.856104 249.891183 
L 245.339221 251.182333 
L 245.822338 244.154296 
L 246.305455 248.334176 
L 246.788571 249.3745 
L 247.271688 251.327189 
L 247.754805 250.793396 
L 248.237922 249.301704 
L 248.721039 247.163329 
L 249.204156 243.721207 
L 249.687273 247.116998 
L 250.17039 248.748856 
L 250.653506 248.325125 
L 251.136623 253.537807 
L 251.61974 245.176354 
L 252.102857 244.143508 
L 252.585974 243.631802 
L 253.069091 232.171042 
L 253.552208 228.225017 
L 254.518442 234.954829 
L 255.001558 225.605122 
L 255.484675 228.835543 
L 255.967792 224.549048 
L 256.450909 226.681317 
L 256.934026 203.299284 
L 257.417143 203.266637 
L 257.90026 206.17177 
L 258.383377 197.989465 
L 258.866494 198.575589 
L 259.34961 204.911669 
L 259.832727 205.454492 
L 260.315844 202.889488 
L 260.798961 204.015419 
L 261.282078 211.256277 
L 261.765195 211.539396 
L 262.248312 213.867835 
L 262.731429 206.067605 
L 263.214545 200.094182 
L 263.697662 191.12764 
L 264.180779 192.177041 
L 264.663896 182.695294 
L 265.147013 188.756307 
L 265.63013 185.767568 
L 266.113247 183.649116 
L 266.596364 182.854682 
L 267.079481 183.820087 
L 267.562597 169.677428 
L 268.045714 164.281095 
L 268.528831 161.084957 
L 269.011948 159.355359 
L 269.495065 153.410994 
L 269.978182 158.80277 
L 270.461299 148.955021 
L 270.944416 136.586737 
L 271.427532 134.603504 
L 271.910649 126.349398 
L 272.393766 145.294926 
L 273.36 151.193988 
L 273.843117 140.307514 
L 274.326234 158.92243 
L 274.809351 160.654275 
L 275.292468 156.662486 
L 275.775584 157.847588 
L 276.258701 146.951963 
L 276.741818 156.463709 
L 277.224935 168.543715 
L 277.708052 188.615515 
L 278.191169 187.977263 
L 278.674286 188.80143 
L 279.157403 194.768424 
L 279.640519 194.434277 
L 280.123636 183.795428 
L 280.606753 188.688987 
L 281.08987 189.174385 
L 282.056104 176.011223 
L 282.539221 183.333021 
L 283.022338 213.007158 
L 283.505455 213.560766 
L 283.988571 213.524082 
L 284.471688 215.667116 
L 284.954805 290.133543 
L 285.437922 274.158448 
L 285.921039 282.968954 
L 286.404156 278.574043 
L 286.887273 289.168264 
L 287.37039 281.463199 
L 287.853506 281.718162 
L 288.336623 262.397828 
L 288.81974 264.755902 
L 289.302857 264.957646 
L 289.785974 273.111156 
L 290.269091 259.995024 
L 290.752208 254.780993 
L 291.235325 256.510186 
L 291.718442 252.958983 
L 292.201558 260.951845 
L 292.684675 261.884239 
L 293.167792 269.662636 
L 293.650909 260.197844 
L 294.134026 259.418607 
L 295.10026 251.306654 
L 295.583377 251.789044 
L 296.066494 249.153072 
L 296.54961 250.771139 
L 297.032727 232.871505 
L 297.515844 236.272609 
L 297.998961 230.275673 
L 298.482078 232.138285 
L 298.965195 244.047733 
L 299.931429 243.12413 
L 300.414545 245.036214 
L 300.897662 244.827184 
L 301.380779 250.147241 
L 301.863896 237.430111 
L 302.347013 238.265973 
L 302.83013 229.718701 
L 303.313247 234.518376 
L 303.796364 241.881382 
L 304.279481 241.99603 
L 304.762597 234.034881 
L 305.245714 229.108476 
L 306.695065 220.151335 
L 307.178182 218.99337 
L 307.661299 217.079376 
L 308.144416 197.483678 
L 308.627532 204.768855 
L 309.110649 199.30821 
L 309.593766 195.608954 
L 310.076883 198.955695 
L 310.56 200.499954 
L 311.043117 199.912348 
L 311.526234 200.638839 
L 312.009351 186.313936 
L 312.492468 187.829413 
L 312.975584 191.207557 
L 313.458701 211.46426 
L 313.941818 214.722259 
L 314.424935 210.65031 
L 315.391169 193.51155 
L 315.874286 202.858208 
L 316.357403 199.759146 
L 316.840519 194.562163 
L 317.323636 190.82032 
L 317.806753 190.236859 
L 318.28987 194.822228 
L 318.772987 205.358071 
L 319.256104 201.191365 
L 319.739221 200.852393 
L 320.222338 209.072599 
L 320.705455 205.492092 
L 321.188571 207.282014 
L 321.671688 200.55686 
L 322.154805 191.551836 
L 322.637922 193.074679 
L 323.121039 181.178292 
L 323.604156 187.641567 
L 324.087273 172.648756 
L 324.57039 184.506766 
L 325.053506 180.251061 
L 325.536623 178.019376 
L 326.01974 181.075776 
L 326.502857 180.387533 
L 326.985974 178.886438 
L 327.469091 177.767468 
L 327.952208 179.280119 
L 328.435325 176.599727 
L 328.918442 191.431615 
L 329.401558 186.932659 
L 329.884675 186.619804 
L 330.367792 190.683774 
L 330.850909 189.929081 
L 331.334026 187.648674 
L 331.817143 187.987938 
L 332.30026 190.034472 
L 332.783377 192.58123 
L 333.266494 191.805576 
L 333.74961 193.498103 
L 334.232727 183.17002 
L 334.715844 184.209233 
L 335.198961 191.61774 
L 335.682078 192.710897 
L 336.165195 194.693815 
L 336.648312 201.119737 
L 337.131429 197.788716 
L 337.614545 195.801333 
L 338.097662 197.274535 
L 338.580779 193.652932 
L 339.063896 196.965044 
L 339.547013 197.212999 
L 340.03013 194.552571 
L 340.513247 195.880001 
L 340.996364 185.741115 
L 341.479481 187.376989 
L 341.962597 179.015773 
L 342.445714 183.132483 
L 342.928831 183.833906 
L 343.411948 183.775267 
L 343.895065 182.264627 
L 344.378182 184.66154 
L 344.861299 183.861899 
L 345.344416 185.084934 
L 345.827532 188.01279 
L 346.310649 188.243217 
L 347.276883 185.077765 
L 347.76 187.815754 
L 349.209351 169.55346 
L 349.692468 169.97344 
L 350.175584 157.005157 
L 350.658701 152.655807 
L 351.141818 136.581185 
L 351.624935 134.981437 
L 352.108052 132.183588 
L 352.591169 126.527001 
L 353.074286 119.128599 
L 353.557403 96.617919 
L 354.040519 114.539564 
L 354.523636 104.655584 
L 355.006753 105.19696 
L 355.48987 95.707564 
L 355.972987 95.497089 
L 356.456104 104.113428 
L 356.939221 98.097111 
L 357.422338 100.222118 
L 357.905455 95.186604 
L 358.388571 108.636783 
L 358.871688 104.283849 
L 359.354805 88.412365 
L 359.837922 84.885714 
L 360.321039 83.40281 
L 360.804156 80.427195 
L 361.287273 74.742644 
L 362.253506 94.17419 
L 362.736623 88.38282 
L 363.21974 104.792529 
L 363.702857 98.790447 
L 364.185974 101.179243 
L 364.669091 93.939225 
L 365.152208 109.37419 
L 365.635325 107.560584 
L 366.118442 113.58393 
L 366.601558 105.69428 
L 367.084675 104.039546 
L 367.567792 91.159854 
L 368.050909 89.49842 
L 368.534026 72.610034 
L 369.017143 93.191083 
L 369.50026 130.848749 
L 369.983377 123.31521 
L 370.466494 145.530827 
L 370.94961 138.819666 
L 371.432727 137.549297 
L 371.915844 144.691983 
L 372.398961 139.608398 
L 372.882078 133.108573 
L 373.365195 131.044374 
L 373.848312 125.828833 
L 374.331429 134.822357 
L 374.814545 127.276228 
L 375.297662 129.709786 
L 375.780779 127.954193 
L 376.263896 120.616455 
L 376.747013 122.750188 
L 377.23013 120.178442 
L 377.713247 127.319079 
L 378.196364 144.798327 
L 378.679481 142.066411 
L 379.162597 154.482525 
L 379.645714 138.629541 
L 380.128831 136.061647 
L 381.095065 132.545797 
L 381.578182 134.847756 
L 382.061299 130.92929 
L 382.544416 131.522085 
L 383.510649 139.796967 
L 383.993766 139.836177 
L 384.476883 134.585842 
L 384.96 132.482241 
L 385.443117 138.85022 
L 385.926234 137.368744 
L 386.409351 131.680632 
L 386.892468 124.361401 
L 387.375584 119.909002 
L 387.858701 116.836029 
L 388.341818 111.059518 
L 388.824935 113.773517 
L 389.308052 114.811025 
L 389.791169 115.126919 
L 390.274286 121.920995 
L 390.757403 120.648405 
L 391.723636 111.855835 
L 392.206753 114.920847 
L 392.68987 95.720189 
L 393.172987 86.408702 
L 393.656104 88.062711 
L 394.139221 84.117098 
L 394.622338 87.143463 
L 395.105455 91.652699 
L 395.588571 81.349765 
L 396.071688 90.900995 
L 396.554805 90.854493 
L 397.037922 92.082662 
L 397.521039 87.995962 
L 398.004156 85.749804 
L 398.487273 92.736955 
L 398.487273 92.736955 
" style="fill:none;stroke:#1f77b4;stroke-linecap:square;stroke-width:0.7;"/>
   </g>
   <g id="line2d_32">
    <path clip-path="url(#p003001339f)" d="M 73.832727 272.340943 
L 74.315844 266.977878 
L 74.798961 259.674656 
L 75.282078 265.579811 
L 75.765195 262.720507 
L 76.248312 263.05861 
L 76.731429 256.852915 
L 77.214545 258.961457 
L 77.697662 258.783222 
L 78.180779 257.365649 
L 78.663896 275.667596 
L 79.147013 276.901145 
L 79.63013 277.700144 
L 80.113247 284.340631 
L 80.596364 275.211124 
L 81.079481 279.831218 
L 81.562597 277.879523 
L 82.045714 277.473296 
L 82.528831 279.569304 
L 83.011948 276.578307 
L 83.495065 281.788023 
L 83.978182 282.007838 
L 84.461299 280.254004 
L 84.944416 281.001758 
L 85.427532 280.737887 
L 85.910649 281.293426 
L 86.393766 281.240192 
L 86.876883 283.084465 
L 87.36 289.767184 
L 87.843117 290.90485 
L 88.326234 285.358506 
L 88.809351 288.089795 
L 89.292468 287.165051 
L 89.775584 285.927416 
L 90.258701 287.674624 
L 90.741818 287.342024 
L 91.224935 287.615121 
L 91.708052 290.81148 
L 92.191169 290.864233 
L 92.674286 277.904534 
L 93.157403 277.546425 
L 93.640519 276.008434 
L 94.123636 279.507204 
L 94.606753 278.167724 
L 95.08987 279.360374 
L 95.572987 280.933819 
L 96.539221 279.209212 
L 97.022338 275.169511 
L 97.505455 264.554583 
L 97.988571 264.068975 
L 98.471688 259.055633 
L 98.954805 262.92771 
L 99.437922 260.976877 
L 99.921039 254.08053 
L 100.404156 272.786982 
L 100.887273 267.364727 
L 101.37039 269.475262 
L 101.853506 270.123413 
L 102.336623 269.642654 
L 102.81974 269.361541 
L 103.785974 271.003425 
L 104.269091 275.804756 
L 104.752208 267.090577 
L 105.235325 266.518642 
L 105.718442 266.53875 
L 106.201558 268.735701 
L 106.684675 264.766285 
L 107.167792 265.308363 
L 107.650909 268.038275 
L 108.134026 266.835602 
L 108.617143 267.33433 
L 109.10026 267.001508 
L 110.066494 259.562422 
L 110.54961 261.382495 
L 111.032727 261.230773 
L 111.998961 259.78471 
L 112.482078 263.25022 
L 112.965195 262.119555 
L 113.448312 260.144666 
L 113.931429 261.687469 
L 114.414545 264.290419 
L 114.897662 264.099543 
L 115.380779 257.358552 
L 115.863896 258.802006 
L 116.347013 255.550658 
L 116.83013 256.188121 
L 117.313247 256.298784 
L 117.796364 254.925042 
L 118.279481 227.601365 
L 118.762597 224.256556 
L 119.245714 228.134687 
L 119.728831 219.439784 
L 120.211948 218.965839 
L 120.695065 213.222968 
L 121.178182 211.278468 
L 121.661299 216.224586 
L 122.144416 211.467106 
L 122.627532 225.457115 
L 123.110649 225.152343 
L 123.593766 226.008735 
L 124.076883 221.977069 
L 124.56 226.434753 
L 125.043117 220.842071 
L 125.526234 220.953351 
L 126.009351 217.943973 
L 126.975584 219.52745 
L 127.458701 222.834959 
L 127.941818 221.323561 
L 128.424935 220.532699 
L 128.908052 227.462377 
L 129.391169 236.241187 
L 129.874286 232.451365 
L 130.357403 233.410067 
L 130.840519 234.915663 
L 131.323636 239.024679 
L 131.806753 230.955528 
L 132.28987 231.141903 
L 132.772987 230.026204 
L 133.256104 222.155447 
L 134.222338 225.079767 
L 134.705455 222.872314 
L 135.188571 223.223471 
L 135.671688 221.68153 
L 136.154805 220.544624 
L 136.637922 216.702801 
L 137.121039 188.685714 
L 137.604156 199.242138 
L 138.087273 183.680226 
L 139.053506 140.754418 
L 139.536623 146.800731 
L 140.01974 165.754715 
L 140.502857 171.167945 
L 140.985974 144.148837 
L 141.469091 152.526743 
L 141.952208 151.187917 
L 142.435325 163.585883 
L 142.918442 159.963654 
L 143.401558 154.376827 
L 143.884675 152.613987 
L 144.367792 134.964478 
L 144.850909 121.648858 
L 145.334026 127.453462 
L 145.817143 124.839335 
L 146.30026 139.058973 
L 146.783377 125.345387 
L 147.266494 129.892154 
L 147.74961 123.087397 
L 148.232727 143.262531 
L 148.715844 157.953336 
L 150.165195 144.189058 
L 150.648312 149.449532 
L 151.131429 161.135198 
L 151.614545 147.601637 
L 152.097662 149.629545 
L 152.580779 140.516118 
L 153.063896 141.500261 
L 153.547013 133.656007 
L 154.996364 117.107965 
L 155.479481 125.395242 
L 155.962597 120.77741 
L 156.445714 118.298435 
L 157.411948 84.368553 
L 157.895065 85.86786 
L 158.378182 82.302453 
L 158.861299 73.411352 
L 159.344416 59.378155 
L 159.827532 105.004354 
L 160.310649 84.809112 
L 160.793766 81.544571 
L 161.276883 110.668712 
L 161.76 108.822898 
L 162.243117 112.034486 
L 162.726234 95.042214 
L 163.209351 112.036796 
L 163.692468 114.900844 
L 164.175584 109.495544 
L 165.141818 90.839392 
L 165.624935 92.08106 
L 166.108052 110.023401 
L 166.591169 133.360558 
L 167.074286 123.466886 
L 167.557403 131.52457 
L 168.040519 165.677832 
L 168.523636 156.655876 
L 169.006753 185.653783 
L 169.48987 176.884331 
L 169.972987 157.495469 
L 170.456104 160.581782 
L 170.939221 151.895151 
L 171.422338 155.049875 
L 172.388571 171.474408 
L 172.871688 169.702754 
L 173.354805 168.434018 
L 173.837922 165.916834 
L 174.321039 177.966776 
L 174.804156 175.025725 
L 175.287273 175.938146 
L 175.77039 174.485413 
L 176.253506 164.144541 
L 177.21974 164.005191 
L 177.702857 159.939833 
L 178.185974 158.551633 
L 178.669091 146.210182 
L 179.152208 153.815159 
L 179.635325 150.956708 
L 180.118442 152.713033 
L 180.601558 163.382809 
L 181.084675 166.853941 
L 181.567792 158.570813 
L 182.534026 167.817703 
L 183.017143 192.578397 
L 183.50026 188.853894 
L 183.983377 191.001312 
L 184.466494 191.507204 
L 185.432727 175.928972 
L 185.915844 181.708232 
L 186.398961 192.118789 
L 186.882078 188.87701 
L 187.365195 184.715409 
L 187.848312 189.646965 
L 188.331429 191.573313 
L 188.814545 188.675627 
L 189.297662 190.901507 
L 189.780779 203.539046 
L 190.263896 209.059034 
L 190.747013 208.075727 
L 191.23013 206.359897 
L 191.713247 205.753169 
L 192.196364 197.911549 
L 192.679481 194.128315 
L 193.162597 197.536032 
L 193.645714 198.808399 
L 194.128831 203.095537 
L 194.611948 195.583705 
L 195.095065 192.898067 
L 195.578182 193.938653 
L 196.544416 197.711019 
L 197.027532 195.514046 
L 197.510649 195.439083 
L 197.993766 190.686292 
L 198.476883 190.799769 
L 198.96 187.376948 
L 199.926234 172.877887 
L 200.409351 170.440966 
L 201.858701 181.807727 
L 202.341818 192.369684 
L 202.824935 224.177062 
L 203.308052 223.474606 
L 203.791169 229.015089 
L 204.274286 225.079285 
L 204.757403 224.446421 
L 205.240519 228.634159 
L 205.723636 219.93612 
L 206.206753 219.180312 
L 206.68987 219.336282 
L 207.172987 221.611965 
L 207.656104 222.464379 
L 208.139221 222.124292 
L 208.622338 226.602796 
L 209.105455 216.201033 
L 209.588571 215.792029 
L 210.071688 207.19445 
L 210.554805 210.716451 
L 211.037922 217.902594 
L 211.521039 217.183527 
L 212.004156 215.910363 
L 212.487273 210.497547 
L 213.453506 220.803267 
L 213.936623 216.34875 
L 214.41974 220.580332 
L 214.902857 221.28572 
L 215.385974 216.976844 
L 215.869091 216.846485 
L 216.352208 220.069373 
L 216.835325 232.307388 
L 217.318442 232.045753 
L 217.801558 207.80719 
L 218.284675 205.792311 
L 218.767792 199.826019 
L 219.250909 202.44203 
L 219.734026 195.193266 
L 220.217143 201.278567 
L 220.70026 201.89649 
L 221.183377 201.28013 
L 221.666494 199.440866 
L 222.14961 201.37527 
L 222.632727 196.447534 
L 223.115844 194.2869 
L 223.598961 191.321065 
L 224.565195 205.506835 
L 225.048312 203.452504 
L 225.531429 198.776027 
L 226.014545 204.299088 
L 226.497662 203.285824 
L 226.980779 203.363085 
L 227.463896 206.863708 
L 227.947013 211.909532 
L 228.913247 209.527932 
L 229.396364 217.921219 
L 229.879481 219.93746 
L 230.362597 221.44529 
L 231.328831 243.223819 
L 231.811948 241.321481 
L 232.295065 252.578006 
L 232.778182 248.221709 
L 233.261299 246.409378 
L 233.744416 240.679903 
L 234.227532 242.02784 
L 234.710649 236.858054 
L 235.193766 240.246167 
L 235.676883 241.734423 
L 236.16 244.816085 
L 236.643117 245.875693 
L 237.126234 248.249457 
L 238.092468 242.79097 
L 238.575584 243.455584 
L 239.058701 241.79939 
L 239.541818 245.312304 
L 240.024935 247.41938 
L 240.508052 248.890954 
L 240.991169 248.61601 
L 241.474286 247.62953 
L 241.957403 251.092675 
L 242.440519 250.532593 
L 242.923636 258.789092 
L 243.406753 269.900868 
L 243.88987 257.787045 
L 244.372987 261.545272 
L 244.856104 260.278545 
L 245.339221 261.57662 
L 245.822338 255.280458 
L 246.305455 259.459356 
L 246.788571 260.268552 
L 247.271688 262.263566 
L 247.754805 261.620596 
L 248.237922 260.009042 
L 248.721039 257.744476 
L 249.204156 254.048373 
L 249.687273 257.197222 
L 250.17039 258.913006 
L 250.653506 258.355951 
L 251.136623 263.232998 
L 251.61974 255.127854 
L 252.102857 254.206961 
L 252.585974 253.529017 
L 253.069091 241.672533 
L 253.552208 240.00937 
L 254.518442 246.187887 
L 255.001558 236.876758 
L 255.484675 239.698322 
L 255.967792 235.466141 
L 256.450909 237.737386 
L 256.934026 213.005105 
L 257.417143 213.108538 
L 257.90026 216.123868 
L 258.383377 206.886809 
L 258.866494 207.678556 
L 259.34961 214.106803 
L 259.832727 214.329673 
L 260.315844 211.760816 
L 260.798961 212.738142 
L 261.282078 220.14764 
L 261.765195 220.705635 
L 262.248312 223.040841 
L 262.731429 214.871766 
L 263.214545 209.507309 
L 263.697662 201.480598 
L 264.180779 202.470889 
L 264.663896 192.093812 
L 265.147013 198.294897 
L 266.113247 192.03228 
L 266.596364 190.783672 
L 267.079481 191.009168 
L 267.562597 176.135331 
L 268.045714 170.444649 
L 268.528831 166.838867 
L 269.011948 165.363945 
L 269.495065 159.788081 
L 269.978182 164.719653 
L 270.461299 154.819193 
L 270.944416 139.866435 
L 271.427532 136.462266 
L 271.910649 126.713725 
L 272.393766 147.547686 
L 272.876883 151.625553 
L 273.36 153.776354 
L 273.843117 143.064351 
L 274.326234 162.751112 
L 274.809351 164.916805 
L 275.292468 160.339718 
L 275.775584 161.726871 
L 276.258701 150.083144 
L 276.741818 160.092901 
L 277.224935 173.048603 
L 277.708052 194.421698 
L 278.191169 193.445916 
L 278.674286 194.016773 
L 279.157403 200.382137 
L 279.640519 200.316519 
L 280.123636 189.415811 
L 280.606753 194.341425 
L 281.08987 194.602187 
L 281.572987 188.955152 
L 282.056104 180.955419 
L 282.539221 188.509234 
L 283.022338 219.342617 
L 283.505455 219.403171 
L 283.988571 219.137721 
L 284.471688 221.918044 
L 284.954805 295.488 
L 285.437922 278.116858 
L 285.921039 287.020715 
L 286.404156 282.87964 
L 286.887273 293.692905 
L 287.37039 286.541209 
L 287.853506 286.81472 
L 288.336623 268.200467 
L 288.81974 271.055586 
L 289.302857 271.016927 
L 289.785974 279.261043 
L 290.269091 266.981756 
L 290.752208 262.209344 
L 291.235325 264.151597 
L 291.718442 260.166548 
L 292.201558 267.636469 
L 292.684675 267.916771 
L 293.167792 275.339573 
L 293.650909 266.80562 
L 294.134026 265.977177 
L 294.617143 262.768658 
L 295.10026 258.569851 
L 295.583377 258.575948 
L 296.066494 256.159001 
L 296.54961 257.854914 
L 297.032727 238.870515 
L 297.515844 242.173997 
L 297.998961 235.364177 
L 298.482078 237.390017 
L 298.965195 249.465451 
L 299.448312 248.81008 
L 299.931429 248.511942 
L 300.414545 250.587799 
L 300.897662 250.318551 
L 301.380779 255.376274 
L 301.863896 242.321777 
L 302.347013 243.196347 
L 302.83013 233.547956 
L 303.313247 238.823167 
L 303.796364 246.237396 
L 304.279481 246.297779 
L 304.762597 237.938762 
L 305.245714 233.570674 
L 306.695065 224.035102 
L 307.178182 223.337286 
L 307.661299 220.846573 
L 308.144416 203.288794 
L 308.627532 211.701966 
L 309.110649 206.421705 
L 309.593766 202.718462 
L 310.076883 206.533844 
L 310.56 208.349119 
L 311.043117 208.453024 
L 311.526234 210.555447 
L 312.009351 198.49138 
L 312.492468 199.330847 
L 312.975584 201.541384 
L 313.458701 221.142536 
L 313.941818 224.407435 
L 314.424935 220.561098 
L 314.908052 212.147185 
L 315.391169 206.662758 
L 315.874286 214.811214 
L 316.840519 207.011092 
L 317.323636 202.494755 
L 317.806753 201.958499 
L 318.28987 205.948318 
L 318.772987 215.912144 
L 319.256104 211.170027 
L 319.739221 211.072027 
L 320.222338 218.336594 
L 320.705455 214.814468 
L 321.188571 216.779586 
L 321.671688 210.879969 
L 322.154805 202.261329 
L 322.637922 203.281699 
L 323.121039 190.628657 
L 323.604156 197.307535 
L 324.087273 183.70723 
L 324.57039 193.588324 
L 325.053506 189.165648 
L 325.536623 187.27801 
L 326.01974 190.205496 
L 326.502857 189.682693 
L 326.985974 188.806588 
L 327.469091 187.517309 
L 327.952208 189.415716 
L 328.435325 186.951139 
L 328.918442 201.862827 
L 329.401558 197.313476 
L 329.884675 196.937896 
L 330.367792 201.166794 
L 330.850909 200.691037 
L 331.334026 198.730725 
L 331.817143 198.374074 
L 332.30026 200.513439 
L 332.783377 203.168995 
L 333.266494 202.523215 
L 333.74961 204.345189 
L 334.232727 194.446027 
L 334.715844 195.190123 
L 335.198961 202.126835 
L 335.682078 203.330165 
L 336.165195 205.236998 
L 336.648312 212.517009 
L 337.131429 209.287555 
L 337.614545 207.144116 
L 338.097662 208.858049 
L 338.580779 204.920837 
L 339.063896 208.098861 
L 339.547013 208.232128 
L 340.03013 205.27561 
L 340.513247 206.737633 
L 340.996364 195.67543 
L 341.479481 196.591988 
L 341.962597 186.580793 
L 342.445714 190.547948 
L 342.928831 191.859084 
L 343.411948 190.727608 
L 343.895065 189.079916 
L 344.378182 191.489286 
L 344.861299 190.312101 
L 345.344416 190.971571 
L 345.827532 194.211936 
L 346.310649 194.407337 
L 346.793766 193.098954 
L 347.276883 191.425051 
L 347.76 195.250639 
L 349.209351 175.963307 
L 349.692468 176.959169 
L 350.175584 162.291114 
L 350.658701 158.985182 
L 351.141818 147.098498 
L 351.624935 143.705459 
L 352.108052 141.65089 
L 353.074286 127.671219 
L 353.557403 104.065579 
L 354.040519 120.847868 
L 354.523636 108.851387 
L 355.006753 108.510837 
L 355.48987 101.718555 
L 355.972987 100.412321 
L 356.456104 109.502934 
L 356.939221 100.041376 
L 357.422338 100.270885 
L 357.905455 94.947356 
L 358.388571 108.328053 
L 358.871688 99.710243 
L 359.354805 84.853702 
L 359.837922 81.304506 
L 360.321039 76.833917 
L 360.804156 73.663216 
L 361.287273 71.994583 
L 362.253506 92.581653 
L 362.736623 87.133187 
L 363.21974 106.558598 
L 363.702857 97.745348 
L 364.185974 100.981137 
L 364.669091 93.685316 
L 365.152208 110.048961 
L 365.635325 107.846482 
L 366.118442 115.617021 
L 366.601558 107.477661 
L 367.084675 103.528507 
L 367.567792 91.252778 
L 368.050909 91.283441 
L 368.534026 76.057729 
L 369.017143 97.193719 
L 369.50026 137.756439 
L 369.983377 129.959487 
L 370.466494 154.5056 
L 370.94961 144.560029 
L 371.432727 144.651932 
L 371.915844 153.070111 
L 372.882078 140.886386 
L 373.365195 139.282245 
L 373.848312 132.742272 
L 374.331429 140.848971 
L 374.814545 134.402813 
L 375.297662 138.547152 
L 375.780779 137.434343 
L 376.263896 130.141443 
L 376.747013 133.773188 
L 377.23013 132.451324 
L 377.713247 140.051701 
L 378.196364 158.621931 
L 378.679481 155.660814 
L 379.162597 168.723897 
L 379.645714 151.191465 
L 380.128831 147.144049 
L 380.611948 146.358012 
L 381.095065 144.086159 
L 381.578182 146.14014 
L 382.061299 143.080688 
L 382.544416 144.565356 
L 383.027532 148.129448 
L 383.510649 153.700016 
L 383.993766 153.999102 
L 384.476883 148.01212 
L 384.96 146.323064 
L 385.443117 153.871816 
L 385.926234 152.056858 
L 387.375584 134.151421 
L 387.858701 131.238289 
L 388.341818 125.510163 
L 388.824935 127.856792 
L 389.791169 130.915382 
L 390.274286 137.92191 
L 390.757403 136.811834 
L 391.240519 132.118771 
L 391.723636 129.367355 
L 392.206753 134.610785 
L 392.68987 116.818658 
L 393.172987 106.621712 
L 393.656104 107.662592 
L 394.139221 103.28714 
L 395.105455 111.336375 
L 395.588571 103.203787 
L 396.071688 112.581605 
L 397.037922 116.503983 
L 398.004156 109.856658 
L 398.487273 117.925256 
L 398.487273 117.925256 
" style="fill:none;stroke:#ff7f0e;stroke-linecap:square;stroke-width:0.7;"/>
   </g>
   <g id="patch_3">
    <path d="M 57.6 307.584 
L 57.6 41.472 
" style="fill:none;stroke:#000000;stroke-linecap:square;stroke-linejoin:miter;stroke-width:0.8;"/>
   </g>
   <g id="patch_4">
    <path d="M 414.72 307.584 
L 414.72 41.472 
" style="fill:none;stroke:#000000;stroke-linecap:square;stroke-linejoin:miter;stroke-width:0.8;"/>
   </g>
   <g id="patch_5">
    <path d="M 57.6 307.584 
L 414.72 307.584 
" style="fill:none;stroke:#000000;stroke-linecap:square;stroke-linejoin:miter;stroke-width:0.8;"/>
   </g>
   <g id="patch_6">
    <path d="M 57.6 41.472 
L 414.72 41.472 
" style="fill:none;stroke:#000000;stroke-linecap:square;stroke-linejoin:miter;stroke-width:0.8;"/>
   </g>
   <g id="text_18">
    <!-- BCI10 2019-01-01 - 2020-11-03 -->
    <g transform="translate(140.929688 35.472)scale(0.12 -0.12)">
     <defs>
      <path d="M 19.671875 34.8125 
L 19.671875 8.109375 
L 35.5 8.109375 
Q 43.453125 8.109375 47.28125 11.40625 
Q 51.125 14.703125 51.125 21.484375 
Q 51.125 28.328125 47.28125 31.5625 
Q 43.453125 34.8125 35.5 34.8125 
z
M 19.671875 64.796875 
L 19.671875 42.828125 
L 34.28125 42.828125 
Q 41.5 42.828125 45.03125 45.53125 
Q 48.578125 48.25 48.578125 53.8125 
Q 48.578125 59.328125 45.03125 62.0625 
Q 41.5 64.796875 34.28125 64.796875 
z
M 9.8125 72.90625 
L 35.015625 72.90625 
Q 46.296875 72.90625 52.390625 68.21875 
Q 58.5 63.53125 58.5 54.890625 
Q 58.5 48.1875 55.375 44.234375 
Q 52.25 40.28125 46.1875 39.3125 
Q 53.46875 37.75 57.5 32.78125 
Q 61.53125 27.828125 61.53125 20.40625 
Q 61.53125 10.640625 54.890625 5.3125 
Q 48.25 0 35.984375 0 
L 9.8125 0 
z
" id="DejaVuSans-66"/>
      <path d="M 64.40625 67.28125 
L 64.40625 56.890625 
Q 59.421875 61.53125 53.78125 63.8125 
Q 48.140625 66.109375 41.796875 66.109375 
Q 29.296875 66.109375 22.65625 58.46875 
Q 16.015625 50.828125 16.015625 36.375 
Q 16.015625 21.96875 22.65625 14.328125 
Q 29.296875 6.6875 41.796875 6.6875 
Q 48.140625 6.6875 53.78125 8.984375 
Q 59.421875 11.28125 64.40625 15.921875 
L 64.40625 5.609375 
Q 59.234375 2.09375 53.4375 0.328125 
Q 47.65625 -1.421875 41.21875 -1.421875 
Q 24.65625 -1.421875 15.125 8.703125 
Q 5.609375 18.84375 5.609375 36.375 
Q 5.609375 53.953125 15.125 64.078125 
Q 24.65625 74.21875 41.21875 74.21875 
Q 47.75 74.21875 53.53125 72.484375 
Q 59.328125 70.75 64.40625 67.28125 
z
" id="DejaVuSans-67"/>
      <path d="M 9.8125 72.90625 
L 19.671875 72.90625 
L 19.671875 0 
L 9.8125 0 
z
" id="DejaVuSans-73"/>
     </defs>
     <use xlink:href="#DejaVuSans-66"/>
     <use x="66.853516" xlink:href="#DejaVuSans-67"/>
     <use x="136.677734" xlink:href="#DejaVuSans-73"/>
     <use x="166.169922" xlink:href="#DejaVuSans-49"/>
     <use x="229.792969" xlink:href="#DejaVuSans-48"/>
     <use x="293.416016" xlink:href="#DejaVuSans-32"/>
     <use x="325.203125" xlink:href="#DejaVuSans-50"/>
     <use x="388.826172" xlink:href="#DejaVuSans-48"/>
     <use x="452.449219" xlink:href="#DejaVuSans-49"/>
     <use x="516.072266" xlink:href="#DejaVuSans-57"/>
     <use x="579.695312" xlink:href="#DejaVuSans-45"/>
     <use x="615.779297" xlink:href="#DejaVuSans-48"/>
     <use x="679.402344" xlink:href="#DejaVuSans-49"/>
     <use x="743.025391" xlink:href="#DejaVuSans-45"/>
     <use x="779.109375" xlink:href="#DejaVuSans-48"/>
     <use x="842.732422" xlink:href="#DejaVuSans-49"/>
     <use x="906.355469" xlink:href="#DejaVuSans-32"/>
     <use x="938.142578" xlink:href="#DejaVuSans-45"/>
     <use x="974.226562" xlink:href="#DejaVuSans-32"/>
     <use x="1006.013672" xlink:href="#DejaVuSans-50"/>
     <use x="1069.636719" xlink:href="#DejaVuSans-48"/>
     <use x="1133.259766" xlink:href="#DejaVuSans-50"/>
     <use x="1196.882812" xlink:href="#DejaVuSans-48"/>
     <use x="1260.505859" xlink:href="#DejaVuSans-45"/>
     <use x="1296.589844" xlink:href="#DejaVuSans-49"/>
     <use x="1360.212891" xlink:href="#DejaVuSans-49"/>
     <use x="1423.835938" xlink:href="#DejaVuSans-45"/>
     <use x="1459.919922" xlink:href="#DejaVuSans-48"/>
     <use x="1523.542969" xlink:href="#DejaVuSans-51"/>
    </g>
   </g>
   <g id="legend_1">
    <g id="patch_7">
     <path d="M 64.6 78.82825 
L 138.485938 78.82825 
Q 140.485938 78.82825 140.485938 76.82825 
L 140.485938 48.472 
Q 140.485938 46.472 138.485938 46.472 
L 64.6 46.472 
Q 62.6 46.472 62.6 48.472 
L 62.6 76.82825 
Q 62.6 78.82825 64.6 78.82825 
z
" style="fill:#ffffff;opacity:0.8;stroke:#cccccc;stroke-linejoin:miter;"/>
    </g>
    <g id="line2d_33">
     <path d="M 66.6 54.570437 
L 86.6 54.570437 
" style="fill:none;stroke:#1f77b4;stroke-linecap:square;stroke-width:0.7;"/>
    </g>
    <g id="line2d_34"/>
    <g id="text_19">
     <!-- baseline -->
     <g transform="translate(94.6 58.070437)scale(0.1 -0.1)">
      <defs>
       <path d="M 48.6875 27.296875 
Q 48.6875 37.203125 44.609375 42.84375 
Q 40.53125 48.484375 33.40625 48.484375 
Q 26.265625 48.484375 22.1875 42.84375 
Q 18.109375 37.203125 18.109375 27.296875 
Q 18.109375 17.390625 22.1875 11.75 
Q 26.265625 6.109375 33.40625 6.109375 
Q 40.53125 6.109375 44.609375 11.75 
Q 48.6875 17.390625 48.6875 27.296875 
z
M 18.109375 46.390625 
Q 20.953125 51.265625 25.265625 53.625 
Q 29.59375 56 35.59375 56 
Q 45.5625 56 51.78125 48.09375 
Q 58.015625 40.1875 58.015625 27.296875 
Q 58.015625 14.40625 51.78125 6.484375 
Q 45.5625 -1.421875 35.59375 -1.421875 
Q 29.59375 -1.421875 25.265625 0.953125 
Q 20.953125 3.328125 18.109375 8.203125 
L 18.109375 0 
L 9.078125 0 
L 9.078125 75.984375 
L 18.109375 75.984375 
z
" id="DejaVuSans-98"/>
       <path d="M 44.28125 53.078125 
L 44.28125 44.578125 
Q 40.484375 46.53125 36.375 47.5 
Q 32.28125 48.484375 27.875 48.484375 
Q 21.1875 48.484375 17.84375 46.4375 
Q 14.5 44.390625 14.5 40.28125 
Q 14.5 37.15625 16.890625 35.375 
Q 19.28125 33.59375 26.515625 31.984375 
L 29.59375 31.296875 
Q 39.15625 29.25 43.1875 25.515625 
Q 47.21875 21.78125 47.21875 15.09375 
Q 47.21875 7.46875 41.1875 3.015625 
Q 35.15625 -1.421875 24.609375 -1.421875 
Q 20.21875 -1.421875 15.453125 -0.5625 
Q 10.6875 0.296875 5.421875 2 
L 5.421875 11.28125 
Q 10.40625 8.6875 15.234375 7.390625 
Q 20.0625 6.109375 24.8125 6.109375 
Q 31.15625 6.109375 34.5625 8.28125 
Q 37.984375 10.453125 37.984375 14.40625 
Q 37.984375 18.0625 35.515625 20.015625 
Q 33.0625 21.96875 24.703125 23.78125 
L 21.578125 24.515625 
Q 13.234375 26.265625 9.515625 29.90625 
Q 5.8125 33.546875 5.8125 39.890625 
Q 5.8125 47.609375 11.28125 51.796875 
Q 16.75 56 26.8125 56 
Q 31.78125 56 36.171875 55.265625 
Q 40.578125 54.546875 44.28125 53.078125 
z
" id="DejaVuSans-115"/>
       <path d="M 9.421875 54.6875 
L 18.40625 54.6875 
L 18.40625 0 
L 9.421875 0 
z
M 9.421875 75.984375 
L 18.40625 75.984375 
L 18.40625 64.59375 
L 9.421875 64.59375 
z
" id="DejaVuSans-105"/>
       <path d="M 54.890625 33.015625 
L 54.890625 0 
L 45.90625 0 
L 45.90625 32.71875 
Q 45.90625 40.484375 42.875 44.328125 
Q 39.84375 48.1875 33.796875 48.1875 
Q 26.515625 48.1875 22.3125 43.546875 
Q 18.109375 38.921875 18.109375 30.90625 
L 18.109375 0 
L 9.078125 0 
L 9.078125 54.6875 
L 18.109375 54.6875 
L 18.109375 46.1875 
Q 21.34375 51.125 25.703125 53.5625 
Q 30.078125 56 35.796875 56 
Q 45.21875 56 50.046875 50.171875 
Q 54.890625 44.34375 54.890625 33.015625 
z
" id="DejaVuSans-110"/>
      </defs>
      <use xlink:href="#DejaVuSans-98"/>
      <use x="63.476562" xlink:href="#DejaVuSans-97"/>
      <use x="124.755859" xlink:href="#DejaVuSans-115"/>
      <use x="176.855469" xlink:href="#DejaVuSans-101"/>
      <use x="238.378906" xlink:href="#DejaVuSans-108"/>
      <use x="266.162109" xlink:href="#DejaVuSans-105"/>
      <use x="293.945312" xlink:href="#DejaVuSans-110"/>
      <use x="357.324219" xlink:href="#DejaVuSans-101"/>
     </g>
    </g>
    <g id="line2d_35">
     <path d="M 66.6 69.248562 
L 86.6 69.248562 
" style="fill:none;stroke:#ff7f0e;stroke-linecap:square;stroke-width:0.7;"/>
    </g>
    <g id="line2d_36"/>
    <g id="text_20">
     <!-- BCI10 -->
     <g transform="translate(94.6 72.748562)scale(0.1 -0.1)">
      <use xlink:href="#DejaVuSans-66"/>
      <use x="66.853516" xlink:href="#DejaVuSans-67"/>
      <use x="136.677734" xlink:href="#DejaVuSans-73"/>
      <use x="166.169922" xlink:href="#DejaVuSans-49"/>
      <use x="229.792969" xlink:href="#DejaVuSans-48"/>
     </g>
    </g>
   </g>
  </g>
 </g>
 <defs>
  <clipPath id="p003001339f">
   <rect height="266.112" width="357.12" x="57.6" y="41.472"/>
  </clipPath>
 </defs>
</svg>
