<?xml version="1.0" encoding="utf-8" standalone="no"?>
<!DOCTYPE svg PUBLIC "-//W3C//DTD SVG 1.1//EN"
  "http://www.w3.org/Graphics/SVG/1.1/DTD/svg11.dtd">
<!-- Created with matplotlib (https://matplotlib.org/) -->
<svg height="345.6pt" version="1.1" viewBox="0 0 460.8 345.6" width="460.8pt" xmlns="http://www.w3.org/2000/svg" xmlns:xlink="http://www.w3.org/1999/xlink">
 <metadata>
  <rdf:RDF xmlns:cc="http://creativecommons.org/ns#" xmlns:dc="http://purl.org/dc/elements/1.1/" xmlns:rdf="http://www.w3.org/1999/02/22-rdf-syntax-ns#">
   <cc:Work>
    <dc:type rdf:resource="http://purl.org/dc/dcmitype/StillImage"/>
    <dc:date>2020-11-12T22:35:24.981916</dc:date>
    <dc:format>image/svg+xml</dc:format>
    <dc:creator>
     <cc:Agent>
      <dc:title>Matplotlib v3.3.3, https://matplotlib.org/</dc:title>
     </cc:Agent>
    </dc:creator>
   </cc:Work>
  </rdf:RDF>
 </metadata>
 <defs>
  <style type="text/css">*{stroke-linecap:butt;stroke-linejoin:round;}</style>
 </defs>
 <g id="figure_1">
  <g id="patch_1">
   <path d="M 0 345.6 
L 460.8 345.6 
L 460.8 0 
L 0 0 
z
" style="fill:#ffffff;"/>
  </g>
  <g id="axes_1">
   <g id="patch_2">
    <path d="M 57.6 307.584 
L 414.72 307.584 
L 414.72 41.472 
L 57.6 41.472 
z
" style="fill:#ffffff;"/>
   </g>
   <g id="matplotlib.axis_1">
    <g id="xtick_1">
     <g id="line2d_1">
      <path clip-path="url(#p96e957eb16)" d="M 137.283127 307.584 
L 137.283127 41.472 
" style="fill:none;stroke:#b0b0b0;stroke-dasharray:1.85,0.8;stroke-dashoffset:0;stroke-width:0.5;"/>
     </g>
     <g id="line2d_2">
      <defs>
       <path d="M 0 0 
L 0 3.5 
" id="m7d0300c56c" style="stroke:#000000;stroke-width:0.8;"/>
      </defs>
      <g>
       <use style="stroke:#000000;stroke-width:0.8;" x="137.283127" xlink:href="#m7d0300c56c" y="307.584"/>
      </g>
     </g>
     <g id="text_1">
      <!-- 2020-03-01 -->
      <g transform="translate(126.125645 342.464116)rotate(-45)scale(0.06 -0.06)">
       <defs>
        <path d="M 19.1875 8.296875 
L 53.609375 8.296875 
L 53.609375 0 
L 7.328125 0 
L 7.328125 8.296875 
Q 12.9375 14.109375 22.625 23.890625 
Q 32.328125 33.6875 34.8125 36.53125 
Q 39.546875 41.84375 41.421875 45.53125 
Q 43.3125 49.21875 43.3125 52.78125 
Q 43.3125 58.59375 39.234375 62.25 
Q 35.15625 65.921875 28.609375 65.921875 
Q 23.96875 65.921875 18.8125 64.3125 
Q 13.671875 62.703125 7.8125 59.421875 
L 7.8125 69.390625 
Q 13.765625 71.78125 18.9375 73 
Q 24.125 74.21875 28.421875 74.21875 
Q 39.75 74.21875 46.484375 68.546875 
Q 53.21875 62.890625 53.21875 53.421875 
Q 53.21875 48.921875 51.53125 44.890625 
Q 49.859375 40.875 45.40625 35.40625 
Q 44.1875 33.984375 37.640625 27.21875 
Q 31.109375 20.453125 19.1875 8.296875 
z
" id="DejaVuSans-50"/>
        <path d="M 31.78125 66.40625 
Q 24.171875 66.40625 20.328125 58.90625 
Q 16.5 51.421875 16.5 36.375 
Q 16.5 21.390625 20.328125 13.890625 
Q 24.171875 6.390625 31.78125 6.390625 
Q 39.453125 6.390625 43.28125 13.890625 
Q 47.125 21.390625 47.125 36.375 
Q 47.125 51.421875 43.28125 58.90625 
Q 39.453125 66.40625 31.78125 66.40625 
z
M 31.78125 74.21875 
Q 44.046875 74.21875 50.515625 64.515625 
Q 56.984375 54.828125 56.984375 36.375 
Q 56.984375 17.96875 50.515625 8.265625 
Q 44.046875 -1.421875 31.78125 -1.421875 
Q 19.53125 -1.421875 13.0625 8.265625 
Q 6.59375 17.96875 6.59375 36.375 
Q 6.59375 54.828125 13.0625 64.515625 
Q 19.53125 74.21875 31.78125 74.21875 
z
" id="DejaVuSans-48"/>
        <path d="M 4.890625 31.390625 
L 31.203125 31.390625 
L 31.203125 23.390625 
L 4.890625 23.390625 
z
" id="DejaVuSans-45"/>
        <path d="M 40.578125 39.3125 
Q 47.65625 37.796875 51.625 33 
Q 55.609375 28.21875 55.609375 21.1875 
Q 55.609375 10.40625 48.1875 4.484375 
Q 40.765625 -1.421875 27.09375 -1.421875 
Q 22.515625 -1.421875 17.65625 -0.515625 
Q 12.796875 0.390625 7.625 2.203125 
L 7.625 11.71875 
Q 11.71875 9.328125 16.59375 8.109375 
Q 21.484375 6.890625 26.8125 6.890625 
Q 36.078125 6.890625 40.9375 10.546875 
Q 45.796875 14.203125 45.796875 21.1875 
Q 45.796875 27.640625 41.28125 31.265625 
Q 36.765625 34.90625 28.71875 34.90625 
L 20.21875 34.90625 
L 20.21875 43.015625 
L 29.109375 43.015625 
Q 36.375 43.015625 40.234375 45.921875 
Q 44.09375 48.828125 44.09375 54.296875 
Q 44.09375 59.90625 40.109375 62.90625 
Q 36.140625 65.921875 28.71875 65.921875 
Q 24.65625 65.921875 20.015625 65.03125 
Q 15.375 64.15625 9.8125 62.3125 
L 9.8125 71.09375 
Q 15.4375 72.65625 20.34375 73.4375 
Q 25.25 74.21875 29.59375 74.21875 
Q 40.828125 74.21875 47.359375 69.109375 
Q 53.90625 64.015625 53.90625 55.328125 
Q 53.90625 49.265625 50.4375 45.09375 
Q 46.96875 40.921875 40.578125 39.3125 
z
" id="DejaVuSans-51"/>
        <path d="M 12.40625 8.296875 
L 28.515625 8.296875 
L 28.515625 63.921875 
L 10.984375 60.40625 
L 10.984375 69.390625 
L 28.421875 72.90625 
L 38.28125 72.90625 
L 38.28125 8.296875 
L 54.390625 8.296875 
L 54.390625 0 
L 12.40625 0 
z
" id="DejaVuSans-49"/>
       </defs>
       <use xlink:href="#DejaVuSans-50"/>
       <use x="63.623047" xlink:href="#DejaVuSans-48"/>
       <use x="127.246094" xlink:href="#DejaVuSans-50"/>
       <use x="190.869141" xlink:href="#DejaVuSans-48"/>
       <use x="254.492188" xlink:href="#DejaVuSans-45"/>
       <use x="290.576172" xlink:href="#DejaVuSans-48"/>
       <use x="354.199219" xlink:href="#DejaVuSans-51"/>
       <use x="417.822266" xlink:href="#DejaVuSans-45"/>
       <use x="453.90625" xlink:href="#DejaVuSans-48"/>
       <use x="517.529297" xlink:href="#DejaVuSans-49"/>
      </g>
     </g>
    </g>
    <g id="xtick_2">
     <g id="line2d_3">
      <path clip-path="url(#p96e957eb16)" d="M 234.57374 307.584 
L 234.57374 41.472 
" style="fill:none;stroke:#b0b0b0;stroke-dasharray:1.85,0.8;stroke-dashoffset:0;stroke-width:0.5;"/>
     </g>
     <g id="line2d_4">
      <g>
       <use style="stroke:#000000;stroke-width:0.8;" x="234.57374" xlink:href="#m7d0300c56c" y="307.584"/>
      </g>
     </g>
     <g id="text_2">
      <!-- 2020-06-01 -->
      <g transform="translate(223.416258 342.464116)rotate(-45)scale(0.06 -0.06)">
       <defs>
        <path d="M 33.015625 40.375 
Q 26.375 40.375 22.484375 35.828125 
Q 18.609375 31.296875 18.609375 23.390625 
Q 18.609375 15.53125 22.484375 10.953125 
Q 26.375 6.390625 33.015625 6.390625 
Q 39.65625 6.390625 43.53125 10.953125 
Q 47.40625 15.53125 47.40625 23.390625 
Q 47.40625 31.296875 43.53125 35.828125 
Q 39.65625 40.375 33.015625 40.375 
z
M 52.59375 71.296875 
L 52.59375 62.3125 
Q 48.875 64.0625 45.09375 64.984375 
Q 41.3125 65.921875 37.59375 65.921875 
Q 27.828125 65.921875 22.671875 59.328125 
Q 17.53125 52.734375 16.796875 39.40625 
Q 19.671875 43.65625 24.015625 45.921875 
Q 28.375 48.1875 33.59375 48.1875 
Q 44.578125 48.1875 50.953125 41.515625 
Q 57.328125 34.859375 57.328125 23.390625 
Q 57.328125 12.15625 50.6875 5.359375 
Q 44.046875 -1.421875 33.015625 -1.421875 
Q 20.359375 -1.421875 13.671875 8.265625 
Q 6.984375 17.96875 6.984375 36.375 
Q 6.984375 53.65625 15.1875 63.9375 
Q 23.390625 74.21875 37.203125 74.21875 
Q 40.921875 74.21875 44.703125 73.484375 
Q 48.484375 72.75 52.59375 71.296875 
z
" id="DejaVuSans-54"/>
       </defs>
       <use xlink:href="#DejaVuSans-50"/>
       <use x="63.623047" xlink:href="#DejaVuSans-48"/>
       <use x="127.246094" xlink:href="#DejaVuSans-50"/>
       <use x="190.869141" xlink:href="#DejaVuSans-48"/>
       <use x="254.492188" xlink:href="#DejaVuSans-45"/>
       <use x="290.576172" xlink:href="#DejaVuSans-48"/>
       <use x="354.199219" xlink:href="#DejaVuSans-54"/>
       <use x="417.822266" xlink:href="#DejaVuSans-45"/>
       <use x="453.90625" xlink:href="#DejaVuSans-48"/>
       <use x="517.529297" xlink:href="#DejaVuSans-49"/>
      </g>
     </g>
    </g>
    <g id="xtick_3">
     <g id="line2d_5">
      <path clip-path="url(#p96e957eb16)" d="M 331.864353 307.584 
L 331.864353 41.472 
" style="fill:none;stroke:#b0b0b0;stroke-dasharray:1.85,0.8;stroke-dashoffset:0;stroke-width:0.5;"/>
     </g>
     <g id="line2d_6">
      <g>
       <use style="stroke:#000000;stroke-width:0.8;" x="331.864353" xlink:href="#m7d0300c56c" y="307.584"/>
      </g>
     </g>
     <g id="text_3">
      <!-- 2020-09-01 -->
      <g transform="translate(320.706871 342.464116)rotate(-45)scale(0.06 -0.06)">
       <defs>
        <path d="M 10.984375 1.515625 
L 10.984375 10.5 
Q 14.703125 8.734375 18.5 7.8125 
Q 22.3125 6.890625 25.984375 6.890625 
Q 35.75 6.890625 40.890625 13.453125 
Q 46.046875 20.015625 46.78125 33.40625 
Q 43.953125 29.203125 39.59375 26.953125 
Q 35.25 24.703125 29.984375 24.703125 
Q 19.046875 24.703125 12.671875 31.3125 
Q 6.296875 37.9375 6.296875 49.421875 
Q 6.296875 60.640625 12.9375 67.421875 
Q 19.578125 74.21875 30.609375 74.21875 
Q 43.265625 74.21875 49.921875 64.515625 
Q 56.59375 54.828125 56.59375 36.375 
Q 56.59375 19.140625 48.40625 8.859375 
Q 40.234375 -1.421875 26.421875 -1.421875 
Q 22.703125 -1.421875 18.890625 -0.6875 
Q 15.09375 0.046875 10.984375 1.515625 
z
M 30.609375 32.421875 
Q 37.25 32.421875 41.125 36.953125 
Q 45.015625 41.5 45.015625 49.421875 
Q 45.015625 57.28125 41.125 61.84375 
Q 37.25 66.40625 30.609375 66.40625 
Q 23.96875 66.40625 20.09375 61.84375 
Q 16.21875 57.28125 16.21875 49.421875 
Q 16.21875 41.5 20.09375 36.953125 
Q 23.96875 32.421875 30.609375 32.421875 
z
" id="DejaVuSans-57"/>
       </defs>
       <use xlink:href="#DejaVuSans-50"/>
       <use x="63.623047" xlink:href="#DejaVuSans-48"/>
       <use x="127.246094" xlink:href="#DejaVuSans-50"/>
       <use x="190.869141" xlink:href="#DejaVuSans-48"/>
       <use x="254.492188" xlink:href="#DejaVuSans-45"/>
       <use x="290.576172" xlink:href="#DejaVuSans-48"/>
       <use x="354.199219" xlink:href="#DejaVuSans-57"/>
       <use x="417.822266" xlink:href="#DejaVuSans-45"/>
       <use x="453.90625" xlink:href="#DejaVuSans-48"/>
       <use x="517.529297" xlink:href="#DejaVuSans-49"/>
      </g>
     </g>
    </g>
    <g id="text_4">
     <!-- Date -->
     <g transform="translate(224.209219 354.94489)scale(0.1 -0.1)">
      <defs>
       <path d="M 19.671875 64.796875 
L 19.671875 8.109375 
L 31.59375 8.109375 
Q 46.6875 8.109375 53.6875 14.9375 
Q 60.6875 21.78125 60.6875 36.53125 
Q 60.6875 51.171875 53.6875 57.984375 
Q 46.6875 64.796875 31.59375 64.796875 
z
M 9.8125 72.90625 
L 30.078125 72.90625 
Q 51.265625 72.90625 61.171875 64.09375 
Q 71.09375 55.28125 71.09375 36.53125 
Q 71.09375 17.671875 61.125 8.828125 
Q 51.171875 0 30.078125 0 
L 9.8125 0 
z
" id="DejaVuSans-68"/>
       <path d="M 34.28125 27.484375 
Q 23.390625 27.484375 19.1875 25 
Q 14.984375 22.515625 14.984375 16.5 
Q 14.984375 11.71875 18.140625 8.90625 
Q 21.296875 6.109375 26.703125 6.109375 
Q 34.1875 6.109375 38.703125 11.40625 
Q 43.21875 16.703125 43.21875 25.484375 
L 43.21875 27.484375 
z
M 52.203125 31.203125 
L 52.203125 0 
L 43.21875 0 
L 43.21875 8.296875 
Q 40.140625 3.328125 35.546875 0.953125 
Q 30.953125 -1.421875 24.3125 -1.421875 
Q 15.921875 -1.421875 10.953125 3.296875 
Q 6 8.015625 6 15.921875 
Q 6 25.140625 12.171875 29.828125 
Q 18.359375 34.515625 30.609375 34.515625 
L 43.21875 34.515625 
L 43.21875 35.40625 
Q 43.21875 41.609375 39.140625 45 
Q 35.0625 48.390625 27.6875 48.390625 
Q 23 48.390625 18.546875 47.265625 
Q 14.109375 46.140625 10.015625 43.890625 
L 10.015625 52.203125 
Q 14.9375 54.109375 19.578125 55.046875 
Q 24.21875 56 28.609375 56 
Q 40.484375 56 46.34375 49.84375 
Q 52.203125 43.703125 52.203125 31.203125 
z
" id="DejaVuSans-97"/>
       <path d="M 18.3125 70.21875 
L 18.3125 54.6875 
L 36.8125 54.6875 
L 36.8125 47.703125 
L 18.3125 47.703125 
L 18.3125 18.015625 
Q 18.3125 11.328125 20.140625 9.421875 
Q 21.96875 7.515625 27.59375 7.515625 
L 36.8125 7.515625 
L 36.8125 0 
L 27.59375 0 
Q 17.1875 0 13.234375 3.875 
Q 9.28125 7.765625 9.28125 18.015625 
L 9.28125 47.703125 
L 2.6875 47.703125 
L 2.6875 54.6875 
L 9.28125 54.6875 
L 9.28125 70.21875 
z
" id="DejaVuSans-116"/>
       <path d="M 56.203125 29.59375 
L 56.203125 25.203125 
L 14.890625 25.203125 
Q 15.484375 15.921875 20.484375 11.0625 
Q 25.484375 6.203125 34.421875 6.203125 
Q 39.59375 6.203125 44.453125 7.46875 
Q 49.3125 8.734375 54.109375 11.28125 
L 54.109375 2.78125 
Q 49.265625 0.734375 44.1875 -0.34375 
Q 39.109375 -1.421875 33.890625 -1.421875 
Q 20.796875 -1.421875 13.15625 6.1875 
Q 5.515625 13.8125 5.515625 26.8125 
Q 5.515625 40.234375 12.765625 48.109375 
Q 20.015625 56 32.328125 56 
Q 43.359375 56 49.78125 48.890625 
Q 56.203125 41.796875 56.203125 29.59375 
z
M 47.21875 32.234375 
Q 47.125 39.59375 43.09375 43.984375 
Q 39.0625 48.390625 32.421875 48.390625 
Q 24.90625 48.390625 20.390625 44.140625 
Q 15.875 39.890625 15.1875 32.171875 
z
" id="DejaVuSans-101"/>
      </defs>
      <use xlink:href="#DejaVuSans-68"/>
      <use x="77.001953" xlink:href="#DejaVuSans-97"/>
      <use x="138.28125" xlink:href="#DejaVuSans-116"/>
      <use x="177.490234" xlink:href="#DejaVuSans-101"/>
     </g>
    </g>
   </g>
   <g id="matplotlib.axis_2">
    <g id="ytick_1">
     <g id="line2d_7">
      <path clip-path="url(#p96e957eb16)" d="M 57.6 289.308014 
L 414.72 289.308014 
" style="fill:none;stroke:#b0b0b0;stroke-dasharray:1.85,0.8;stroke-dashoffset:0;stroke-width:0.5;"/>
     </g>
     <g id="line2d_8">
      <defs>
       <path d="M 0 0 
L -3.5 0 
" id="mac90d9ec32" style="stroke:#000000;stroke-width:0.8;"/>
      </defs>
      <g>
       <use style="stroke:#000000;stroke-width:0.8;" x="57.6" xlink:href="#mac90d9ec32" y="289.308014"/>
      </g>
     </g>
     <g id="text_5">
      <!-- 800 -->
      <g transform="translate(31.5125 293.107233)scale(0.1 -0.1)">
       <defs>
        <path d="M 31.78125 34.625 
Q 24.75 34.625 20.71875 30.859375 
Q 16.703125 27.09375 16.703125 20.515625 
Q 16.703125 13.921875 20.71875 10.15625 
Q 24.75 6.390625 31.78125 6.390625 
Q 38.8125 6.390625 42.859375 10.171875 
Q 46.921875 13.96875 46.921875 20.515625 
Q 46.921875 27.09375 42.890625 30.859375 
Q 38.875 34.625 31.78125 34.625 
z
M 21.921875 38.8125 
Q 15.578125 40.375 12.03125 44.71875 
Q 8.5 49.078125 8.5 55.328125 
Q 8.5 64.0625 14.71875 69.140625 
Q 20.953125 74.21875 31.78125 74.21875 
Q 42.671875 74.21875 48.875 69.140625 
Q 55.078125 64.0625 55.078125 55.328125 
Q 55.078125 49.078125 51.53125 44.71875 
Q 48 40.375 41.703125 38.8125 
Q 48.828125 37.15625 52.796875 32.3125 
Q 56.78125 27.484375 56.78125 20.515625 
Q 56.78125 9.90625 50.3125 4.234375 
Q 43.84375 -1.421875 31.78125 -1.421875 
Q 19.734375 -1.421875 13.25 4.234375 
Q 6.78125 9.90625 6.78125 20.515625 
Q 6.78125 27.484375 10.78125 32.3125 
Q 14.796875 37.15625 21.921875 38.8125 
z
M 18.3125 54.390625 
Q 18.3125 48.734375 21.84375 45.5625 
Q 25.390625 42.390625 31.78125 42.390625 
Q 38.140625 42.390625 41.71875 45.5625 
Q 45.3125 48.734375 45.3125 54.390625 
Q 45.3125 60.0625 41.71875 63.234375 
Q 38.140625 66.40625 31.78125 66.40625 
Q 25.390625 66.40625 21.84375 63.234375 
Q 18.3125 60.0625 18.3125 54.390625 
z
" id="DejaVuSans-56"/>
       </defs>
       <use xlink:href="#DejaVuSans-56"/>
       <use x="63.623047" xlink:href="#DejaVuSans-48"/>
       <use x="127.246094" xlink:href="#DejaVuSans-48"/>
      </g>
     </g>
    </g>
    <g id="ytick_2">
     <g id="line2d_9">
      <path clip-path="url(#p96e957eb16)" d="M 57.6 256.884312 
L 414.72 256.884312 
" style="fill:none;stroke:#b0b0b0;stroke-dasharray:1.85,0.8;stroke-dashoffset:0;stroke-width:0.5;"/>
     </g>
     <g id="line2d_10">
      <g>
       <use style="stroke:#000000;stroke-width:0.8;" x="57.6" xlink:href="#mac90d9ec32" y="256.884312"/>
      </g>
     </g>
     <g id="text_6">
      <!-- 1000 -->
      <g transform="translate(25.15 260.683531)scale(0.1 -0.1)">
       <use xlink:href="#DejaVuSans-49"/>
       <use x="63.623047" xlink:href="#DejaVuSans-48"/>
       <use x="127.246094" xlink:href="#DejaVuSans-48"/>
       <use x="190.869141" xlink:href="#DejaVuSans-48"/>
      </g>
     </g>
    </g>
    <g id="ytick_3">
     <g id="line2d_11">
      <path clip-path="url(#p96e957eb16)" d="M 57.6 224.46061 
L 414.72 224.46061 
" style="fill:none;stroke:#b0b0b0;stroke-dasharray:1.85,0.8;stroke-dashoffset:0;stroke-width:0.5;"/>
     </g>
     <g id="line2d_12">
      <g>
       <use style="stroke:#000000;stroke-width:0.8;" x="57.6" xlink:href="#mac90d9ec32" y="224.46061"/>
      </g>
     </g>
     <g id="text_7">
      <!-- 1200 -->
      <g transform="translate(25.15 228.259829)scale(0.1 -0.1)">
       <use xlink:href="#DejaVuSans-49"/>
       <use x="63.623047" xlink:href="#DejaVuSans-50"/>
       <use x="127.246094" xlink:href="#DejaVuSans-48"/>
       <use x="190.869141" xlink:href="#DejaVuSans-48"/>
      </g>
     </g>
    </g>
    <g id="ytick_4">
     <g id="line2d_13">
      <path clip-path="url(#p96e957eb16)" d="M 57.6 192.036908 
L 414.72 192.036908 
" style="fill:none;stroke:#b0b0b0;stroke-dasharray:1.85,0.8;stroke-dashoffset:0;stroke-width:0.5;"/>
     </g>
     <g id="line2d_14">
      <g>
       <use style="stroke:#000000;stroke-width:0.8;" x="57.6" xlink:href="#mac90d9ec32" y="192.036908"/>
      </g>
     </g>
     <g id="text_8">
      <!-- 1400 -->
      <g transform="translate(25.15 195.836126)scale(0.1 -0.1)">
       <defs>
        <path d="M 37.796875 64.3125 
L 12.890625 25.390625 
L 37.796875 25.390625 
z
M 35.203125 72.90625 
L 47.609375 72.90625 
L 47.609375 25.390625 
L 58.015625 25.390625 
L 58.015625 17.1875 
L 47.609375 17.1875 
L 47.609375 0 
L 37.796875 0 
L 37.796875 17.1875 
L 4.890625 17.1875 
L 4.890625 26.703125 
z
" id="DejaVuSans-52"/>
       </defs>
       <use xlink:href="#DejaVuSans-49"/>
       <use x="63.623047" xlink:href="#DejaVuSans-52"/>
       <use x="127.246094" xlink:href="#DejaVuSans-48"/>
       <use x="190.869141" xlink:href="#DejaVuSans-48"/>
      </g>
     </g>
    </g>
    <g id="ytick_5">
     <g id="line2d_15">
      <path clip-path="url(#p96e957eb16)" d="M 57.6 159.613206 
L 414.72 159.613206 
" style="fill:none;stroke:#b0b0b0;stroke-dasharray:1.85,0.8;stroke-dashoffset:0;stroke-width:0.5;"/>
     </g>
     <g id="line2d_16">
      <g>
       <use style="stroke:#000000;stroke-width:0.8;" x="57.6" xlink:href="#mac90d9ec32" y="159.613206"/>
      </g>
     </g>
     <g id="text_9">
      <!-- 1600 -->
      <g transform="translate(25.15 163.412424)scale(0.1 -0.1)">
       <use xlink:href="#DejaVuSans-49"/>
       <use x="63.623047" xlink:href="#DejaVuSans-54"/>
       <use x="127.246094" xlink:href="#DejaVuSans-48"/>
       <use x="190.869141" xlink:href="#DejaVuSans-48"/>
      </g>
     </g>
    </g>
    <g id="ytick_6">
     <g id="line2d_17">
      <path clip-path="url(#p96e957eb16)" d="M 57.6 127.189503 
L 414.72 127.189503 
" style="fill:none;stroke:#b0b0b0;stroke-dasharray:1.85,0.8;stroke-dashoffset:0;stroke-width:0.5;"/>
     </g>
     <g id="line2d_18">
      <g>
       <use style="stroke:#000000;stroke-width:0.8;" x="57.6" xlink:href="#mac90d9ec32" y="127.189503"/>
      </g>
     </g>
     <g id="text_10">
      <!-- 1800 -->
      <g transform="translate(25.15 130.988722)scale(0.1 -0.1)">
       <use xlink:href="#DejaVuSans-49"/>
       <use x="63.623047" xlink:href="#DejaVuSans-56"/>
       <use x="127.246094" xlink:href="#DejaVuSans-48"/>
       <use x="190.869141" xlink:href="#DejaVuSans-48"/>
      </g>
     </g>
    </g>
    <g id="ytick_7">
     <g id="line2d_19">
      <path clip-path="url(#p96e957eb16)" d="M 57.6 94.765801 
L 414.72 94.765801 
" style="fill:none;stroke:#b0b0b0;stroke-dasharray:1.85,0.8;stroke-dashoffset:0;stroke-width:0.5;"/>
     </g>
     <g id="line2d_20">
      <g>
       <use style="stroke:#000000;stroke-width:0.8;" x="57.6" xlink:href="#mac90d9ec32" y="94.765801"/>
      </g>
     </g>
     <g id="text_11">
      <!-- 2000 -->
      <g transform="translate(25.15 98.56502)scale(0.1 -0.1)">
       <use xlink:href="#DejaVuSans-50"/>
       <use x="63.623047" xlink:href="#DejaVuSans-48"/>
       <use x="127.246094" xlink:href="#DejaVuSans-48"/>
       <use x="190.869141" xlink:href="#DejaVuSans-48"/>
      </g>
     </g>
    </g>
    <g id="ytick_8">
     <g id="line2d_21">
      <path clip-path="url(#p96e957eb16)" d="M 57.6 62.342099 
L 414.72 62.342099 
" style="fill:none;stroke:#b0b0b0;stroke-dasharray:1.85,0.8;stroke-dashoffset:0;stroke-width:0.5;"/>
     </g>
     <g id="line2d_22">
      <g>
       <use style="stroke:#000000;stroke-width:0.8;" x="57.6" xlink:href="#mac90d9ec32" y="62.342099"/>
      </g>
     </g>
     <g id="text_12">
      <!-- 2200 -->
      <g transform="translate(25.15 66.141318)scale(0.1 -0.1)">
       <use xlink:href="#DejaVuSans-50"/>
       <use x="63.623047" xlink:href="#DejaVuSans-50"/>
       <use x="127.246094" xlink:href="#DejaVuSans-48"/>
       <use x="190.869141" xlink:href="#DejaVuSans-48"/>
      </g>
     </g>
    </g>
    <g id="text_13">
     <!-- Value (USD) -->
     <g transform="translate(19.070312 204.433469)rotate(-90)scale(0.1 -0.1)">
      <defs>
       <path d="M 28.609375 0 
L 0.78125 72.90625 
L 11.078125 72.90625 
L 34.1875 11.53125 
L 57.328125 72.90625 
L 67.578125 72.90625 
L 39.796875 0 
z
" id="DejaVuSans-86"/>
       <path d="M 9.421875 75.984375 
L 18.40625 75.984375 
L 18.40625 0 
L 9.421875 0 
z
" id="DejaVuSans-108"/>
       <path d="M 8.5 21.578125 
L 8.5 54.6875 
L 17.484375 54.6875 
L 17.484375 21.921875 
Q 17.484375 14.15625 20.5 10.265625 
Q 23.53125 6.390625 29.59375 6.390625 
Q 36.859375 6.390625 41.078125 11.03125 
Q 45.3125 15.671875 45.3125 23.6875 
L 45.3125 54.6875 
L 54.296875 54.6875 
L 54.296875 0 
L 45.3125 0 
L 45.3125 8.40625 
Q 42.046875 3.421875 37.71875 1 
Q 33.40625 -1.421875 27.6875 -1.421875 
Q 18.265625 -1.421875 13.375 4.4375 
Q 8.5 10.296875 8.5 21.578125 
z
M 31.109375 56 
z
" id="DejaVuSans-117"/>
       <path id="DejaVuSans-32"/>
       <path d="M 31 75.875 
Q 24.46875 64.65625 21.28125 53.65625 
Q 18.109375 42.671875 18.109375 31.390625 
Q 18.109375 20.125 21.3125 9.0625 
Q 24.515625 -2 31 -13.1875 
L 23.1875 -13.1875 
Q 15.875 -1.703125 12.234375 9.375 
Q 8.59375 20.453125 8.59375 31.390625 
Q 8.59375 42.28125 12.203125 53.3125 
Q 15.828125 64.359375 23.1875 75.875 
z
" id="DejaVuSans-40"/>
       <path d="M 8.6875 72.90625 
L 18.609375 72.90625 
L 18.609375 28.609375 
Q 18.609375 16.890625 22.84375 11.734375 
Q 27.09375 6.59375 36.625 6.59375 
Q 46.09375 6.59375 50.34375 11.734375 
Q 54.59375 16.890625 54.59375 28.609375 
L 54.59375 72.90625 
L 64.5 72.90625 
L 64.5 27.390625 
Q 64.5 13.140625 57.4375 5.859375 
Q 50.390625 -1.421875 36.625 -1.421875 
Q 22.796875 -1.421875 15.734375 5.859375 
Q 8.6875 13.140625 8.6875 27.390625 
z
" id="DejaVuSans-85"/>
       <path d="M 53.515625 70.515625 
L 53.515625 60.890625 
Q 47.90625 63.578125 42.921875 64.890625 
Q 37.9375 66.21875 33.296875 66.21875 
Q 25.25 66.21875 20.875 63.09375 
Q 16.5 59.96875 16.5 54.203125 
Q 16.5 49.359375 19.40625 46.890625 
Q 22.3125 44.4375 30.421875 42.921875 
L 36.375 41.703125 
Q 47.40625 39.59375 52.65625 34.296875 
Q 57.90625 29 57.90625 20.125 
Q 57.90625 9.515625 50.796875 4.046875 
Q 43.703125 -1.421875 29.984375 -1.421875 
Q 24.8125 -1.421875 18.96875 -0.25 
Q 13.140625 0.921875 6.890625 3.21875 
L 6.890625 13.375 
Q 12.890625 10.015625 18.65625 8.296875 
Q 24.421875 6.59375 29.984375 6.59375 
Q 38.421875 6.59375 43.015625 9.90625 
Q 47.609375 13.234375 47.609375 19.390625 
Q 47.609375 24.75 44.3125 27.78125 
Q 41.015625 30.8125 33.5 32.328125 
L 27.484375 33.5 
Q 16.453125 35.6875 11.515625 40.375 
Q 6.59375 45.0625 6.59375 53.421875 
Q 6.59375 63.09375 13.40625 68.65625 
Q 20.21875 74.21875 32.171875 74.21875 
Q 37.3125 74.21875 42.625 73.28125 
Q 47.953125 72.359375 53.515625 70.515625 
z
" id="DejaVuSans-83"/>
       <path d="M 8.015625 75.875 
L 15.828125 75.875 
Q 23.140625 64.359375 26.78125 53.3125 
Q 30.421875 42.28125 30.421875 31.390625 
Q 30.421875 20.453125 26.78125 9.375 
Q 23.140625 -1.703125 15.828125 -13.1875 
L 8.015625 -13.1875 
Q 14.5 -2 17.703125 9.0625 
Q 20.90625 20.125 20.90625 31.390625 
Q 20.90625 42.671875 17.703125 53.65625 
Q 14.5 64.65625 8.015625 75.875 
z
" id="DejaVuSans-41"/>
      </defs>
      <use xlink:href="#DejaVuSans-86"/>
      <use x="60.658203" xlink:href="#DejaVuSans-97"/>
      <use x="121.9375" xlink:href="#DejaVuSans-108"/>
      <use x="149.720703" xlink:href="#DejaVuSans-117"/>
      <use x="213.099609" xlink:href="#DejaVuSans-101"/>
      <use x="274.623047" xlink:href="#DejaVuSans-32"/>
      <use x="306.410156" xlink:href="#DejaVuSans-40"/>
      <use x="345.423828" xlink:href="#DejaVuSans-85"/>
      <use x="418.617188" xlink:href="#DejaVuSans-83"/>
      <use x="482.09375" xlink:href="#DejaVuSans-68"/>
      <use x="559.095703" xlink:href="#DejaVuSans-41"/>
     </g>
    </g>
   </g>
   <g id="line2d_23">
    <path clip-path="url(#p96e957eb16)" d="M 73.832727 256.884312 
L 74.890234 256.319231 
L 75.947741 261.766836 
L 77.005247 253.401582 
L 78.062754 252.448986 
L 79.120261 251.920562 
L 80.177767 239.537551 
L 81.235274 237.748088 
L 83.350287 244.3599 
L 84.407794 234.415602 
L 85.465301 237.400691 
L 86.522807 232.954264 
L 87.580314 235.359921 
L 88.637821 209.286044 
L 89.695327 209.684241 
L 90.752834 212.39259 
L 91.810341 202.849439 
L 92.867847 203.547014 
L 93.925354 210.380845 
L 94.982861 210.241106 
L 96.040367 207.692961 
L 97.097874 208.555786 
L 98.155381 216.330839 
L 99.212887 216.982601 
L 100.270394 219.486995 
L 101.327901 210.887697 
L 102.385407 205.294638 
L 103.442914 196.85455 
L 104.50042 197.98885 
L 105.557927 187.012239 
L 106.615434 193.48162 
L 108.730447 186.265099 
L 109.787954 184.722944 
L 110.84546 184.958134 
L 111.902967 168.687348 
L 112.960474 162.545561 
L 114.01798 158.651675 
L 115.075487 156.999993 
L 116.132994 150.606528 
L 117.1905 155.730134 
L 118.248007 144.829149 
L 119.305514 127.936767 
L 120.36302 124.394643 
L 121.420527 113.175579 
L 122.478034 135.926434 
L 123.53554 140.328274 
L 124.593047 142.357304 
L 125.650554 130.476645 
L 126.70806 150.983604 
L 127.765567 153.075135 
L 128.823074 148.647138 
L 129.88058 150.487663 
L 130.938087 137.87265 
L 131.995594 149.024915 
L 133.0531 163.59098 
L 134.110607 186.320093 
L 135.168114 185.140717 
L 136.22562 185.669148 
L 137.283127 192.449562 
L 138.340634 192.289708 
L 139.39814 180.404218 
L 140.455647 185.778269 
L 141.513154 185.968209 
L 142.57066 180.153786 
L 143.628167 170.856952 
L 144.685674 179.112484 
L 145.74318 212.98403 
L 147.858194 212.392147 
L 148.9157 215.715346 
L 149.973207 295.488 
L 151.030714 276.158607 
L 152.08822 285.84661 
L 153.145727 281.518032 
L 154.203234 293.263983 
L 155.26074 285.729033 
L 156.318247 285.994874 
L 157.375754 265.956298 
L 158.43326 269.31568 
L 159.490767 269.282767 
L 160.548274 278.265211 
L 161.60578 265.290811 
L 162.663287 260.466995 
L 163.720794 262.645295 
L 164.7783 258.389554 
L 165.835807 266.366085 
L 166.893314 266.393511 
L 167.95082 274.225352 
L 169.008327 265.282697 
L 170.065834 264.414435 
L 171.12334 261.083862 
L 172.180847 256.657764 
L 173.238354 256.752365 
L 174.29586 254.246257 
L 175.353367 255.889124 
L 176.410874 235.468631 
L 177.46838 238.970753 
L 178.525887 231.621548 
L 179.583394 233.898123 
L 180.6409 246.772337 
L 181.698407 246.073725 
L 182.755914 245.716709 
L 183.81342 247.950395 
L 184.870927 247.750364 
L 185.928434 253.129098 
L 186.98594 239.142995 
L 188.043447 240.072677 
L 189.100954 229.665904 
L 190.15846 235.41554 
L 191.215967 243.328717 
L 192.273473 243.367872 
L 193.33098 234.39978 
L 194.388487 229.799938 
L 196.5035 222.766339 
L 197.561007 219.551578 
L 198.618513 218.846159 
L 199.67602 215.94883 
L 200.733527 197.384955 
L 201.791033 206.499639 
L 202.84854 200.754064 
L 203.906047 196.869774 
L 204.963553 200.917192 
L 206.02106 202.840081 
L 207.078567 203.108255 
L 208.136073 205.510936 
L 209.19358 193.063887 
L 210.251087 193.79785 
L 211.308593 196.056494 
L 212.3661 217.222317 
L 213.423607 220.762573 
L 214.481113 216.697452 
L 215.53862 207.762577 
L 216.596127 202.061882 
L 217.653633 210.683962 
L 218.71114 206.80736 
L 220.826153 197.225702 
L 221.88366 196.68078 
L 222.941167 200.89409 
L 223.998673 211.54692 
L 225.05618 206.204964 
L 226.113687 206.14809 
L 227.171193 213.740302 
L 228.2287 209.95795 
L 229.286207 212.173374 
L 230.343713 205.968843 
L 231.40122 196.673534 
L 232.458727 197.607859 
L 233.516233 183.314565 
L 234.57374 190.574003 
L 235.631247 175.83423 
L 236.688753 186.524582 
L 237.74626 181.539973 
L 238.803767 179.753081 
L 239.861273 182.883861 
L 240.91878 182.198257 
L 243.033793 179.537812 
L 244.0913 181.659239 
L 245.148807 179.019773 
L 246.206313 194.95806 
L 247.26382 190.01436 
L 248.321327 189.5706 
L 249.378833 194.275924 
L 250.43634 193.845045 
L 251.493847 191.635474 
L 252.551353 191.373918 
L 253.60886 193.654021 
L 254.666367 196.461168 
L 255.723873 195.816215 
L 256.78138 197.729777 
L 257.838887 186.699934 
L 258.896393 187.479587 
L 259.9539 194.980643 
L 261.011407 196.296355 
L 262.068913 198.433277 
L 263.12642 206.222466 
L 264.183927 202.70821 
L 265.241433 200.315907 
L 266.29894 202.12801 
L 267.356447 197.830392 
L 268.413953 201.389626 
L 269.47146 201.511694 
L 270.528967 198.363765 
L 271.586473 199.831178 
L 272.64398 187.798336 
L 273.701487 189.128273 
L 274.758993 178.846334 
L 275.8165 183.11832 
L 276.874007 184.484381 
L 277.931513 183.689971 
L 278.98902 181.917692 
L 280.046527 184.547396 
L 281.104033 183.288818 
L 282.16154 184.276678 
L 283.219046 187.742929 
L 284.276553 188.029435 
L 285.33406 186.491048 
L 286.391566 184.573347 
L 287.449073 188.535219 
L 288.50658 180.952559 
L 289.564086 171.552151 
L 290.621593 166.389569 
L 291.6791 166.744692 
L 292.736606 150.277409 
L 293.794113 146.77639 
L 294.85162 134.063068 
L 295.909126 131.449529 
L 296.966633 129.182101 
L 299.081646 113.31801 
L 300.139153 86.237677 
L 301.19666 104.466192 
L 302.254166 91.965469 
L 303.311673 91.854736 
L 304.36918 83.96259 
L 305.426686 84.106418 
L 306.484193 94.52038 
L 307.5417 87.106195 
L 308.599206 88.805811 
L 309.656713 82.303015 
L 310.71422 96.912152 
L 311.771726 91.796384 
L 312.829233 72.819428 
L 313.88674 67.523085 
L 314.944246 66.327085 
L 317.05926 58.081359 
L 318.116766 68.088721 
L 319.174273 81.006645 
L 320.23178 74.230509 
L 321.289286 94.404662 
L 322.346793 87.209684 
L 323.4043 90.151729 
L 324.461806 80.937776 
L 325.519313 98.892454 
L 326.57682 97.599986 
L 327.634326 104.88416 
L 328.691833 96.090738 
L 329.74934 93.179032 
L 330.806846 77.483418 
L 331.864353 75.092356 
L 332.92186 53.568 
L 333.979366 78.107626 
L 335.036873 119.932282 
L 336.09438 111.924795 
L 337.151886 140.222995 
L 338.209393 131.675938 
L 339.2669 130.902285 
L 340.324406 138.87753 
L 341.381913 132.760314 
L 342.43942 124.74103 
L 343.496926 122.176056 
L 344.554433 115.575807 
L 345.61194 126.913317 
L 346.669446 119.739221 
L 347.726953 124.394136 
L 348.78446 123.31831 
L 349.841966 113.336395 
L 350.899473 116.420491 
L 351.95698 114.454739 
L 353.014486 123.031415 
L 354.071993 143.266146 
L 355.1295 140.149638 
L 356.187006 154.696931 
L 357.244513 137.032053 
L 358.30202 132.992803 
L 359.359526 131.260694 
L 360.417033 129.196475 
L 361.47454 131.264003 
L 362.532046 127.669099 
L 363.589553 128.373653 
L 364.64706 132.603566 
L 365.704566 137.965517 
L 366.762073 137.857636 
L 367.81958 131.733418 
L 368.877086 130.161872 
L 369.934593 137.255869 
L 370.992099 135.907835 
L 372.049606 129.908821 
L 373.107113 121.4661 
L 374.164619 117.266429 
L 375.222126 114.295121 
L 376.279633 107.836867 
L 377.337139 110.273541 
L 378.394646 112.116297 
L 379.452153 113.288188 
L 380.509659 120.715138 
L 381.567166 119.32987 
L 382.624673 114.361231 
L 383.682179 110.885739 
L 384.739686 116.376668 
L 385.797193 97.776296 
L 386.854699 86.39913 
L 387.912206 88.413801 
L 388.969713 84.613382 
L 390.027219 88.308845 
L 391.084726 95.113451 
L 392.142233 86.245722 
L 393.199739 95.90267 
L 394.257246 97.292777 
L 395.314753 99.846121 
L 397.429766 92.724242 
L 398.487273 100.701225 
L 398.487273 100.701225 
" style="fill:none;stroke:#1f77b4;stroke-linecap:square;stroke-width:0.7;"/>
   </g>
   <g id="line2d_24">
    <path clip-path="url(#p96e957eb16)" d="M 73.832727 256.884312 
L 74.890234 256.319231 
L 75.947741 261.766836 
L 77.005247 253.401582 
L 78.062754 252.448986 
L 79.120261 251.920562 
L 80.177767 239.537551 
L 81.235274 237.748088 
L 83.350287 244.3599 
L 84.407794 234.415602 
L 85.465301 237.400691 
L 86.522807 232.954264 
L 87.580314 235.359921 
L 88.637821 209.286044 
L 89.695327 209.684241 
L 90.752834 212.39259 
L 91.810341 202.849439 
L 92.867847 203.547014 
L 93.925354 210.380845 
L 94.982861 210.241106 
L 96.040367 207.692961 
L 97.097874 208.555786 
L 98.155381 216.330839 
L 99.212887 216.982601 
L 100.270394 219.486995 
L 101.327901 210.887697 
L 102.385407 205.294638 
L 103.442914 196.85455 
L 104.50042 197.98885 
L 105.557927 187.012239 
L 106.615434 193.48162 
L 108.730447 186.453073 
L 109.787954 184.985733 
L 110.84546 185.326558 
L 111.902967 169.236438 
L 112.960474 163.170586 
L 114.01798 159.338167 
L 115.075487 157.658245 
L 116.132994 151.278564 
L 117.1905 156.442242 
L 118.248007 145.62148 
L 119.305514 129.14601 
L 120.36302 125.80712 
L 121.420527 114.844992 
L 122.478034 137.221799 
L 123.53554 141.444436 
L 124.593047 143.563583 
L 125.650554 131.731589 
L 126.70806 152.008493 
L 127.765567 154.046775 
L 128.823074 149.681351 
L 129.88058 151.469703 
L 130.938087 139.00877 
L 131.995594 150.032155 
L 133.0531 164.407144 
L 134.110607 186.879692 
L 135.168114 185.752041 
L 136.22562 186.313579 
L 137.283127 193.017649 
L 138.340634 192.867092 
L 139.39814 181.197836 
L 140.455647 186.388123 
L 141.513154 186.576907 
L 142.57066 180.636548 
L 143.628167 171.972339 
L 144.685674 180.155953 
L 145.74318 213.179011 
L 146.800687 213.159263 
L 147.858194 212.833529 
L 148.9157 215.823523 
L 149.973207 294.851745 
L 151.030714 276.104075 
L 152.08822 285.71457 
L 153.145727 281.264939 
L 154.203234 292.787701 
L 155.26074 285.138301 
L 156.318247 285.441042 
L 157.375754 265.394634 
L 158.43326 268.490378 
L 159.490767 268.522414 
L 160.548274 277.387193 
L 161.60578 264.338493 
L 162.663287 259.352848 
L 163.720794 261.445595 
L 164.7783 257.236412 
L 165.835807 265.237061 
L 166.893314 265.485851 
L 167.95082 273.417959 
L 169.008327 264.245924 
L 170.065834 263.395742 
L 171.12334 259.992299 
L 172.180847 255.544217 
L 173.238354 255.68808 
L 174.29586 253.150021 
L 175.353367 254.808166 
L 176.410874 234.472963 
L 177.46838 237.963305 
L 178.525887 230.665912 
L 179.583394 232.929667 
L 180.6409 245.816252 
L 181.698407 245.121676 
L 182.755914 244.749766 
L 183.81342 246.971399 
L 184.870927 246.773942 
L 185.928434 252.195238 
L 186.98594 238.213654 
L 188.043447 239.139032 
L 189.100954 228.797572 
L 190.15846 234.502798 
L 191.215967 242.434687 
L 192.273473 242.48357 
L 193.33098 233.517117 
L 194.388487 228.83296 
L 196.5035 221.833484 
L 197.561007 218.59181 
L 198.618513 217.842467 
L 199.67602 215.011269 
L 200.733527 196.184064 
L 201.791033 205.198773 
L 202.84854 199.474049 
L 203.906047 195.458245 
L 204.963553 199.497362 
L 206.02106 201.319948 
L 207.078567 201.46458 
L 208.136073 203.638321 
L 209.19358 191.007766 
L 210.251087 191.789588 
L 211.308593 194.176627 
L 212.3661 215.336931 
L 213.423607 218.964574 
L 214.481113 214.843966 
L 215.53862 205.90322 
L 216.596127 199.97933 
L 217.653633 208.665839 
L 218.71114 204.955878 
L 220.826153 195.60813 
L 221.88366 194.974207 
L 222.941167 199.250822 
L 223.998673 209.933476 
L 225.05618 204.744833 
L 226.113687 204.686677 
L 227.171193 212.469056 
L 228.2287 208.629697 
L 229.286207 210.801657 
L 230.343713 204.587768 
L 231.40122 195.40832 
L 232.458727 196.491101 
L 233.516233 182.752573 
L 234.57374 189.81205 
L 235.631247 175.131939 
L 236.688753 185.812419 
L 237.74626 180.979726 
L 238.803767 178.985524 
L 239.861273 182.104348 
L 240.91878 181.52777 
L 243.033793 179.01952 
L 244.0913 181.144936 
L 245.148807 178.591131 
L 246.206313 194.664545 
L 247.26382 189.749065 
L 248.321327 189.320493 
L 249.378833 193.920113 
L 250.43634 193.354464 
L 251.493847 191.3488 
L 252.551353 190.902341 
L 253.60886 193.212944 
L 254.666367 196.052316 
L 255.723873 195.325119 
L 256.78138 197.341359 
L 257.838887 186.70535 
L 258.896393 187.531674 
L 259.9539 194.967153 
L 261.011407 196.233796 
L 262.068913 198.277187 
L 263.12642 206.069497 
L 264.183927 202.602298 
L 265.241433 200.258762 
L 266.29894 202.018353 
L 267.356447 197.738142 
L 268.413953 201.260105 
L 269.47146 201.224269 
L 270.528967 198.107806 
L 271.586473 199.623087 
L 272.64398 187.549872 
L 273.701487 188.725168 
L 274.758993 177.896781 
L 275.8165 182.101329 
L 276.874007 183.587331 
L 277.931513 182.401242 
L 278.98902 180.719195 
L 280.046527 183.453373 
L 281.104033 182.083781 
L 282.16154 182.991915 
L 283.219046 186.363881 
L 284.276553 186.570056 
L 285.33406 185.150751 
L 286.391566 183.36238 
L 287.449073 187.582686 
L 288.50658 180.08069 
L 289.564086 171.557966 
L 290.621593 166.968603 
L 291.6791 167.926133 
L 292.736606 152.131307 
L 293.794113 148.925883 
L 294.85162 136.148905 
L 295.909126 132.59533 
L 296.966633 130.212777 
L 298.02414 123.606887 
L 299.081646 115.47399 
L 300.139153 90.208206 
L 301.19666 108.170764 
L 302.254166 95.330591 
L 303.311673 94.966091 
L 304.36918 87.69612 
L 305.426686 86.29802 
L 306.484193 96.02796 
L 307.5417 85.900987 
L 308.599206 86.146637 
L 309.656713 80.448714 
L 310.71422 94.770452 
L 311.771726 85.546566 
L 312.829233 69.645191 
L 313.88674 65.846386 
L 314.944246 61.061388 
L 316.001753 57.667697 
L 317.05926 55.881712 
L 318.116766 66.282214 
L 319.174273 77.916635 
L 320.23178 72.084988 
L 321.289286 92.876555 
L 322.346793 83.443484 
L 323.4043 86.90684 
L 324.461806 79.097916 
L 325.519313 96.612389 
L 326.57682 94.255013 
L 327.634326 102.572041 
L 328.691833 93.860253 
L 329.74934 89.633363 
L 330.806846 76.494302 
L 331.864353 76.527122 
L 332.92186 60.230612 
L 333.979366 82.85306 
L 335.036873 126.268486 
L 336.09438 117.923188 
L 337.151886 144.195586 
L 338.209393 133.55056 
L 339.2669 133.648927 
L 340.324406 142.659141 
L 342.43942 129.618557 
L 343.496926 127.901599 
L 344.554433 120.901681 
L 345.61194 129.57851 
L 346.669446 122.679005 
L 347.726953 127.114808 
L 348.78446 125.923737 
L 349.841966 118.11794 
L 350.899473 122.005099 
L 351.95698 120.590271 
L 353.014486 128.725169 
L 354.071993 148.601411 
L 355.1295 145.432044 
L 356.187006 159.413831 
L 357.244513 140.648373 
L 358.30202 136.316309 
L 359.359526 135.474992 
L 360.417033 133.043364 
L 361.47454 135.241797 
L 362.532046 131.96718 
L 363.589553 133.556262 
L 364.64706 137.37101 
L 365.704566 143.333347 
L 366.762073 143.653467 
L 367.81958 137.245431 
L 368.877086 135.437586 
L 369.934593 143.517229 
L 370.992099 141.574628 
L 372.049606 134.691247 
L 373.107113 126.280254 
L 374.164619 122.409932 
L 375.222126 119.291926 
L 376.279633 113.16095 
L 377.337139 115.672613 
L 378.394646 117.47698 
L 379.452153 118.946308 
L 380.509659 126.445594 
L 381.567166 125.257448 
L 382.624673 120.23433 
L 383.682179 117.289412 
L 384.739686 122.901604 
L 385.797193 103.858187 
L 386.854699 92.944107 
L 387.912206 94.05819 
L 388.969713 89.375021 
L 390.027219 93.244685 
L 391.084726 97.990344 
L 392.142233 89.285805 
L 393.199739 99.323149 
L 395.314753 103.521381 
L 396.372259 99.628498 
L 397.429766 96.406561 
L 398.487273 105.04261 
L 398.487273 105.04261 
" style="fill:none;stroke:#ff7f0e;stroke-linecap:square;stroke-width:0.7;"/>
   </g>
   <g id="patch_3">
    <path d="M 57.6 307.584 
L 57.6 41.472 
" style="fill:none;stroke:#000000;stroke-linecap:square;stroke-linejoin:miter;stroke-width:0.8;"/>
   </g>
   <g id="patch_4">
    <path d="M 414.72 307.584 
L 414.72 41.472 
" style="fill:none;stroke:#000000;stroke-linecap:square;stroke-linejoin:miter;stroke-width:0.8;"/>
   </g>
   <g id="patch_5">
    <path d="M 57.6 307.584 
L 414.72 307.584 
" style="fill:none;stroke:#000000;stroke-linecap:square;stroke-linejoin:miter;stroke-width:0.8;"/>
   </g>
   <g id="patch_6">
    <path d="M 57.6 41.472 
L 414.72 41.472 
" style="fill:none;stroke:#000000;stroke-linecap:square;stroke-linejoin:miter;stroke-width:0.8;"/>
   </g>
   <g id="text_14">
    <!-- BCI10 2020-01-01 - 2020-11-03 -->
    <g transform="translate(140.929688 35.472)scale(0.12 -0.12)">
     <defs>
      <path d="M 19.671875 34.8125 
L 19.671875 8.109375 
L 35.5 8.109375 
Q 43.453125 8.109375 47.28125 11.40625 
Q 51.125 14.703125 51.125 21.484375 
Q 51.125 28.328125 47.28125 31.5625 
Q 43.453125 34.8125 35.5 34.8125 
z
M 19.671875 64.796875 
L 19.671875 42.828125 
L 34.28125 42.828125 
Q 41.5 42.828125 45.03125 45.53125 
Q 48.578125 48.25 48.578125 53.8125 
Q 48.578125 59.328125 45.03125 62.0625 
Q 41.5 64.796875 34.28125 64.796875 
z
M 9.8125 72.90625 
L 35.015625 72.90625 
Q 46.296875 72.90625 52.390625 68.21875 
Q 58.5 63.53125 58.5 54.890625 
Q 58.5 48.1875 55.375 44.234375 
Q 52.25 40.28125 46.1875 39.3125 
Q 53.46875 37.75 57.5 32.78125 
Q 61.53125 27.828125 61.53125 20.40625 
Q 61.53125 10.640625 54.890625 5.3125 
Q 48.25 0 35.984375 0 
L 9.8125 0 
z
" id="DejaVuSans-66"/>
      <path d="M 64.40625 67.28125 
L 64.40625 56.890625 
Q 59.421875 61.53125 53.78125 63.8125 
Q 48.140625 66.109375 41.796875 66.109375 
Q 29.296875 66.109375 22.65625 58.46875 
Q 16.015625 50.828125 16.015625 36.375 
Q 16.015625 21.96875 22.65625 14.328125 
Q 29.296875 6.6875 41.796875 6.6875 
Q 48.140625 6.6875 53.78125 8.984375 
Q 59.421875 11.28125 64.40625 15.921875 
L 64.40625 5.609375 
Q 59.234375 2.09375 53.4375 0.328125 
Q 47.65625 -1.421875 41.21875 -1.421875 
Q 24.65625 -1.421875 15.125 8.703125 
Q 5.609375 18.84375 5.609375 36.375 
Q 5.609375 53.953125 15.125 64.078125 
Q 24.65625 74.21875 41.21875 74.21875 
Q 47.75 74.21875 53.53125 72.484375 
Q 59.328125 70.75 64.40625 67.28125 
z
" id="DejaVuSans-67"/>
      <path d="M 9.8125 72.90625 
L 19.671875 72.90625 
L 19.671875 0 
L 9.8125 0 
z
" id="DejaVuSans-73"/>
     </defs>
     <use xlink:href="#DejaVuSans-66"/>
     <use x="66.853516" xlink:href="#DejaVuSans-67"/>
     <use x="136.677734" xlink:href="#DejaVuSans-73"/>
     <use x="166.169922" xlink:href="#DejaVuSans-49"/>
     <use x="229.792969" xlink:href="#DejaVuSans-48"/>
     <use x="293.416016" xlink:href="#DejaVuSans-32"/>
     <use x="325.203125" xlink:href="#DejaVuSans-50"/>
     <use x="388.826172" xlink:href="#DejaVuSans-48"/>
     <use x="452.449219" xlink:href="#DejaVuSans-50"/>
     <use x="516.072266" xlink:href="#DejaVuSans-48"/>
     <use x="579.695312" xlink:href="#DejaVuSans-45"/>
     <use x="615.779297" xlink:href="#DejaVuSans-48"/>
     <use x="679.402344" xlink:href="#DejaVuSans-49"/>
     <use x="743.025391" xlink:href="#DejaVuSans-45"/>
     <use x="779.109375" xlink:href="#DejaVuSans-48"/>
     <use x="842.732422" xlink:href="#DejaVuSans-49"/>
     <use x="906.355469" xlink:href="#DejaVuSans-32"/>
     <use x="938.142578" xlink:href="#DejaVuSans-45"/>
     <use x="974.226562" xlink:href="#DejaVuSans-32"/>
     <use x="1006.013672" xlink:href="#DejaVuSans-50"/>
     <use x="1069.636719" xlink:href="#DejaVuSans-48"/>
     <use x="1133.259766" xlink:href="#DejaVuSans-50"/>
     <use x="1196.882812" xlink:href="#DejaVuSans-48"/>
     <use x="1260.505859" xlink:href="#DejaVuSans-45"/>
     <use x="1296.589844" xlink:href="#DejaVuSans-49"/>
     <use x="1360.212891" xlink:href="#DejaVuSans-49"/>
     <use x="1423.835938" xlink:href="#DejaVuSans-45"/>
     <use x="1459.919922" xlink:href="#DejaVuSans-48"/>
     <use x="1523.542969" xlink:href="#DejaVuSans-51"/>
    </g>
   </g>
   <g id="legend_1">
    <g id="patch_7">
     <path d="M 64.6 78.82825 
L 138.485938 78.82825 
Q 140.485938 78.82825 140.485938 76.82825 
L 140.485938 48.472 
Q 140.485938 46.472 138.485938 46.472 
L 64.6 46.472 
Q 62.6 46.472 62.6 48.472 
L 62.6 76.82825 
Q 62.6 78.82825 64.6 78.82825 
z
" style="fill:#ffffff;opacity:0.8;stroke:#cccccc;stroke-linejoin:miter;"/>
    </g>
    <g id="line2d_25">
     <path d="M 66.6 54.570437 
L 86.6 54.570437 
" style="fill:none;stroke:#1f77b4;stroke-linecap:square;stroke-width:0.7;"/>
    </g>
    <g id="line2d_26"/>
    <g id="text_15">
     <!-- baseline -->
     <g transform="translate(94.6 58.070437)scale(0.1 -0.1)">
      <defs>
       <path d="M 48.6875 27.296875 
Q 48.6875 37.203125 44.609375 42.84375 
Q 40.53125 48.484375 33.40625 48.484375 
Q 26.265625 48.484375 22.1875 42.84375 
Q 18.109375 37.203125 18.109375 27.296875 
Q 18.109375 17.390625 22.1875 11.75 
Q 26.265625 6.109375 33.40625 6.109375 
Q 40.53125 6.109375 44.609375 11.75 
Q 48.6875 17.390625 48.6875 27.296875 
z
M 18.109375 46.390625 
Q 20.953125 51.265625 25.265625 53.625 
Q 29.59375 56 35.59375 56 
Q 45.5625 56 51.78125 48.09375 
Q 58.015625 40.1875 58.015625 27.296875 
Q 58.015625 14.40625 51.78125 6.484375 
Q 45.5625 -1.421875 35.59375 -1.421875 
Q 29.59375 -1.421875 25.265625 0.953125 
Q 20.953125 3.328125 18.109375 8.203125 
L 18.109375 0 
L 9.078125 0 
L 9.078125 75.984375 
L 18.109375 75.984375 
z
" id="DejaVuSans-98"/>
       <path d="M 44.28125 53.078125 
L 44.28125 44.578125 
Q 40.484375 46.53125 36.375 47.5 
Q 32.28125 48.484375 27.875 48.484375 
Q 21.1875 48.484375 17.84375 46.4375 
Q 14.5 44.390625 14.5 40.28125 
Q 14.5 37.15625 16.890625 35.375 
Q 19.28125 33.59375 26.515625 31.984375 
L 29.59375 31.296875 
Q 39.15625 29.25 43.1875 25.515625 
Q 47.21875 21.78125 47.21875 15.09375 
Q 47.21875 7.46875 41.1875 3.015625 
Q 35.15625 -1.421875 24.609375 -1.421875 
Q 20.21875 -1.421875 15.453125 -0.5625 
Q 10.6875 0.296875 5.421875 2 
L 5.421875 11.28125 
Q 10.40625 8.6875 15.234375 7.390625 
Q 20.0625 6.109375 24.8125 6.109375 
Q 31.15625 6.109375 34.5625 8.28125 
Q 37.984375 10.453125 37.984375 14.40625 
Q 37.984375 18.0625 35.515625 20.015625 
Q 33.0625 21.96875 24.703125 23.78125 
L 21.578125 24.515625 
Q 13.234375 26.265625 9.515625 29.90625 
Q 5.8125 33.546875 5.8125 39.890625 
Q 5.8125 47.609375 11.28125 51.796875 
Q 16.75 56 26.8125 56 
Q 31.78125 56 36.171875 55.265625 
Q 40.578125 54.546875 44.28125 53.078125 
z
" id="DejaVuSans-115"/>
       <path d="M 9.421875 54.6875 
L 18.40625 54.6875 
L 18.40625 0 
L 9.421875 0 
z
M 9.421875 75.984375 
L 18.40625 75.984375 
L 18.40625 64.59375 
L 9.421875 64.59375 
z
" id="DejaVuSans-105"/>
       <path d="M 54.890625 33.015625 
L 54.890625 0 
L 45.90625 0 
L 45.90625 32.71875 
Q 45.90625 40.484375 42.875 44.328125 
Q 39.84375 48.1875 33.796875 48.1875 
Q 26.515625 48.1875 22.3125 43.546875 
Q 18.109375 38.921875 18.109375 30.90625 
L 18.109375 0 
L 9.078125 0 
L 9.078125 54.6875 
L 18.109375 54.6875 
L 18.109375 46.1875 
Q 21.34375 51.125 25.703125 53.5625 
Q 30.078125 56 35.796875 56 
Q 45.21875 56 50.046875 50.171875 
Q 54.890625 44.34375 54.890625 33.015625 
z
" id="DejaVuSans-110"/>
      </defs>
      <use xlink:href="#DejaVuSans-98"/>
      <use x="63.476562" xlink:href="#DejaVuSans-97"/>
      <use x="124.755859" xlink:href="#DejaVuSans-115"/>
      <use x="176.855469" xlink:href="#DejaVuSans-101"/>
      <use x="238.378906" xlink:href="#DejaVuSans-108"/>
      <use x="266.162109" xlink:href="#DejaVuSans-105"/>
      <use x="293.945312" xlink:href="#DejaVuSans-110"/>
      <use x="357.324219" xlink:href="#DejaVuSans-101"/>
     </g>
    </g>
    <g id="line2d_27">
     <path d="M 66.6 69.248562 
L 86.6 69.248562 
" style="fill:none;stroke:#ff7f0e;stroke-linecap:square;stroke-width:0.7;"/>
    </g>
    <g id="line2d_28"/>
    <g id="text_16">
     <!-- BCI10 -->
     <g transform="translate(94.6 72.748562)scale(0.1 -0.1)">
      <use xlink:href="#DejaVuSans-66"/>
      <use x="66.853516" xlink:href="#DejaVuSans-67"/>
      <use x="136.677734" xlink:href="#DejaVuSans-73"/>
      <use x="166.169922" xlink:href="#DejaVuSans-49"/>
      <use x="229.792969" xlink:href="#DejaVuSans-48"/>
     </g>
    </g>
   </g>
  </g>
 </g>
 <defs>
  <clipPath id="p96e957eb16">
   <rect height="266.112" width="357.12" x="57.6" y="41.472"/>
  </clipPath>
 </defs>
</svg>
